%TF.GenerationSoftware,KiCad,Pcbnew,8.0.8*%
%TF.CreationDate,2025-02-19T12:15:52-05:00*%
%TF.ProjectId,capstone_pcb,63617073-746f-46e6-955f-7063622e6b69,rev?*%
%TF.SameCoordinates,Original*%
%TF.FileFunction,Drillmap*%
%TF.FilePolarity,Positive*%
%FSLAX45Y45*%
G04 Gerber Fmt 4.5, Leading zero omitted, Abs format (unit mm)*
G04 Created by KiCad (PCBNEW 8.0.8) date 2025-02-19 12:15:52*
%MOMM*%
%LPD*%
G01*
G04 APERTURE LIST*
%ADD10C,0.050000*%
%ADD11C,0.200000*%
%ADD12C,0.300000*%
G04 APERTURE END LIST*
D10*
X9850000Y-3400000D02*
X20950000Y-3400000D01*
X20950000Y-17350000D01*
X9850000Y-17350000D01*
X9850000Y-3400000D01*
D11*
D12*
X11407000Y-6728000D02*
X11707000Y-7028000D01*
X11707000Y-6728000D02*
X11407000Y-7028000D01*
X14709000Y-11935000D02*
X15009000Y-12235000D01*
X15009000Y-11935000D02*
X14709000Y-12235000D01*
X16233000Y-6855000D02*
X16533000Y-7155000D01*
X16533000Y-6855000D02*
X16233000Y-7155000D01*
D11*
X10108277Y-17663984D02*
X10108277Y-17463984D01*
X10108277Y-17463984D02*
X10155896Y-17463984D01*
X10155896Y-17463984D02*
X10184467Y-17473508D01*
X10184467Y-17473508D02*
X10203515Y-17492555D01*
X10203515Y-17492555D02*
X10213039Y-17511603D01*
X10213039Y-17511603D02*
X10222563Y-17549698D01*
X10222563Y-17549698D02*
X10222563Y-17578270D01*
X10222563Y-17578270D02*
X10213039Y-17616365D01*
X10213039Y-17616365D02*
X10203515Y-17635412D01*
X10203515Y-17635412D02*
X10184467Y-17654460D01*
X10184467Y-17654460D02*
X10155896Y-17663984D01*
X10155896Y-17663984D02*
X10108277Y-17663984D01*
X10308277Y-17663984D02*
X10308277Y-17530650D01*
X10308277Y-17568746D02*
X10317801Y-17549698D01*
X10317801Y-17549698D02*
X10327324Y-17540174D01*
X10327324Y-17540174D02*
X10346372Y-17530650D01*
X10346372Y-17530650D02*
X10365420Y-17530650D01*
X10432086Y-17663984D02*
X10432086Y-17530650D01*
X10432086Y-17463984D02*
X10422563Y-17473508D01*
X10422563Y-17473508D02*
X10432086Y-17483031D01*
X10432086Y-17483031D02*
X10441610Y-17473508D01*
X10441610Y-17473508D02*
X10432086Y-17463984D01*
X10432086Y-17463984D02*
X10432086Y-17483031D01*
X10555896Y-17663984D02*
X10536848Y-17654460D01*
X10536848Y-17654460D02*
X10527324Y-17635412D01*
X10527324Y-17635412D02*
X10527324Y-17463984D01*
X10660658Y-17663984D02*
X10641610Y-17654460D01*
X10641610Y-17654460D02*
X10632086Y-17635412D01*
X10632086Y-17635412D02*
X10632086Y-17463984D01*
X10889229Y-17663984D02*
X10889229Y-17463984D01*
X10889229Y-17463984D02*
X10955896Y-17606841D01*
X10955896Y-17606841D02*
X11022563Y-17463984D01*
X11022563Y-17463984D02*
X11022563Y-17663984D01*
X11203515Y-17663984D02*
X11203515Y-17559222D01*
X11203515Y-17559222D02*
X11193991Y-17540174D01*
X11193991Y-17540174D02*
X11174944Y-17530650D01*
X11174944Y-17530650D02*
X11136848Y-17530650D01*
X11136848Y-17530650D02*
X11117801Y-17540174D01*
X11203515Y-17654460D02*
X11184467Y-17663984D01*
X11184467Y-17663984D02*
X11136848Y-17663984D01*
X11136848Y-17663984D02*
X11117801Y-17654460D01*
X11117801Y-17654460D02*
X11108277Y-17635412D01*
X11108277Y-17635412D02*
X11108277Y-17616365D01*
X11108277Y-17616365D02*
X11117801Y-17597317D01*
X11117801Y-17597317D02*
X11136848Y-17587793D01*
X11136848Y-17587793D02*
X11184467Y-17587793D01*
X11184467Y-17587793D02*
X11203515Y-17578270D01*
X11298753Y-17530650D02*
X11298753Y-17730650D01*
X11298753Y-17540174D02*
X11317801Y-17530650D01*
X11317801Y-17530650D02*
X11355896Y-17530650D01*
X11355896Y-17530650D02*
X11374943Y-17540174D01*
X11374943Y-17540174D02*
X11384467Y-17549698D01*
X11384467Y-17549698D02*
X11393991Y-17568746D01*
X11393991Y-17568746D02*
X11393991Y-17625889D01*
X11393991Y-17625889D02*
X11384467Y-17644936D01*
X11384467Y-17644936D02*
X11374943Y-17654460D01*
X11374943Y-17654460D02*
X11355896Y-17663984D01*
X11355896Y-17663984D02*
X11317801Y-17663984D01*
X11317801Y-17663984D02*
X11298753Y-17654460D01*
X11479705Y-17644936D02*
X11489229Y-17654460D01*
X11489229Y-17654460D02*
X11479705Y-17663984D01*
X11479705Y-17663984D02*
X11470182Y-17654460D01*
X11470182Y-17654460D02*
X11479705Y-17644936D01*
X11479705Y-17644936D02*
X11479705Y-17663984D01*
X11479705Y-17540174D02*
X11489229Y-17549698D01*
X11489229Y-17549698D02*
X11479705Y-17559222D01*
X11479705Y-17559222D02*
X11470182Y-17549698D01*
X11470182Y-17549698D02*
X11479705Y-17540174D01*
X11479705Y-17540174D02*
X11479705Y-17559222D01*
X9647500Y-17892500D02*
X9847500Y-18092500D01*
X9847500Y-17892500D02*
X9647500Y-18092500D01*
X10089229Y-17883984D02*
X10213039Y-17883984D01*
X10213039Y-17883984D02*
X10146372Y-17960174D01*
X10146372Y-17960174D02*
X10174944Y-17960174D01*
X10174944Y-17960174D02*
X10193991Y-17969698D01*
X10193991Y-17969698D02*
X10203515Y-17979222D01*
X10203515Y-17979222D02*
X10213039Y-17998270D01*
X10213039Y-17998270D02*
X10213039Y-18045889D01*
X10213039Y-18045889D02*
X10203515Y-18064936D01*
X10203515Y-18064936D02*
X10193991Y-18074460D01*
X10193991Y-18074460D02*
X10174944Y-18083984D01*
X10174944Y-18083984D02*
X10117801Y-18083984D01*
X10117801Y-18083984D02*
X10098753Y-18074460D01*
X10098753Y-18074460D02*
X10089229Y-18064936D01*
X10298753Y-18064936D02*
X10308277Y-18074460D01*
X10308277Y-18074460D02*
X10298753Y-18083984D01*
X10298753Y-18083984D02*
X10289229Y-18074460D01*
X10289229Y-18074460D02*
X10298753Y-18064936D01*
X10298753Y-18064936D02*
X10298753Y-18083984D01*
X10432086Y-17883984D02*
X10451134Y-17883984D01*
X10451134Y-17883984D02*
X10470182Y-17893508D01*
X10470182Y-17893508D02*
X10479705Y-17903031D01*
X10479705Y-17903031D02*
X10489229Y-17922079D01*
X10489229Y-17922079D02*
X10498753Y-17960174D01*
X10498753Y-17960174D02*
X10498753Y-18007793D01*
X10498753Y-18007793D02*
X10489229Y-18045889D01*
X10489229Y-18045889D02*
X10479705Y-18064936D01*
X10479705Y-18064936D02*
X10470182Y-18074460D01*
X10470182Y-18074460D02*
X10451134Y-18083984D01*
X10451134Y-18083984D02*
X10432086Y-18083984D01*
X10432086Y-18083984D02*
X10413039Y-18074460D01*
X10413039Y-18074460D02*
X10403515Y-18064936D01*
X10403515Y-18064936D02*
X10393991Y-18045889D01*
X10393991Y-18045889D02*
X10384467Y-18007793D01*
X10384467Y-18007793D02*
X10384467Y-17960174D01*
X10384467Y-17960174D02*
X10393991Y-17922079D01*
X10393991Y-17922079D02*
X10403515Y-17903031D01*
X10403515Y-17903031D02*
X10413039Y-17893508D01*
X10413039Y-17893508D02*
X10432086Y-17883984D01*
X10622563Y-17883984D02*
X10641610Y-17883984D01*
X10641610Y-17883984D02*
X10660658Y-17893508D01*
X10660658Y-17893508D02*
X10670182Y-17903031D01*
X10670182Y-17903031D02*
X10679705Y-17922079D01*
X10679705Y-17922079D02*
X10689229Y-17960174D01*
X10689229Y-17960174D02*
X10689229Y-18007793D01*
X10689229Y-18007793D02*
X10679705Y-18045889D01*
X10679705Y-18045889D02*
X10670182Y-18064936D01*
X10670182Y-18064936D02*
X10660658Y-18074460D01*
X10660658Y-18074460D02*
X10641610Y-18083984D01*
X10641610Y-18083984D02*
X10622563Y-18083984D01*
X10622563Y-18083984D02*
X10603515Y-18074460D01*
X10603515Y-18074460D02*
X10593991Y-18064936D01*
X10593991Y-18064936D02*
X10584467Y-18045889D01*
X10584467Y-18045889D02*
X10574944Y-18007793D01*
X10574944Y-18007793D02*
X10574944Y-17960174D01*
X10574944Y-17960174D02*
X10584467Y-17922079D01*
X10584467Y-17922079D02*
X10593991Y-17903031D01*
X10593991Y-17903031D02*
X10603515Y-17893508D01*
X10603515Y-17893508D02*
X10622563Y-17883984D01*
X10813039Y-17883984D02*
X10832086Y-17883984D01*
X10832086Y-17883984D02*
X10851134Y-17893508D01*
X10851134Y-17893508D02*
X10860658Y-17903031D01*
X10860658Y-17903031D02*
X10870182Y-17922079D01*
X10870182Y-17922079D02*
X10879705Y-17960174D01*
X10879705Y-17960174D02*
X10879705Y-18007793D01*
X10879705Y-18007793D02*
X10870182Y-18045889D01*
X10870182Y-18045889D02*
X10860658Y-18064936D01*
X10860658Y-18064936D02*
X10851134Y-18074460D01*
X10851134Y-18074460D02*
X10832086Y-18083984D01*
X10832086Y-18083984D02*
X10813039Y-18083984D01*
X10813039Y-18083984D02*
X10793991Y-18074460D01*
X10793991Y-18074460D02*
X10784467Y-18064936D01*
X10784467Y-18064936D02*
X10774944Y-18045889D01*
X10774944Y-18045889D02*
X10765420Y-18007793D01*
X10765420Y-18007793D02*
X10765420Y-17960174D01*
X10765420Y-17960174D02*
X10774944Y-17922079D01*
X10774944Y-17922079D02*
X10784467Y-17903031D01*
X10784467Y-17903031D02*
X10793991Y-17893508D01*
X10793991Y-17893508D02*
X10813039Y-17883984D01*
X10965420Y-18083984D02*
X10965420Y-17950650D01*
X10965420Y-17969698D02*
X10974944Y-17960174D01*
X10974944Y-17960174D02*
X10993991Y-17950650D01*
X10993991Y-17950650D02*
X11022563Y-17950650D01*
X11022563Y-17950650D02*
X11041610Y-17960174D01*
X11041610Y-17960174D02*
X11051134Y-17979222D01*
X11051134Y-17979222D02*
X11051134Y-18083984D01*
X11051134Y-17979222D02*
X11060658Y-17960174D01*
X11060658Y-17960174D02*
X11079705Y-17950650D01*
X11079705Y-17950650D02*
X11108277Y-17950650D01*
X11108277Y-17950650D02*
X11127325Y-17960174D01*
X11127325Y-17960174D02*
X11136848Y-17979222D01*
X11136848Y-17979222D02*
X11136848Y-18083984D01*
X11232086Y-18083984D02*
X11232086Y-17950650D01*
X11232086Y-17969698D02*
X11241610Y-17960174D01*
X11241610Y-17960174D02*
X11260658Y-17950650D01*
X11260658Y-17950650D02*
X11289229Y-17950650D01*
X11289229Y-17950650D02*
X11308277Y-17960174D01*
X11308277Y-17960174D02*
X11317801Y-17979222D01*
X11317801Y-17979222D02*
X11317801Y-18083984D01*
X11317801Y-17979222D02*
X11327324Y-17960174D01*
X11327324Y-17960174D02*
X11346372Y-17950650D01*
X11346372Y-17950650D02*
X11374943Y-17950650D01*
X11374943Y-17950650D02*
X11393991Y-17960174D01*
X11393991Y-17960174D02*
X11403515Y-17979222D01*
X11403515Y-17979222D02*
X11403515Y-18083984D01*
X11793991Y-17874460D02*
X11622563Y-18131603D01*
X12051134Y-17883984D02*
X12070182Y-17883984D01*
X12070182Y-17883984D02*
X12089229Y-17893508D01*
X12089229Y-17893508D02*
X12098753Y-17903031D01*
X12098753Y-17903031D02*
X12108277Y-17922079D01*
X12108277Y-17922079D02*
X12117801Y-17960174D01*
X12117801Y-17960174D02*
X12117801Y-18007793D01*
X12117801Y-18007793D02*
X12108277Y-18045889D01*
X12108277Y-18045889D02*
X12098753Y-18064936D01*
X12098753Y-18064936D02*
X12089229Y-18074460D01*
X12089229Y-18074460D02*
X12070182Y-18083984D01*
X12070182Y-18083984D02*
X12051134Y-18083984D01*
X12051134Y-18083984D02*
X12032086Y-18074460D01*
X12032086Y-18074460D02*
X12022563Y-18064936D01*
X12022563Y-18064936D02*
X12013039Y-18045889D01*
X12013039Y-18045889D02*
X12003515Y-18007793D01*
X12003515Y-18007793D02*
X12003515Y-17960174D01*
X12003515Y-17960174D02*
X12013039Y-17922079D01*
X12013039Y-17922079D02*
X12022563Y-17903031D01*
X12022563Y-17903031D02*
X12032086Y-17893508D01*
X12032086Y-17893508D02*
X12051134Y-17883984D01*
X12203515Y-18064936D02*
X12213039Y-18074460D01*
X12213039Y-18074460D02*
X12203515Y-18083984D01*
X12203515Y-18083984D02*
X12193991Y-18074460D01*
X12193991Y-18074460D02*
X12203515Y-18064936D01*
X12203515Y-18064936D02*
X12203515Y-18083984D01*
X12403515Y-18083984D02*
X12289229Y-18083984D01*
X12346372Y-18083984D02*
X12346372Y-17883984D01*
X12346372Y-17883984D02*
X12327325Y-17912555D01*
X12327325Y-17912555D02*
X12308277Y-17931603D01*
X12308277Y-17931603D02*
X12289229Y-17941127D01*
X12593991Y-18083984D02*
X12479706Y-18083984D01*
X12536848Y-18083984D02*
X12536848Y-17883984D01*
X12536848Y-17883984D02*
X12517801Y-17912555D01*
X12517801Y-17912555D02*
X12498753Y-17931603D01*
X12498753Y-17931603D02*
X12479706Y-17941127D01*
X12708277Y-17969698D02*
X12689229Y-17960174D01*
X12689229Y-17960174D02*
X12679706Y-17950650D01*
X12679706Y-17950650D02*
X12670182Y-17931603D01*
X12670182Y-17931603D02*
X12670182Y-17922079D01*
X12670182Y-17922079D02*
X12679706Y-17903031D01*
X12679706Y-17903031D02*
X12689229Y-17893508D01*
X12689229Y-17893508D02*
X12708277Y-17883984D01*
X12708277Y-17883984D02*
X12746372Y-17883984D01*
X12746372Y-17883984D02*
X12765420Y-17893508D01*
X12765420Y-17893508D02*
X12774944Y-17903031D01*
X12774944Y-17903031D02*
X12784467Y-17922079D01*
X12784467Y-17922079D02*
X12784467Y-17931603D01*
X12784467Y-17931603D02*
X12774944Y-17950650D01*
X12774944Y-17950650D02*
X12765420Y-17960174D01*
X12765420Y-17960174D02*
X12746372Y-17969698D01*
X12746372Y-17969698D02*
X12708277Y-17969698D01*
X12708277Y-17969698D02*
X12689229Y-17979222D01*
X12689229Y-17979222D02*
X12679706Y-17988746D01*
X12679706Y-17988746D02*
X12670182Y-18007793D01*
X12670182Y-18007793D02*
X12670182Y-18045889D01*
X12670182Y-18045889D02*
X12679706Y-18064936D01*
X12679706Y-18064936D02*
X12689229Y-18074460D01*
X12689229Y-18074460D02*
X12708277Y-18083984D01*
X12708277Y-18083984D02*
X12746372Y-18083984D01*
X12746372Y-18083984D02*
X12765420Y-18074460D01*
X12765420Y-18074460D02*
X12774944Y-18064936D01*
X12774944Y-18064936D02*
X12784467Y-18045889D01*
X12784467Y-18045889D02*
X12784467Y-18007793D01*
X12784467Y-18007793D02*
X12774944Y-17988746D01*
X12774944Y-17988746D02*
X12765420Y-17979222D01*
X12765420Y-17979222D02*
X12746372Y-17969698D01*
X12974944Y-18083984D02*
X12860658Y-18083984D01*
X12917801Y-18083984D02*
X12917801Y-17883984D01*
X12917801Y-17883984D02*
X12898753Y-17912555D01*
X12898753Y-17912555D02*
X12879706Y-17931603D01*
X12879706Y-17931603D02*
X12860658Y-17941127D01*
X13051134Y-17883984D02*
X13051134Y-17922079D01*
X13127325Y-17883984D02*
X13127325Y-17922079D01*
X13422563Y-18160174D02*
X13413039Y-18150650D01*
X13413039Y-18150650D02*
X13393991Y-18122079D01*
X13393991Y-18122079D02*
X13384468Y-18103031D01*
X13384468Y-18103031D02*
X13374944Y-18074460D01*
X13374944Y-18074460D02*
X13365420Y-18026841D01*
X13365420Y-18026841D02*
X13365420Y-17988746D01*
X13365420Y-17988746D02*
X13374944Y-17941127D01*
X13374944Y-17941127D02*
X13384468Y-17912555D01*
X13384468Y-17912555D02*
X13393991Y-17893508D01*
X13393991Y-17893508D02*
X13413039Y-17864936D01*
X13413039Y-17864936D02*
X13422563Y-17855412D01*
X13479706Y-17883984D02*
X13603515Y-17883984D01*
X13603515Y-17883984D02*
X13536848Y-17960174D01*
X13536848Y-17960174D02*
X13565420Y-17960174D01*
X13565420Y-17960174D02*
X13584468Y-17969698D01*
X13584468Y-17969698D02*
X13593991Y-17979222D01*
X13593991Y-17979222D02*
X13603515Y-17998270D01*
X13603515Y-17998270D02*
X13603515Y-18045889D01*
X13603515Y-18045889D02*
X13593991Y-18064936D01*
X13593991Y-18064936D02*
X13584468Y-18074460D01*
X13584468Y-18074460D02*
X13565420Y-18083984D01*
X13565420Y-18083984D02*
X13508277Y-18083984D01*
X13508277Y-18083984D02*
X13489229Y-18074460D01*
X13489229Y-18074460D02*
X13479706Y-18064936D01*
X13841610Y-18083984D02*
X13841610Y-17883984D01*
X13927325Y-18083984D02*
X13927325Y-17979222D01*
X13927325Y-17979222D02*
X13917801Y-17960174D01*
X13917801Y-17960174D02*
X13898753Y-17950650D01*
X13898753Y-17950650D02*
X13870182Y-17950650D01*
X13870182Y-17950650D02*
X13851134Y-17960174D01*
X13851134Y-17960174D02*
X13841610Y-17969698D01*
X14051134Y-18083984D02*
X14032087Y-18074460D01*
X14032087Y-18074460D02*
X14022563Y-18064936D01*
X14022563Y-18064936D02*
X14013039Y-18045889D01*
X14013039Y-18045889D02*
X14013039Y-17988746D01*
X14013039Y-17988746D02*
X14022563Y-17969698D01*
X14022563Y-17969698D02*
X14032087Y-17960174D01*
X14032087Y-17960174D02*
X14051134Y-17950650D01*
X14051134Y-17950650D02*
X14079706Y-17950650D01*
X14079706Y-17950650D02*
X14098753Y-17960174D01*
X14098753Y-17960174D02*
X14108277Y-17969698D01*
X14108277Y-17969698D02*
X14117801Y-17988746D01*
X14117801Y-17988746D02*
X14117801Y-18045889D01*
X14117801Y-18045889D02*
X14108277Y-18064936D01*
X14108277Y-18064936D02*
X14098753Y-18074460D01*
X14098753Y-18074460D02*
X14079706Y-18083984D01*
X14079706Y-18083984D02*
X14051134Y-18083984D01*
X14232087Y-18083984D02*
X14213039Y-18074460D01*
X14213039Y-18074460D02*
X14203515Y-18055412D01*
X14203515Y-18055412D02*
X14203515Y-17883984D01*
X14384468Y-18074460D02*
X14365420Y-18083984D01*
X14365420Y-18083984D02*
X14327325Y-18083984D01*
X14327325Y-18083984D02*
X14308277Y-18074460D01*
X14308277Y-18074460D02*
X14298753Y-18055412D01*
X14298753Y-18055412D02*
X14298753Y-17979222D01*
X14298753Y-17979222D02*
X14308277Y-17960174D01*
X14308277Y-17960174D02*
X14327325Y-17950650D01*
X14327325Y-17950650D02*
X14365420Y-17950650D01*
X14365420Y-17950650D02*
X14384468Y-17960174D01*
X14384468Y-17960174D02*
X14393991Y-17979222D01*
X14393991Y-17979222D02*
X14393991Y-17998270D01*
X14393991Y-17998270D02*
X14298753Y-18017317D01*
X14470182Y-18074460D02*
X14489230Y-18083984D01*
X14489230Y-18083984D02*
X14527325Y-18083984D01*
X14527325Y-18083984D02*
X14546372Y-18074460D01*
X14546372Y-18074460D02*
X14555896Y-18055412D01*
X14555896Y-18055412D02*
X14555896Y-18045889D01*
X14555896Y-18045889D02*
X14546372Y-18026841D01*
X14546372Y-18026841D02*
X14527325Y-18017317D01*
X14527325Y-18017317D02*
X14498753Y-18017317D01*
X14498753Y-18017317D02*
X14479706Y-18007793D01*
X14479706Y-18007793D02*
X14470182Y-17988746D01*
X14470182Y-17988746D02*
X14470182Y-17979222D01*
X14470182Y-17979222D02*
X14479706Y-17960174D01*
X14479706Y-17960174D02*
X14498753Y-17950650D01*
X14498753Y-17950650D02*
X14527325Y-17950650D01*
X14527325Y-17950650D02*
X14546372Y-17960174D01*
X14622563Y-18160174D02*
X14632087Y-18150650D01*
X14632087Y-18150650D02*
X14651134Y-18122079D01*
X14651134Y-18122079D02*
X14660658Y-18103031D01*
X14660658Y-18103031D02*
X14670182Y-18074460D01*
X14670182Y-18074460D02*
X14679706Y-18026841D01*
X14679706Y-18026841D02*
X14679706Y-17988746D01*
X14679706Y-17988746D02*
X14670182Y-17941127D01*
X14670182Y-17941127D02*
X14660658Y-17912555D01*
X14660658Y-17912555D02*
X14651134Y-17893508D01*
X14651134Y-17893508D02*
X14632087Y-17864936D01*
X14632087Y-17864936D02*
X14622563Y-17855412D01*
X14984468Y-18160174D02*
X14974944Y-18150650D01*
X14974944Y-18150650D02*
X14955896Y-18122079D01*
X14955896Y-18122079D02*
X14946372Y-18103031D01*
X14946372Y-18103031D02*
X14936849Y-18074460D01*
X14936849Y-18074460D02*
X14927325Y-18026841D01*
X14927325Y-18026841D02*
X14927325Y-17988746D01*
X14927325Y-17988746D02*
X14936849Y-17941127D01*
X14936849Y-17941127D02*
X14946372Y-17912555D01*
X14946372Y-17912555D02*
X14955896Y-17893508D01*
X14955896Y-17893508D02*
X14974944Y-17864936D01*
X14974944Y-17864936D02*
X14984468Y-17855412D01*
X15060658Y-17950650D02*
X15060658Y-18083984D01*
X15060658Y-17969698D02*
X15070182Y-17960174D01*
X15070182Y-17960174D02*
X15089230Y-17950650D01*
X15089230Y-17950650D02*
X15117801Y-17950650D01*
X15117801Y-17950650D02*
X15136849Y-17960174D01*
X15136849Y-17960174D02*
X15146372Y-17979222D01*
X15146372Y-17979222D02*
X15146372Y-18083984D01*
X15270182Y-18083984D02*
X15251134Y-18074460D01*
X15251134Y-18074460D02*
X15241611Y-18064936D01*
X15241611Y-18064936D02*
X15232087Y-18045889D01*
X15232087Y-18045889D02*
X15232087Y-17988746D01*
X15232087Y-17988746D02*
X15241611Y-17969698D01*
X15241611Y-17969698D02*
X15251134Y-17960174D01*
X15251134Y-17960174D02*
X15270182Y-17950650D01*
X15270182Y-17950650D02*
X15298753Y-17950650D01*
X15298753Y-17950650D02*
X15317801Y-17960174D01*
X15317801Y-17960174D02*
X15327325Y-17969698D01*
X15327325Y-17969698D02*
X15336849Y-17988746D01*
X15336849Y-17988746D02*
X15336849Y-18045889D01*
X15336849Y-18045889D02*
X15327325Y-18064936D01*
X15327325Y-18064936D02*
X15317801Y-18074460D01*
X15317801Y-18074460D02*
X15298753Y-18083984D01*
X15298753Y-18083984D02*
X15270182Y-18083984D01*
X15393992Y-17950650D02*
X15470182Y-17950650D01*
X15422563Y-17883984D02*
X15422563Y-18055412D01*
X15422563Y-18055412D02*
X15432087Y-18074460D01*
X15432087Y-18074460D02*
X15451134Y-18083984D01*
X15451134Y-18083984D02*
X15470182Y-18083984D01*
X15689230Y-17950650D02*
X15689230Y-18150650D01*
X15689230Y-17960174D02*
X15708277Y-17950650D01*
X15708277Y-17950650D02*
X15746373Y-17950650D01*
X15746373Y-17950650D02*
X15765420Y-17960174D01*
X15765420Y-17960174D02*
X15774944Y-17969698D01*
X15774944Y-17969698D02*
X15784468Y-17988746D01*
X15784468Y-17988746D02*
X15784468Y-18045889D01*
X15784468Y-18045889D02*
X15774944Y-18064936D01*
X15774944Y-18064936D02*
X15765420Y-18074460D01*
X15765420Y-18074460D02*
X15746373Y-18083984D01*
X15746373Y-18083984D02*
X15708277Y-18083984D01*
X15708277Y-18083984D02*
X15689230Y-18074460D01*
X15898753Y-18083984D02*
X15879706Y-18074460D01*
X15879706Y-18074460D02*
X15870182Y-18055412D01*
X15870182Y-18055412D02*
X15870182Y-17883984D01*
X16060658Y-18083984D02*
X16060658Y-17979222D01*
X16060658Y-17979222D02*
X16051134Y-17960174D01*
X16051134Y-17960174D02*
X16032087Y-17950650D01*
X16032087Y-17950650D02*
X15993992Y-17950650D01*
X15993992Y-17950650D02*
X15974944Y-17960174D01*
X16060658Y-18074460D02*
X16041611Y-18083984D01*
X16041611Y-18083984D02*
X15993992Y-18083984D01*
X15993992Y-18083984D02*
X15974944Y-18074460D01*
X15974944Y-18074460D02*
X15965420Y-18055412D01*
X15965420Y-18055412D02*
X15965420Y-18036365D01*
X15965420Y-18036365D02*
X15974944Y-18017317D01*
X15974944Y-18017317D02*
X15993992Y-18007793D01*
X15993992Y-18007793D02*
X16041611Y-18007793D01*
X16041611Y-18007793D02*
X16060658Y-17998270D01*
X16127325Y-17950650D02*
X16203515Y-17950650D01*
X16155896Y-17883984D02*
X16155896Y-18055412D01*
X16155896Y-18055412D02*
X16165420Y-18074460D01*
X16165420Y-18074460D02*
X16184468Y-18083984D01*
X16184468Y-18083984D02*
X16203515Y-18083984D01*
X16346373Y-18074460D02*
X16327325Y-18083984D01*
X16327325Y-18083984D02*
X16289230Y-18083984D01*
X16289230Y-18083984D02*
X16270182Y-18074460D01*
X16270182Y-18074460D02*
X16260658Y-18055412D01*
X16260658Y-18055412D02*
X16260658Y-17979222D01*
X16260658Y-17979222D02*
X16270182Y-17960174D01*
X16270182Y-17960174D02*
X16289230Y-17950650D01*
X16289230Y-17950650D02*
X16327325Y-17950650D01*
X16327325Y-17950650D02*
X16346373Y-17960174D01*
X16346373Y-17960174D02*
X16355896Y-17979222D01*
X16355896Y-17979222D02*
X16355896Y-17998270D01*
X16355896Y-17998270D02*
X16260658Y-18017317D01*
X16527325Y-18083984D02*
X16527325Y-17883984D01*
X16527325Y-18074460D02*
X16508277Y-18083984D01*
X16508277Y-18083984D02*
X16470182Y-18083984D01*
X16470182Y-18083984D02*
X16451134Y-18074460D01*
X16451134Y-18074460D02*
X16441611Y-18064936D01*
X16441611Y-18064936D02*
X16432087Y-18045889D01*
X16432087Y-18045889D02*
X16432087Y-17988746D01*
X16432087Y-17988746D02*
X16441611Y-17969698D01*
X16441611Y-17969698D02*
X16451134Y-17960174D01*
X16451134Y-17960174D02*
X16470182Y-17950650D01*
X16470182Y-17950650D02*
X16508277Y-17950650D01*
X16508277Y-17950650D02*
X16527325Y-17960174D01*
X16603515Y-18160174D02*
X16613039Y-18150650D01*
X16613039Y-18150650D02*
X16632087Y-18122079D01*
X16632087Y-18122079D02*
X16641611Y-18103031D01*
X16641611Y-18103031D02*
X16651134Y-18074460D01*
X16651134Y-18074460D02*
X16660658Y-18026841D01*
X16660658Y-18026841D02*
X16660658Y-17988746D01*
X16660658Y-17988746D02*
X16651134Y-17941127D01*
X16651134Y-17941127D02*
X16641611Y-17912555D01*
X16641611Y-17912555D02*
X16632087Y-17893508D01*
X16632087Y-17893508D02*
X16613039Y-17864936D01*
X16613039Y-17864936D02*
X16603515Y-17855412D01*
M02*
