G04 #@! TF.GenerationSoftware,KiCad,Pcbnew,8.0.8*
G04 #@! TF.CreationDate,2025-02-19T12:15:39-05:00*
G04 #@! TF.ProjectId,capstone_pcb,63617073-746f-46e6-955f-7063622e6b69,rev?*
G04 #@! TF.SameCoordinates,Original*
G04 #@! TF.FileFunction,Copper,L1,Top*
G04 #@! TF.FilePolarity,Positive*
%FSLAX46Y46*%
G04 Gerber Fmt 4.6, Leading zero omitted, Abs format (unit mm)*
G04 Created by KiCad (PCBNEW 8.0.8) date 2025-02-19 12:15:39*
%MOMM*%
%LPD*%
G01*
G04 APERTURE LIST*
G04 Aperture macros list*
%AMRoundRect*
0 Rectangle with rounded corners*
0 $1 Rounding radius*
0 $2 $3 $4 $5 $6 $7 $8 $9 X,Y pos of 4 corners*
0 Add a 4 corners polygon primitive as box body*
4,1,4,$2,$3,$4,$5,$6,$7,$8,$9,$2,$3,0*
0 Add four circle primitives for the rounded corners*
1,1,$1+$1,$2,$3*
1,1,$1+$1,$4,$5*
1,1,$1+$1,$6,$7*
1,1,$1+$1,$8,$9*
0 Add four rect primitives between the rounded corners*
20,1,$1+$1,$2,$3,$4,$5,0*
20,1,$1+$1,$4,$5,$6,$7,0*
20,1,$1+$1,$6,$7,$8,$9,0*
20,1,$1+$1,$8,$9,$2,$3,0*%
G04 Aperture macros list end*
G04 #@! TA.AperFunction,ComponentPad*
%ADD10RoundRect,0.250000X-0.600000X-0.725000X0.600000X-0.725000X0.600000X0.725000X-0.600000X0.725000X0*%
G04 #@! TD*
G04 #@! TA.AperFunction,ComponentPad*
%ADD11O,1.700000X1.950000*%
G04 #@! TD*
G04 #@! TA.AperFunction,ComponentPad*
%ADD12RoundRect,0.250000X0.725000X-0.600000X0.725000X0.600000X-0.725000X0.600000X-0.725000X-0.600000X0*%
G04 #@! TD*
G04 #@! TA.AperFunction,ComponentPad*
%ADD13O,1.950000X1.700000*%
G04 #@! TD*
G04 #@! TA.AperFunction,ComponentPad*
%ADD14R,1.605000X1.605000*%
G04 #@! TD*
G04 #@! TA.AperFunction,ComponentPad*
%ADD15C,1.605000*%
G04 #@! TD*
G04 #@! TA.AperFunction,ComponentPad*
%ADD16R,1.530000X1.530000*%
G04 #@! TD*
G04 #@! TA.AperFunction,ComponentPad*
%ADD17C,1.530000*%
G04 #@! TD*
G04 #@! TA.AperFunction,ComponentPad*
%ADD18RoundRect,0.250001X-1.099999X-1.099999X1.099999X-1.099999X1.099999X1.099999X-1.099999X1.099999X0*%
G04 #@! TD*
G04 #@! TA.AperFunction,ComponentPad*
%ADD19C,2.700000*%
G04 #@! TD*
G04 #@! TA.AperFunction,Conductor*
%ADD20C,0.200000*%
G04 #@! TD*
G04 #@! TA.AperFunction,Conductor*
%ADD21C,1.500000*%
G04 #@! TD*
G04 #@! TA.AperFunction,Conductor*
%ADD22C,6.000000*%
G04 #@! TD*
G04 #@! TA.AperFunction,Conductor*
%ADD23C,5.000000*%
G04 #@! TD*
G04 APERTURE END LIST*
D10*
X136000000Y-163000000D03*
D11*
X138500000Y-163000000D03*
X141000000Y-163000000D03*
D10*
X136000000Y-153000000D03*
D11*
X138500000Y-153000000D03*
X141000000Y-153000000D03*
D12*
X183000000Y-143000000D03*
D13*
X183000000Y-140500000D03*
X183000000Y-138000000D03*
X183000000Y-135500000D03*
X183000000Y-133000000D03*
D10*
X107500000Y-153000000D03*
D11*
X110000000Y-153000000D03*
X112500000Y-153000000D03*
D10*
X183000000Y-54500000D03*
D11*
X185500000Y-54500000D03*
X188000000Y-54500000D03*
X190500000Y-54500000D03*
D12*
X195000000Y-143000000D03*
D13*
X195000000Y-140500000D03*
X195000000Y-138000000D03*
X195000000Y-135500000D03*
X195000000Y-133000000D03*
D10*
X183000000Y-43500000D03*
D11*
X185500000Y-43500000D03*
X188000000Y-43500000D03*
X190500000Y-43500000D03*
D10*
X121500000Y-163000000D03*
D11*
X124000000Y-163000000D03*
X126500000Y-163000000D03*
D10*
X107500000Y-133000000D03*
D11*
X110000000Y-133000000D03*
X112500000Y-133000000D03*
D10*
X183000000Y-109500000D03*
D11*
X185500000Y-109500000D03*
X188000000Y-109500000D03*
X190500000Y-109500000D03*
D10*
X150500000Y-153000000D03*
D11*
X153000000Y-153000000D03*
X155500000Y-153000000D03*
D14*
X163830000Y-96470000D03*
D15*
X163830000Y-93930000D03*
X163830000Y-91390000D03*
X163830000Y-88850000D03*
X163830000Y-86310000D03*
X163830000Y-83770000D03*
X163830000Y-81230000D03*
X163830000Y-78690000D03*
X163830000Y-76150000D03*
X163830000Y-73610000D03*
D14*
X115570000Y-82750000D03*
D15*
X115570000Y-85290000D03*
X115570000Y-87830000D03*
X115570000Y-90370000D03*
X115570000Y-92910000D03*
X115570000Y-95450000D03*
X115570000Y-97990000D03*
X115570000Y-100530000D03*
D16*
X107950000Y-72590000D03*
D17*
X110490000Y-72590000D03*
X107950000Y-75130000D03*
X110490000Y-75130000D03*
X107950000Y-77670000D03*
X110490000Y-77670000D03*
X107950000Y-80210000D03*
X110490000Y-80210000D03*
X107950000Y-82750000D03*
X110490000Y-82750000D03*
X107950000Y-85290000D03*
X110490000Y-85290000D03*
X107950000Y-87830000D03*
X110490000Y-87830000D03*
X107950000Y-90370000D03*
X110490000Y-90370000D03*
X107950000Y-92910000D03*
X110490000Y-92910000D03*
X107950000Y-95450000D03*
X110490000Y-95450000D03*
X107950000Y-97990000D03*
X110490000Y-97990000D03*
X107950000Y-100530000D03*
X110490000Y-100530000D03*
X107950000Y-103070000D03*
X110490000Y-103070000D03*
X107950000Y-105610000D03*
X110490000Y-105610000D03*
X107950000Y-108150000D03*
X110490000Y-108150000D03*
X107950000Y-110690000D03*
X110490000Y-110690000D03*
X107950000Y-113230000D03*
X110490000Y-113230000D03*
X107950000Y-115770000D03*
X110490000Y-115770000D03*
X107950000Y-118310000D03*
X110490000Y-118310000D03*
D14*
X115570000Y-105610000D03*
D15*
X115570000Y-108150000D03*
X115570000Y-110690000D03*
X115570000Y-113230000D03*
X115570000Y-115770000D03*
X115570000Y-118310000D03*
D14*
X163830000Y-118310000D03*
D15*
X163830000Y-115770000D03*
X163830000Y-113230000D03*
X163830000Y-110690000D03*
X163830000Y-108150000D03*
X163830000Y-105610000D03*
X163830000Y-103070000D03*
X163830000Y-100530000D03*
D16*
X168910000Y-72590000D03*
D17*
X171450000Y-72590000D03*
X168910000Y-75130000D03*
X171450000Y-75130000D03*
X168910000Y-77670000D03*
X171450000Y-77670000D03*
X168910000Y-80210000D03*
X171450000Y-80210000D03*
X168910000Y-82750000D03*
X171450000Y-82750000D03*
X168910000Y-85290000D03*
X171450000Y-85290000D03*
X168910000Y-87830000D03*
X171450000Y-87830000D03*
X168910000Y-90370000D03*
X171450000Y-90370000D03*
X168910000Y-92910000D03*
X171450000Y-92910000D03*
X168910000Y-95450000D03*
X171450000Y-95450000D03*
X168910000Y-97990000D03*
X171450000Y-97990000D03*
X168910000Y-100530000D03*
X171450000Y-100530000D03*
X168910000Y-103070000D03*
X171450000Y-103070000D03*
X168910000Y-105610000D03*
X171450000Y-105610000D03*
X168910000Y-108150000D03*
X171450000Y-108150000D03*
X168910000Y-110690000D03*
X171450000Y-110690000D03*
X168910000Y-113230000D03*
X171450000Y-113230000D03*
X168910000Y-115770000D03*
X171450000Y-115770000D03*
X168910000Y-118310000D03*
X171450000Y-118310000D03*
D18*
X200040000Y-120500000D03*
D19*
X204000000Y-120500000D03*
D10*
X150500000Y-133000000D03*
D11*
X153000000Y-133000000D03*
X155500000Y-133000000D03*
D10*
X121500000Y-153000000D03*
D11*
X124000000Y-153000000D03*
X126500000Y-153000000D03*
D10*
X183000000Y-87500000D03*
D11*
X185500000Y-87500000D03*
X188000000Y-87500000D03*
X190500000Y-87500000D03*
D10*
X150500000Y-143000000D03*
D11*
X153000000Y-143000000D03*
X155500000Y-143000000D03*
D10*
X165000000Y-133000000D03*
D11*
X167500000Y-133000000D03*
X170000000Y-133000000D03*
X172500000Y-133000000D03*
D10*
X121500000Y-143000000D03*
D11*
X124000000Y-143000000D03*
X126500000Y-143000000D03*
D10*
X183000000Y-76500000D03*
D11*
X185500000Y-76500000D03*
X188000000Y-76500000D03*
X190500000Y-76500000D03*
D10*
X150500000Y-163000000D03*
D11*
X153000000Y-163000000D03*
X155500000Y-163000000D03*
D10*
X183000000Y-65500000D03*
D11*
X185500000Y-65500000D03*
X188000000Y-65500000D03*
X190500000Y-65500000D03*
D10*
X183000000Y-120500000D03*
D11*
X185500000Y-120500000D03*
X188000000Y-120500000D03*
X190500000Y-120500000D03*
D10*
X165000000Y-143000000D03*
D11*
X167500000Y-143000000D03*
X170000000Y-143000000D03*
X172500000Y-143000000D03*
D10*
X107500000Y-143000000D03*
D11*
X110000000Y-143000000D03*
X112500000Y-143000000D03*
D10*
X185500000Y-152500000D03*
D11*
X188000000Y-152500000D03*
X190500000Y-152500000D03*
X193000000Y-152500000D03*
X195500000Y-152500000D03*
D10*
X136000000Y-133000000D03*
D11*
X138500000Y-133000000D03*
X141000000Y-133000000D03*
D10*
X136000000Y-143000000D03*
D11*
X138500000Y-143000000D03*
X141000000Y-143000000D03*
D10*
X121500000Y-133000000D03*
D11*
X124000000Y-133000000D03*
X126500000Y-133000000D03*
D10*
X107500000Y-163000000D03*
D11*
X110000000Y-163000000D03*
X112500000Y-163000000D03*
D10*
X183000000Y-98500000D03*
D11*
X185500000Y-98500000D03*
X188000000Y-98500000D03*
X190500000Y-98500000D03*
D20*
X109015000Y-109215000D02*
X110490000Y-110690000D01*
X185500000Y-43500000D02*
X185500000Y-76500000D01*
X184225000Y-66775000D02*
X114798862Y-66775000D01*
X185500000Y-65500000D02*
X184225000Y-66775000D01*
X114798862Y-66775000D02*
X109015000Y-72558862D01*
X109015000Y-72558862D02*
X109015000Y-109215000D01*
D21*
X190500000Y-98500000D02*
X200000000Y-98500000D01*
X193075000Y-133745584D02*
X194829416Y-135500000D01*
D22*
X200000000Y-98500000D02*
X200000000Y-87500000D01*
X200000000Y-65500000D02*
X200000000Y-55500000D01*
D21*
X193075000Y-127465000D02*
X193075000Y-133745584D01*
D22*
X200000000Y-76500000D02*
X200000000Y-65500000D01*
D21*
X195000000Y-114500000D02*
X190500000Y-119000000D01*
X199500000Y-109500000D02*
X190500000Y-109500000D01*
X190500000Y-65500000D02*
X200000000Y-65500000D01*
X200040000Y-114500000D02*
X195000000Y-114500000D01*
D20*
X170000000Y-143000000D02*
X177500000Y-135500000D01*
D22*
X200000000Y-114460000D02*
X200000000Y-98500000D01*
D21*
X199500000Y-52500000D02*
X200000000Y-52500000D01*
X197770000Y-122770000D02*
X193075000Y-127465000D01*
D20*
X177500000Y-135500000D02*
X183000000Y-135500000D01*
D21*
X190500000Y-119000000D02*
X190500000Y-120500000D01*
X190500000Y-54500000D02*
X199000000Y-54500000D01*
X190500000Y-76500000D02*
X200000000Y-76500000D01*
X190500000Y-43500000D02*
X199500000Y-52500000D01*
X185040000Y-135500000D02*
X183000000Y-135500000D01*
X199000000Y-54500000D02*
X200000000Y-55500000D01*
X200040000Y-120500000D02*
X185040000Y-135500000D01*
X200040000Y-120500000D02*
X197770000Y-122770000D01*
X200040000Y-114500000D02*
X200040000Y-120500000D01*
X190500000Y-87500000D02*
X200000000Y-87500000D01*
D22*
X200000000Y-87500000D02*
X200000000Y-76500000D01*
D21*
X195500000Y-152500000D02*
X200040000Y-147960000D01*
X200040000Y-147960000D02*
X200040000Y-120500000D01*
D22*
X200000000Y-55500000D02*
X200000000Y-52145458D01*
D23*
X200000000Y-52145458D02*
X200000000Y-52500000D01*
D20*
X164119171Y-82500000D02*
X136140000Y-82500000D01*
X177815000Y-81685000D02*
X164934171Y-81685000D01*
X183000000Y-76500000D02*
X177815000Y-81685000D01*
X164934171Y-81685000D02*
X164119171Y-82500000D01*
X136140000Y-82500000D02*
X110490000Y-108150000D01*
X124000000Y-143000000D02*
X124000000Y-153000000D01*
X138500000Y-153000000D02*
X138500000Y-163000000D01*
X122725000Y-131725000D02*
X111275000Y-131725000D01*
X139775000Y-131725000D02*
X138500000Y-133000000D01*
X153000000Y-133000000D02*
X151500000Y-134500000D01*
X154275000Y-144275000D02*
X166225000Y-144275000D01*
X124000000Y-133000000D02*
X124000000Y-143000000D01*
X151500000Y-134500000D02*
X145000000Y-134500000D01*
X138500000Y-133000000D02*
X138500000Y-143000000D01*
X110000000Y-133000000D02*
X110000000Y-143000000D01*
X145000000Y-134500000D02*
X142225000Y-131725000D01*
X111275000Y-131725000D02*
X110000000Y-133000000D01*
X138500000Y-133000000D02*
X137225000Y-131725000D01*
X166225000Y-144275000D02*
X167500000Y-143000000D01*
X125275000Y-131725000D02*
X124000000Y-133000000D01*
X124000000Y-133000000D02*
X122725000Y-131725000D01*
X153000000Y-143000000D02*
X154275000Y-144275000D01*
X153000000Y-143000000D02*
X153000000Y-153000000D01*
X110000000Y-143000000D02*
X110000000Y-153000000D01*
X142225000Y-131725000D02*
X139775000Y-131725000D01*
X137225000Y-131725000D02*
X125275000Y-131725000D01*
X153000000Y-133000000D02*
X153000000Y-143000000D01*
X138500000Y-143000000D02*
X138500000Y-153000000D01*
X153000000Y-153000000D02*
X153000000Y-163000000D01*
X110000000Y-153000000D02*
X110000000Y-163000000D01*
X124000000Y-153000000D02*
X124000000Y-163000000D01*
X168845000Y-91845000D02*
X176345000Y-91845000D01*
X169975000Y-86765000D02*
X168910000Y-87830000D01*
X167845000Y-90845000D02*
X168845000Y-91845000D01*
X167845000Y-88895000D02*
X167845000Y-90845000D01*
X182265000Y-86765000D02*
X169975000Y-86765000D01*
X168910000Y-87830000D02*
X167845000Y-88895000D01*
X176345000Y-91845000D02*
X183000000Y-98500000D01*
X183695000Y-89305000D02*
X169975000Y-89305000D01*
X185500000Y-87500000D02*
X185500000Y-98500000D01*
X185500000Y-87500000D02*
X183695000Y-89305000D01*
X169975000Y-89305000D02*
X168910000Y-90370000D01*
X185500000Y-109500000D02*
X175055000Y-99055000D01*
X175055000Y-99055000D02*
X169975000Y-99055000D01*
X169975000Y-99055000D02*
X168910000Y-97990000D01*
X170385000Y-102005000D02*
X168910000Y-100530000D01*
X175505000Y-102005000D02*
X170385000Y-102005000D01*
X183000000Y-109500000D02*
X175505000Y-102005000D01*
X174500000Y-112000000D02*
X170140000Y-112000000D01*
X183000000Y-120500000D02*
X174500000Y-112000000D01*
X170140000Y-112000000D02*
X168910000Y-113230000D01*
X126500000Y-143000000D02*
X126500000Y-133000000D01*
X126500000Y-153000000D02*
X126500000Y-143000000D01*
X113775000Y-164275000D02*
X112500000Y-163000000D01*
X112500000Y-143000000D02*
X112500000Y-133000000D01*
X141000000Y-163000000D02*
X141000000Y-153000000D01*
X126500000Y-163000000D02*
X126500000Y-153000000D01*
X155500000Y-133000000D02*
X155500000Y-143000000D01*
X139725000Y-164275000D02*
X127775000Y-164275000D01*
X155500000Y-163000000D02*
X154225000Y-164275000D01*
X155500000Y-153000000D02*
X155500000Y-163000000D01*
X112500000Y-153000000D02*
X112500000Y-143000000D01*
X142275000Y-164275000D02*
X141000000Y-163000000D01*
X154225000Y-164275000D02*
X142275000Y-164275000D01*
X141000000Y-153000000D02*
X141000000Y-143000000D01*
X141000000Y-163000000D02*
X139725000Y-164275000D01*
X141000000Y-143000000D02*
X141000000Y-133000000D01*
X125225000Y-164275000D02*
X113775000Y-164275000D01*
X112500000Y-163000000D02*
X112500000Y-153000000D01*
X127775000Y-164275000D02*
X126500000Y-163000000D01*
X126500000Y-163000000D02*
X125225000Y-164275000D01*
X107500000Y-133000000D02*
X107500000Y-163000000D01*
X121500000Y-163000000D02*
X121500000Y-133000000D01*
X136000000Y-143000000D02*
X136000000Y-133000000D01*
X136000000Y-163000000D02*
X136000000Y-153000000D01*
X150500000Y-133000000D02*
X136912500Y-119412500D01*
X109052500Y-119412500D02*
X107950000Y-118310000D01*
X136912500Y-119412500D02*
X109052500Y-119412500D01*
X164725000Y-153775000D02*
X156650000Y-161850000D01*
X156650000Y-161850000D02*
X156650000Y-163601346D01*
X186334744Y-153775000D02*
X164725000Y-153775000D01*
X107065256Y-164675000D02*
X106000000Y-163609744D01*
X155576346Y-164675000D02*
X107065256Y-164675000D01*
X188000000Y-152500000D02*
X186650000Y-152500000D01*
X186650000Y-152500000D02*
X186650000Y-153459744D01*
X106000000Y-163609744D02*
X106000000Y-94860000D01*
X186650000Y-153459744D02*
X186334744Y-153775000D01*
X106000000Y-94860000D02*
X107950000Y-92910000D01*
X156650000Y-163601346D02*
X155576346Y-164675000D01*
X190500000Y-152500000D02*
X182275000Y-144275000D01*
X173650000Y-135850000D02*
X173650000Y-132398654D01*
X167000000Y-125748654D02*
X167000000Y-85500000D01*
X167000000Y-85500000D02*
X168500000Y-84000000D01*
X168850000Y-143601346D02*
X168850000Y-140650000D01*
X184350000Y-77259744D02*
X184350000Y-75350000D01*
X168850000Y-140650000D02*
X173650000Y-135850000D01*
X182275000Y-144275000D02*
X169523654Y-144275000D01*
X181590000Y-72590000D02*
X171450000Y-72590000D01*
X169523654Y-144275000D02*
X168850000Y-143601346D01*
X177609744Y-84000000D02*
X184350000Y-77259744D01*
X168500000Y-84000000D02*
X177609744Y-84000000D01*
X184350000Y-75350000D02*
X181590000Y-72590000D01*
X173650000Y-132398654D02*
X167000000Y-125748654D01*
X172500000Y-135500000D02*
X165000000Y-143000000D01*
X165000000Y-140748654D02*
X133751346Y-109500000D01*
X109425000Y-108591138D02*
X109425000Y-93975000D01*
X172500000Y-133000000D02*
X172500000Y-135500000D01*
X109425000Y-93975000D02*
X110490000Y-92910000D01*
X195000000Y-140500000D02*
X183000000Y-140500000D01*
X165000000Y-143000000D02*
X165000000Y-140748654D01*
X110333862Y-109500000D02*
X109425000Y-108591138D01*
X133751346Y-109500000D02*
X110333862Y-109500000D01*
G04 #@! TA.AperFunction,Conductor*
G36*
X133518288Y-110120185D02*
G01*
X133538930Y-110136819D01*
X154890030Y-131487919D01*
X154923515Y-131549242D01*
X154918531Y-131618934D01*
X154876659Y-131674867D01*
X154858645Y-131686084D01*
X154792182Y-131719949D01*
X154620213Y-131844890D01*
X154469890Y-131995213D01*
X154344951Y-132167179D01*
X154248444Y-132356585D01*
X154182753Y-132558760D01*
X154149500Y-132768713D01*
X154149500Y-133231287D01*
X154182754Y-133441243D01*
X154222841Y-133564619D01*
X154248444Y-133643414D01*
X154344951Y-133832820D01*
X154469890Y-134004786D01*
X154620213Y-134155109D01*
X154792184Y-134280051D01*
X154792184Y-134280052D01*
X154831793Y-134300233D01*
X154882590Y-134348206D01*
X154899500Y-134410718D01*
X154899500Y-141589281D01*
X154879815Y-141656320D01*
X154831795Y-141699765D01*
X154792185Y-141719947D01*
X154792184Y-141719948D01*
X154620213Y-141844890D01*
X154469890Y-141995213D01*
X154344951Y-142167179D01*
X154248444Y-142356585D01*
X154182753Y-142558760D01*
X154176530Y-142598051D01*
X154149500Y-142768713D01*
X154149500Y-143231287D01*
X154182754Y-143441243D01*
X154240036Y-143617539D01*
X154248444Y-143643414D01*
X154344951Y-143832820D01*
X154469890Y-144004786D01*
X154620213Y-144155109D01*
X154792179Y-144280048D01*
X154792181Y-144280049D01*
X154792184Y-144280051D01*
X154981588Y-144376557D01*
X155183757Y-144442246D01*
X155393713Y-144475500D01*
X155393714Y-144475500D01*
X155606286Y-144475500D01*
X155606287Y-144475500D01*
X155816243Y-144442246D01*
X156018412Y-144376557D01*
X156207816Y-144280051D01*
X156229789Y-144264086D01*
X156379786Y-144155109D01*
X156379788Y-144155106D01*
X156379792Y-144155104D01*
X156530104Y-144004792D01*
X156530106Y-144004788D01*
X156530109Y-144004786D01*
X156655048Y-143832820D01*
X156655047Y-143832820D01*
X156655051Y-143832816D01*
X156751557Y-143643412D01*
X156817246Y-143441243D01*
X156850500Y-143231287D01*
X156850500Y-142768713D01*
X156817246Y-142558757D01*
X156751557Y-142356588D01*
X156655051Y-142167184D01*
X156655049Y-142167181D01*
X156655048Y-142167179D01*
X156530109Y-141995213D01*
X156379786Y-141844890D01*
X156207815Y-141719948D01*
X156207814Y-141719947D01*
X156168205Y-141699765D01*
X156117409Y-141651791D01*
X156100500Y-141589281D01*
X156100500Y-134410718D01*
X156120185Y-134343679D01*
X156168207Y-134300233D01*
X156207815Y-134280052D01*
X156207815Y-134280051D01*
X156207816Y-134280051D01*
X156326728Y-134193657D01*
X156379786Y-134155109D01*
X156379788Y-134155106D01*
X156379792Y-134155104D01*
X156530104Y-134004792D01*
X156530106Y-134004788D01*
X156530109Y-134004786D01*
X156655048Y-133832820D01*
X156655047Y-133832820D01*
X156655051Y-133832816D01*
X156751557Y-133643412D01*
X156761119Y-133613980D01*
X156800553Y-133556309D01*
X156864911Y-133529109D01*
X156933757Y-133541021D01*
X156966730Y-133564619D01*
X164363181Y-140961070D01*
X164396666Y-141022393D01*
X164399500Y-141048751D01*
X164399500Y-141407465D01*
X164379815Y-141474504D01*
X164327011Y-141520259D01*
X164288102Y-141530823D01*
X164247202Y-141535001D01*
X164247200Y-141535001D01*
X164080668Y-141590185D01*
X164080663Y-141590187D01*
X163931342Y-141682289D01*
X163807289Y-141806342D01*
X163715187Y-141955663D01*
X163715186Y-141955666D01*
X163660001Y-142122203D01*
X163660001Y-142122204D01*
X163660000Y-142122204D01*
X163649500Y-142224983D01*
X163649500Y-143775001D01*
X163649501Y-143775018D01*
X163660000Y-143877796D01*
X163660001Y-143877799D01*
X163690575Y-143970063D01*
X163715186Y-144044334D01*
X163807288Y-144193656D01*
X163931344Y-144317712D01*
X164080666Y-144409814D01*
X164247203Y-144464999D01*
X164349991Y-144475500D01*
X165650008Y-144475499D01*
X165752797Y-144464999D01*
X165919334Y-144409814D01*
X166068656Y-144317712D01*
X166192712Y-144193656D01*
X166284814Y-144044334D01*
X166339999Y-143877797D01*
X166350500Y-143775009D01*
X166350499Y-142550095D01*
X166370184Y-142483057D01*
X166386813Y-142462420D01*
X168037820Y-140811413D01*
X168099142Y-140777930D01*
X168168834Y-140782914D01*
X168224767Y-140824786D01*
X168249184Y-140890250D01*
X168249500Y-140899096D01*
X168249500Y-143514676D01*
X168249499Y-143514694D01*
X168249499Y-143680400D01*
X168249498Y-143680400D01*
X168290339Y-143832820D01*
X168290423Y-143833131D01*
X168308521Y-143864477D01*
X168340194Y-143919336D01*
X168369479Y-143970060D01*
X168369481Y-143970063D01*
X168488349Y-144088931D01*
X168488354Y-144088935D01*
X169154938Y-144755520D01*
X169154940Y-144755521D01*
X169154944Y-144755524D01*
X169291863Y-144834573D01*
X169291870Y-144834577D01*
X169444597Y-144875501D01*
X169444599Y-144875501D01*
X169610308Y-144875501D01*
X169610324Y-144875500D01*
X181974903Y-144875500D01*
X182041942Y-144895185D01*
X182062584Y-144911819D01*
X187964684Y-150813920D01*
X187998169Y-150875243D01*
X187993185Y-150944935D01*
X187951313Y-151000868D01*
X187896401Y-151024074D01*
X187683760Y-151057753D01*
X187481585Y-151123444D01*
X187292179Y-151219951D01*
X187120215Y-151344889D01*
X186981398Y-151483706D01*
X186920075Y-151517190D01*
X186850383Y-151512206D01*
X186794450Y-151470334D01*
X186788178Y-151461120D01*
X186692712Y-151306344D01*
X186568657Y-151182289D01*
X186568656Y-151182288D01*
X186441959Y-151104141D01*
X186419336Y-151090187D01*
X186419331Y-151090185D01*
X186417862Y-151089698D01*
X186252797Y-151035001D01*
X186252795Y-151035000D01*
X186150010Y-151024500D01*
X184849998Y-151024500D01*
X184849981Y-151024501D01*
X184747203Y-151035000D01*
X184747200Y-151035001D01*
X184580668Y-151090185D01*
X184580663Y-151090187D01*
X184431342Y-151182289D01*
X184307289Y-151306342D01*
X184215187Y-151455663D01*
X184215185Y-151455668D01*
X184202083Y-151495208D01*
X184160001Y-151622203D01*
X184160001Y-151622204D01*
X184160000Y-151622204D01*
X184149500Y-151724983D01*
X184149500Y-151724996D01*
X184149501Y-153050500D01*
X184129816Y-153117539D01*
X184077013Y-153163294D01*
X184025501Y-153174500D01*
X164811670Y-153174500D01*
X164811654Y-153174499D01*
X164804058Y-153174499D01*
X164645943Y-153174499D01*
X164569579Y-153194961D01*
X164493214Y-153215423D01*
X164493209Y-153215426D01*
X164356290Y-153294475D01*
X164356282Y-153294481D01*
X156312181Y-161338583D01*
X156250858Y-161372068D01*
X156181166Y-161367084D01*
X156125233Y-161325212D01*
X156100816Y-161259748D01*
X156100500Y-161250902D01*
X156100500Y-154410718D01*
X156120185Y-154343679D01*
X156168207Y-154300233D01*
X156207815Y-154280052D01*
X156207815Y-154280051D01*
X156207816Y-154280051D01*
X156326728Y-154193657D01*
X156379786Y-154155109D01*
X156379788Y-154155106D01*
X156379792Y-154155104D01*
X156530104Y-154004792D01*
X156530106Y-154004788D01*
X156530109Y-154004786D01*
X156655048Y-153832820D01*
X156655047Y-153832820D01*
X156655051Y-153832816D01*
X156751557Y-153643412D01*
X156817246Y-153441243D01*
X156850500Y-153231287D01*
X156850500Y-152768713D01*
X156817246Y-152558757D01*
X156751557Y-152356588D01*
X156655051Y-152167184D01*
X156655049Y-152167181D01*
X156655048Y-152167179D01*
X156530109Y-151995213D01*
X156379786Y-151844890D01*
X156207820Y-151719951D01*
X156018414Y-151623444D01*
X156018413Y-151623443D01*
X156018412Y-151623443D01*
X155816243Y-151557754D01*
X155816241Y-151557753D01*
X155816240Y-151557753D01*
X155654957Y-151532208D01*
X155606287Y-151524500D01*
X155393713Y-151524500D01*
X155345042Y-151532208D01*
X155183760Y-151557753D01*
X154981585Y-151623444D01*
X154792179Y-151719951D01*
X154620213Y-151844890D01*
X154469890Y-151995213D01*
X154344951Y-152167179D01*
X154248444Y-152356585D01*
X154182753Y-152558760D01*
X154155428Y-152731286D01*
X154149500Y-152768713D01*
X154149500Y-153231287D01*
X154182754Y-153441243D01*
X154203402Y-153504792D01*
X154248444Y-153643414D01*
X154344951Y-153832820D01*
X154469890Y-154004786D01*
X154620213Y-154155109D01*
X154792184Y-154280051D01*
X154792184Y-154280052D01*
X154831793Y-154300233D01*
X154882590Y-154348206D01*
X154899500Y-154410718D01*
X154899500Y-161589281D01*
X154879815Y-161656320D01*
X154831795Y-161699765D01*
X154792185Y-161719947D01*
X154792184Y-161719948D01*
X154620213Y-161844890D01*
X154469890Y-161995213D01*
X154344951Y-162167179D01*
X154248444Y-162356585D01*
X154182753Y-162558760D01*
X154149500Y-162768713D01*
X154149500Y-163231286D01*
X154176530Y-163401947D01*
X154167575Y-163471241D01*
X154141740Y-163509023D01*
X154012582Y-163638182D01*
X153951262Y-163671666D01*
X153924903Y-163674500D01*
X151974500Y-163674500D01*
X151907461Y-163654815D01*
X151861706Y-163602011D01*
X151850500Y-163550500D01*
X151850499Y-162224998D01*
X151850498Y-162224981D01*
X151839999Y-162122203D01*
X151839998Y-162122200D01*
X151832222Y-162098735D01*
X151784814Y-161955666D01*
X151692712Y-161806344D01*
X151568656Y-161682288D01*
X151419334Y-161590186D01*
X151252797Y-161535001D01*
X151252795Y-161535000D01*
X151150010Y-161524500D01*
X149849998Y-161524500D01*
X149849981Y-161524501D01*
X149747203Y-161535000D01*
X149747200Y-161535001D01*
X149580668Y-161590185D01*
X149580663Y-161590187D01*
X149431342Y-161682289D01*
X149307289Y-161806342D01*
X149215187Y-161955663D01*
X149215186Y-161955666D01*
X149160001Y-162122203D01*
X149160001Y-162122204D01*
X149160000Y-162122204D01*
X149149500Y-162224983D01*
X149149500Y-162224996D01*
X149149501Y-163550500D01*
X149129816Y-163617539D01*
X149077013Y-163663294D01*
X149025501Y-163674500D01*
X142575097Y-163674500D01*
X142508058Y-163654815D01*
X142487416Y-163638181D01*
X142358261Y-163509026D01*
X142324776Y-163447703D01*
X142323469Y-163401951D01*
X142350500Y-163231287D01*
X142350500Y-162768713D01*
X142317246Y-162558757D01*
X142251557Y-162356588D01*
X142155051Y-162167184D01*
X142155049Y-162167181D01*
X142155048Y-162167179D01*
X142030109Y-161995213D01*
X141879786Y-161844890D01*
X141707815Y-161719948D01*
X141707814Y-161719947D01*
X141668205Y-161699765D01*
X141617409Y-161651791D01*
X141600500Y-161589281D01*
X141600500Y-154410718D01*
X141620185Y-154343679D01*
X141668207Y-154300233D01*
X141707815Y-154280052D01*
X141707815Y-154280051D01*
X141707816Y-154280051D01*
X141826728Y-154193657D01*
X141879786Y-154155109D01*
X141879788Y-154155106D01*
X141879792Y-154155104D01*
X142030104Y-154004792D01*
X142030106Y-154004788D01*
X142030109Y-154004786D01*
X142155048Y-153832820D01*
X142155047Y-153832820D01*
X142155051Y-153832816D01*
X142251557Y-153643412D01*
X142317246Y-153441243D01*
X142350500Y-153231287D01*
X142350500Y-152768713D01*
X142317246Y-152558757D01*
X142251557Y-152356588D01*
X142184501Y-152224983D01*
X149149500Y-152224983D01*
X149149500Y-153775001D01*
X149149501Y-153775018D01*
X149160000Y-153877796D01*
X149160001Y-153877799D01*
X149202081Y-154004786D01*
X149215186Y-154044334D01*
X149307288Y-154193656D01*
X149431344Y-154317712D01*
X149580666Y-154409814D01*
X149747203Y-154464999D01*
X149849991Y-154475500D01*
X151150008Y-154475499D01*
X151252797Y-154464999D01*
X151419334Y-154409814D01*
X151568656Y-154317712D01*
X151692712Y-154193656D01*
X151784814Y-154044334D01*
X151839999Y-153877797D01*
X151850500Y-153775009D01*
X151850499Y-152224992D01*
X151839999Y-152122203D01*
X151784814Y-151955666D01*
X151692712Y-151806344D01*
X151568656Y-151682288D01*
X151419334Y-151590186D01*
X151252797Y-151535001D01*
X151252795Y-151535000D01*
X151150010Y-151524500D01*
X149849998Y-151524500D01*
X149849981Y-151524501D01*
X149747203Y-151535000D01*
X149747200Y-151535001D01*
X149580668Y-151590185D01*
X149580663Y-151590187D01*
X149431342Y-151682289D01*
X149307289Y-151806342D01*
X149215187Y-151955663D01*
X149215186Y-151955666D01*
X149160001Y-152122203D01*
X149160001Y-152122204D01*
X149160000Y-152122204D01*
X149149500Y-152224983D01*
X142184501Y-152224983D01*
X142155051Y-152167184D01*
X142155049Y-152167181D01*
X142155048Y-152167179D01*
X142030109Y-151995213D01*
X141879786Y-151844890D01*
X141707815Y-151719948D01*
X141707814Y-151719947D01*
X141668205Y-151699765D01*
X141617409Y-151651791D01*
X141600500Y-151589281D01*
X141600500Y-144410718D01*
X141620185Y-144343679D01*
X141668207Y-144300233D01*
X141707815Y-144280052D01*
X141707815Y-144280051D01*
X141707816Y-144280051D01*
X141826728Y-144193657D01*
X141879786Y-144155109D01*
X141879788Y-144155106D01*
X141879792Y-144155104D01*
X142030104Y-144004792D01*
X142030106Y-144004788D01*
X142030109Y-144004786D01*
X142155048Y-143832820D01*
X142155047Y-143832820D01*
X142155051Y-143832816D01*
X142251557Y-143643412D01*
X142317246Y-143441243D01*
X142350500Y-143231287D01*
X142350500Y-142768713D01*
X142317246Y-142558757D01*
X142251557Y-142356588D01*
X142184501Y-142224983D01*
X149149500Y-142224983D01*
X149149500Y-143775001D01*
X149149501Y-143775018D01*
X149160000Y-143877796D01*
X149160001Y-143877799D01*
X149190575Y-143970063D01*
X149215186Y-144044334D01*
X149307288Y-144193656D01*
X149431344Y-144317712D01*
X149580666Y-144409814D01*
X149747203Y-144464999D01*
X149849991Y-144475500D01*
X151150008Y-144475499D01*
X151252797Y-144464999D01*
X151419334Y-144409814D01*
X151568656Y-144317712D01*
X151692712Y-144193656D01*
X151784814Y-144044334D01*
X151839999Y-143877797D01*
X151850500Y-143775009D01*
X151850499Y-142224992D01*
X151839999Y-142122203D01*
X151784814Y-141955666D01*
X151692712Y-141806344D01*
X151568656Y-141682288D01*
X151443969Y-141605381D01*
X151419336Y-141590187D01*
X151419331Y-141590185D01*
X151399498Y-141583613D01*
X151252797Y-141535001D01*
X151252795Y-141535000D01*
X151150010Y-141524500D01*
X149849998Y-141524500D01*
X149849981Y-141524501D01*
X149747203Y-141535000D01*
X149747200Y-141535001D01*
X149580668Y-141590185D01*
X149580663Y-141590187D01*
X149431342Y-141682289D01*
X149307289Y-141806342D01*
X149215187Y-141955663D01*
X149215186Y-141955666D01*
X149160001Y-142122203D01*
X149160001Y-142122204D01*
X149160000Y-142122204D01*
X149149500Y-142224983D01*
X142184501Y-142224983D01*
X142155051Y-142167184D01*
X142155049Y-142167181D01*
X142155048Y-142167179D01*
X142030109Y-141995213D01*
X141879786Y-141844890D01*
X141707815Y-141719948D01*
X141707814Y-141719947D01*
X141668205Y-141699765D01*
X141617409Y-141651791D01*
X141600500Y-141589281D01*
X141600500Y-134410718D01*
X141620185Y-134343679D01*
X141668207Y-134300233D01*
X141707815Y-134280052D01*
X141707815Y-134280051D01*
X141707816Y-134280051D01*
X141826728Y-134193657D01*
X141879786Y-134155109D01*
X141879788Y-134155106D01*
X141879792Y-134155104D01*
X142030104Y-134004792D01*
X142030106Y-134004788D01*
X142030109Y-134004786D01*
X142155048Y-133832820D01*
X142155047Y-133832820D01*
X142155051Y-133832816D01*
X142251557Y-133643412D01*
X142317246Y-133441243D01*
X142350500Y-133231287D01*
X142350500Y-132768713D01*
X142317246Y-132558757D01*
X142251557Y-132356588D01*
X142155051Y-132167184D01*
X142155049Y-132167181D01*
X142155048Y-132167179D01*
X142030109Y-131995213D01*
X141879786Y-131844890D01*
X141707820Y-131719951D01*
X141518414Y-131623444D01*
X141518413Y-131623443D01*
X141518412Y-131623443D01*
X141316243Y-131557754D01*
X141316241Y-131557753D01*
X141316240Y-131557753D01*
X141135197Y-131529079D01*
X141106287Y-131524500D01*
X140893713Y-131524500D01*
X140864803Y-131529079D01*
X140683760Y-131557753D01*
X140481585Y-131623444D01*
X140292179Y-131719951D01*
X140120213Y-131844890D01*
X139969890Y-131995213D01*
X139844951Y-132167179D01*
X139748444Y-132356585D01*
X139682753Y-132558760D01*
X139649500Y-132768713D01*
X139649500Y-133231287D01*
X139682754Y-133441243D01*
X139722841Y-133564619D01*
X139748444Y-133643414D01*
X139844951Y-133832820D01*
X139969890Y-134004786D01*
X140120213Y-134155109D01*
X140292184Y-134280051D01*
X140292184Y-134280052D01*
X140331793Y-134300233D01*
X140382590Y-134348206D01*
X140399500Y-134410718D01*
X140399500Y-141589281D01*
X140379815Y-141656320D01*
X140331795Y-141699765D01*
X140292185Y-141719947D01*
X140292184Y-141719948D01*
X140120213Y-141844890D01*
X139969890Y-141995213D01*
X139844951Y-142167179D01*
X139748444Y-142356585D01*
X139682753Y-142558760D01*
X139676530Y-142598051D01*
X139649500Y-142768713D01*
X139649500Y-143231287D01*
X139682754Y-143441243D01*
X139740036Y-143617539D01*
X139748444Y-143643414D01*
X139844951Y-143832820D01*
X139969890Y-144004786D01*
X140120213Y-144155109D01*
X140292184Y-144280051D01*
X140292184Y-144280052D01*
X140331793Y-144300233D01*
X140382590Y-144348206D01*
X140399500Y-144410718D01*
X140399500Y-151589281D01*
X140379815Y-151656320D01*
X140331795Y-151699765D01*
X140292185Y-151719947D01*
X140292184Y-151719948D01*
X140120213Y-151844890D01*
X139969890Y-151995213D01*
X139844951Y-152167179D01*
X139748444Y-152356585D01*
X139682753Y-152558760D01*
X139655428Y-152731286D01*
X139649500Y-152768713D01*
X139649500Y-153231287D01*
X139682754Y-153441243D01*
X139703402Y-153504792D01*
X139748444Y-153643414D01*
X139844951Y-153832820D01*
X139969890Y-154004786D01*
X140120213Y-154155109D01*
X140292184Y-154280051D01*
X140292184Y-154280052D01*
X140331793Y-154300233D01*
X140382590Y-154348206D01*
X140399500Y-154410718D01*
X140399500Y-161589281D01*
X140379815Y-161656320D01*
X140331795Y-161699765D01*
X140292185Y-161719947D01*
X140292184Y-161719948D01*
X140120213Y-161844890D01*
X139969890Y-161995213D01*
X139844951Y-162167179D01*
X139748444Y-162356585D01*
X139682753Y-162558760D01*
X139649500Y-162768713D01*
X139649500Y-163231286D01*
X139676530Y-163401947D01*
X139667575Y-163471241D01*
X139641740Y-163509023D01*
X139512582Y-163638182D01*
X139451262Y-163671666D01*
X139424903Y-163674500D01*
X137474500Y-163674500D01*
X137407461Y-163654815D01*
X137361706Y-163602011D01*
X137350500Y-163550500D01*
X137350499Y-162224998D01*
X137350498Y-162224981D01*
X137339999Y-162122203D01*
X137339998Y-162122200D01*
X137332222Y-162098735D01*
X137284814Y-161955666D01*
X137192712Y-161806344D01*
X137068656Y-161682288D01*
X136919334Y-161590186D01*
X136752797Y-161535001D01*
X136752795Y-161535000D01*
X136711896Y-161530822D01*
X136647205Y-161504425D01*
X136607054Y-161447244D01*
X136600500Y-161407464D01*
X136600500Y-154592534D01*
X136620185Y-154525495D01*
X136672989Y-154479740D01*
X136711897Y-154469176D01*
X136752797Y-154464999D01*
X136919334Y-154409814D01*
X137068656Y-154317712D01*
X137192712Y-154193656D01*
X137284814Y-154044334D01*
X137339999Y-153877797D01*
X137350500Y-153775009D01*
X137350499Y-152224992D01*
X137339999Y-152122203D01*
X137284814Y-151955666D01*
X137192712Y-151806344D01*
X137068656Y-151682288D01*
X136919334Y-151590186D01*
X136752797Y-151535001D01*
X136752795Y-151535000D01*
X136650010Y-151524500D01*
X135349998Y-151524500D01*
X135349981Y-151524501D01*
X135247203Y-151535000D01*
X135247200Y-151535001D01*
X135080668Y-151590185D01*
X135080663Y-151590187D01*
X134931342Y-151682289D01*
X134807289Y-151806342D01*
X134715187Y-151955663D01*
X134715186Y-151955666D01*
X134660001Y-152122203D01*
X134660001Y-152122204D01*
X134660000Y-152122204D01*
X134649500Y-152224983D01*
X134649500Y-153775001D01*
X134649501Y-153775018D01*
X134660000Y-153877796D01*
X134660001Y-153877799D01*
X134702081Y-154004786D01*
X134715186Y-154044334D01*
X134807288Y-154193656D01*
X134931344Y-154317712D01*
X135080666Y-154409814D01*
X135247203Y-154464999D01*
X135288103Y-154469177D01*
X135352793Y-154495573D01*
X135392945Y-154552753D01*
X135399500Y-154592535D01*
X135399500Y-161407465D01*
X135379815Y-161474504D01*
X135327011Y-161520259D01*
X135288102Y-161530823D01*
X135247202Y-161535001D01*
X135247200Y-161535001D01*
X135080668Y-161590185D01*
X135080663Y-161590187D01*
X134931342Y-161682289D01*
X134807289Y-161806342D01*
X134715187Y-161955663D01*
X134715186Y-161955666D01*
X134660001Y-162122203D01*
X134660001Y-162122204D01*
X134660000Y-162122204D01*
X134649500Y-162224983D01*
X134649500Y-162224996D01*
X134649501Y-163550500D01*
X134629816Y-163617539D01*
X134577013Y-163663294D01*
X134525501Y-163674500D01*
X128075097Y-163674500D01*
X128008058Y-163654815D01*
X127987416Y-163638181D01*
X127858261Y-163509026D01*
X127824776Y-163447703D01*
X127823469Y-163401951D01*
X127850500Y-163231287D01*
X127850500Y-162768713D01*
X127817246Y-162558757D01*
X127751557Y-162356588D01*
X127655051Y-162167184D01*
X127655049Y-162167181D01*
X127655048Y-162167179D01*
X127530109Y-161995213D01*
X127379786Y-161844890D01*
X127207815Y-161719948D01*
X127207814Y-161719947D01*
X127168205Y-161699765D01*
X127117409Y-161651791D01*
X127100500Y-161589281D01*
X127100500Y-154410718D01*
X127120185Y-154343679D01*
X127168207Y-154300233D01*
X127207815Y-154280052D01*
X127207815Y-154280051D01*
X127207816Y-154280051D01*
X127326728Y-154193657D01*
X127379786Y-154155109D01*
X127379788Y-154155106D01*
X127379792Y-154155104D01*
X127530104Y-154004792D01*
X127530106Y-154004788D01*
X127530109Y-154004786D01*
X127655048Y-153832820D01*
X127655047Y-153832820D01*
X127655051Y-153832816D01*
X127751557Y-153643412D01*
X127817246Y-153441243D01*
X127850500Y-153231287D01*
X127850500Y-152768713D01*
X127817246Y-152558757D01*
X127751557Y-152356588D01*
X127655051Y-152167184D01*
X127655049Y-152167181D01*
X127655048Y-152167179D01*
X127530109Y-151995213D01*
X127379786Y-151844890D01*
X127207815Y-151719948D01*
X127207814Y-151719947D01*
X127168205Y-151699765D01*
X127117409Y-151651791D01*
X127100500Y-151589281D01*
X127100500Y-144410718D01*
X127120185Y-144343679D01*
X127168207Y-144300233D01*
X127207815Y-144280052D01*
X127207815Y-144280051D01*
X127207816Y-144280051D01*
X127326728Y-144193657D01*
X127379786Y-144155109D01*
X127379788Y-144155106D01*
X127379792Y-144155104D01*
X127530104Y-144004792D01*
X127530106Y-144004788D01*
X127530109Y-144004786D01*
X127655048Y-143832820D01*
X127655047Y-143832820D01*
X127655051Y-143832816D01*
X127751557Y-143643412D01*
X127817246Y-143441243D01*
X127850500Y-143231287D01*
X127850500Y-142768713D01*
X127817246Y-142558757D01*
X127751557Y-142356588D01*
X127655051Y-142167184D01*
X127655049Y-142167181D01*
X127655048Y-142167179D01*
X127530109Y-141995213D01*
X127379786Y-141844890D01*
X127207815Y-141719948D01*
X127207814Y-141719947D01*
X127168205Y-141699765D01*
X127117409Y-141651791D01*
X127100500Y-141589281D01*
X127100500Y-134410718D01*
X127120185Y-134343679D01*
X127168207Y-134300233D01*
X127207815Y-134280052D01*
X127207815Y-134280051D01*
X127207816Y-134280051D01*
X127326728Y-134193657D01*
X127379786Y-134155109D01*
X127379788Y-134155106D01*
X127379792Y-134155104D01*
X127530104Y-134004792D01*
X127530106Y-134004788D01*
X127530109Y-134004786D01*
X127655048Y-133832820D01*
X127655047Y-133832820D01*
X127655051Y-133832816D01*
X127751557Y-133643412D01*
X127817246Y-133441243D01*
X127850500Y-133231287D01*
X127850500Y-132768713D01*
X127817246Y-132558757D01*
X127751557Y-132356588D01*
X127684501Y-132224983D01*
X134649500Y-132224983D01*
X134649500Y-133775001D01*
X134649501Y-133775018D01*
X134660000Y-133877796D01*
X134660001Y-133877799D01*
X134705894Y-134016294D01*
X134715186Y-134044334D01*
X134807288Y-134193656D01*
X134931344Y-134317712D01*
X135080666Y-134409814D01*
X135247203Y-134464999D01*
X135288103Y-134469177D01*
X135352793Y-134495573D01*
X135392945Y-134552753D01*
X135399500Y-134592535D01*
X135399500Y-141407465D01*
X135379815Y-141474504D01*
X135327011Y-141520259D01*
X135288102Y-141530823D01*
X135247202Y-141535001D01*
X135247200Y-141535001D01*
X135080668Y-141590185D01*
X135080663Y-141590187D01*
X134931342Y-141682289D01*
X134807289Y-141806342D01*
X134715187Y-141955663D01*
X134715186Y-141955666D01*
X134660001Y-142122203D01*
X134660001Y-142122204D01*
X134660000Y-142122204D01*
X134649500Y-142224983D01*
X134649500Y-143775001D01*
X134649501Y-143775018D01*
X134660000Y-143877796D01*
X134660001Y-143877799D01*
X134690575Y-143970063D01*
X134715186Y-144044334D01*
X134807288Y-144193656D01*
X134931344Y-144317712D01*
X135080666Y-144409814D01*
X135247203Y-144464999D01*
X135349991Y-144475500D01*
X136650008Y-144475499D01*
X136752797Y-144464999D01*
X136919334Y-144409814D01*
X137068656Y-144317712D01*
X137192712Y-144193656D01*
X137284814Y-144044334D01*
X137339999Y-143877797D01*
X137350500Y-143775009D01*
X137350499Y-142224992D01*
X137339999Y-142122203D01*
X137284814Y-141955666D01*
X137192712Y-141806344D01*
X137068656Y-141682288D01*
X136943969Y-141605381D01*
X136919336Y-141590187D01*
X136919331Y-141590185D01*
X136899498Y-141583613D01*
X136752797Y-141535001D01*
X136752795Y-141535000D01*
X136711896Y-141530822D01*
X136647205Y-141504425D01*
X136607054Y-141447244D01*
X136600500Y-141407464D01*
X136600500Y-134592534D01*
X136620185Y-134525495D01*
X136672989Y-134479740D01*
X136711897Y-134469176D01*
X136752797Y-134464999D01*
X136919334Y-134409814D01*
X137068656Y-134317712D01*
X137192712Y-134193656D01*
X137284814Y-134044334D01*
X137339999Y-133877797D01*
X137350500Y-133775009D01*
X137350499Y-132224992D01*
X137339999Y-132122203D01*
X137284814Y-131955666D01*
X137192712Y-131806344D01*
X137068656Y-131682288D01*
X136965942Y-131618934D01*
X136919336Y-131590187D01*
X136919331Y-131590185D01*
X136899498Y-131583613D01*
X136752797Y-131535001D01*
X136752795Y-131535000D01*
X136650010Y-131524500D01*
X135349998Y-131524500D01*
X135349981Y-131524501D01*
X135247203Y-131535000D01*
X135247200Y-131535001D01*
X135080668Y-131590185D01*
X135080663Y-131590187D01*
X134931342Y-131682289D01*
X134807289Y-131806342D01*
X134715187Y-131955663D01*
X134715185Y-131955668D01*
X134710325Y-131970334D01*
X134660001Y-132122203D01*
X134660001Y-132122204D01*
X134660000Y-132122204D01*
X134649500Y-132224983D01*
X127684501Y-132224983D01*
X127655051Y-132167184D01*
X127655049Y-132167181D01*
X127655048Y-132167179D01*
X127530109Y-131995213D01*
X127379786Y-131844890D01*
X127207820Y-131719951D01*
X127018414Y-131623444D01*
X127018413Y-131623443D01*
X127018412Y-131623443D01*
X126816243Y-131557754D01*
X126816241Y-131557753D01*
X126816240Y-131557753D01*
X126635197Y-131529079D01*
X126606287Y-131524500D01*
X126393713Y-131524500D01*
X126364803Y-131529079D01*
X126183760Y-131557753D01*
X125981585Y-131623444D01*
X125792179Y-131719951D01*
X125620213Y-131844890D01*
X125469890Y-131995213D01*
X125344951Y-132167179D01*
X125248444Y-132356585D01*
X125182753Y-132558760D01*
X125149500Y-132768713D01*
X125149500Y-133231287D01*
X125182754Y-133441243D01*
X125222841Y-133564619D01*
X125248444Y-133643414D01*
X125344951Y-133832820D01*
X125469890Y-134004786D01*
X125620213Y-134155109D01*
X125792184Y-134280051D01*
X125792184Y-134280052D01*
X125831793Y-134300233D01*
X125882590Y-134348206D01*
X125899500Y-134410718D01*
X125899500Y-141589281D01*
X125879815Y-141656320D01*
X125831795Y-141699765D01*
X125792185Y-141719947D01*
X125792184Y-141719948D01*
X125620213Y-141844890D01*
X125469890Y-141995213D01*
X125344951Y-142167179D01*
X125248444Y-142356585D01*
X125182753Y-142558760D01*
X125176530Y-142598051D01*
X125149500Y-142768713D01*
X125149500Y-143231287D01*
X125182754Y-143441243D01*
X125240036Y-143617539D01*
X125248444Y-143643414D01*
X125344951Y-143832820D01*
X125469890Y-144004786D01*
X125620213Y-144155109D01*
X125792184Y-144280051D01*
X125792184Y-144280052D01*
X125831793Y-144300233D01*
X125882590Y-144348206D01*
X125899500Y-144410718D01*
X125899500Y-151589281D01*
X125879815Y-151656320D01*
X125831795Y-151699765D01*
X125792185Y-151719947D01*
X125792184Y-151719948D01*
X125620213Y-151844890D01*
X125469890Y-151995213D01*
X125344951Y-152167179D01*
X125248444Y-152356585D01*
X125182753Y-152558760D01*
X125155428Y-152731286D01*
X125149500Y-152768713D01*
X125149500Y-153231287D01*
X125182754Y-153441243D01*
X125203402Y-153504792D01*
X125248444Y-153643414D01*
X125344951Y-153832820D01*
X125469890Y-154004786D01*
X125620213Y-154155109D01*
X125792184Y-154280051D01*
X125792184Y-154280052D01*
X125831793Y-154300233D01*
X125882590Y-154348206D01*
X125899500Y-154410718D01*
X125899500Y-161589281D01*
X125879815Y-161656320D01*
X125831795Y-161699765D01*
X125792185Y-161719947D01*
X125792184Y-161719948D01*
X125620213Y-161844890D01*
X125469890Y-161995213D01*
X125344951Y-162167179D01*
X125248444Y-162356585D01*
X125182753Y-162558760D01*
X125149500Y-162768713D01*
X125149500Y-163231286D01*
X125176530Y-163401947D01*
X125167575Y-163471241D01*
X125141740Y-163509023D01*
X125012582Y-163638182D01*
X124951262Y-163671666D01*
X124924903Y-163674500D01*
X122974500Y-163674500D01*
X122907461Y-163654815D01*
X122861706Y-163602011D01*
X122850500Y-163550500D01*
X122850499Y-162224998D01*
X122850498Y-162224981D01*
X122839999Y-162122203D01*
X122839998Y-162122200D01*
X122832222Y-162098735D01*
X122784814Y-161955666D01*
X122692712Y-161806344D01*
X122568656Y-161682288D01*
X122419334Y-161590186D01*
X122252797Y-161535001D01*
X122252795Y-161535000D01*
X122211896Y-161530822D01*
X122147205Y-161504425D01*
X122107054Y-161447244D01*
X122100500Y-161407464D01*
X122100500Y-154592534D01*
X122120185Y-154525495D01*
X122172989Y-154479740D01*
X122211897Y-154469176D01*
X122252797Y-154464999D01*
X122419334Y-154409814D01*
X122568656Y-154317712D01*
X122692712Y-154193656D01*
X122784814Y-154044334D01*
X122839999Y-153877797D01*
X122850500Y-153775009D01*
X122850499Y-152224992D01*
X122839999Y-152122203D01*
X122784814Y-151955666D01*
X122692712Y-151806344D01*
X122568656Y-151682288D01*
X122419334Y-151590186D01*
X122252797Y-151535001D01*
X122252795Y-151535000D01*
X122211896Y-151530822D01*
X122147205Y-151504425D01*
X122107054Y-151447244D01*
X122100500Y-151407464D01*
X122100500Y-144592534D01*
X122120185Y-144525495D01*
X122172989Y-144479740D01*
X122211897Y-144469176D01*
X122252797Y-144464999D01*
X122419334Y-144409814D01*
X122568656Y-144317712D01*
X122692712Y-144193656D01*
X122784814Y-144044334D01*
X122839999Y-143877797D01*
X122850500Y-143775009D01*
X122850499Y-142224992D01*
X122839999Y-142122203D01*
X122784814Y-141955666D01*
X122692712Y-141806344D01*
X122568656Y-141682288D01*
X122443969Y-141605381D01*
X122419336Y-141590187D01*
X122419331Y-141590185D01*
X122399498Y-141583613D01*
X122252797Y-141535001D01*
X122252795Y-141535000D01*
X122211896Y-141530822D01*
X122147205Y-141504425D01*
X122107054Y-141447244D01*
X122100500Y-141407464D01*
X122100500Y-134592534D01*
X122120185Y-134525495D01*
X122172989Y-134479740D01*
X122211897Y-134469176D01*
X122252797Y-134464999D01*
X122419334Y-134409814D01*
X122568656Y-134317712D01*
X122692712Y-134193656D01*
X122784814Y-134044334D01*
X122839999Y-133877797D01*
X122850500Y-133775009D01*
X122850499Y-132224992D01*
X122839999Y-132122203D01*
X122784814Y-131955666D01*
X122692712Y-131806344D01*
X122568656Y-131682288D01*
X122465942Y-131618934D01*
X122419336Y-131590187D01*
X122419331Y-131590185D01*
X122399498Y-131583613D01*
X122252797Y-131535001D01*
X122252795Y-131535000D01*
X122150010Y-131524500D01*
X120849998Y-131524500D01*
X120849981Y-131524501D01*
X120747203Y-131535000D01*
X120747200Y-131535001D01*
X120580668Y-131590185D01*
X120580663Y-131590187D01*
X120431342Y-131682289D01*
X120307289Y-131806342D01*
X120215187Y-131955663D01*
X120215185Y-131955668D01*
X120210325Y-131970334D01*
X120160001Y-132122203D01*
X120160001Y-132122204D01*
X120160000Y-132122204D01*
X120149500Y-132224983D01*
X120149500Y-133775001D01*
X120149501Y-133775018D01*
X120160000Y-133877796D01*
X120160001Y-133877799D01*
X120205894Y-134016294D01*
X120215186Y-134044334D01*
X120307288Y-134193656D01*
X120431344Y-134317712D01*
X120580666Y-134409814D01*
X120747203Y-134464999D01*
X120788103Y-134469177D01*
X120852793Y-134495573D01*
X120892945Y-134552753D01*
X120899500Y-134592535D01*
X120899500Y-141407465D01*
X120879815Y-141474504D01*
X120827011Y-141520259D01*
X120788102Y-141530823D01*
X120747202Y-141535001D01*
X120747200Y-141535001D01*
X120580668Y-141590185D01*
X120580663Y-141590187D01*
X120431342Y-141682289D01*
X120307289Y-141806342D01*
X120215187Y-141955663D01*
X120215186Y-141955666D01*
X120160001Y-142122203D01*
X120160001Y-142122204D01*
X120160000Y-142122204D01*
X120149500Y-142224983D01*
X120149500Y-143775001D01*
X120149501Y-143775018D01*
X120160000Y-143877796D01*
X120160001Y-143877799D01*
X120190575Y-143970063D01*
X120215186Y-144044334D01*
X120307288Y-144193656D01*
X120431344Y-144317712D01*
X120580666Y-144409814D01*
X120747203Y-144464999D01*
X120788103Y-144469177D01*
X120852793Y-144495573D01*
X120892945Y-144552753D01*
X120899500Y-144592535D01*
X120899500Y-151407465D01*
X120879815Y-151474504D01*
X120827011Y-151520259D01*
X120788102Y-151530823D01*
X120747202Y-151535001D01*
X120747200Y-151535001D01*
X120580668Y-151590185D01*
X120580663Y-151590187D01*
X120431342Y-151682289D01*
X120307289Y-151806342D01*
X120215187Y-151955663D01*
X120215186Y-151955666D01*
X120160001Y-152122203D01*
X120160001Y-152122204D01*
X120160000Y-152122204D01*
X120149500Y-152224983D01*
X120149500Y-153775001D01*
X120149501Y-153775018D01*
X120160000Y-153877796D01*
X120160001Y-153877799D01*
X120202081Y-154004786D01*
X120215186Y-154044334D01*
X120307288Y-154193656D01*
X120431344Y-154317712D01*
X120580666Y-154409814D01*
X120747203Y-154464999D01*
X120788103Y-154469177D01*
X120852793Y-154495573D01*
X120892945Y-154552753D01*
X120899500Y-154592535D01*
X120899500Y-161407465D01*
X120879815Y-161474504D01*
X120827011Y-161520259D01*
X120788102Y-161530823D01*
X120747202Y-161535001D01*
X120747200Y-161535001D01*
X120580668Y-161590185D01*
X120580663Y-161590187D01*
X120431342Y-161682289D01*
X120307289Y-161806342D01*
X120215187Y-161955663D01*
X120215186Y-161955666D01*
X120160001Y-162122203D01*
X120160001Y-162122204D01*
X120160000Y-162122204D01*
X120149500Y-162224983D01*
X120149500Y-162224996D01*
X120149501Y-163550500D01*
X120129816Y-163617539D01*
X120077013Y-163663294D01*
X120025501Y-163674500D01*
X114075097Y-163674500D01*
X114008058Y-163654815D01*
X113987416Y-163638181D01*
X113858261Y-163509026D01*
X113824776Y-163447703D01*
X113823469Y-163401951D01*
X113850500Y-163231287D01*
X113850500Y-162768713D01*
X113817246Y-162558757D01*
X113751557Y-162356588D01*
X113655051Y-162167184D01*
X113655049Y-162167181D01*
X113655048Y-162167179D01*
X113530109Y-161995213D01*
X113379786Y-161844890D01*
X113207815Y-161719948D01*
X113207814Y-161719947D01*
X113168205Y-161699765D01*
X113117409Y-161651791D01*
X113100500Y-161589281D01*
X113100500Y-154410718D01*
X113120185Y-154343679D01*
X113168207Y-154300233D01*
X113207815Y-154280052D01*
X113207815Y-154280051D01*
X113207816Y-154280051D01*
X113326728Y-154193657D01*
X113379786Y-154155109D01*
X113379788Y-154155106D01*
X113379792Y-154155104D01*
X113530104Y-154004792D01*
X113530106Y-154004788D01*
X113530109Y-154004786D01*
X113655048Y-153832820D01*
X113655047Y-153832820D01*
X113655051Y-153832816D01*
X113751557Y-153643412D01*
X113817246Y-153441243D01*
X113850500Y-153231287D01*
X113850500Y-152768713D01*
X113817246Y-152558757D01*
X113751557Y-152356588D01*
X113655051Y-152167184D01*
X113655049Y-152167181D01*
X113655048Y-152167179D01*
X113530109Y-151995213D01*
X113379786Y-151844890D01*
X113207815Y-151719948D01*
X113207814Y-151719947D01*
X113168205Y-151699765D01*
X113117409Y-151651791D01*
X113100500Y-151589281D01*
X113100500Y-144410718D01*
X113120185Y-144343679D01*
X113168207Y-144300233D01*
X113207815Y-144280052D01*
X113207815Y-144280051D01*
X113207816Y-144280051D01*
X113326728Y-144193657D01*
X113379786Y-144155109D01*
X113379788Y-144155106D01*
X113379792Y-144155104D01*
X113530104Y-144004792D01*
X113530106Y-144004788D01*
X113530109Y-144004786D01*
X113655048Y-143832820D01*
X113655047Y-143832820D01*
X113655051Y-143832816D01*
X113751557Y-143643412D01*
X113817246Y-143441243D01*
X113850500Y-143231287D01*
X113850500Y-142768713D01*
X113817246Y-142558757D01*
X113751557Y-142356588D01*
X113655051Y-142167184D01*
X113655049Y-142167181D01*
X113655048Y-142167179D01*
X113530109Y-141995213D01*
X113379786Y-141844890D01*
X113207815Y-141719948D01*
X113207814Y-141719947D01*
X113168205Y-141699765D01*
X113117409Y-141651791D01*
X113100500Y-141589281D01*
X113100500Y-134410718D01*
X113120185Y-134343679D01*
X113168207Y-134300233D01*
X113207815Y-134280052D01*
X113207815Y-134280051D01*
X113207816Y-134280051D01*
X113326728Y-134193657D01*
X113379786Y-134155109D01*
X113379788Y-134155106D01*
X113379792Y-134155104D01*
X113530104Y-134004792D01*
X113530106Y-134004788D01*
X113530109Y-134004786D01*
X113655048Y-133832820D01*
X113655047Y-133832820D01*
X113655051Y-133832816D01*
X113751557Y-133643412D01*
X113817246Y-133441243D01*
X113850500Y-133231287D01*
X113850500Y-132768713D01*
X113817246Y-132558757D01*
X113751557Y-132356588D01*
X113655051Y-132167184D01*
X113655049Y-132167181D01*
X113655048Y-132167179D01*
X113530109Y-131995213D01*
X113379786Y-131844890D01*
X113207820Y-131719951D01*
X113018414Y-131623444D01*
X113018413Y-131623443D01*
X113018412Y-131623443D01*
X112816243Y-131557754D01*
X112816241Y-131557753D01*
X112816240Y-131557753D01*
X112635197Y-131529079D01*
X112606287Y-131524500D01*
X112393713Y-131524500D01*
X112364803Y-131529079D01*
X112183760Y-131557753D01*
X111981585Y-131623444D01*
X111792179Y-131719951D01*
X111620213Y-131844890D01*
X111469890Y-131995213D01*
X111344951Y-132167179D01*
X111248444Y-132356585D01*
X111182753Y-132558760D01*
X111149500Y-132768713D01*
X111149500Y-133231287D01*
X111182754Y-133441243D01*
X111222841Y-133564619D01*
X111248444Y-133643414D01*
X111344951Y-133832820D01*
X111469890Y-134004786D01*
X111620213Y-134155109D01*
X111792184Y-134280051D01*
X111792184Y-134280052D01*
X111831793Y-134300233D01*
X111882590Y-134348206D01*
X111899500Y-134410718D01*
X111899500Y-141589281D01*
X111879815Y-141656320D01*
X111831795Y-141699765D01*
X111792185Y-141719947D01*
X111792184Y-141719948D01*
X111620213Y-141844890D01*
X111469890Y-141995213D01*
X111344951Y-142167179D01*
X111248444Y-142356585D01*
X111182753Y-142558760D01*
X111176530Y-142598051D01*
X111149500Y-142768713D01*
X111149500Y-143231287D01*
X111182754Y-143441243D01*
X111240036Y-143617539D01*
X111248444Y-143643414D01*
X111344951Y-143832820D01*
X111469890Y-144004786D01*
X111620213Y-144155109D01*
X111792184Y-144280051D01*
X111792184Y-144280052D01*
X111831793Y-144300233D01*
X111882590Y-144348206D01*
X111899500Y-144410718D01*
X111899500Y-151589281D01*
X111879815Y-151656320D01*
X111831795Y-151699765D01*
X111792185Y-151719947D01*
X111792184Y-151719948D01*
X111620213Y-151844890D01*
X111469890Y-151995213D01*
X111344951Y-152167179D01*
X111248444Y-152356585D01*
X111182753Y-152558760D01*
X111155428Y-152731286D01*
X111149500Y-152768713D01*
X111149500Y-153231287D01*
X111182754Y-153441243D01*
X111203402Y-153504792D01*
X111248444Y-153643414D01*
X111344951Y-153832820D01*
X111469890Y-154004786D01*
X111620213Y-154155109D01*
X111792184Y-154280051D01*
X111792184Y-154280052D01*
X111831793Y-154300233D01*
X111882590Y-154348206D01*
X111899500Y-154410718D01*
X111899500Y-161589281D01*
X111879815Y-161656320D01*
X111831795Y-161699765D01*
X111792185Y-161719947D01*
X111792184Y-161719948D01*
X111620213Y-161844890D01*
X111469890Y-161995213D01*
X111344951Y-162167179D01*
X111248444Y-162356585D01*
X111182753Y-162558760D01*
X111149500Y-162768713D01*
X111149500Y-163231287D01*
X111182754Y-163441243D01*
X111246743Y-163638181D01*
X111248444Y-163643414D01*
X111344950Y-163832818D01*
X111377497Y-163877616D01*
X111400976Y-163943422D01*
X111385150Y-164011476D01*
X111335044Y-164060170D01*
X111277178Y-164074500D01*
X108946538Y-164074500D01*
X108879499Y-164054815D01*
X108833744Y-164002011D01*
X108823800Y-163932853D01*
X108828832Y-163911496D01*
X108839999Y-163877797D01*
X108850500Y-163775009D01*
X108850499Y-162224992D01*
X108839999Y-162122203D01*
X108784814Y-161955666D01*
X108692712Y-161806344D01*
X108568656Y-161682288D01*
X108419334Y-161590186D01*
X108252797Y-161535001D01*
X108252795Y-161535000D01*
X108211896Y-161530822D01*
X108147205Y-161504425D01*
X108107054Y-161447244D01*
X108100500Y-161407464D01*
X108100500Y-154592534D01*
X108120185Y-154525495D01*
X108172989Y-154479740D01*
X108211897Y-154469176D01*
X108252797Y-154464999D01*
X108419334Y-154409814D01*
X108568656Y-154317712D01*
X108692712Y-154193656D01*
X108784814Y-154044334D01*
X108839999Y-153877797D01*
X108850500Y-153775009D01*
X108850499Y-152224992D01*
X108839999Y-152122203D01*
X108784814Y-151955666D01*
X108692712Y-151806344D01*
X108568656Y-151682288D01*
X108419334Y-151590186D01*
X108252797Y-151535001D01*
X108252795Y-151535000D01*
X108211896Y-151530822D01*
X108147205Y-151504425D01*
X108107054Y-151447244D01*
X108100500Y-151407464D01*
X108100500Y-144592534D01*
X108120185Y-144525495D01*
X108172989Y-144479740D01*
X108211897Y-144469176D01*
X108252797Y-144464999D01*
X108419334Y-144409814D01*
X108568656Y-144317712D01*
X108692712Y-144193656D01*
X108784814Y-144044334D01*
X108839999Y-143877797D01*
X108850500Y-143775009D01*
X108850499Y-142224992D01*
X108839999Y-142122203D01*
X108784814Y-141955666D01*
X108692712Y-141806344D01*
X108568656Y-141682288D01*
X108443969Y-141605381D01*
X108419336Y-141590187D01*
X108419331Y-141590185D01*
X108399498Y-141583613D01*
X108252797Y-141535001D01*
X108252795Y-141535000D01*
X108211896Y-141530822D01*
X108147205Y-141504425D01*
X108107054Y-141447244D01*
X108100500Y-141407464D01*
X108100500Y-134592534D01*
X108120185Y-134525495D01*
X108172989Y-134479740D01*
X108211897Y-134469176D01*
X108252797Y-134464999D01*
X108419334Y-134409814D01*
X108568656Y-134317712D01*
X108692712Y-134193656D01*
X108784814Y-134044334D01*
X108839999Y-133877797D01*
X108850500Y-133775009D01*
X108850499Y-132224992D01*
X108839999Y-132122203D01*
X108784814Y-131955666D01*
X108692712Y-131806344D01*
X108568656Y-131682288D01*
X108465942Y-131618934D01*
X108419336Y-131590187D01*
X108419331Y-131590185D01*
X108399498Y-131583613D01*
X108252797Y-131535001D01*
X108252795Y-131535000D01*
X108150010Y-131524500D01*
X106849998Y-131524500D01*
X106849981Y-131524501D01*
X106740468Y-131535689D01*
X106740249Y-131533545D01*
X106680756Y-131529079D01*
X106624971Y-131487010D01*
X106600785Y-131421460D01*
X106600500Y-131413051D01*
X106600500Y-118969743D01*
X106620185Y-118902704D01*
X106672989Y-118856949D01*
X106742147Y-118847005D01*
X106805703Y-118876030D01*
X106836880Y-118917337D01*
X106849858Y-118945167D01*
X106976868Y-119126555D01*
X107133445Y-119283132D01*
X107314833Y-119410142D01*
X107424157Y-119461120D01*
X107515513Y-119503720D01*
X107515515Y-119503720D01*
X107515520Y-119503723D01*
X107729409Y-119561035D01*
X107886974Y-119574820D01*
X107949998Y-119580334D01*
X107950000Y-119580334D01*
X107950002Y-119580334D01*
X107980575Y-119577659D01*
X108170591Y-119561035D01*
X108244352Y-119541270D01*
X108314201Y-119542931D01*
X108364128Y-119573363D01*
X108567639Y-119776874D01*
X108567649Y-119776885D01*
X108571979Y-119781215D01*
X108571980Y-119781216D01*
X108683784Y-119893020D01*
X108683786Y-119893021D01*
X108683790Y-119893024D01*
X108820709Y-119972073D01*
X108820716Y-119972077D01*
X108932519Y-120002034D01*
X108973442Y-120013000D01*
X108973443Y-120013000D01*
X136612403Y-120013000D01*
X136679442Y-120032685D01*
X136700084Y-120049319D01*
X149113181Y-132462417D01*
X149146666Y-132523740D01*
X149149500Y-132550098D01*
X149149500Y-133775001D01*
X149149501Y-133775018D01*
X149160000Y-133877796D01*
X149160001Y-133877799D01*
X149205894Y-134016294D01*
X149215186Y-134044334D01*
X149307288Y-134193656D01*
X149431344Y-134317712D01*
X149580666Y-134409814D01*
X149747203Y-134464999D01*
X149849991Y-134475500D01*
X151150008Y-134475499D01*
X151252797Y-134464999D01*
X151419334Y-134409814D01*
X151568656Y-134317712D01*
X151692712Y-134193656D01*
X151784814Y-134044334D01*
X151839999Y-133877797D01*
X151850500Y-133775009D01*
X151850499Y-132224992D01*
X151839999Y-132122203D01*
X151784814Y-131955666D01*
X151692712Y-131806344D01*
X151568656Y-131682288D01*
X151465942Y-131618934D01*
X151419336Y-131590187D01*
X151419331Y-131590185D01*
X151399498Y-131583613D01*
X151252797Y-131535001D01*
X151252795Y-131535000D01*
X151150016Y-131524500D01*
X151150009Y-131524500D01*
X149925098Y-131524500D01*
X149858059Y-131504815D01*
X149837417Y-131488181D01*
X137400090Y-119050855D01*
X137400088Y-119050852D01*
X137281217Y-118931981D01*
X137281216Y-118931980D01*
X137194404Y-118881860D01*
X137194404Y-118881859D01*
X137194400Y-118881858D01*
X137144285Y-118852923D01*
X136991557Y-118811999D01*
X136833443Y-118811999D01*
X136825847Y-118811999D01*
X136825831Y-118812000D01*
X116946054Y-118812000D01*
X116879015Y-118792315D01*
X116833260Y-118739511D01*
X116823316Y-118670353D01*
X116826279Y-118655906D01*
X116828496Y-118647631D01*
X116858106Y-118537128D01*
X116877977Y-118310000D01*
X116858106Y-118082872D01*
X116799096Y-117862646D01*
X116702741Y-117656012D01*
X116588911Y-117493445D01*
X116571970Y-117469250D01*
X116502736Y-117400016D01*
X116410751Y-117308031D01*
X116410747Y-117308028D01*
X116410746Y-117308027D01*
X116223993Y-117177261D01*
X116223985Y-117177257D01*
X116170640Y-117152382D01*
X116118200Y-117106210D01*
X116099048Y-117039017D01*
X116119263Y-116972135D01*
X116170640Y-116927618D01*
X116175021Y-116925574D01*
X116223989Y-116902741D01*
X116410751Y-116771969D01*
X116571969Y-116610751D01*
X116702741Y-116423989D01*
X116799096Y-116217354D01*
X116858106Y-115997128D01*
X116877977Y-115770000D01*
X116858106Y-115542872D01*
X116799096Y-115322646D01*
X116702741Y-115116012D01*
X116588911Y-114953445D01*
X116571970Y-114929250D01*
X116571966Y-114929246D01*
X116410751Y-114768031D01*
X116410747Y-114768028D01*
X116410746Y-114768027D01*
X116223993Y-114637261D01*
X116223985Y-114637257D01*
X116170640Y-114612382D01*
X116118200Y-114566210D01*
X116099048Y-114499017D01*
X116119263Y-114432135D01*
X116170640Y-114387618D01*
X116175021Y-114385574D01*
X116223989Y-114362741D01*
X116410751Y-114231969D01*
X116571969Y-114070751D01*
X116702741Y-113883989D01*
X116799096Y-113677354D01*
X116858106Y-113457128D01*
X116877977Y-113230000D01*
X116858106Y-113002872D01*
X116799096Y-112782646D01*
X116702741Y-112576012D01*
X116588911Y-112413445D01*
X116571970Y-112389250D01*
X116571966Y-112389246D01*
X116410751Y-112228031D01*
X116410747Y-112228028D01*
X116410746Y-112228027D01*
X116223993Y-112097261D01*
X116223985Y-112097257D01*
X116170640Y-112072382D01*
X116118200Y-112026210D01*
X116099048Y-111959017D01*
X116119263Y-111892135D01*
X116170640Y-111847618D01*
X116175021Y-111845574D01*
X116223989Y-111822741D01*
X116410751Y-111691969D01*
X116571969Y-111530751D01*
X116702741Y-111343989D01*
X116799096Y-111137354D01*
X116858106Y-110917128D01*
X116877977Y-110690000D01*
X116874924Y-110655109D01*
X116865233Y-110544334D01*
X116858106Y-110462872D01*
X116802833Y-110256592D01*
X116804496Y-110186744D01*
X116843658Y-110128881D01*
X116907887Y-110101377D01*
X116922608Y-110100500D01*
X133451249Y-110100500D01*
X133518288Y-110120185D01*
G37*
G04 #@! TD.AperFunction*
G04 #@! TA.AperFunction,Conductor*
G36*
X167629759Y-82305185D02*
G01*
X167675514Y-82357989D01*
X167685458Y-82427147D01*
X167682495Y-82441593D01*
X167658966Y-82529403D01*
X167658964Y-82529414D01*
X167639666Y-82749998D01*
X167639666Y-82750001D01*
X167658964Y-82970585D01*
X167658965Y-82970592D01*
X167716275Y-83184475D01*
X167716279Y-83184486D01*
X167799606Y-83363181D01*
X167809858Y-83385167D01*
X167936868Y-83566555D01*
X167937869Y-83567984D01*
X167960196Y-83634190D01*
X167943186Y-83701958D01*
X167923975Y-83726789D01*
X166519481Y-85131282D01*
X166519480Y-85131284D01*
X166485307Y-85190474D01*
X166440423Y-85268215D01*
X166399499Y-85420943D01*
X166399499Y-85420945D01*
X166399499Y-85589046D01*
X166399500Y-85589059D01*
X166399500Y-125661984D01*
X166399499Y-125662002D01*
X166399499Y-125827708D01*
X166399498Y-125827708D01*
X166440423Y-125980439D01*
X166469358Y-126030554D01*
X166469359Y-126030558D01*
X166469360Y-126030558D01*
X166519479Y-126117368D01*
X166519481Y-126117371D01*
X166638349Y-126236239D01*
X166638355Y-126236244D01*
X171890030Y-131487919D01*
X171923515Y-131549242D01*
X171918531Y-131618934D01*
X171876659Y-131674867D01*
X171858645Y-131686084D01*
X171792182Y-131719949D01*
X171620213Y-131844890D01*
X171469890Y-131995213D01*
X171344951Y-132167179D01*
X171248444Y-132356585D01*
X171182753Y-132558760D01*
X171149500Y-132768713D01*
X171149500Y-133231287D01*
X171182754Y-133441243D01*
X171222841Y-133564619D01*
X171248444Y-133643414D01*
X171344951Y-133832820D01*
X171469890Y-134004786D01*
X171620213Y-134155109D01*
X171792184Y-134280051D01*
X171792184Y-134280052D01*
X171831793Y-134300233D01*
X171882590Y-134348206D01*
X171899500Y-134410718D01*
X171899500Y-135199902D01*
X171879815Y-135266941D01*
X171863181Y-135287583D01*
X165812181Y-141338583D01*
X165750858Y-141372068D01*
X165681166Y-141367084D01*
X165625233Y-141325212D01*
X165600816Y-141259748D01*
X165600500Y-141250902D01*
X165600500Y-140669599D01*
X165600500Y-140669597D01*
X165559577Y-140516870D01*
X165559577Y-140516869D01*
X165559577Y-140516868D01*
X165504194Y-140420943D01*
X165504193Y-140420942D01*
X165480521Y-140379939D01*
X165364385Y-140263803D01*
X165364374Y-140263793D01*
X157325564Y-132224983D01*
X163649500Y-132224983D01*
X163649500Y-133775001D01*
X163649501Y-133775018D01*
X163660000Y-133877796D01*
X163660001Y-133877799D01*
X163705894Y-134016294D01*
X163715186Y-134044334D01*
X163807288Y-134193656D01*
X163931344Y-134317712D01*
X164080666Y-134409814D01*
X164247203Y-134464999D01*
X164349991Y-134475500D01*
X165650008Y-134475499D01*
X165752797Y-134464999D01*
X165919334Y-134409814D01*
X166068656Y-134317712D01*
X166192712Y-134193656D01*
X166284814Y-134044334D01*
X166284814Y-134044331D01*
X166288178Y-134038879D01*
X166340126Y-133992154D01*
X166409088Y-133980931D01*
X166473170Y-134008774D01*
X166481398Y-134016294D01*
X166620213Y-134155109D01*
X166792179Y-134280048D01*
X166792181Y-134280049D01*
X166792184Y-134280051D01*
X166981588Y-134376557D01*
X167183757Y-134442246D01*
X167393713Y-134475500D01*
X167393714Y-134475500D01*
X167606286Y-134475500D01*
X167606287Y-134475500D01*
X167816243Y-134442246D01*
X168018412Y-134376557D01*
X168207816Y-134280051D01*
X168253767Y-134246666D01*
X168379786Y-134155109D01*
X168379788Y-134155106D01*
X168379792Y-134155104D01*
X168530104Y-134004792D01*
X168530106Y-134004788D01*
X168530109Y-134004786D01*
X168655048Y-133832820D01*
X168655047Y-133832820D01*
X168655051Y-133832816D01*
X168751557Y-133643412D01*
X168817246Y-133441243D01*
X168850500Y-133231287D01*
X168850500Y-132768713D01*
X168817246Y-132558757D01*
X168751557Y-132356588D01*
X168655051Y-132167184D01*
X168655049Y-132167181D01*
X168655048Y-132167179D01*
X168530109Y-131995213D01*
X168379786Y-131844890D01*
X168207820Y-131719951D01*
X168018414Y-131623444D01*
X168018413Y-131623443D01*
X168018412Y-131623443D01*
X167816243Y-131557754D01*
X167816241Y-131557753D01*
X167816240Y-131557753D01*
X167635197Y-131529079D01*
X167606287Y-131524500D01*
X167393713Y-131524500D01*
X167364803Y-131529079D01*
X167183760Y-131557753D01*
X166981585Y-131623444D01*
X166792179Y-131719951D01*
X166620215Y-131844889D01*
X166481398Y-131983706D01*
X166420075Y-132017190D01*
X166350383Y-132012206D01*
X166294450Y-131970334D01*
X166288178Y-131961120D01*
X166192712Y-131806344D01*
X166068657Y-131682289D01*
X166068656Y-131682288D01*
X165965942Y-131618934D01*
X165919336Y-131590187D01*
X165919331Y-131590185D01*
X165899498Y-131583613D01*
X165752797Y-131535001D01*
X165752795Y-131535000D01*
X165650010Y-131524500D01*
X164349998Y-131524500D01*
X164349981Y-131524501D01*
X164247203Y-131535000D01*
X164247200Y-131535001D01*
X164080668Y-131590185D01*
X164080663Y-131590187D01*
X163931342Y-131682289D01*
X163807289Y-131806342D01*
X163715187Y-131955663D01*
X163715185Y-131955668D01*
X163710325Y-131970334D01*
X163660001Y-132122203D01*
X163660001Y-132122204D01*
X163660000Y-132122204D01*
X163649500Y-132224983D01*
X157325564Y-132224983D01*
X147759534Y-122658953D01*
X147726049Y-122597630D01*
X147731033Y-122527938D01*
X147772905Y-122472005D01*
X147838369Y-122447588D01*
X147894665Y-122456710D01*
X148026113Y-122511158D01*
X148247762Y-122570548D01*
X148475266Y-122600500D01*
X148475273Y-122600500D01*
X148704727Y-122600500D01*
X148704734Y-122600500D01*
X148932238Y-122570548D01*
X149153887Y-122511158D01*
X149365888Y-122423344D01*
X149564612Y-122308611D01*
X149746661Y-122168919D01*
X149746665Y-122168914D01*
X149746670Y-122168911D01*
X149908911Y-122006670D01*
X149908914Y-122006665D01*
X149908919Y-122006661D01*
X150048611Y-121824612D01*
X150163344Y-121625888D01*
X150251158Y-121413887D01*
X150310548Y-121192238D01*
X150340500Y-120964734D01*
X150340500Y-120735266D01*
X150310548Y-120507762D01*
X150251158Y-120286113D01*
X150163344Y-120074112D01*
X150048611Y-119875388D01*
X150048608Y-119875385D01*
X150048607Y-119875382D01*
X149908918Y-119693338D01*
X149908911Y-119693330D01*
X149746670Y-119531089D01*
X149746661Y-119531081D01*
X149564617Y-119391392D01*
X149365890Y-119276657D01*
X149365876Y-119276650D01*
X149153887Y-119188842D01*
X148932238Y-119129452D01*
X148886596Y-119123443D01*
X148704741Y-119099500D01*
X148704734Y-119099500D01*
X148475266Y-119099500D01*
X148475258Y-119099500D01*
X148258715Y-119128009D01*
X148247762Y-119129452D01*
X148154076Y-119154554D01*
X148026112Y-119188842D01*
X147814123Y-119276650D01*
X147814109Y-119276657D01*
X147615382Y-119391392D01*
X147433338Y-119531081D01*
X147271081Y-119693338D01*
X147131392Y-119875382D01*
X147016657Y-120074109D01*
X147016650Y-120074123D01*
X146928842Y-120286112D01*
X146869453Y-120507759D01*
X146869451Y-120507770D01*
X146839500Y-120735258D01*
X146839500Y-120964741D01*
X146863024Y-121143412D01*
X146869452Y-121192238D01*
X146919172Y-121377796D01*
X146928842Y-121413887D01*
X146983288Y-121545332D01*
X146990757Y-121614801D01*
X146959482Y-121677280D01*
X146899393Y-121712932D01*
X146829567Y-121710438D01*
X146781046Y-121680465D01*
X134238936Y-109138355D01*
X134238934Y-109138352D01*
X134120063Y-109019481D01*
X134120055Y-109019475D01*
X134016787Y-108959854D01*
X134016786Y-108959853D01*
X134016786Y-108959854D01*
X133983131Y-108940423D01*
X133830403Y-108899499D01*
X133672289Y-108899499D01*
X133664693Y-108899499D01*
X133664677Y-108899500D01*
X116852844Y-108899500D01*
X116785805Y-108879815D01*
X116740050Y-108827011D01*
X116730106Y-108757853D01*
X116740462Y-108723095D01*
X116799096Y-108597354D01*
X116858106Y-108377128D01*
X116877977Y-108150000D01*
X116858106Y-107922872D01*
X116799096Y-107702646D01*
X116702741Y-107496012D01*
X116588911Y-107333445D01*
X116571970Y-107309250D01*
X116571966Y-107309246D01*
X116410751Y-107148031D01*
X116410747Y-107148028D01*
X116410746Y-107148027D01*
X116410743Y-107148024D01*
X116391741Y-107134719D01*
X116348116Y-107080142D01*
X116340924Y-107010643D01*
X116372447Y-106948289D01*
X116432677Y-106912876D01*
X116449608Y-106909856D01*
X116479983Y-106906591D01*
X116614831Y-106856296D01*
X116730046Y-106770046D01*
X116816296Y-106654831D01*
X116866591Y-106519983D01*
X116873000Y-106460373D01*
X116872999Y-104759628D01*
X116866591Y-104700017D01*
X116832282Y-104608031D01*
X116816297Y-104565171D01*
X116816293Y-104565164D01*
X116730047Y-104449955D01*
X116730044Y-104449952D01*
X116614835Y-104363706D01*
X116614828Y-104363702D01*
X116479982Y-104313408D01*
X116479983Y-104313408D01*
X116420383Y-104307001D01*
X116420381Y-104307000D01*
X116420373Y-104307000D01*
X116420365Y-104307000D01*
X115481596Y-104307000D01*
X115414557Y-104287315D01*
X115368802Y-104234511D01*
X115358858Y-104165353D01*
X115387883Y-104101797D01*
X115393915Y-104095319D01*
X118959236Y-100529998D01*
X162522023Y-100529998D01*
X162522023Y-100530001D01*
X162541893Y-100757122D01*
X162541894Y-100757129D01*
X162600902Y-100977349D01*
X162600903Y-100977351D01*
X162600904Y-100977354D01*
X162688480Y-101165163D01*
X162697259Y-101183989D01*
X162697261Y-101183993D01*
X162828027Y-101370746D01*
X162828032Y-101370752D01*
X162989247Y-101531967D01*
X162989253Y-101531972D01*
X163176006Y-101662738D01*
X163176008Y-101662739D01*
X163176011Y-101662741D01*
X163220688Y-101683574D01*
X163229360Y-101687618D01*
X163281800Y-101733790D01*
X163300952Y-101800983D01*
X163280737Y-101867865D01*
X163229361Y-101912382D01*
X163176013Y-101937258D01*
X163176011Y-101937259D01*
X162989246Y-102068032D01*
X162828032Y-102229246D01*
X162697259Y-102416011D01*
X162697258Y-102416013D01*
X162600905Y-102622642D01*
X162541894Y-102842870D01*
X162541893Y-102842877D01*
X162522023Y-103069998D01*
X162522023Y-103070001D01*
X162541893Y-103297122D01*
X162541894Y-103297129D01*
X162600902Y-103517349D01*
X162600903Y-103517351D01*
X162600904Y-103517354D01*
X162688480Y-103705163D01*
X162697259Y-103723989D01*
X162697261Y-103723993D01*
X162828027Y-103910746D01*
X162828032Y-103910752D01*
X162989247Y-104071967D01*
X162989253Y-104071972D01*
X163176006Y-104202738D01*
X163176008Y-104202739D01*
X163176011Y-104202741D01*
X163220688Y-104223574D01*
X163229360Y-104227618D01*
X163281800Y-104273790D01*
X163300952Y-104340983D01*
X163280737Y-104407865D01*
X163229361Y-104452382D01*
X163176013Y-104477258D01*
X163176011Y-104477259D01*
X162989246Y-104608032D01*
X162828032Y-104769246D01*
X162697259Y-104956011D01*
X162697258Y-104956013D01*
X162600905Y-105162642D01*
X162541894Y-105382870D01*
X162541893Y-105382877D01*
X162522023Y-105609998D01*
X162522023Y-105610001D01*
X162541893Y-105837122D01*
X162541894Y-105837129D01*
X162600902Y-106057349D01*
X162600903Y-106057351D01*
X162600904Y-106057354D01*
X162688480Y-106245163D01*
X162697259Y-106263989D01*
X162697261Y-106263993D01*
X162828027Y-106450746D01*
X162828032Y-106450752D01*
X162989247Y-106611967D01*
X162989253Y-106611972D01*
X163176006Y-106742738D01*
X163176008Y-106742739D01*
X163176011Y-106742741D01*
X163220688Y-106763574D01*
X163229360Y-106767618D01*
X163281800Y-106813790D01*
X163300952Y-106880983D01*
X163280737Y-106947865D01*
X163229361Y-106992382D01*
X163176013Y-107017258D01*
X163176011Y-107017259D01*
X162989246Y-107148032D01*
X162828032Y-107309246D01*
X162697259Y-107496011D01*
X162697258Y-107496013D01*
X162600905Y-107702642D01*
X162541894Y-107922870D01*
X162541893Y-107922877D01*
X162522023Y-108149998D01*
X162522023Y-108150001D01*
X162541893Y-108377122D01*
X162541894Y-108377129D01*
X162600902Y-108597349D01*
X162600903Y-108597351D01*
X162600904Y-108597354D01*
X162688480Y-108785163D01*
X162697259Y-108803989D01*
X162697261Y-108803993D01*
X162828027Y-108990746D01*
X162828032Y-108990752D01*
X162989247Y-109151967D01*
X162989253Y-109151972D01*
X163176006Y-109282738D01*
X163176008Y-109282739D01*
X163176011Y-109282741D01*
X163220688Y-109303574D01*
X163229360Y-109307618D01*
X163281800Y-109353790D01*
X163300952Y-109420983D01*
X163280737Y-109487865D01*
X163229361Y-109532382D01*
X163176013Y-109557258D01*
X163176011Y-109557259D01*
X162989246Y-109688032D01*
X162828032Y-109849246D01*
X162697259Y-110036011D01*
X162697258Y-110036013D01*
X162600905Y-110242642D01*
X162541894Y-110462870D01*
X162541893Y-110462877D01*
X162522023Y-110689998D01*
X162522023Y-110690001D01*
X162541893Y-110917122D01*
X162541894Y-110917129D01*
X162600902Y-111137349D01*
X162600903Y-111137351D01*
X162600904Y-111137354D01*
X162688480Y-111325163D01*
X162697259Y-111343989D01*
X162697261Y-111343993D01*
X162828027Y-111530746D01*
X162828032Y-111530752D01*
X162989247Y-111691967D01*
X162989253Y-111691972D01*
X163176006Y-111822738D01*
X163176008Y-111822739D01*
X163176011Y-111822741D01*
X163220688Y-111843574D01*
X163229360Y-111847618D01*
X163281800Y-111893790D01*
X163300952Y-111960983D01*
X163280737Y-112027865D01*
X163229361Y-112072382D01*
X163176013Y-112097258D01*
X163176011Y-112097259D01*
X162989246Y-112228032D01*
X162828032Y-112389246D01*
X162697259Y-112576011D01*
X162697258Y-112576013D01*
X162600905Y-112782642D01*
X162541894Y-113002870D01*
X162541893Y-113002877D01*
X162522023Y-113229998D01*
X162522023Y-113230001D01*
X162541893Y-113457122D01*
X162541894Y-113457129D01*
X162600902Y-113677349D01*
X162600903Y-113677351D01*
X162600904Y-113677354D01*
X162688480Y-113865163D01*
X162697259Y-113883989D01*
X162697261Y-113883993D01*
X162828027Y-114070746D01*
X162828032Y-114070752D01*
X162989247Y-114231967D01*
X162989253Y-114231972D01*
X163176006Y-114362738D01*
X163176008Y-114362739D01*
X163176011Y-114362741D01*
X163220688Y-114383574D01*
X163229360Y-114387618D01*
X163281800Y-114433790D01*
X163300952Y-114500983D01*
X163280737Y-114567865D01*
X163229361Y-114612382D01*
X163176013Y-114637258D01*
X163176011Y-114637259D01*
X162989246Y-114768032D01*
X162828032Y-114929246D01*
X162697259Y-115116011D01*
X162697258Y-115116013D01*
X162600905Y-115322642D01*
X162541894Y-115542870D01*
X162541893Y-115542877D01*
X162522023Y-115769998D01*
X162522023Y-115770001D01*
X162541893Y-115997122D01*
X162541894Y-115997129D01*
X162600902Y-116217349D01*
X162600903Y-116217351D01*
X162600904Y-116217354D01*
X162688480Y-116405163D01*
X162697259Y-116423989D01*
X162697261Y-116423993D01*
X162828027Y-116610746D01*
X162828031Y-116610751D01*
X162989249Y-116771969D01*
X163008258Y-116785279D01*
X163051882Y-116839856D01*
X163059075Y-116909355D01*
X163027553Y-116971709D01*
X162967323Y-117007123D01*
X162950388Y-117010144D01*
X162920016Y-117013409D01*
X162785171Y-117063702D01*
X162785164Y-117063706D01*
X162669955Y-117149952D01*
X162669952Y-117149955D01*
X162583706Y-117265164D01*
X162583702Y-117265171D01*
X162533408Y-117400017D01*
X162527001Y-117459616D01*
X162527001Y-117459623D01*
X162527000Y-117459635D01*
X162527000Y-119160370D01*
X162527001Y-119160376D01*
X162533408Y-119219983D01*
X162583702Y-119354828D01*
X162583706Y-119354835D01*
X162669952Y-119470044D01*
X162669955Y-119470047D01*
X162785164Y-119556293D01*
X162785171Y-119556297D01*
X162920017Y-119606591D01*
X162920016Y-119606591D01*
X162926944Y-119607335D01*
X162979627Y-119613000D01*
X164680372Y-119612999D01*
X164739983Y-119606591D01*
X164874831Y-119556296D01*
X164990046Y-119470046D01*
X165076296Y-119354831D01*
X165126591Y-119219983D01*
X165133000Y-119160373D01*
X165132999Y-117459628D01*
X165126591Y-117400017D01*
X165092282Y-117308031D01*
X165076297Y-117265171D01*
X165076293Y-117265164D01*
X164990047Y-117149955D01*
X164990044Y-117149952D01*
X164874835Y-117063706D01*
X164874828Y-117063702D01*
X164739982Y-117013408D01*
X164739984Y-117013408D01*
X164709609Y-117010143D01*
X164645058Y-116983405D01*
X164605210Y-116926012D01*
X164602717Y-116856187D01*
X164638370Y-116796098D01*
X164651742Y-116785279D01*
X164670751Y-116771969D01*
X164831969Y-116610751D01*
X164962741Y-116423989D01*
X165059096Y-116217354D01*
X165118106Y-115997128D01*
X165137977Y-115770000D01*
X165118106Y-115542872D01*
X165059096Y-115322646D01*
X164962741Y-115116012D01*
X164848911Y-114953445D01*
X164831970Y-114929250D01*
X164831966Y-114929246D01*
X164670751Y-114768031D01*
X164670747Y-114768028D01*
X164670746Y-114768027D01*
X164483993Y-114637261D01*
X164483985Y-114637257D01*
X164430640Y-114612382D01*
X164378200Y-114566210D01*
X164359048Y-114499017D01*
X164379263Y-114432135D01*
X164430640Y-114387618D01*
X164435021Y-114385574D01*
X164483989Y-114362741D01*
X164670751Y-114231969D01*
X164831969Y-114070751D01*
X164962741Y-113883989D01*
X165059096Y-113677354D01*
X165118106Y-113457128D01*
X165137977Y-113230000D01*
X165118106Y-113002872D01*
X165059096Y-112782646D01*
X164962741Y-112576012D01*
X164848911Y-112413445D01*
X164831970Y-112389250D01*
X164831966Y-112389246D01*
X164670751Y-112228031D01*
X164670747Y-112228028D01*
X164670746Y-112228027D01*
X164483993Y-112097261D01*
X164483985Y-112097257D01*
X164430640Y-112072382D01*
X164378200Y-112026210D01*
X164359048Y-111959017D01*
X164379263Y-111892135D01*
X164430640Y-111847618D01*
X164435021Y-111845574D01*
X164483989Y-111822741D01*
X164670751Y-111691969D01*
X164831969Y-111530751D01*
X164962741Y-111343989D01*
X165059096Y-111137354D01*
X165118106Y-110917128D01*
X165137977Y-110690000D01*
X165134924Y-110655109D01*
X165125233Y-110544334D01*
X165118106Y-110462872D01*
X165059096Y-110242646D01*
X164962741Y-110036012D01*
X164848911Y-109873445D01*
X164831970Y-109849250D01*
X164831966Y-109849246D01*
X164670751Y-109688031D01*
X164670747Y-109688028D01*
X164670746Y-109688027D01*
X164483993Y-109557261D01*
X164483985Y-109557257D01*
X164430640Y-109532382D01*
X164378200Y-109486210D01*
X164359048Y-109419017D01*
X164379263Y-109352135D01*
X164430640Y-109307618D01*
X164435021Y-109305574D01*
X164483989Y-109282741D01*
X164670751Y-109151969D01*
X164831969Y-108990751D01*
X164962741Y-108803989D01*
X165059096Y-108597354D01*
X165118106Y-108377128D01*
X165137977Y-108150000D01*
X165118106Y-107922872D01*
X165059096Y-107702646D01*
X164962741Y-107496012D01*
X164848911Y-107333445D01*
X164831970Y-107309250D01*
X164831966Y-107309246D01*
X164670751Y-107148031D01*
X164670747Y-107148028D01*
X164670746Y-107148027D01*
X164483993Y-107017261D01*
X164483985Y-107017257D01*
X164430640Y-106992382D01*
X164378200Y-106946210D01*
X164359048Y-106879017D01*
X164379263Y-106812135D01*
X164430640Y-106767618D01*
X164435021Y-106765574D01*
X164483989Y-106742741D01*
X164670751Y-106611969D01*
X164831969Y-106450751D01*
X164962741Y-106263989D01*
X165059096Y-106057354D01*
X165118106Y-105837128D01*
X165137977Y-105610000D01*
X165118106Y-105382872D01*
X165059096Y-105162646D01*
X164962741Y-104956012D01*
X164848911Y-104793445D01*
X164831970Y-104769250D01*
X164762736Y-104700016D01*
X164670751Y-104608031D01*
X164670747Y-104608028D01*
X164670746Y-104608027D01*
X164483993Y-104477261D01*
X164483985Y-104477257D01*
X164430640Y-104452382D01*
X164378200Y-104406210D01*
X164359048Y-104339017D01*
X164379263Y-104272135D01*
X164430640Y-104227618D01*
X164435021Y-104225574D01*
X164483989Y-104202741D01*
X164670751Y-104071969D01*
X164831969Y-103910751D01*
X164962741Y-103723989D01*
X165059096Y-103517354D01*
X165118106Y-103297128D01*
X165137977Y-103070000D01*
X165118106Y-102842872D01*
X165059096Y-102622646D01*
X164962741Y-102416012D01*
X164848911Y-102253445D01*
X164831970Y-102229250D01*
X164831966Y-102229246D01*
X164670751Y-102068031D01*
X164670747Y-102068028D01*
X164670746Y-102068027D01*
X164483993Y-101937261D01*
X164483985Y-101937257D01*
X164430640Y-101912382D01*
X164378200Y-101866210D01*
X164359048Y-101799017D01*
X164379263Y-101732135D01*
X164430640Y-101687618D01*
X164435021Y-101685574D01*
X164483989Y-101662741D01*
X164670751Y-101531969D01*
X164831969Y-101370751D01*
X164962741Y-101183989D01*
X165059096Y-100977354D01*
X165118106Y-100757128D01*
X165137977Y-100530000D01*
X165118106Y-100302872D01*
X165059096Y-100082646D01*
X164962741Y-99876012D01*
X164848911Y-99713445D01*
X164831970Y-99689250D01*
X164772321Y-99629601D01*
X164670751Y-99528031D01*
X164670747Y-99528028D01*
X164670746Y-99528027D01*
X164483993Y-99397261D01*
X164483989Y-99397259D01*
X164483985Y-99397257D01*
X164277354Y-99300904D01*
X164277351Y-99300903D01*
X164277349Y-99300902D01*
X164057129Y-99241894D01*
X164057122Y-99241893D01*
X163830002Y-99222023D01*
X163829998Y-99222023D01*
X163602877Y-99241893D01*
X163602870Y-99241894D01*
X163382642Y-99300905D01*
X163176013Y-99397258D01*
X163176011Y-99397259D01*
X162989246Y-99528032D01*
X162828032Y-99689246D01*
X162697259Y-99876011D01*
X162697258Y-99876013D01*
X162600905Y-100082642D01*
X162541894Y-100302870D01*
X162541893Y-100302877D01*
X162522023Y-100529998D01*
X118959236Y-100529998D01*
X125786358Y-93702877D01*
X136352416Y-83136819D01*
X136413739Y-83103334D01*
X136440097Y-83100500D01*
X162509851Y-83100500D01*
X162576890Y-83120185D01*
X162622645Y-83172989D01*
X162632589Y-83242147D01*
X162622234Y-83276903D01*
X162600904Y-83322646D01*
X162581070Y-83396666D01*
X162541894Y-83542870D01*
X162541893Y-83542877D01*
X162522023Y-83769998D01*
X162522023Y-83770001D01*
X162541893Y-83997122D01*
X162541894Y-83997129D01*
X162600902Y-84217349D01*
X162600903Y-84217351D01*
X162600904Y-84217354D01*
X162671484Y-84368713D01*
X162697259Y-84423989D01*
X162697261Y-84423993D01*
X162828027Y-84610746D01*
X162828032Y-84610752D01*
X162989247Y-84771967D01*
X162989253Y-84771972D01*
X163176006Y-84902738D01*
X163176008Y-84902739D01*
X163176011Y-84902741D01*
X163220688Y-84923574D01*
X163229360Y-84927618D01*
X163281800Y-84973790D01*
X163300952Y-85040983D01*
X163280737Y-85107865D01*
X163229361Y-85152382D01*
X163176013Y-85177258D01*
X163176011Y-85177259D01*
X162989246Y-85308032D01*
X162828032Y-85469246D01*
X162697259Y-85656011D01*
X162697258Y-85656013D01*
X162600905Y-85862642D01*
X162541894Y-86082870D01*
X162541893Y-86082877D01*
X162522023Y-86309998D01*
X162522023Y-86310001D01*
X162541893Y-86537122D01*
X162541894Y-86537129D01*
X162600902Y-86757349D01*
X162600903Y-86757351D01*
X162600904Y-86757354D01*
X162647308Y-86856868D01*
X162697259Y-86963989D01*
X162697261Y-86963993D01*
X162828027Y-87150746D01*
X162828032Y-87150752D01*
X162989247Y-87311967D01*
X162989253Y-87311972D01*
X163176006Y-87442738D01*
X163176008Y-87442739D01*
X163176011Y-87442741D01*
X163195316Y-87451743D01*
X163229360Y-87467618D01*
X163281800Y-87513790D01*
X163300952Y-87580983D01*
X163280737Y-87647865D01*
X163229361Y-87692382D01*
X163176013Y-87717258D01*
X163176011Y-87717259D01*
X162989246Y-87848032D01*
X162828032Y-88009246D01*
X162697259Y-88196011D01*
X162697258Y-88196013D01*
X162600905Y-88402642D01*
X162541894Y-88622870D01*
X162541893Y-88622877D01*
X162522023Y-88849998D01*
X162522023Y-88850001D01*
X162541893Y-89077122D01*
X162541894Y-89077129D01*
X162600902Y-89297349D01*
X162600903Y-89297351D01*
X162600904Y-89297354D01*
X162633861Y-89368031D01*
X162697259Y-89503989D01*
X162697261Y-89503993D01*
X162828027Y-89690746D01*
X162828032Y-89690752D01*
X162989247Y-89851967D01*
X162989253Y-89851972D01*
X163176006Y-89982738D01*
X163176008Y-89982739D01*
X163176011Y-89982741D01*
X163195316Y-89991743D01*
X163229360Y-90007618D01*
X163281800Y-90053790D01*
X163300952Y-90120983D01*
X163280737Y-90187865D01*
X163229361Y-90232382D01*
X163176013Y-90257258D01*
X163176011Y-90257259D01*
X162989246Y-90388032D01*
X162828032Y-90549246D01*
X162697259Y-90736011D01*
X162697258Y-90736013D01*
X162600905Y-90942642D01*
X162541894Y-91162870D01*
X162541893Y-91162877D01*
X162522023Y-91389998D01*
X162522023Y-91390001D01*
X162541893Y-91617122D01*
X162541894Y-91617129D01*
X162600902Y-91837349D01*
X162600903Y-91837351D01*
X162600904Y-91837354D01*
X162674328Y-91994813D01*
X162697259Y-92043989D01*
X162697261Y-92043993D01*
X162828027Y-92230746D01*
X162828032Y-92230752D01*
X162989247Y-92391967D01*
X162989253Y-92391972D01*
X163176006Y-92522738D01*
X163176008Y-92522739D01*
X163176011Y-92522741D01*
X163195316Y-92531743D01*
X163229360Y-92547618D01*
X163281800Y-92593790D01*
X163300952Y-92660983D01*
X163280737Y-92727865D01*
X163229361Y-92772382D01*
X163176013Y-92797258D01*
X163176011Y-92797259D01*
X162989246Y-92928032D01*
X162828032Y-93089246D01*
X162697259Y-93276011D01*
X162697258Y-93276013D01*
X162600905Y-93482642D01*
X162541894Y-93702870D01*
X162541893Y-93702877D01*
X162522023Y-93929998D01*
X162522023Y-93930001D01*
X162541893Y-94157122D01*
X162541894Y-94157129D01*
X162600902Y-94377349D01*
X162600903Y-94377351D01*
X162600904Y-94377354D01*
X162683511Y-94554507D01*
X162697259Y-94583989D01*
X162697261Y-94583993D01*
X162828027Y-94770746D01*
X162828031Y-94770751D01*
X162989249Y-94931969D01*
X163008258Y-94945279D01*
X163051882Y-94999856D01*
X163059075Y-95069355D01*
X163027553Y-95131709D01*
X162967323Y-95167123D01*
X162950388Y-95170144D01*
X162920016Y-95173409D01*
X162785171Y-95223702D01*
X162785164Y-95223706D01*
X162669955Y-95309952D01*
X162669952Y-95309955D01*
X162583706Y-95425164D01*
X162583702Y-95425171D01*
X162533408Y-95560017D01*
X162527001Y-95619616D01*
X162527001Y-95619623D01*
X162527000Y-95619635D01*
X162527000Y-97320370D01*
X162527001Y-97320376D01*
X162533408Y-97379983D01*
X162583702Y-97514828D01*
X162583706Y-97514835D01*
X162669952Y-97630044D01*
X162669955Y-97630047D01*
X162785164Y-97716293D01*
X162785171Y-97716297D01*
X162920017Y-97766591D01*
X162920016Y-97766591D01*
X162926944Y-97767335D01*
X162979627Y-97773000D01*
X164680372Y-97772999D01*
X164739983Y-97766591D01*
X164874831Y-97716296D01*
X164990046Y-97630046D01*
X165076296Y-97514831D01*
X165126591Y-97379983D01*
X165133000Y-97320373D01*
X165132999Y-95619628D01*
X165126591Y-95560017D01*
X165085557Y-95450000D01*
X165076297Y-95425171D01*
X165076293Y-95425164D01*
X164990047Y-95309955D01*
X164990044Y-95309952D01*
X164874835Y-95223706D01*
X164874828Y-95223702D01*
X164739982Y-95173408D01*
X164739984Y-95173408D01*
X164709609Y-95170143D01*
X164645058Y-95143405D01*
X164605210Y-95086012D01*
X164602717Y-95016187D01*
X164638370Y-94956098D01*
X164651742Y-94945279D01*
X164670751Y-94931969D01*
X164831969Y-94770751D01*
X164962741Y-94583989D01*
X165059096Y-94377354D01*
X165118106Y-94157128D01*
X165137977Y-93930000D01*
X165118106Y-93702872D01*
X165059096Y-93482646D01*
X164962741Y-93276012D01*
X164865490Y-93137122D01*
X164831970Y-93089250D01*
X164831966Y-93089246D01*
X164670751Y-92928031D01*
X164670747Y-92928028D01*
X164670746Y-92928027D01*
X164483993Y-92797261D01*
X164483985Y-92797257D01*
X164430640Y-92772382D01*
X164378200Y-92726210D01*
X164359048Y-92659017D01*
X164379263Y-92592135D01*
X164430640Y-92547618D01*
X164435021Y-92545574D01*
X164483989Y-92522741D01*
X164670751Y-92391969D01*
X164831969Y-92230751D01*
X164962741Y-92043989D01*
X165059096Y-91837354D01*
X165118106Y-91617128D01*
X165137977Y-91390000D01*
X165118106Y-91162872D01*
X165059096Y-90942646D01*
X164962741Y-90736012D01*
X164865490Y-90597122D01*
X164831970Y-90549250D01*
X164831966Y-90549246D01*
X164670751Y-90388031D01*
X164670747Y-90388028D01*
X164670746Y-90388027D01*
X164483993Y-90257261D01*
X164483985Y-90257257D01*
X164430640Y-90232382D01*
X164378200Y-90186210D01*
X164359048Y-90119017D01*
X164379263Y-90052135D01*
X164430640Y-90007618D01*
X164435021Y-90005574D01*
X164483989Y-89982741D01*
X164670751Y-89851969D01*
X164831969Y-89690751D01*
X164962741Y-89503989D01*
X165059096Y-89297354D01*
X165118106Y-89077128D01*
X165137977Y-88850000D01*
X165118106Y-88622872D01*
X165059096Y-88402646D01*
X164962741Y-88196012D01*
X164865490Y-88057122D01*
X164831970Y-88009250D01*
X164763959Y-87941239D01*
X164670751Y-87848031D01*
X164670747Y-87848028D01*
X164670746Y-87848027D01*
X164483993Y-87717261D01*
X164483985Y-87717257D01*
X164430640Y-87692382D01*
X164378200Y-87646210D01*
X164359048Y-87579017D01*
X164379263Y-87512135D01*
X164430640Y-87467618D01*
X164435021Y-87465574D01*
X164483989Y-87442741D01*
X164670751Y-87311969D01*
X164831969Y-87150751D01*
X164962741Y-86963989D01*
X165059096Y-86757354D01*
X165118106Y-86537128D01*
X165137977Y-86310000D01*
X165118106Y-86082872D01*
X165059096Y-85862646D01*
X164962741Y-85656012D01*
X164865490Y-85517122D01*
X164831970Y-85469250D01*
X164783663Y-85420943D01*
X164670751Y-85308031D01*
X164670747Y-85308028D01*
X164670746Y-85308027D01*
X164483993Y-85177261D01*
X164483985Y-85177257D01*
X164430640Y-85152382D01*
X164378200Y-85106210D01*
X164359048Y-85039017D01*
X164379263Y-84972135D01*
X164430640Y-84927618D01*
X164435021Y-84925574D01*
X164483989Y-84902741D01*
X164670751Y-84771969D01*
X164831969Y-84610751D01*
X164962741Y-84423989D01*
X165059096Y-84217354D01*
X165118106Y-83997128D01*
X165137977Y-83770000D01*
X165118106Y-83542872D01*
X165059096Y-83322646D01*
X164962741Y-83116012D01*
X164864825Y-82976173D01*
X164831967Y-82929246D01*
X164773244Y-82870523D01*
X164739759Y-82809200D01*
X164744743Y-82739508D01*
X164773242Y-82695163D01*
X165146587Y-82321819D01*
X165207910Y-82288334D01*
X165234268Y-82285500D01*
X167562720Y-82285500D01*
X167629759Y-82305185D01*
G37*
G04 #@! TD.AperFunction*
G04 #@! TA.AperFunction,Conductor*
G36*
X184818834Y-67132916D02*
G01*
X184874767Y-67174788D01*
X184899184Y-67240252D01*
X184899500Y-67249098D01*
X184899500Y-74750903D01*
X184879815Y-74817942D01*
X184827011Y-74863697D01*
X184757853Y-74873641D01*
X184694297Y-74844616D01*
X184687819Y-74838584D01*
X182077590Y-72228355D01*
X182077588Y-72228352D01*
X181958717Y-72109481D01*
X181958716Y-72109480D01*
X181871904Y-72059360D01*
X181871904Y-72059359D01*
X181871900Y-72059358D01*
X181821785Y-72030423D01*
X181669057Y-71989499D01*
X181510943Y-71989499D01*
X181503347Y-71989499D01*
X181503331Y-71989500D01*
X172638966Y-71989500D01*
X172571927Y-71969815D01*
X172537393Y-71936626D01*
X172423132Y-71773445D01*
X172266555Y-71616868D01*
X172085167Y-71489858D01*
X172085163Y-71489856D01*
X171884486Y-71396279D01*
X171884475Y-71396275D01*
X171670592Y-71338965D01*
X171670585Y-71338964D01*
X171450002Y-71319666D01*
X171449998Y-71319666D01*
X171229414Y-71338964D01*
X171229407Y-71338965D01*
X171015524Y-71396275D01*
X171015513Y-71396279D01*
X170814836Y-71489856D01*
X170814834Y-71489857D01*
X170633444Y-71616868D01*
X170476868Y-71773444D01*
X170401074Y-71881690D01*
X170346497Y-71925315D01*
X170276998Y-71932507D01*
X170214644Y-71900985D01*
X170179230Y-71840755D01*
X170175499Y-71810566D01*
X170175499Y-71777129D01*
X170175498Y-71777123D01*
X170175497Y-71777116D01*
X170169091Y-71717517D01*
X170166719Y-71711158D01*
X170118797Y-71582671D01*
X170118793Y-71582664D01*
X170032547Y-71467455D01*
X170032544Y-71467452D01*
X169917335Y-71381206D01*
X169917328Y-71381202D01*
X169782482Y-71330908D01*
X169782483Y-71330908D01*
X169722883Y-71324501D01*
X169722881Y-71324500D01*
X169722873Y-71324500D01*
X169722864Y-71324500D01*
X168097129Y-71324500D01*
X168097123Y-71324501D01*
X168037516Y-71330908D01*
X167902671Y-71381202D01*
X167902664Y-71381206D01*
X167787455Y-71467452D01*
X167787452Y-71467455D01*
X167701206Y-71582664D01*
X167701202Y-71582671D01*
X167650908Y-71717517D01*
X167645207Y-71770548D01*
X167644501Y-71777123D01*
X167644500Y-71777135D01*
X167644500Y-73402870D01*
X167644501Y-73402876D01*
X167650908Y-73462483D01*
X167701202Y-73597328D01*
X167701206Y-73597335D01*
X167787452Y-73712544D01*
X167787455Y-73712547D01*
X167902664Y-73798793D01*
X167902671Y-73798797D01*
X168037517Y-73849091D01*
X168037516Y-73849091D01*
X168044444Y-73849835D01*
X168097127Y-73855500D01*
X168130564Y-73855499D01*
X168197601Y-73875182D01*
X168243357Y-73927984D01*
X168253302Y-73997143D01*
X168224279Y-74060699D01*
X168201689Y-74081073D01*
X168093447Y-74156866D01*
X168093441Y-74156871D01*
X167936868Y-74313444D01*
X167809857Y-74494834D01*
X167809856Y-74494836D01*
X167716279Y-74695513D01*
X167716275Y-74695524D01*
X167658965Y-74909407D01*
X167658964Y-74909414D01*
X167639666Y-75129998D01*
X167639666Y-75130001D01*
X167658964Y-75350585D01*
X167658965Y-75350592D01*
X167716275Y-75564475D01*
X167716279Y-75564486D01*
X167764168Y-75667184D01*
X167809858Y-75765167D01*
X167936868Y-75946555D01*
X168093445Y-76103132D01*
X168274833Y-76230142D01*
X168336828Y-76259050D01*
X168398091Y-76287618D01*
X168450531Y-76333790D01*
X168469683Y-76400983D01*
X168449467Y-76467865D01*
X168398091Y-76512382D01*
X168274836Y-76569856D01*
X168274834Y-76569857D01*
X168093444Y-76696868D01*
X167936868Y-76853444D01*
X167809857Y-77034834D01*
X167809856Y-77034836D01*
X167716279Y-77235513D01*
X167716275Y-77235524D01*
X167658965Y-77449407D01*
X167658964Y-77449414D01*
X167639666Y-77669998D01*
X167639666Y-77670001D01*
X167658964Y-77890585D01*
X167658965Y-77890592D01*
X167716275Y-78104475D01*
X167716279Y-78104486D01*
X167754840Y-78187180D01*
X167809858Y-78305167D01*
X167936868Y-78486555D01*
X168093445Y-78643132D01*
X168274833Y-78770142D01*
X168336828Y-78799050D01*
X168398091Y-78827618D01*
X168450531Y-78873790D01*
X168469683Y-78940983D01*
X168449467Y-79007865D01*
X168398091Y-79052382D01*
X168274836Y-79109856D01*
X168274834Y-79109857D01*
X168093444Y-79236868D01*
X167936868Y-79393444D01*
X167809857Y-79574834D01*
X167809856Y-79574836D01*
X167716279Y-79775513D01*
X167716275Y-79775524D01*
X167658965Y-79989407D01*
X167658964Y-79989414D01*
X167639666Y-80209998D01*
X167639666Y-80210001D01*
X167658964Y-80430585D01*
X167658965Y-80430592D01*
X167716275Y-80644475D01*
X167716279Y-80644486D01*
X167809856Y-80845163D01*
X167809857Y-80845165D01*
X167840814Y-80889376D01*
X167863141Y-80955582D01*
X167846131Y-81023350D01*
X167795183Y-81071163D01*
X167739239Y-81084500D01*
X165235127Y-81084500D01*
X165168088Y-81064815D01*
X165122333Y-81012011D01*
X165115352Y-80992594D01*
X165114705Y-80990181D01*
X165059096Y-80782646D01*
X164962741Y-80576012D01*
X164897355Y-80482630D01*
X164831970Y-80389250D01*
X164831966Y-80389246D01*
X164670751Y-80228031D01*
X164670747Y-80228028D01*
X164670746Y-80228027D01*
X164483993Y-80097261D01*
X164483985Y-80097257D01*
X164430640Y-80072382D01*
X164378200Y-80026210D01*
X164359048Y-79959017D01*
X164379263Y-79892135D01*
X164430640Y-79847618D01*
X164435021Y-79845574D01*
X164483989Y-79822741D01*
X164670751Y-79691969D01*
X164831969Y-79530751D01*
X164962741Y-79343989D01*
X165059096Y-79137354D01*
X165118106Y-78917128D01*
X165137977Y-78690000D01*
X165118106Y-78462872D01*
X165059096Y-78242646D01*
X164962741Y-78036012D01*
X164897086Y-77942246D01*
X164831970Y-77849250D01*
X164752905Y-77770185D01*
X164670751Y-77688031D01*
X164670747Y-77688028D01*
X164670746Y-77688027D01*
X164483993Y-77557261D01*
X164483985Y-77557257D01*
X164430640Y-77532382D01*
X164378200Y-77486210D01*
X164359048Y-77419017D01*
X164379263Y-77352135D01*
X164430640Y-77307618D01*
X164435021Y-77305574D01*
X164483989Y-77282741D01*
X164670751Y-77151969D01*
X164831969Y-76990751D01*
X164962741Y-76803989D01*
X165059096Y-76597354D01*
X165118106Y-76377128D01*
X165137977Y-76150000D01*
X165118106Y-75922872D01*
X165059096Y-75702646D01*
X164962741Y-75496012D01*
X164897355Y-75402630D01*
X164831970Y-75309250D01*
X164752535Y-75229815D01*
X164670751Y-75148031D01*
X164670747Y-75148028D01*
X164670746Y-75148027D01*
X164483993Y-75017261D01*
X164483985Y-75017257D01*
X164430640Y-74992382D01*
X164378200Y-74946210D01*
X164359048Y-74879017D01*
X164379263Y-74812135D01*
X164430640Y-74767618D01*
X164435021Y-74765574D01*
X164483989Y-74742741D01*
X164670751Y-74611969D01*
X164831969Y-74450751D01*
X164962741Y-74263989D01*
X165059096Y-74057354D01*
X165118106Y-73837128D01*
X165137977Y-73610000D01*
X165118106Y-73382872D01*
X165059096Y-73162646D01*
X164962741Y-72956012D01*
X164897355Y-72862630D01*
X164831970Y-72769250D01*
X164831966Y-72769246D01*
X164670751Y-72608031D01*
X164670747Y-72608028D01*
X164670746Y-72608027D01*
X164483993Y-72477261D01*
X164483989Y-72477259D01*
X164483987Y-72477258D01*
X164277354Y-72380904D01*
X164277351Y-72380903D01*
X164277349Y-72380902D01*
X164057129Y-72321894D01*
X164057122Y-72321893D01*
X163830002Y-72302023D01*
X163829998Y-72302023D01*
X163602877Y-72321893D01*
X163602870Y-72321894D01*
X163382642Y-72380905D01*
X163176013Y-72477258D01*
X163176011Y-72477259D01*
X162989246Y-72608032D01*
X162828032Y-72769246D01*
X162697259Y-72956011D01*
X162697258Y-72956013D01*
X162600905Y-73162642D01*
X162541894Y-73382870D01*
X162541893Y-73382877D01*
X162522023Y-73609998D01*
X162522023Y-73610001D01*
X162541893Y-73837122D01*
X162541894Y-73837129D01*
X162600902Y-74057349D01*
X162600903Y-74057351D01*
X162600904Y-74057354D01*
X162674328Y-74214813D01*
X162697259Y-74263989D01*
X162697261Y-74263993D01*
X162828027Y-74450746D01*
X162828032Y-74450752D01*
X162989247Y-74611967D01*
X162989253Y-74611972D01*
X163176006Y-74742738D01*
X163176008Y-74742739D01*
X163176011Y-74742741D01*
X163193515Y-74750903D01*
X163229360Y-74767618D01*
X163281800Y-74813790D01*
X163300952Y-74880983D01*
X163280737Y-74947865D01*
X163229361Y-74992382D01*
X163176013Y-75017258D01*
X163176011Y-75017259D01*
X162989246Y-75148032D01*
X162828032Y-75309246D01*
X162697259Y-75496011D01*
X162697258Y-75496013D01*
X162600905Y-75702642D01*
X162541894Y-75922870D01*
X162541893Y-75922877D01*
X162522023Y-76149998D01*
X162522023Y-76150001D01*
X162541893Y-76377122D01*
X162541894Y-76377129D01*
X162600902Y-76597349D01*
X162600903Y-76597351D01*
X162600904Y-76597354D01*
X162647308Y-76696868D01*
X162697259Y-76803989D01*
X162697261Y-76803993D01*
X162828027Y-76990746D01*
X162828032Y-76990752D01*
X162989247Y-77151967D01*
X162989253Y-77151972D01*
X163176006Y-77282738D01*
X163176008Y-77282739D01*
X163176011Y-77282741D01*
X163220688Y-77303574D01*
X163229360Y-77307618D01*
X163281800Y-77353790D01*
X163300952Y-77420983D01*
X163280737Y-77487865D01*
X163229361Y-77532382D01*
X163176013Y-77557258D01*
X163176011Y-77557259D01*
X162989246Y-77688032D01*
X162828032Y-77849246D01*
X162697259Y-78036011D01*
X162697258Y-78036013D01*
X162600905Y-78242642D01*
X162541894Y-78462870D01*
X162541893Y-78462877D01*
X162522023Y-78689998D01*
X162522023Y-78690001D01*
X162541893Y-78917122D01*
X162541894Y-78917129D01*
X162600902Y-79137349D01*
X162600903Y-79137351D01*
X162600904Y-79137354D01*
X162647308Y-79236868D01*
X162697259Y-79343989D01*
X162697261Y-79343993D01*
X162828027Y-79530746D01*
X162828032Y-79530752D01*
X162989247Y-79691967D01*
X162989253Y-79691972D01*
X163176006Y-79822738D01*
X163176008Y-79822739D01*
X163176011Y-79822741D01*
X163220688Y-79843574D01*
X163229360Y-79847618D01*
X163281800Y-79893790D01*
X163300952Y-79960983D01*
X163280737Y-80027865D01*
X163229361Y-80072382D01*
X163176013Y-80097258D01*
X163176011Y-80097259D01*
X162989246Y-80228032D01*
X162828032Y-80389246D01*
X162697259Y-80576011D01*
X162697258Y-80576013D01*
X162600905Y-80782642D01*
X162541894Y-81002870D01*
X162541893Y-81002877D01*
X162522023Y-81229998D01*
X162522023Y-81230001D01*
X162541893Y-81457122D01*
X162541894Y-81457129D01*
X162600902Y-81677349D01*
X162600903Y-81677351D01*
X162600904Y-81677354D01*
X162622234Y-81723096D01*
X162632725Y-81792174D01*
X162604204Y-81855958D01*
X162545728Y-81894197D01*
X162509851Y-81899500D01*
X136226669Y-81899500D01*
X136226653Y-81899499D01*
X136219057Y-81899499D01*
X136060943Y-81899499D01*
X135953587Y-81928265D01*
X135908210Y-81940424D01*
X135908209Y-81940425D01*
X135865485Y-81965093D01*
X135865484Y-81965094D01*
X135818384Y-81992287D01*
X135771285Y-82019479D01*
X135771282Y-82019481D01*
X135659478Y-82131286D01*
X117082178Y-100708585D01*
X117020855Y-100742070D01*
X116951163Y-100737086D01*
X116895230Y-100695214D01*
X116870813Y-100629750D01*
X116870968Y-100610102D01*
X116877977Y-100530000D01*
X116858106Y-100302872D01*
X116799096Y-100082646D01*
X116702741Y-99876012D01*
X116588911Y-99713445D01*
X116571970Y-99689250D01*
X116512321Y-99629601D01*
X116410751Y-99528031D01*
X116410747Y-99528028D01*
X116410746Y-99528027D01*
X116223993Y-99397261D01*
X116223985Y-99397257D01*
X116170640Y-99372382D01*
X116118200Y-99326210D01*
X116099048Y-99259017D01*
X116119263Y-99192135D01*
X116170640Y-99147618D01*
X116179655Y-99143414D01*
X116223989Y-99122741D01*
X116410751Y-98991969D01*
X116571969Y-98830751D01*
X116702741Y-98643989D01*
X116799096Y-98437354D01*
X116858106Y-98217128D01*
X116877977Y-97990000D01*
X116858106Y-97762872D01*
X116799096Y-97542646D01*
X116702741Y-97336012D01*
X116621472Y-97219947D01*
X116571970Y-97149250D01*
X116512001Y-97089281D01*
X116410751Y-96988031D01*
X116410747Y-96988028D01*
X116410746Y-96988027D01*
X116223993Y-96857261D01*
X116223985Y-96857257D01*
X116170640Y-96832382D01*
X116118200Y-96786210D01*
X116099048Y-96719017D01*
X116119263Y-96652135D01*
X116170640Y-96607618D01*
X116175021Y-96605574D01*
X116223989Y-96582741D01*
X116410751Y-96451969D01*
X116571969Y-96290751D01*
X116702741Y-96103989D01*
X116799096Y-95897354D01*
X116858106Y-95677128D01*
X116877977Y-95450000D01*
X116858106Y-95222872D01*
X116799096Y-95002646D01*
X116702741Y-94796012D01*
X116588911Y-94633445D01*
X116571970Y-94609250D01*
X116517225Y-94554505D01*
X116410751Y-94448031D01*
X116410747Y-94448028D01*
X116410746Y-94448027D01*
X116223993Y-94317261D01*
X116223985Y-94317257D01*
X116170640Y-94292382D01*
X116118200Y-94246210D01*
X116099048Y-94179017D01*
X116119263Y-94112135D01*
X116170640Y-94067618D01*
X116175021Y-94065574D01*
X116223989Y-94042741D01*
X116410751Y-93911969D01*
X116571969Y-93750751D01*
X116702741Y-93563989D01*
X116799096Y-93357354D01*
X116858106Y-93137128D01*
X116877977Y-92910000D01*
X116858106Y-92682872D01*
X116799096Y-92462646D01*
X116702741Y-92256012D01*
X116588911Y-92093445D01*
X116571970Y-92069250D01*
X116497533Y-91994813D01*
X116410751Y-91908031D01*
X116410747Y-91908028D01*
X116410746Y-91908027D01*
X116223993Y-91777261D01*
X116223985Y-91777257D01*
X116170640Y-91752382D01*
X116118200Y-91706210D01*
X116099048Y-91639017D01*
X116119263Y-91572135D01*
X116170640Y-91527618D01*
X116175021Y-91525574D01*
X116223989Y-91502741D01*
X116410751Y-91371969D01*
X116571969Y-91210751D01*
X116702741Y-91023989D01*
X116799096Y-90817354D01*
X116858106Y-90597128D01*
X116877977Y-90370000D01*
X116858106Y-90142872D01*
X116799096Y-89922646D01*
X116702741Y-89716012D01*
X116588911Y-89553445D01*
X116571970Y-89529250D01*
X116497533Y-89454813D01*
X116410751Y-89368031D01*
X116410747Y-89368028D01*
X116410746Y-89368027D01*
X116223993Y-89237261D01*
X116223985Y-89237257D01*
X116170640Y-89212382D01*
X116118200Y-89166210D01*
X116099048Y-89099017D01*
X116119263Y-89032135D01*
X116170640Y-88987618D01*
X116175021Y-88985574D01*
X116223989Y-88962741D01*
X116410751Y-88831969D01*
X116571969Y-88670751D01*
X116702741Y-88483989D01*
X116799096Y-88277354D01*
X116858106Y-88057128D01*
X116877977Y-87830000D01*
X116858106Y-87602872D01*
X116799096Y-87382646D01*
X116702741Y-87176012D01*
X116588911Y-87013445D01*
X116571970Y-86989250D01*
X116497533Y-86914813D01*
X116410751Y-86828031D01*
X116410747Y-86828028D01*
X116410746Y-86828027D01*
X116223993Y-86697261D01*
X116223985Y-86697257D01*
X116170640Y-86672382D01*
X116118200Y-86626210D01*
X116099048Y-86559017D01*
X116119263Y-86492135D01*
X116170640Y-86447618D01*
X116175021Y-86445574D01*
X116223989Y-86422741D01*
X116410751Y-86291969D01*
X116571969Y-86130751D01*
X116702741Y-85943989D01*
X116799096Y-85737354D01*
X116858106Y-85517128D01*
X116877977Y-85290000D01*
X116858106Y-85062872D01*
X116799096Y-84842646D01*
X116702741Y-84636012D01*
X116593865Y-84480520D01*
X116571970Y-84449250D01*
X116491433Y-84368713D01*
X116410751Y-84288031D01*
X116410747Y-84288028D01*
X116410746Y-84288027D01*
X116410743Y-84288024D01*
X116391741Y-84274719D01*
X116348116Y-84220142D01*
X116340924Y-84150643D01*
X116372447Y-84088289D01*
X116432677Y-84052876D01*
X116449608Y-84049856D01*
X116479983Y-84046591D01*
X116614831Y-83996296D01*
X116730046Y-83910046D01*
X116816296Y-83794831D01*
X116866591Y-83659983D01*
X116873000Y-83600373D01*
X116872999Y-81899628D01*
X116866591Y-81840017D01*
X116822982Y-81723096D01*
X116816297Y-81705171D01*
X116816293Y-81705164D01*
X116730047Y-81589955D01*
X116730044Y-81589952D01*
X116614835Y-81503706D01*
X116614828Y-81503702D01*
X116479982Y-81453408D01*
X116479983Y-81453408D01*
X116420383Y-81447001D01*
X116420381Y-81447000D01*
X116420373Y-81447000D01*
X116420364Y-81447000D01*
X114719629Y-81447000D01*
X114719623Y-81447001D01*
X114660016Y-81453408D01*
X114525171Y-81503702D01*
X114525164Y-81503706D01*
X114409955Y-81589952D01*
X114409952Y-81589955D01*
X114323706Y-81705164D01*
X114323702Y-81705171D01*
X114273408Y-81840017D01*
X114267001Y-81899616D01*
X114267001Y-81899623D01*
X114267000Y-81899635D01*
X114267000Y-83600370D01*
X114267001Y-83600376D01*
X114273408Y-83659983D01*
X114323702Y-83794828D01*
X114323706Y-83794835D01*
X114409952Y-83910044D01*
X114409955Y-83910047D01*
X114525164Y-83996293D01*
X114525171Y-83996297D01*
X114570118Y-84013061D01*
X114660017Y-84046591D01*
X114690391Y-84049856D01*
X114754939Y-84076592D01*
X114794788Y-84133984D01*
X114797283Y-84203809D01*
X114761631Y-84263899D01*
X114748260Y-84274718D01*
X114729247Y-84288031D01*
X114568032Y-84449246D01*
X114437259Y-84636011D01*
X114437258Y-84636013D01*
X114340905Y-84842642D01*
X114281894Y-85062870D01*
X114281893Y-85062877D01*
X114262023Y-85289998D01*
X114262023Y-85290001D01*
X114281893Y-85517122D01*
X114281894Y-85517129D01*
X114340902Y-85737349D01*
X114340903Y-85737351D01*
X114340904Y-85737354D01*
X114428480Y-85925163D01*
X114437259Y-85943989D01*
X114437261Y-85943993D01*
X114568027Y-86130746D01*
X114568032Y-86130752D01*
X114729247Y-86291967D01*
X114729253Y-86291972D01*
X114916006Y-86422738D01*
X114916008Y-86422739D01*
X114916011Y-86422741D01*
X114960688Y-86443574D01*
X114969360Y-86447618D01*
X115021800Y-86493790D01*
X115040952Y-86560983D01*
X115020737Y-86627865D01*
X114969361Y-86672382D01*
X114916013Y-86697258D01*
X114916011Y-86697259D01*
X114729246Y-86828032D01*
X114568032Y-86989246D01*
X114437259Y-87176011D01*
X114437258Y-87176013D01*
X114340905Y-87382642D01*
X114281894Y-87602870D01*
X114281893Y-87602877D01*
X114262023Y-87829998D01*
X114262023Y-87830001D01*
X114281893Y-88057122D01*
X114281894Y-88057129D01*
X114340902Y-88277349D01*
X114340903Y-88277351D01*
X114340904Y-88277354D01*
X114428480Y-88465163D01*
X114437259Y-88483989D01*
X114437261Y-88483993D01*
X114568027Y-88670746D01*
X114568032Y-88670752D01*
X114729247Y-88831967D01*
X114729253Y-88831972D01*
X114916006Y-88962738D01*
X114916008Y-88962739D01*
X114916011Y-88962741D01*
X114943373Y-88975500D01*
X114969360Y-88987618D01*
X115021800Y-89033790D01*
X115040952Y-89100983D01*
X115020737Y-89167865D01*
X114969361Y-89212382D01*
X114916013Y-89237258D01*
X114916011Y-89237259D01*
X114729246Y-89368032D01*
X114568032Y-89529246D01*
X114437259Y-89716011D01*
X114437258Y-89716013D01*
X114340905Y-89922642D01*
X114281894Y-90142870D01*
X114281893Y-90142877D01*
X114262023Y-90369998D01*
X114262023Y-90370001D01*
X114281893Y-90597122D01*
X114281894Y-90597129D01*
X114340902Y-90817349D01*
X114340903Y-90817351D01*
X114340904Y-90817354D01*
X114428480Y-91005163D01*
X114437259Y-91023989D01*
X114437261Y-91023993D01*
X114568027Y-91210746D01*
X114568032Y-91210752D01*
X114729247Y-91371967D01*
X114729253Y-91371972D01*
X114916006Y-91502738D01*
X114916008Y-91502739D01*
X114916011Y-91502741D01*
X114960688Y-91523574D01*
X114969360Y-91527618D01*
X115021800Y-91573790D01*
X115040952Y-91640983D01*
X115020737Y-91707865D01*
X114969361Y-91752382D01*
X114916013Y-91777258D01*
X114916011Y-91777259D01*
X114729246Y-91908032D01*
X114568032Y-92069246D01*
X114437259Y-92256011D01*
X114437258Y-92256013D01*
X114340905Y-92462642D01*
X114281894Y-92682870D01*
X114281893Y-92682877D01*
X114262023Y-92909998D01*
X114262023Y-92910001D01*
X114281893Y-93137122D01*
X114281894Y-93137129D01*
X114340902Y-93357349D01*
X114340903Y-93357351D01*
X114340904Y-93357354D01*
X114428480Y-93545163D01*
X114437259Y-93563989D01*
X114437261Y-93563993D01*
X114568027Y-93750746D01*
X114568032Y-93750752D01*
X114729247Y-93911967D01*
X114729253Y-93911972D01*
X114916006Y-94042738D01*
X114916008Y-94042739D01*
X114916011Y-94042741D01*
X114960688Y-94063574D01*
X114969360Y-94067618D01*
X115021800Y-94113790D01*
X115040952Y-94180983D01*
X115020737Y-94247865D01*
X114969361Y-94292382D01*
X114916013Y-94317258D01*
X114916011Y-94317259D01*
X114729246Y-94448032D01*
X114568032Y-94609246D01*
X114437259Y-94796011D01*
X114437258Y-94796013D01*
X114340905Y-95002642D01*
X114281894Y-95222870D01*
X114281893Y-95222877D01*
X114262023Y-95449998D01*
X114262023Y-95450001D01*
X114281893Y-95677122D01*
X114281894Y-95677129D01*
X114340902Y-95897349D01*
X114340903Y-95897351D01*
X114340904Y-95897354D01*
X114428480Y-96085163D01*
X114437259Y-96103989D01*
X114437261Y-96103993D01*
X114568027Y-96290746D01*
X114568032Y-96290752D01*
X114729247Y-96451967D01*
X114729253Y-96451972D01*
X114916006Y-96582738D01*
X114916008Y-96582739D01*
X114916011Y-96582741D01*
X114960688Y-96603574D01*
X114969360Y-96607618D01*
X115021800Y-96653790D01*
X115040952Y-96720983D01*
X115020737Y-96787865D01*
X114969361Y-96832382D01*
X114916013Y-96857258D01*
X114916011Y-96857259D01*
X114729246Y-96988032D01*
X114568032Y-97149246D01*
X114437259Y-97336011D01*
X114437258Y-97336013D01*
X114340905Y-97542642D01*
X114281894Y-97762870D01*
X114281893Y-97762877D01*
X114262023Y-97989998D01*
X114262023Y-97990001D01*
X114281893Y-98217122D01*
X114281894Y-98217129D01*
X114340902Y-98437349D01*
X114340903Y-98437351D01*
X114340904Y-98437354D01*
X114428480Y-98625163D01*
X114437259Y-98643989D01*
X114437261Y-98643993D01*
X114568027Y-98830746D01*
X114568032Y-98830752D01*
X114729247Y-98991967D01*
X114729253Y-98991972D01*
X114916006Y-99122738D01*
X114916008Y-99122739D01*
X114916011Y-99122741D01*
X114960340Y-99143412D01*
X114969360Y-99147618D01*
X115021800Y-99193790D01*
X115040952Y-99260983D01*
X115020737Y-99327865D01*
X114969361Y-99372382D01*
X114916013Y-99397258D01*
X114916011Y-99397259D01*
X114729246Y-99528032D01*
X114568032Y-99689246D01*
X114437259Y-99876011D01*
X114437258Y-99876013D01*
X114340905Y-100082642D01*
X114281894Y-100302870D01*
X114281893Y-100302877D01*
X114262023Y-100529998D01*
X114262023Y-100530001D01*
X114281893Y-100757122D01*
X114281894Y-100757129D01*
X114340902Y-100977349D01*
X114340903Y-100977351D01*
X114340904Y-100977354D01*
X114428480Y-101165163D01*
X114437259Y-101183989D01*
X114437261Y-101183993D01*
X114568027Y-101370746D01*
X114568032Y-101370752D01*
X114729247Y-101531967D01*
X114729253Y-101531972D01*
X114916006Y-101662738D01*
X114916008Y-101662739D01*
X114916011Y-101662741D01*
X115122646Y-101759096D01*
X115342872Y-101818106D01*
X115489898Y-101830969D01*
X115569998Y-101837977D01*
X115570000Y-101837977D01*
X115570001Y-101837977D01*
X115580956Y-101837018D01*
X115650097Y-101830969D01*
X115718596Y-101844735D01*
X115768779Y-101893350D01*
X115784713Y-101961379D01*
X115761338Y-102027222D01*
X115748585Y-102042178D01*
X111960926Y-105829837D01*
X111899603Y-105863322D01*
X111829911Y-105858338D01*
X111773978Y-105816466D01*
X111749561Y-105751002D01*
X111749716Y-105731354D01*
X111760334Y-105610000D01*
X111741035Y-105389409D01*
X111683723Y-105175520D01*
X111671574Y-105149467D01*
X111603118Y-105002660D01*
X111590142Y-104974833D01*
X111463132Y-104793445D01*
X111306555Y-104636868D01*
X111125167Y-104509858D01*
X111001907Y-104452381D01*
X110949468Y-104406210D01*
X110930316Y-104339017D01*
X110950531Y-104272136D01*
X111001908Y-104227618D01*
X111055255Y-104202742D01*
X111125167Y-104170142D01*
X111306555Y-104043132D01*
X111463132Y-103886555D01*
X111590142Y-103705167D01*
X111683723Y-103504480D01*
X111741035Y-103290591D01*
X111760334Y-103070000D01*
X111741035Y-102849409D01*
X111683723Y-102635520D01*
X111590142Y-102434833D01*
X111463132Y-102253445D01*
X111306555Y-102096868D01*
X111125167Y-101969858D01*
X111001907Y-101912381D01*
X110949468Y-101866210D01*
X110930316Y-101799017D01*
X110950531Y-101732136D01*
X111001908Y-101687618D01*
X111055255Y-101662742D01*
X111125167Y-101630142D01*
X111306555Y-101503132D01*
X111463132Y-101346555D01*
X111590142Y-101165167D01*
X111683723Y-100964480D01*
X111741035Y-100750591D01*
X111760334Y-100530000D01*
X111741035Y-100309409D01*
X111683723Y-100095520D01*
X111590142Y-99894833D01*
X111463132Y-99713445D01*
X111306555Y-99556868D01*
X111125167Y-99429858D01*
X111001907Y-99372381D01*
X110949468Y-99326210D01*
X110930316Y-99259017D01*
X110950531Y-99192136D01*
X111001908Y-99147618D01*
X111125167Y-99090142D01*
X111306555Y-98963132D01*
X111463132Y-98806555D01*
X111590142Y-98625167D01*
X111683723Y-98424480D01*
X111741035Y-98210591D01*
X111760334Y-97990000D01*
X111741035Y-97769409D01*
X111683723Y-97555520D01*
X111671574Y-97529467D01*
X111603118Y-97382660D01*
X111590142Y-97354833D01*
X111463132Y-97173445D01*
X111306555Y-97016868D01*
X111125167Y-96889858D01*
X111001907Y-96832381D01*
X110949468Y-96786210D01*
X110930316Y-96719017D01*
X110950531Y-96652136D01*
X111001908Y-96607618D01*
X111055255Y-96582742D01*
X111125167Y-96550142D01*
X111306555Y-96423132D01*
X111463132Y-96266555D01*
X111590142Y-96085167D01*
X111683723Y-95884480D01*
X111741035Y-95670591D01*
X111760334Y-95450000D01*
X111741035Y-95229409D01*
X111683723Y-95015520D01*
X111671574Y-94989467D01*
X111629061Y-94898296D01*
X111590142Y-94814833D01*
X111463132Y-94633445D01*
X111306555Y-94476868D01*
X111125167Y-94349858D01*
X111001907Y-94292381D01*
X110949468Y-94246210D01*
X110930316Y-94179017D01*
X110950531Y-94112136D01*
X111001908Y-94067618D01*
X111055255Y-94042742D01*
X111125167Y-94010142D01*
X111306555Y-93883132D01*
X111463132Y-93726555D01*
X111590142Y-93545167D01*
X111683723Y-93344480D01*
X111741035Y-93130591D01*
X111760334Y-92910000D01*
X111741035Y-92689409D01*
X111683723Y-92475520D01*
X111590142Y-92274833D01*
X111463132Y-92093445D01*
X111306555Y-91936868D01*
X111125167Y-91809858D01*
X111001907Y-91752381D01*
X110949468Y-91706210D01*
X110930316Y-91639017D01*
X110950531Y-91572136D01*
X111001908Y-91527618D01*
X111055255Y-91502742D01*
X111125167Y-91470142D01*
X111306555Y-91343132D01*
X111463132Y-91186555D01*
X111590142Y-91005167D01*
X111683723Y-90804480D01*
X111741035Y-90590591D01*
X111760334Y-90370000D01*
X111741035Y-90149409D01*
X111683723Y-89935520D01*
X111590142Y-89734833D01*
X111463132Y-89553445D01*
X111306555Y-89396868D01*
X111125167Y-89269858D01*
X111001907Y-89212381D01*
X110949468Y-89166210D01*
X110930316Y-89099017D01*
X110950531Y-89032136D01*
X111001908Y-88987618D01*
X111125167Y-88930142D01*
X111306555Y-88803132D01*
X111463132Y-88646555D01*
X111590142Y-88465167D01*
X111683723Y-88264480D01*
X111741035Y-88050591D01*
X111760334Y-87830000D01*
X111741035Y-87609409D01*
X111683723Y-87395520D01*
X111590142Y-87194833D01*
X111463132Y-87013445D01*
X111306555Y-86856868D01*
X111125167Y-86729858D01*
X111001907Y-86672381D01*
X110949468Y-86626210D01*
X110930316Y-86559017D01*
X110950531Y-86492136D01*
X111001908Y-86447618D01*
X111125167Y-86390142D01*
X111306555Y-86263132D01*
X111463132Y-86106555D01*
X111590142Y-85925167D01*
X111683723Y-85724480D01*
X111741035Y-85510591D01*
X111760334Y-85290000D01*
X111741035Y-85069409D01*
X111683723Y-84855520D01*
X111590142Y-84654833D01*
X111463132Y-84473445D01*
X111306555Y-84316868D01*
X111125167Y-84189858D01*
X111001907Y-84132381D01*
X110949468Y-84086210D01*
X110930316Y-84019017D01*
X110950531Y-83952136D01*
X111001908Y-83907618D01*
X111125167Y-83850142D01*
X111306555Y-83723132D01*
X111463132Y-83566555D01*
X111590142Y-83385167D01*
X111683723Y-83184480D01*
X111741035Y-82970591D01*
X111760334Y-82750000D01*
X111741035Y-82529409D01*
X111683723Y-82315520D01*
X111590142Y-82114833D01*
X111463132Y-81933445D01*
X111306555Y-81776868D01*
X111125167Y-81649858D01*
X111125163Y-81649856D01*
X110924486Y-81556279D01*
X110924475Y-81556275D01*
X110710592Y-81498965D01*
X110710585Y-81498964D01*
X110490002Y-81479666D01*
X110489998Y-81479666D01*
X110269414Y-81498964D01*
X110269407Y-81498965D01*
X110055524Y-81556275D01*
X110055513Y-81556279D01*
X109854836Y-81649856D01*
X109854834Y-81649857D01*
X109854833Y-81649858D01*
X109815570Y-81677351D01*
X109810624Y-81680814D01*
X109744418Y-81703141D01*
X109676650Y-81686131D01*
X109628837Y-81635183D01*
X109615500Y-81579239D01*
X109615500Y-78840760D01*
X109635185Y-78773721D01*
X109687989Y-78727966D01*
X109757147Y-78718022D01*
X109810621Y-78739184D01*
X109854833Y-78770142D01*
X109975572Y-78826443D01*
X110055513Y-78863720D01*
X110055515Y-78863720D01*
X110055520Y-78863723D01*
X110269409Y-78921035D01*
X110426974Y-78934820D01*
X110489998Y-78940334D01*
X110490000Y-78940334D01*
X110490002Y-78940334D01*
X110545147Y-78935509D01*
X110710591Y-78921035D01*
X110924480Y-78863723D01*
X111125167Y-78770142D01*
X111306555Y-78643132D01*
X111463132Y-78486555D01*
X111590142Y-78305167D01*
X111683723Y-78104480D01*
X111741035Y-77890591D01*
X111760334Y-77670000D01*
X111741035Y-77449409D01*
X111683723Y-77235520D01*
X111671574Y-77209467D01*
X111590143Y-77034836D01*
X111590142Y-77034834D01*
X111590142Y-77034833D01*
X111463132Y-76853445D01*
X111306555Y-76696868D01*
X111125167Y-76569858D01*
X111001907Y-76512381D01*
X110949468Y-76466210D01*
X110930316Y-76399017D01*
X110950531Y-76332136D01*
X111001908Y-76287618D01*
X111042450Y-76268713D01*
X111125167Y-76230142D01*
X111306555Y-76103132D01*
X111463132Y-75946555D01*
X111590142Y-75765167D01*
X111683723Y-75564480D01*
X111741035Y-75350591D01*
X111760334Y-75130000D01*
X111759760Y-75123444D01*
X111750471Y-75017261D01*
X111741035Y-74909409D01*
X111683723Y-74695520D01*
X111671574Y-74669467D01*
X111590143Y-74494836D01*
X111590142Y-74494834D01*
X111590142Y-74494833D01*
X111463132Y-74313445D01*
X111306555Y-74156868D01*
X111125167Y-74029858D01*
X111117959Y-74026497D01*
X111001908Y-73972382D01*
X110949468Y-73926210D01*
X110930316Y-73859017D01*
X110950531Y-73792136D01*
X111001908Y-73747618D01*
X111125167Y-73690142D01*
X111306555Y-73563132D01*
X111463132Y-73406555D01*
X111590142Y-73225167D01*
X111683723Y-73024480D01*
X111741035Y-72810591D01*
X111760334Y-72590000D01*
X111741035Y-72369409D01*
X111683723Y-72155520D01*
X111662254Y-72109480D01*
X111590143Y-71954836D01*
X111590142Y-71954834D01*
X111590142Y-71954833D01*
X111463132Y-71773445D01*
X111306555Y-71616868D01*
X111133330Y-71495574D01*
X111089708Y-71440999D01*
X111082515Y-71371500D01*
X111114037Y-71309146D01*
X111116743Y-71306352D01*
X113608077Y-68815018D01*
X113669398Y-68781535D01*
X113739090Y-68786519D01*
X113795023Y-68828391D01*
X113818299Y-68890797D01*
X113818970Y-68890709D01*
X113819353Y-68893623D01*
X113819440Y-68893855D01*
X113819490Y-68894588D01*
X113819499Y-68894728D01*
X113819500Y-68894734D01*
X113849452Y-69122238D01*
X113849453Y-69122240D01*
X113908842Y-69343887D01*
X113996650Y-69555876D01*
X113996656Y-69555888D01*
X114084338Y-69707759D01*
X114111392Y-69754617D01*
X114251081Y-69936661D01*
X114251089Y-69936670D01*
X114413330Y-70098911D01*
X114413338Y-70098918D01*
X114595382Y-70238607D01*
X114595385Y-70238608D01*
X114595388Y-70238611D01*
X114794112Y-70353344D01*
X114794117Y-70353346D01*
X114794123Y-70353349D01*
X114885480Y-70391190D01*
X115006113Y-70441158D01*
X115227762Y-70500548D01*
X115455266Y-70530500D01*
X115455273Y-70530500D01*
X115684727Y-70530500D01*
X115684734Y-70530500D01*
X115912238Y-70500548D01*
X116133887Y-70441158D01*
X116345888Y-70353344D01*
X116544612Y-70238611D01*
X116726661Y-70098919D01*
X116726665Y-70098914D01*
X116726670Y-70098911D01*
X116888911Y-69936670D01*
X116888914Y-69936665D01*
X116888919Y-69936661D01*
X116889996Y-69935258D01*
X162079500Y-69935258D01*
X162079500Y-70164741D01*
X162089226Y-70238611D01*
X162109452Y-70392238D01*
X162109453Y-70392240D01*
X162168842Y-70613887D01*
X162256650Y-70825876D01*
X162256657Y-70825890D01*
X162371392Y-71024617D01*
X162511081Y-71206661D01*
X162511089Y-71206670D01*
X162673330Y-71368911D01*
X162673338Y-71368918D01*
X162673339Y-71368919D01*
X162708995Y-71396279D01*
X162855382Y-71508607D01*
X162855385Y-71508608D01*
X162855388Y-71508611D01*
X163054112Y-71623344D01*
X163054117Y-71623346D01*
X163054123Y-71623349D01*
X163145480Y-71661190D01*
X163266113Y-71711158D01*
X163487762Y-71770548D01*
X163715266Y-71800500D01*
X163715273Y-71800500D01*
X163944727Y-71800500D01*
X163944734Y-71800500D01*
X164172238Y-71770548D01*
X164393887Y-71711158D01*
X164605888Y-71623344D01*
X164804612Y-71508611D01*
X164986661Y-71368919D01*
X164986665Y-71368914D01*
X164986670Y-71368911D01*
X165148911Y-71206670D01*
X165148914Y-71206665D01*
X165148919Y-71206661D01*
X165288611Y-71024612D01*
X165403344Y-70825888D01*
X165491158Y-70613887D01*
X165550548Y-70392238D01*
X165580500Y-70164734D01*
X165580500Y-69935266D01*
X165550548Y-69707762D01*
X165491158Y-69486113D01*
X165403344Y-69274112D01*
X165288611Y-69075388D01*
X165288608Y-69075385D01*
X165288607Y-69075382D01*
X165148918Y-68893338D01*
X165148911Y-68893330D01*
X164986670Y-68731089D01*
X164986661Y-68731081D01*
X164804617Y-68591392D01*
X164605890Y-68476657D01*
X164605876Y-68476650D01*
X164393887Y-68388842D01*
X164172238Y-68329452D01*
X164134215Y-68324446D01*
X163944741Y-68299500D01*
X163944734Y-68299500D01*
X163715266Y-68299500D01*
X163715258Y-68299500D01*
X163498715Y-68328009D01*
X163487762Y-68329452D01*
X163394076Y-68354554D01*
X163266112Y-68388842D01*
X163054123Y-68476650D01*
X163054109Y-68476657D01*
X162855382Y-68591392D01*
X162673338Y-68731081D01*
X162511081Y-68893338D01*
X162371392Y-69075382D01*
X162256657Y-69274109D01*
X162256650Y-69274123D01*
X162168842Y-69486112D01*
X162109453Y-69707759D01*
X162109451Y-69707770D01*
X162079500Y-69935258D01*
X116889996Y-69935258D01*
X117028611Y-69754612D01*
X117143344Y-69555888D01*
X117231158Y-69343887D01*
X117290548Y-69122238D01*
X117320500Y-68894734D01*
X117320500Y-68665266D01*
X117290548Y-68437762D01*
X117231158Y-68216113D01*
X117143344Y-68004112D01*
X117028611Y-67805388D01*
X117028608Y-67805385D01*
X117028607Y-67805382D01*
X116888918Y-67623338D01*
X116888911Y-67623330D01*
X116852762Y-67587181D01*
X116819277Y-67525858D01*
X116824261Y-67456166D01*
X116866133Y-67400233D01*
X116931597Y-67375816D01*
X116940443Y-67375500D01*
X184138331Y-67375500D01*
X184138347Y-67375501D01*
X184145943Y-67375501D01*
X184304054Y-67375501D01*
X184304057Y-67375501D01*
X184456785Y-67334577D01*
X184472171Y-67325693D01*
X184513555Y-67301801D01*
X184513566Y-67301793D01*
X184513578Y-67301787D01*
X184593716Y-67255520D01*
X184687819Y-67161417D01*
X184749142Y-67127932D01*
X184818834Y-67132916D01*
G37*
G04 #@! TD.AperFunction*
G04 #@! TA.AperFunction,Conductor*
G36*
X208942539Y-34520185D02*
G01*
X208988294Y-34572989D01*
X208999500Y-34624500D01*
X208999500Y-172875500D01*
X208979815Y-172942539D01*
X208927011Y-172988294D01*
X208875500Y-172999500D01*
X99124500Y-172999500D01*
X99057461Y-172979815D01*
X99011706Y-172927011D01*
X99000500Y-172875500D01*
X99000500Y-163688798D01*
X105399498Y-163688798D01*
X105440423Y-163841530D01*
X105440424Y-163841531D01*
X105453672Y-163864477D01*
X105514631Y-163970062D01*
X105519481Y-163978461D01*
X105638349Y-164097329D01*
X105638355Y-164097334D01*
X106580395Y-165039374D01*
X106580405Y-165039385D01*
X106584735Y-165043715D01*
X106584736Y-165043716D01*
X106696540Y-165155520D01*
X106696542Y-165155521D01*
X106696546Y-165155524D01*
X106833465Y-165234573D01*
X106833472Y-165234577D01*
X106945275Y-165264534D01*
X106986198Y-165275500D01*
X106986199Y-165275500D01*
X155489677Y-165275500D01*
X155489693Y-165275501D01*
X155497289Y-165275501D01*
X155655400Y-165275501D01*
X155655403Y-165275501D01*
X155808131Y-165234577D01*
X155858250Y-165205639D01*
X155945062Y-165155520D01*
X156056866Y-165043716D01*
X156056866Y-165043714D01*
X156067074Y-165033507D01*
X156067076Y-165033504D01*
X157008506Y-164092074D01*
X157008511Y-164092070D01*
X157018714Y-164081866D01*
X157018716Y-164081866D01*
X157130520Y-163970062D01*
X157183789Y-163877797D01*
X157204726Y-163841533D01*
X157204727Y-163841531D01*
X157205477Y-163840231D01*
X157209577Y-163833131D01*
X157250501Y-163680403D01*
X157250501Y-163522289D01*
X157250501Y-163514694D01*
X157250500Y-163514676D01*
X157250500Y-162150097D01*
X157270185Y-162083058D01*
X157286819Y-162062416D01*
X164937417Y-154411819D01*
X164998740Y-154378334D01*
X165025098Y-154375500D01*
X186248075Y-154375500D01*
X186248091Y-154375501D01*
X186255687Y-154375501D01*
X186413798Y-154375501D01*
X186413801Y-154375501D01*
X186566529Y-154334577D01*
X186616648Y-154305639D01*
X186703460Y-154255520D01*
X186815264Y-154143716D01*
X186815264Y-154143714D01*
X186825472Y-154133507D01*
X186825474Y-154133504D01*
X187008506Y-153950472D01*
X187008511Y-153950468D01*
X187018714Y-153940264D01*
X187018716Y-153940264D01*
X187130520Y-153828460D01*
X187130523Y-153828453D01*
X187135470Y-153822009D01*
X187136700Y-153822953D01*
X187180582Y-153781104D01*
X187249187Y-153767873D01*
X187293708Y-153780827D01*
X187481588Y-153876557D01*
X187683757Y-153942246D01*
X187893713Y-153975500D01*
X187893714Y-153975500D01*
X188106286Y-153975500D01*
X188106287Y-153975500D01*
X188316243Y-153942246D01*
X188518412Y-153876557D01*
X188707816Y-153780051D01*
X188729789Y-153764086D01*
X188879786Y-153655109D01*
X188879788Y-153655106D01*
X188879792Y-153655104D01*
X189030104Y-153504792D01*
X189149683Y-153340204D01*
X189205011Y-153297540D01*
X189274624Y-153291561D01*
X189336420Y-153324166D01*
X189350313Y-153340199D01*
X189469892Y-153504786D01*
X189469896Y-153504792D01*
X189620213Y-153655109D01*
X189792179Y-153780048D01*
X189792181Y-153780049D01*
X189792184Y-153780051D01*
X189981588Y-153876557D01*
X190183757Y-153942246D01*
X190393713Y-153975500D01*
X190393714Y-153975500D01*
X190606286Y-153975500D01*
X190606287Y-153975500D01*
X190816243Y-153942246D01*
X191018412Y-153876557D01*
X191207816Y-153780051D01*
X191229789Y-153764086D01*
X191379786Y-153655109D01*
X191379788Y-153655106D01*
X191379792Y-153655104D01*
X191530104Y-153504792D01*
X191530106Y-153504788D01*
X191530109Y-153504786D01*
X191655048Y-153332820D01*
X191655047Y-153332820D01*
X191655051Y-153332816D01*
X191751557Y-153143412D01*
X191817246Y-152941243D01*
X191850500Y-152731287D01*
X191850500Y-152268713D01*
X191817246Y-152058757D01*
X191751557Y-151856588D01*
X191655051Y-151667184D01*
X191655049Y-151667181D01*
X191655048Y-151667179D01*
X191530109Y-151495213D01*
X191379786Y-151344890D01*
X191207820Y-151219951D01*
X191018414Y-151123444D01*
X191018413Y-151123443D01*
X191018412Y-151123443D01*
X190816243Y-151057754D01*
X190816241Y-151057753D01*
X190816240Y-151057753D01*
X190654957Y-151032208D01*
X190606287Y-151024500D01*
X190393713Y-151024500D01*
X190354202Y-151030757D01*
X190183759Y-151057753D01*
X190183755Y-151057754D01*
X190047130Y-151102146D01*
X189977289Y-151104141D01*
X189921132Y-151071896D01*
X183411415Y-144562180D01*
X183377930Y-144500857D01*
X183382914Y-144431165D01*
X183424786Y-144375232D01*
X183490250Y-144350815D01*
X183499096Y-144350499D01*
X183775002Y-144350499D01*
X183775008Y-144350499D01*
X183877797Y-144339999D01*
X184044334Y-144284814D01*
X184193656Y-144192712D01*
X184317712Y-144068656D01*
X184409814Y-143919334D01*
X184464999Y-143752797D01*
X184475500Y-143650009D01*
X184475499Y-142349992D01*
X184464999Y-142247203D01*
X184409814Y-142080666D01*
X184317712Y-141931344D01*
X184193656Y-141807288D01*
X184044334Y-141715186D01*
X184044333Y-141715185D01*
X184038878Y-141711821D01*
X183992154Y-141659873D01*
X183980931Y-141590910D01*
X184008775Y-141526828D01*
X184016272Y-141518623D01*
X184155104Y-141379792D01*
X184280051Y-141207816D01*
X184280349Y-141207230D01*
X184300235Y-141168205D01*
X184348209Y-141117409D01*
X184410719Y-141100500D01*
X193589281Y-141100500D01*
X193656320Y-141120185D01*
X193699765Y-141168205D01*
X193719947Y-141207814D01*
X193719948Y-141207815D01*
X193844890Y-141379786D01*
X193983705Y-141518601D01*
X194017190Y-141579924D01*
X194012206Y-141649616D01*
X193970334Y-141705549D01*
X193961121Y-141711821D01*
X193806342Y-141807289D01*
X193682289Y-141931342D01*
X193590187Y-142080663D01*
X193590185Y-142080668D01*
X193562349Y-142164670D01*
X193535001Y-142247203D01*
X193535001Y-142247204D01*
X193535000Y-142247204D01*
X193524500Y-142349983D01*
X193524500Y-143650001D01*
X193524501Y-143650018D01*
X193535000Y-143752796D01*
X193535001Y-143752799D01*
X193590185Y-143919331D01*
X193590186Y-143919334D01*
X193682288Y-144068656D01*
X193806344Y-144192712D01*
X193955666Y-144284814D01*
X194122203Y-144339999D01*
X194224991Y-144350500D01*
X195775008Y-144350499D01*
X195877797Y-144339999D01*
X196044334Y-144284814D01*
X196193656Y-144192712D01*
X196317712Y-144068656D01*
X196409814Y-143919334D01*
X196464999Y-143752797D01*
X196475500Y-143650009D01*
X196475499Y-142349992D01*
X196464999Y-142247203D01*
X196409814Y-142080666D01*
X196317712Y-141931344D01*
X196193656Y-141807288D01*
X196044334Y-141715186D01*
X196044333Y-141715185D01*
X196038878Y-141711821D01*
X195992154Y-141659873D01*
X195980931Y-141590910D01*
X196008775Y-141526828D01*
X196016272Y-141518623D01*
X196155104Y-141379792D01*
X196194759Y-141325212D01*
X196280048Y-141207820D01*
X196280047Y-141207820D01*
X196280051Y-141207816D01*
X196376557Y-141018412D01*
X196442246Y-140816243D01*
X196475500Y-140606287D01*
X196475500Y-140393713D01*
X196442246Y-140183757D01*
X196376557Y-139981588D01*
X196280051Y-139792184D01*
X196280049Y-139792181D01*
X196280048Y-139792179D01*
X196155109Y-139620213D01*
X196004786Y-139469890D01*
X195832820Y-139344951D01*
X195643414Y-139248444D01*
X195643413Y-139248443D01*
X195643412Y-139248443D01*
X195441243Y-139182754D01*
X195441241Y-139182753D01*
X195441240Y-139182753D01*
X195279957Y-139157208D01*
X195231287Y-139149500D01*
X194768713Y-139149500D01*
X194720042Y-139157208D01*
X194558760Y-139182753D01*
X194356585Y-139248444D01*
X194167179Y-139344951D01*
X193995213Y-139469890D01*
X193844890Y-139620213D01*
X193719948Y-139792184D01*
X193719947Y-139792185D01*
X193699765Y-139831795D01*
X193651791Y-139882591D01*
X193589281Y-139899500D01*
X184410719Y-139899500D01*
X184343680Y-139879815D01*
X184300235Y-139831795D01*
X184280052Y-139792185D01*
X184280051Y-139792184D01*
X184155109Y-139620213D01*
X184004786Y-139469890D01*
X183832820Y-139344951D01*
X183643414Y-139248444D01*
X183643413Y-139248443D01*
X183643412Y-139248443D01*
X183441243Y-139182754D01*
X183441241Y-139182753D01*
X183441240Y-139182753D01*
X183279957Y-139157208D01*
X183231287Y-139149500D01*
X182768713Y-139149500D01*
X182720042Y-139157208D01*
X182558760Y-139182753D01*
X182356585Y-139248444D01*
X182167179Y-139344951D01*
X181995213Y-139469890D01*
X181844890Y-139620213D01*
X181719951Y-139792179D01*
X181623444Y-139981585D01*
X181557753Y-140183760D01*
X181545077Y-140263793D01*
X181524500Y-140393713D01*
X181524500Y-140606287D01*
X181557754Y-140816243D01*
X181616612Y-140997389D01*
X181623444Y-141018414D01*
X181719951Y-141207820D01*
X181844890Y-141379786D01*
X181983705Y-141518601D01*
X182017190Y-141579924D01*
X182012206Y-141649616D01*
X181970334Y-141705549D01*
X181961121Y-141711821D01*
X181806342Y-141807289D01*
X181682289Y-141931342D01*
X181590187Y-142080663D01*
X181590185Y-142080668D01*
X181562349Y-142164670D01*
X181535001Y-142247203D01*
X181535001Y-142247204D01*
X181535000Y-142247204D01*
X181524500Y-142349983D01*
X181524500Y-142349996D01*
X181524501Y-143550500D01*
X181504816Y-143617539D01*
X181452013Y-143663294D01*
X181400501Y-143674500D01*
X171412127Y-143674500D01*
X171345088Y-143654815D01*
X171299333Y-143602011D01*
X171289389Y-143532853D01*
X171294196Y-143512182D01*
X171317246Y-143441243D01*
X171350500Y-143231287D01*
X171350500Y-142768713D01*
X171323469Y-142598048D01*
X171332423Y-142528758D01*
X171358258Y-142490975D01*
X177712417Y-136136819D01*
X177773740Y-136103334D01*
X177800098Y-136100500D01*
X181589281Y-136100500D01*
X181656320Y-136120185D01*
X181699765Y-136168205D01*
X181719947Y-136207814D01*
X181719948Y-136207815D01*
X181844890Y-136379786D01*
X181995213Y-136530109D01*
X182167179Y-136655048D01*
X182167181Y-136655049D01*
X182167184Y-136655051D01*
X182356588Y-136751557D01*
X182558757Y-136817246D01*
X182768713Y-136850500D01*
X182768714Y-136850500D01*
X183231286Y-136850500D01*
X183231287Y-136850500D01*
X183441243Y-136817246D01*
X183572226Y-136774686D01*
X183627988Y-136756569D01*
X183666306Y-136750500D01*
X185138422Y-136750500D01*
X185332826Y-136719709D01*
X185520026Y-136658884D01*
X185695405Y-136569524D01*
X185854646Y-136453828D01*
X191612819Y-130695655D01*
X191674142Y-130662170D01*
X191743834Y-130667154D01*
X191799767Y-130709026D01*
X191824184Y-130774490D01*
X191824500Y-130783336D01*
X191824500Y-133844006D01*
X191855290Y-134038410D01*
X191916117Y-134225614D01*
X191993026Y-134376555D01*
X192005476Y-134400989D01*
X192121172Y-134560230D01*
X192121174Y-134560232D01*
X193655355Y-136094413D01*
X193678159Y-136125799D01*
X193719948Y-136207815D01*
X193719951Y-136207819D01*
X193844890Y-136379786D01*
X193995213Y-136530109D01*
X194167179Y-136655048D01*
X194167181Y-136655049D01*
X194167184Y-136655051D01*
X194356588Y-136751557D01*
X194558757Y-136817246D01*
X194768713Y-136850500D01*
X194768714Y-136850500D01*
X195231286Y-136850500D01*
X195231287Y-136850500D01*
X195441243Y-136817246D01*
X195643412Y-136751557D01*
X195832816Y-136655051D01*
X195950535Y-136569524D01*
X196004786Y-136530109D01*
X196004788Y-136530106D01*
X196004792Y-136530104D01*
X196155104Y-136379792D01*
X196155106Y-136379788D01*
X196155109Y-136379786D01*
X196280048Y-136207820D01*
X196280049Y-136207819D01*
X196280051Y-136207816D01*
X196376557Y-136018412D01*
X196442246Y-135816243D01*
X196475500Y-135606287D01*
X196475500Y-135393713D01*
X196442246Y-135183757D01*
X196376557Y-134981588D01*
X196280051Y-134792184D01*
X196280049Y-134792181D01*
X196280048Y-134792179D01*
X196155109Y-134620213D01*
X196004786Y-134469890D01*
X195832820Y-134344951D01*
X195643414Y-134248444D01*
X195643413Y-134248443D01*
X195643412Y-134248443D01*
X195441243Y-134182754D01*
X195441241Y-134182753D01*
X195290212Y-134158832D01*
X195227078Y-134128902D01*
X195221930Y-134124040D01*
X194361819Y-133263929D01*
X194328334Y-133202606D01*
X194325500Y-133176248D01*
X194325500Y-128034336D01*
X194345185Y-127967297D01*
X194361819Y-127946655D01*
X198577819Y-123730655D01*
X198639142Y-123697170D01*
X198708834Y-123702154D01*
X198764767Y-123744026D01*
X198789184Y-123809490D01*
X198789500Y-123818336D01*
X198789500Y-147390663D01*
X198769815Y-147457702D01*
X198753181Y-147478344D01*
X195190016Y-151041508D01*
X195140654Y-151071758D01*
X194981584Y-151123444D01*
X194792179Y-151219951D01*
X194620213Y-151344890D01*
X194469890Y-151495213D01*
X194344951Y-151667179D01*
X194248444Y-151856585D01*
X194182753Y-152058760D01*
X194156426Y-152224983D01*
X194149500Y-152268713D01*
X194149500Y-152731287D01*
X194182754Y-152941243D01*
X194248441Y-153143407D01*
X194248444Y-153143414D01*
X194344951Y-153332820D01*
X194469890Y-153504786D01*
X194620213Y-153655109D01*
X194792179Y-153780048D01*
X194792181Y-153780049D01*
X194792184Y-153780051D01*
X194981588Y-153876557D01*
X195183757Y-153942246D01*
X195393713Y-153975500D01*
X195393714Y-153975500D01*
X195606286Y-153975500D01*
X195606287Y-153975500D01*
X195816243Y-153942246D01*
X196018412Y-153876557D01*
X196207816Y-153780051D01*
X196229789Y-153764086D01*
X196379786Y-153655109D01*
X196379788Y-153655106D01*
X196379792Y-153655104D01*
X196530104Y-153504792D01*
X196530106Y-153504788D01*
X196530109Y-153504786D01*
X196655048Y-153332820D01*
X196655047Y-153332820D01*
X196655051Y-153332816D01*
X196751557Y-153143412D01*
X196803241Y-152984344D01*
X196833488Y-152934984D01*
X200993829Y-148774645D01*
X201109524Y-148615405D01*
X201198884Y-148440026D01*
X201259709Y-148252826D01*
X201290500Y-148058421D01*
X201290500Y-122430300D01*
X201310185Y-122363261D01*
X201362989Y-122317506D01*
X201375482Y-122312599D01*
X201459334Y-122284814D01*
X201608655Y-122192711D01*
X201732711Y-122068655D01*
X201824814Y-121919334D01*
X201879999Y-121752797D01*
X201890500Y-121650008D01*
X201890500Y-119349992D01*
X201879999Y-119247203D01*
X201824814Y-119080666D01*
X201806426Y-119050855D01*
X201732713Y-118931348D01*
X201732710Y-118931344D01*
X201608655Y-118807289D01*
X201608651Y-118807286D01*
X201459337Y-118715187D01*
X201375495Y-118687404D01*
X201318050Y-118647631D01*
X201291228Y-118583114D01*
X201290500Y-118569698D01*
X201290500Y-117797225D01*
X201310185Y-117730186D01*
X201362989Y-117684431D01*
X201367048Y-117682664D01*
X201498462Y-117628231D01*
X201801787Y-117466100D01*
X202087760Y-117275019D01*
X202353627Y-117056828D01*
X202596828Y-116813627D01*
X202815019Y-116547760D01*
X203006100Y-116261787D01*
X203168231Y-115958462D01*
X203299850Y-115640705D01*
X203399690Y-115311578D01*
X203466789Y-114974250D01*
X203500500Y-114631969D01*
X203500500Y-98328031D01*
X203500500Y-87328031D01*
X203500500Y-76328031D01*
X203500500Y-65328031D01*
X203500500Y-55328031D01*
X203500500Y-51973489D01*
X203466789Y-51631208D01*
X203399690Y-51293880D01*
X203299850Y-50964753D01*
X203168231Y-50646996D01*
X203006100Y-50343671D01*
X202815019Y-50057698D01*
X202596828Y-49791831D01*
X202596827Y-49791830D01*
X202596823Y-49791825D01*
X202353632Y-49548634D01*
X202087765Y-49330443D01*
X202087764Y-49330442D01*
X202087760Y-49330439D01*
X201801787Y-49139358D01*
X201801782Y-49139355D01*
X201801775Y-49139351D01*
X201498469Y-48977230D01*
X201498464Y-48977228D01*
X201180706Y-48845608D01*
X200851572Y-48745766D01*
X200514248Y-48678668D01*
X200514249Y-48678668D01*
X200256456Y-48653279D01*
X200171969Y-48644958D01*
X199828031Y-48644958D01*
X199749966Y-48652646D01*
X199485750Y-48678668D01*
X199148427Y-48745766D01*
X198819293Y-48845608D01*
X198501535Y-48977228D01*
X198501530Y-48977230D01*
X198198224Y-49139351D01*
X198198196Y-49139368D01*
X198108755Y-49199131D01*
X198042078Y-49220009D01*
X197974698Y-49201524D01*
X197952184Y-49183710D01*
X191833490Y-43065016D01*
X191803241Y-43015654D01*
X191751557Y-42856588D01*
X191655051Y-42667184D01*
X191655049Y-42667181D01*
X191655048Y-42667179D01*
X191530109Y-42495213D01*
X191379786Y-42344890D01*
X191207820Y-42219951D01*
X191018414Y-42123444D01*
X191018413Y-42123443D01*
X191018412Y-42123443D01*
X190816243Y-42057754D01*
X190816241Y-42057753D01*
X190816240Y-42057753D01*
X190654957Y-42032208D01*
X190606287Y-42024500D01*
X190393713Y-42024500D01*
X190345042Y-42032208D01*
X190183760Y-42057753D01*
X189981585Y-42123444D01*
X189792179Y-42219951D01*
X189620213Y-42344890D01*
X189469890Y-42495213D01*
X189344951Y-42667179D01*
X189248444Y-42856585D01*
X189182753Y-43058760D01*
X189149500Y-43268713D01*
X189149500Y-43731286D01*
X189182753Y-43941239D01*
X189248444Y-44143414D01*
X189344951Y-44332820D01*
X189469890Y-44504786D01*
X189620213Y-44655109D01*
X189792179Y-44780048D01*
X189792181Y-44780049D01*
X189792184Y-44780051D01*
X189981588Y-44876557D01*
X190140654Y-44928241D01*
X190190016Y-44958490D01*
X196541015Y-51309489D01*
X196574500Y-51370812D01*
X196574951Y-51421361D01*
X196533212Y-51631202D01*
X196533209Y-51631218D01*
X196499500Y-51973492D01*
X196499500Y-53125500D01*
X196479815Y-53192539D01*
X196427011Y-53238294D01*
X196375500Y-53249500D01*
X191288779Y-53249500D01*
X191221740Y-53229815D01*
X191215894Y-53225818D01*
X191207818Y-53219950D01*
X191207814Y-53219948D01*
X191018414Y-53123444D01*
X191018413Y-53123443D01*
X191018412Y-53123443D01*
X190816243Y-53057754D01*
X190816241Y-53057753D01*
X190816240Y-53057753D01*
X190654957Y-53032208D01*
X190606287Y-53024500D01*
X190393713Y-53024500D01*
X190345042Y-53032208D01*
X190183760Y-53057753D01*
X189981585Y-53123444D01*
X189792179Y-53219951D01*
X189620213Y-53344890D01*
X189469890Y-53495213D01*
X189344951Y-53667179D01*
X189248444Y-53856585D01*
X189182753Y-54058760D01*
X189149500Y-54268713D01*
X189149500Y-54731286D01*
X189182753Y-54941239D01*
X189248444Y-55143414D01*
X189344951Y-55332820D01*
X189469890Y-55504786D01*
X189620213Y-55655109D01*
X189792179Y-55780048D01*
X189792181Y-55780049D01*
X189792184Y-55780051D01*
X189981588Y-55876557D01*
X190183757Y-55942246D01*
X190393713Y-55975500D01*
X190393714Y-55975500D01*
X190606286Y-55975500D01*
X190606287Y-55975500D01*
X190816243Y-55942246D01*
X191018412Y-55876557D01*
X191207816Y-55780051D01*
X191215894Y-55774181D01*
X191281700Y-55750702D01*
X191288779Y-55750500D01*
X196375500Y-55750500D01*
X196442539Y-55770185D01*
X196488294Y-55822989D01*
X196499500Y-55874500D01*
X196499500Y-64125500D01*
X196479815Y-64192539D01*
X196427011Y-64238294D01*
X196375500Y-64249500D01*
X191288779Y-64249500D01*
X191221740Y-64229815D01*
X191215894Y-64225818D01*
X191207818Y-64219950D01*
X191207814Y-64219948D01*
X191018414Y-64123444D01*
X191018413Y-64123443D01*
X191018412Y-64123443D01*
X190816243Y-64057754D01*
X190816241Y-64057753D01*
X190816240Y-64057753D01*
X190654957Y-64032208D01*
X190606287Y-64024500D01*
X190393713Y-64024500D01*
X190345042Y-64032208D01*
X190183760Y-64057753D01*
X189981585Y-64123444D01*
X189792179Y-64219951D01*
X189620213Y-64344890D01*
X189469890Y-64495213D01*
X189344951Y-64667179D01*
X189248444Y-64856585D01*
X189182753Y-65058760D01*
X189149500Y-65268713D01*
X189149500Y-65731287D01*
X189182754Y-65941243D01*
X189240036Y-66117539D01*
X189248444Y-66143414D01*
X189344951Y-66332820D01*
X189469890Y-66504786D01*
X189620213Y-66655109D01*
X189792179Y-66780048D01*
X189792181Y-66780049D01*
X189792184Y-66780051D01*
X189981588Y-66876557D01*
X190183757Y-66942246D01*
X190393713Y-66975500D01*
X190393714Y-66975500D01*
X190606286Y-66975500D01*
X190606287Y-66975500D01*
X190816243Y-66942246D01*
X191018412Y-66876557D01*
X191207816Y-66780051D01*
X191215894Y-66774181D01*
X191281700Y-66750702D01*
X191288779Y-66750500D01*
X196375500Y-66750500D01*
X196442539Y-66770185D01*
X196488294Y-66822989D01*
X196499500Y-66874500D01*
X196499500Y-75125500D01*
X196479815Y-75192539D01*
X196427011Y-75238294D01*
X196375500Y-75249500D01*
X191288779Y-75249500D01*
X191221740Y-75229815D01*
X191215894Y-75225818D01*
X191207818Y-75219950D01*
X191207814Y-75219948D01*
X191018414Y-75123444D01*
X191018413Y-75123443D01*
X191018412Y-75123443D01*
X190816243Y-75057754D01*
X190816241Y-75057753D01*
X190816240Y-75057753D01*
X190654957Y-75032208D01*
X190606287Y-75024500D01*
X190393713Y-75024500D01*
X190345042Y-75032208D01*
X190183760Y-75057753D01*
X189981585Y-75123444D01*
X189792179Y-75219951D01*
X189620213Y-75344890D01*
X189469890Y-75495213D01*
X189344951Y-75667179D01*
X189248444Y-75856585D01*
X189182753Y-76058760D01*
X189168302Y-76150000D01*
X189149500Y-76268713D01*
X189149500Y-76731287D01*
X189182754Y-76941243D01*
X189213164Y-77034836D01*
X189248444Y-77143414D01*
X189344951Y-77332820D01*
X189469890Y-77504786D01*
X189620213Y-77655109D01*
X189792179Y-77780048D01*
X189792181Y-77780049D01*
X189792184Y-77780051D01*
X189981588Y-77876557D01*
X190183757Y-77942246D01*
X190393713Y-77975500D01*
X190393714Y-77975500D01*
X190606286Y-77975500D01*
X190606287Y-77975500D01*
X190816243Y-77942246D01*
X191018412Y-77876557D01*
X191207816Y-77780051D01*
X191215894Y-77774181D01*
X191281700Y-77750702D01*
X191288779Y-77750500D01*
X196375500Y-77750500D01*
X196442539Y-77770185D01*
X196488294Y-77822989D01*
X196499500Y-77874500D01*
X196499500Y-86125500D01*
X196479815Y-86192539D01*
X196427011Y-86238294D01*
X196375500Y-86249500D01*
X191288779Y-86249500D01*
X191221740Y-86229815D01*
X191215894Y-86225818D01*
X191207818Y-86219950D01*
X191207814Y-86219948D01*
X191018414Y-86123444D01*
X191018413Y-86123443D01*
X191018412Y-86123443D01*
X190816243Y-86057754D01*
X190816241Y-86057753D01*
X190816240Y-86057753D01*
X190654957Y-86032208D01*
X190606287Y-86024500D01*
X190393713Y-86024500D01*
X190345042Y-86032208D01*
X190183760Y-86057753D01*
X189981585Y-86123444D01*
X189792179Y-86219951D01*
X189620213Y-86344890D01*
X189469890Y-86495213D01*
X189344951Y-86667179D01*
X189248444Y-86856585D01*
X189182753Y-87058760D01*
X189149500Y-87268713D01*
X189149500Y-87731286D01*
X189167990Y-87848031D01*
X189182754Y-87941243D01*
X189220407Y-88057128D01*
X189248444Y-88143414D01*
X189344951Y-88332820D01*
X189469890Y-88504786D01*
X189620213Y-88655109D01*
X189792179Y-88780048D01*
X189792181Y-88780049D01*
X189792184Y-88780051D01*
X189981588Y-88876557D01*
X190183757Y-88942246D01*
X190393713Y-88975500D01*
X190393714Y-88975500D01*
X190606286Y-88975500D01*
X190606287Y-88975500D01*
X190816243Y-88942246D01*
X191018412Y-88876557D01*
X191207816Y-88780051D01*
X191215894Y-88774181D01*
X191281700Y-88750702D01*
X191288779Y-88750500D01*
X196375500Y-88750500D01*
X196442539Y-88770185D01*
X196488294Y-88822989D01*
X196499500Y-88874500D01*
X196499500Y-97125500D01*
X196479815Y-97192539D01*
X196427011Y-97238294D01*
X196375500Y-97249500D01*
X191288779Y-97249500D01*
X191221740Y-97229815D01*
X191215894Y-97225818D01*
X191207818Y-97219950D01*
X191207814Y-97219948D01*
X191018414Y-97123444D01*
X191018413Y-97123443D01*
X191018412Y-97123443D01*
X190816243Y-97057754D01*
X190816241Y-97057753D01*
X190816240Y-97057753D01*
X190654957Y-97032208D01*
X190606287Y-97024500D01*
X190393713Y-97024500D01*
X190345042Y-97032208D01*
X190183760Y-97057753D01*
X189981585Y-97123444D01*
X189792179Y-97219951D01*
X189620213Y-97344890D01*
X189469890Y-97495213D01*
X189344951Y-97667179D01*
X189248444Y-97856585D01*
X189182753Y-98058760D01*
X189158705Y-98210596D01*
X189149500Y-98268713D01*
X189149500Y-98731287D01*
X189182754Y-98941243D01*
X189231134Y-99090142D01*
X189248444Y-99143414D01*
X189344951Y-99332820D01*
X189469890Y-99504786D01*
X189620213Y-99655109D01*
X189792179Y-99780048D01*
X189792181Y-99780049D01*
X189792184Y-99780051D01*
X189981588Y-99876557D01*
X190183757Y-99942246D01*
X190393713Y-99975500D01*
X190393714Y-99975500D01*
X190606286Y-99975500D01*
X190606287Y-99975500D01*
X190816243Y-99942246D01*
X191018412Y-99876557D01*
X191207816Y-99780051D01*
X191215894Y-99774181D01*
X191281700Y-99750702D01*
X191288779Y-99750500D01*
X196375500Y-99750500D01*
X196442539Y-99770185D01*
X196488294Y-99822989D01*
X196499500Y-99874500D01*
X196499500Y-108125500D01*
X196479815Y-108192539D01*
X196427011Y-108238294D01*
X196375500Y-108249500D01*
X191288779Y-108249500D01*
X191221740Y-108229815D01*
X191215894Y-108225818D01*
X191207818Y-108219950D01*
X191207814Y-108219948D01*
X191018414Y-108123444D01*
X191018413Y-108123443D01*
X191018412Y-108123443D01*
X190816243Y-108057754D01*
X190816241Y-108057753D01*
X190816240Y-108057753D01*
X190654957Y-108032208D01*
X190606287Y-108024500D01*
X190393713Y-108024500D01*
X190345042Y-108032208D01*
X190183760Y-108057753D01*
X189981585Y-108123444D01*
X189792179Y-108219951D01*
X189620213Y-108344890D01*
X189469890Y-108495213D01*
X189344951Y-108667179D01*
X189248444Y-108856585D01*
X189182753Y-109058760D01*
X189149500Y-109268713D01*
X189149500Y-109731286D01*
X189172015Y-109873444D01*
X189182754Y-109941243D01*
X189245742Y-110135100D01*
X189248444Y-110143414D01*
X189344951Y-110332820D01*
X189469890Y-110504786D01*
X189620213Y-110655109D01*
X189792179Y-110780048D01*
X189792181Y-110780049D01*
X189792184Y-110780051D01*
X189981588Y-110876557D01*
X190183757Y-110942246D01*
X190393713Y-110975500D01*
X190393714Y-110975500D01*
X190606286Y-110975500D01*
X190606287Y-110975500D01*
X190816243Y-110942246D01*
X191018412Y-110876557D01*
X191207816Y-110780051D01*
X191215894Y-110774181D01*
X191281700Y-110750702D01*
X191288779Y-110750500D01*
X196375500Y-110750500D01*
X196442539Y-110770185D01*
X196488294Y-110822989D01*
X196499500Y-110874500D01*
X196499500Y-113125500D01*
X196479815Y-113192539D01*
X196427011Y-113238294D01*
X196375500Y-113249500D01*
X194901578Y-113249500D01*
X194707173Y-113280290D01*
X194519969Y-113341117D01*
X194344594Y-113430476D01*
X194307910Y-113457129D01*
X194185354Y-113546172D01*
X194185352Y-113546174D01*
X194185351Y-113546174D01*
X189546174Y-118185351D01*
X189546174Y-118185352D01*
X189546172Y-118185354D01*
X189496485Y-118253741D01*
X189430476Y-118344594D01*
X189341115Y-118519973D01*
X189341113Y-118519979D01*
X189289539Y-118678713D01*
X189289538Y-118678717D01*
X189280291Y-118707172D01*
X189280290Y-118707179D01*
X189249500Y-118901577D01*
X189249500Y-119833696D01*
X189243431Y-119872012D01*
X189210918Y-119972077D01*
X189182753Y-120058760D01*
X189180322Y-120074109D01*
X189149500Y-120268713D01*
X189149500Y-120731287D01*
X189182754Y-120941243D01*
X189190384Y-120964727D01*
X189248444Y-121143414D01*
X189344951Y-121332820D01*
X189469890Y-121504786D01*
X189620213Y-121655109D01*
X189792179Y-121780048D01*
X189792181Y-121780049D01*
X189792184Y-121780051D01*
X189981588Y-121876557D01*
X190183757Y-121942246D01*
X190393713Y-121975500D01*
X190393714Y-121975500D01*
X190606286Y-121975500D01*
X190606287Y-121975500D01*
X190816243Y-121942246D01*
X191018412Y-121876557D01*
X191207816Y-121780051D01*
X191303631Y-121710438D01*
X191379786Y-121655109D01*
X191379788Y-121655106D01*
X191379792Y-121655104D01*
X191530104Y-121504792D01*
X191530106Y-121504788D01*
X191530109Y-121504786D01*
X191655048Y-121332820D01*
X191655047Y-121332820D01*
X191655051Y-121332816D01*
X191751557Y-121143412D01*
X191817246Y-120941243D01*
X191850500Y-120731287D01*
X191850500Y-120268713D01*
X191817246Y-120058757D01*
X191756568Y-119872012D01*
X191750500Y-119833696D01*
X191750500Y-119569336D01*
X191770185Y-119502297D01*
X191786819Y-119481655D01*
X195481655Y-115786819D01*
X195542978Y-115753334D01*
X195569336Y-115750500D01*
X196662774Y-115750500D01*
X196729813Y-115770185D01*
X196775568Y-115822989D01*
X196777335Y-115827047D01*
X196831770Y-115958464D01*
X196831772Y-115958469D01*
X196993893Y-116261775D01*
X196993904Y-116261793D01*
X197184975Y-116547751D01*
X197184985Y-116547765D01*
X197403176Y-116813632D01*
X197646367Y-117056823D01*
X197646372Y-117056827D01*
X197646373Y-117056828D01*
X197912240Y-117275019D01*
X198198213Y-117466100D01*
X198198222Y-117466105D01*
X198198224Y-117466106D01*
X198501530Y-117628227D01*
X198501532Y-117628227D01*
X198501538Y-117628231D01*
X198632952Y-117682664D01*
X198712952Y-117715801D01*
X198767356Y-117759642D01*
X198789421Y-117825936D01*
X198789500Y-117830362D01*
X198789500Y-118569698D01*
X198769815Y-118636737D01*
X198717011Y-118682492D01*
X198704505Y-118687404D01*
X198620663Y-118715187D01*
X198620662Y-118715187D01*
X198471348Y-118807286D01*
X198471344Y-118807289D01*
X198347289Y-118931344D01*
X198347286Y-118931348D01*
X198255187Y-119080662D01*
X198255186Y-119080664D01*
X198200001Y-119247203D01*
X198200000Y-119247204D01*
X198189500Y-119349984D01*
X198189500Y-120530663D01*
X198169815Y-120597702D01*
X198153185Y-120618339D01*
X197986983Y-120784543D01*
X184558345Y-134213181D01*
X184497022Y-134246666D01*
X184470664Y-134249500D01*
X183666306Y-134249500D01*
X183627988Y-134243431D01*
X183441240Y-134182753D01*
X183279957Y-134157208D01*
X183231287Y-134149500D01*
X182768713Y-134149500D01*
X182720042Y-134157208D01*
X182558760Y-134182753D01*
X182356585Y-134248444D01*
X182167179Y-134344951D01*
X181995213Y-134469890D01*
X181844890Y-134620213D01*
X181719948Y-134792184D01*
X181719947Y-134792185D01*
X181699765Y-134831795D01*
X181651791Y-134882591D01*
X181589281Y-134899500D01*
X177586670Y-134899500D01*
X177586654Y-134899499D01*
X177579058Y-134899499D01*
X177420943Y-134899499D01*
X177344579Y-134919961D01*
X177268214Y-134940423D01*
X177268209Y-134940426D01*
X177131290Y-135019475D01*
X177131282Y-135019481D01*
X170578867Y-141571896D01*
X170517544Y-141605381D01*
X170452868Y-141602146D01*
X170316240Y-141557753D01*
X170154957Y-141532208D01*
X170106287Y-141524500D01*
X169893713Y-141524500D01*
X169879015Y-141526828D01*
X169683759Y-141557753D01*
X169683755Y-141557754D01*
X169612817Y-141580803D01*
X169542976Y-141582798D01*
X169483143Y-141546717D01*
X169452316Y-141484016D01*
X169450500Y-141462872D01*
X169450500Y-140950096D01*
X169470185Y-140883057D01*
X169486814Y-140862420D01*
X174008506Y-136340727D01*
X174008511Y-136340724D01*
X174018714Y-136330520D01*
X174018716Y-136330520D01*
X174130520Y-136218716D01*
X174186448Y-136121845D01*
X174209577Y-136081785D01*
X174250500Y-135929057D01*
X174250500Y-135770943D01*
X174250500Y-132319597D01*
X174225151Y-132224991D01*
X174209577Y-132166869D01*
X174180639Y-132116749D01*
X174130520Y-132029938D01*
X174018716Y-131918134D01*
X174018715Y-131918133D01*
X174014385Y-131913803D01*
X174014374Y-131913793D01*
X167636819Y-125536238D01*
X167603334Y-125474915D01*
X167600500Y-125448557D01*
X167600500Y-119039450D01*
X167620185Y-118972411D01*
X167672989Y-118926656D01*
X167742147Y-118916712D01*
X167805703Y-118945737D01*
X167826071Y-118968322D01*
X167936868Y-119126555D01*
X168093445Y-119283132D01*
X168274833Y-119410142D01*
X168384157Y-119461120D01*
X168475513Y-119503720D01*
X168475515Y-119503720D01*
X168475520Y-119503723D01*
X168689409Y-119561035D01*
X168846974Y-119574820D01*
X168909998Y-119580334D01*
X168910000Y-119580334D01*
X168910002Y-119580334D01*
X168965147Y-119575509D01*
X169130591Y-119561035D01*
X169344480Y-119503723D01*
X169545167Y-119410142D01*
X169726555Y-119283132D01*
X169883132Y-119126555D01*
X170010142Y-118945167D01*
X170067618Y-118821907D01*
X170113790Y-118769468D01*
X170180983Y-118750316D01*
X170247864Y-118770531D01*
X170292381Y-118821907D01*
X170349858Y-118945167D01*
X170476868Y-119126555D01*
X170633445Y-119283132D01*
X170814833Y-119410142D01*
X170924157Y-119461120D01*
X171015513Y-119503720D01*
X171015515Y-119503720D01*
X171015520Y-119503723D01*
X171229409Y-119561035D01*
X171386974Y-119574820D01*
X171449998Y-119580334D01*
X171450000Y-119580334D01*
X171450002Y-119580334D01*
X171505147Y-119575509D01*
X171670591Y-119561035D01*
X171884480Y-119503723D01*
X172085167Y-119410142D01*
X172266555Y-119283132D01*
X172423132Y-119126555D01*
X172550142Y-118945167D01*
X172643723Y-118744480D01*
X172701035Y-118530591D01*
X172720334Y-118310000D01*
X172701035Y-118089409D01*
X172643723Y-117875520D01*
X172631574Y-117849467D01*
X172587075Y-117754037D01*
X172550142Y-117674833D01*
X172423132Y-117493445D01*
X172266555Y-117336868D01*
X172085167Y-117209858D01*
X171961907Y-117152381D01*
X171909468Y-117106210D01*
X171890316Y-117039017D01*
X171910531Y-116972136D01*
X171961908Y-116927618D01*
X171965352Y-116926012D01*
X172085167Y-116870142D01*
X172266555Y-116743132D01*
X172423132Y-116586555D01*
X172550142Y-116405167D01*
X172643723Y-116204480D01*
X172701035Y-115990591D01*
X172720334Y-115770000D01*
X172701035Y-115549409D01*
X172643723Y-115335520D01*
X172631574Y-115309467D01*
X172563118Y-115162660D01*
X172550142Y-115134833D01*
X172423132Y-114953445D01*
X172266555Y-114796868D01*
X172085167Y-114669858D01*
X171961907Y-114612381D01*
X171909468Y-114566210D01*
X171890316Y-114499017D01*
X171910531Y-114432136D01*
X171961908Y-114387618D01*
X172015255Y-114362742D01*
X172085167Y-114330142D01*
X172266555Y-114203132D01*
X172423132Y-114046555D01*
X172550142Y-113865167D01*
X172643723Y-113664480D01*
X172701035Y-113450591D01*
X172720334Y-113230000D01*
X172701035Y-113009409D01*
X172643723Y-112795520D01*
X172635042Y-112776903D01*
X172624551Y-112707825D01*
X172653072Y-112644042D01*
X172711549Y-112605803D01*
X172747425Y-112600500D01*
X174199903Y-112600500D01*
X174266942Y-112620185D01*
X174287584Y-112636819D01*
X181613181Y-119962416D01*
X181646666Y-120023739D01*
X181649500Y-120050097D01*
X181649500Y-121275001D01*
X181649501Y-121275018D01*
X181660000Y-121377796D01*
X181660001Y-121377799D01*
X181715185Y-121544331D01*
X181715187Y-121544336D01*
X181750069Y-121600888D01*
X181807288Y-121693656D01*
X181931344Y-121817712D01*
X182080666Y-121909814D01*
X182247203Y-121964999D01*
X182349991Y-121975500D01*
X183650008Y-121975499D01*
X183752797Y-121964999D01*
X183919334Y-121909814D01*
X184068656Y-121817712D01*
X184192712Y-121693656D01*
X184284814Y-121544334D01*
X184284814Y-121544331D01*
X184288178Y-121538879D01*
X184340126Y-121492154D01*
X184409088Y-121480931D01*
X184473170Y-121508774D01*
X184481398Y-121516294D01*
X184620213Y-121655109D01*
X184792179Y-121780048D01*
X184792181Y-121780049D01*
X184792184Y-121780051D01*
X184981588Y-121876557D01*
X185183757Y-121942246D01*
X185393713Y-121975500D01*
X185393714Y-121975500D01*
X185606286Y-121975500D01*
X185606287Y-121975500D01*
X185816243Y-121942246D01*
X186018412Y-121876557D01*
X186207816Y-121780051D01*
X186303631Y-121710438D01*
X186379786Y-121655109D01*
X186379788Y-121655106D01*
X186379792Y-121655104D01*
X186530104Y-121504792D01*
X186530106Y-121504788D01*
X186530109Y-121504786D01*
X186655048Y-121332820D01*
X186655047Y-121332820D01*
X186655051Y-121332816D01*
X186751557Y-121143412D01*
X186817246Y-120941243D01*
X186850500Y-120731287D01*
X186850500Y-120268713D01*
X186817246Y-120058757D01*
X186751557Y-119856588D01*
X186655051Y-119667184D01*
X186655049Y-119667181D01*
X186655048Y-119667179D01*
X186530109Y-119495213D01*
X186379786Y-119344890D01*
X186207820Y-119219951D01*
X186018414Y-119123444D01*
X186018413Y-119123443D01*
X186018412Y-119123443D01*
X185816243Y-119057754D01*
X185816241Y-119057753D01*
X185816240Y-119057753D01*
X185654957Y-119032208D01*
X185606287Y-119024500D01*
X185393713Y-119024500D01*
X185345042Y-119032208D01*
X185183760Y-119057753D01*
X184981585Y-119123444D01*
X184792179Y-119219951D01*
X184620215Y-119344889D01*
X184481398Y-119483706D01*
X184420075Y-119517190D01*
X184350383Y-119512206D01*
X184294450Y-119470334D01*
X184288178Y-119461120D01*
X184192712Y-119306344D01*
X184068657Y-119182289D01*
X184068656Y-119182288D01*
X183973253Y-119123443D01*
X183919336Y-119090187D01*
X183919331Y-119090185D01*
X183917862Y-119089698D01*
X183752797Y-119035001D01*
X183752795Y-119035000D01*
X183650016Y-119024500D01*
X183650009Y-119024500D01*
X182425097Y-119024500D01*
X182358058Y-119004815D01*
X182337416Y-118988181D01*
X174987590Y-111638355D01*
X174987588Y-111638352D01*
X174868717Y-111519481D01*
X174868716Y-111519480D01*
X174781904Y-111469360D01*
X174781904Y-111469359D01*
X174781900Y-111469358D01*
X174731785Y-111440423D01*
X174579057Y-111399499D01*
X174420943Y-111399499D01*
X174413347Y-111399499D01*
X174413331Y-111399500D01*
X172710120Y-111399500D01*
X172643081Y-111379815D01*
X172597326Y-111327011D01*
X172587382Y-111257853D01*
X172597737Y-111223098D01*
X172643723Y-111124480D01*
X172701035Y-110910591D01*
X172720334Y-110690000D01*
X172717281Y-110655109D01*
X172704479Y-110508774D01*
X172701035Y-110469409D01*
X172643723Y-110255520D01*
X172631574Y-110229467D01*
X172580616Y-110120185D01*
X172550142Y-110054833D01*
X172423132Y-109873445D01*
X172266555Y-109716868D01*
X172085167Y-109589858D01*
X172020657Y-109559777D01*
X171961908Y-109532382D01*
X171909468Y-109486210D01*
X171890316Y-109419017D01*
X171910531Y-109352136D01*
X171961908Y-109307618D01*
X172015255Y-109282742D01*
X172085167Y-109250142D01*
X172266555Y-109123132D01*
X172423132Y-108966555D01*
X172550142Y-108785167D01*
X172643723Y-108584480D01*
X172701035Y-108370591D01*
X172720334Y-108150000D01*
X172701035Y-107929409D01*
X172643723Y-107715520D01*
X172631574Y-107689467D01*
X172563118Y-107542660D01*
X172550142Y-107514833D01*
X172423132Y-107333445D01*
X172266555Y-107176868D01*
X172085167Y-107049858D01*
X171961907Y-106992381D01*
X171909468Y-106946210D01*
X171890316Y-106879017D01*
X171910531Y-106812136D01*
X171961908Y-106767618D01*
X172085167Y-106710142D01*
X172266555Y-106583132D01*
X172423132Y-106426555D01*
X172550142Y-106245167D01*
X172643723Y-106044480D01*
X172701035Y-105830591D01*
X172720334Y-105610000D01*
X172701035Y-105389409D01*
X172643723Y-105175520D01*
X172631574Y-105149467D01*
X172563118Y-105002660D01*
X172550142Y-104974833D01*
X172423132Y-104793445D01*
X172266555Y-104636868D01*
X172085167Y-104509858D01*
X171961907Y-104452381D01*
X171909468Y-104406210D01*
X171890316Y-104339017D01*
X171910531Y-104272136D01*
X171961908Y-104227618D01*
X172015255Y-104202742D01*
X172085167Y-104170142D01*
X172266555Y-104043132D01*
X172423132Y-103886555D01*
X172550142Y-103705167D01*
X172643723Y-103504480D01*
X172701035Y-103290591D01*
X172720334Y-103070000D01*
X172701035Y-102849409D01*
X172677505Y-102761593D01*
X172679168Y-102691743D01*
X172718331Y-102633881D01*
X172782559Y-102606377D01*
X172797280Y-102605500D01*
X175204903Y-102605500D01*
X175271942Y-102625185D01*
X175292584Y-102641819D01*
X181613181Y-108962417D01*
X181646666Y-109023740D01*
X181649500Y-109050098D01*
X181649500Y-110275001D01*
X181649501Y-110275018D01*
X181660000Y-110377796D01*
X181660001Y-110377799D01*
X181705894Y-110516294D01*
X181715186Y-110544334D01*
X181807288Y-110693656D01*
X181931344Y-110817712D01*
X182080666Y-110909814D01*
X182247203Y-110964999D01*
X182349991Y-110975500D01*
X183650008Y-110975499D01*
X183752797Y-110964999D01*
X183919334Y-110909814D01*
X184068656Y-110817712D01*
X184192712Y-110693656D01*
X184284814Y-110544334D01*
X184284814Y-110544331D01*
X184288178Y-110538879D01*
X184340126Y-110492154D01*
X184409088Y-110480931D01*
X184473170Y-110508774D01*
X184481398Y-110516294D01*
X184620213Y-110655109D01*
X184792179Y-110780048D01*
X184792181Y-110780049D01*
X184792184Y-110780051D01*
X184981588Y-110876557D01*
X185183757Y-110942246D01*
X185393713Y-110975500D01*
X185393714Y-110975500D01*
X185606286Y-110975500D01*
X185606287Y-110975500D01*
X185816243Y-110942246D01*
X186018412Y-110876557D01*
X186207816Y-110780051D01*
X186326508Y-110693817D01*
X186379786Y-110655109D01*
X186379788Y-110655106D01*
X186379792Y-110655104D01*
X186530104Y-110504792D01*
X186530106Y-110504788D01*
X186530109Y-110504786D01*
X186655048Y-110332820D01*
X186655047Y-110332820D01*
X186655051Y-110332816D01*
X186751557Y-110143412D01*
X186817246Y-109941243D01*
X186850500Y-109731287D01*
X186850500Y-109268713D01*
X186817246Y-109058757D01*
X186751557Y-108856588D01*
X186655051Y-108667184D01*
X186655049Y-108667181D01*
X186655048Y-108667179D01*
X186530109Y-108495213D01*
X186379786Y-108344890D01*
X186207820Y-108219951D01*
X186018414Y-108123444D01*
X186018413Y-108123443D01*
X186018412Y-108123443D01*
X185816243Y-108057754D01*
X185816241Y-108057753D01*
X185816240Y-108057753D01*
X185654957Y-108032208D01*
X185606287Y-108024500D01*
X185393713Y-108024500D01*
X185354202Y-108030757D01*
X185183759Y-108057753D01*
X185183755Y-108057754D01*
X185047130Y-108102146D01*
X184977289Y-108104141D01*
X184921132Y-108071896D01*
X175542590Y-98693355D01*
X175542588Y-98693352D01*
X175423717Y-98574481D01*
X175423716Y-98574480D01*
X175336904Y-98524360D01*
X175336904Y-98524359D01*
X175336900Y-98524358D01*
X175286785Y-98495423D01*
X175134057Y-98454499D01*
X174975943Y-98454499D01*
X174968347Y-98454499D01*
X174968331Y-98454500D01*
X172797280Y-98454500D01*
X172730241Y-98434815D01*
X172684486Y-98382011D01*
X172674542Y-98312853D01*
X172677505Y-98298407D01*
X172699283Y-98217128D01*
X172701035Y-98210591D01*
X172720334Y-97990000D01*
X172701035Y-97769409D01*
X172643723Y-97555520D01*
X172631574Y-97529467D01*
X172563118Y-97382660D01*
X172550142Y-97354833D01*
X172423132Y-97173445D01*
X172266555Y-97016868D01*
X172085167Y-96889858D01*
X171961907Y-96832381D01*
X171909468Y-96786210D01*
X171890316Y-96719017D01*
X171910531Y-96652136D01*
X171961908Y-96607618D01*
X172015255Y-96582742D01*
X172085167Y-96550142D01*
X172266555Y-96423132D01*
X172423132Y-96266555D01*
X172550142Y-96085167D01*
X172643723Y-95884480D01*
X172701035Y-95670591D01*
X172720334Y-95450000D01*
X172701035Y-95229409D01*
X172643723Y-95015520D01*
X172631574Y-94989467D01*
X172589061Y-94898296D01*
X172550142Y-94814833D01*
X172423132Y-94633445D01*
X172266555Y-94476868D01*
X172085167Y-94349858D01*
X171961907Y-94292381D01*
X171909468Y-94246210D01*
X171890316Y-94179017D01*
X171910531Y-94112136D01*
X171961908Y-94067618D01*
X172015255Y-94042742D01*
X172085167Y-94010142D01*
X172266555Y-93883132D01*
X172423132Y-93726555D01*
X172550142Y-93545167D01*
X172643723Y-93344480D01*
X172701035Y-93130591D01*
X172720334Y-92910000D01*
X172701035Y-92689409D01*
X172690438Y-92649860D01*
X172677505Y-92601593D01*
X172679168Y-92531743D01*
X172718331Y-92473881D01*
X172782559Y-92446377D01*
X172797280Y-92445500D01*
X176044903Y-92445500D01*
X176111942Y-92465185D01*
X176132584Y-92481819D01*
X181613181Y-97962416D01*
X181646666Y-98023739D01*
X181649500Y-98050097D01*
X181649500Y-99275001D01*
X181649501Y-99275018D01*
X181660000Y-99377796D01*
X181660001Y-99377799D01*
X181705894Y-99516294D01*
X181715186Y-99544334D01*
X181807288Y-99693656D01*
X181931344Y-99817712D01*
X182080666Y-99909814D01*
X182247203Y-99964999D01*
X182349991Y-99975500D01*
X183650008Y-99975499D01*
X183752797Y-99964999D01*
X183919334Y-99909814D01*
X184068656Y-99817712D01*
X184192712Y-99693656D01*
X184284814Y-99544334D01*
X184284814Y-99544331D01*
X184288178Y-99538879D01*
X184340126Y-99492154D01*
X184409088Y-99480931D01*
X184473170Y-99508774D01*
X184481398Y-99516294D01*
X184620213Y-99655109D01*
X184792179Y-99780048D01*
X184792181Y-99780049D01*
X184792184Y-99780051D01*
X184981588Y-99876557D01*
X185183757Y-99942246D01*
X185393713Y-99975500D01*
X185393714Y-99975500D01*
X185606286Y-99975500D01*
X185606287Y-99975500D01*
X185816243Y-99942246D01*
X186018412Y-99876557D01*
X186207816Y-99780051D01*
X186299492Y-99713445D01*
X186379786Y-99655109D01*
X186379788Y-99655106D01*
X186379792Y-99655104D01*
X186530104Y-99504792D01*
X186530106Y-99504788D01*
X186530109Y-99504786D01*
X186655048Y-99332820D01*
X186655047Y-99332820D01*
X186655051Y-99332816D01*
X186751557Y-99143412D01*
X186817246Y-98941243D01*
X186850500Y-98731287D01*
X186850500Y-98268713D01*
X186817246Y-98058757D01*
X186751557Y-97856588D01*
X186655051Y-97667184D01*
X186655049Y-97667181D01*
X186655048Y-97667179D01*
X186530109Y-97495213D01*
X186379786Y-97344890D01*
X186207815Y-97219948D01*
X186207814Y-97219947D01*
X186168205Y-97199765D01*
X186117409Y-97151791D01*
X186100500Y-97089281D01*
X186100500Y-88910718D01*
X186120185Y-88843679D01*
X186168207Y-88800233D01*
X186207815Y-88780052D01*
X186207815Y-88780051D01*
X186207816Y-88780051D01*
X186311804Y-88704500D01*
X186379786Y-88655109D01*
X186379788Y-88655106D01*
X186379792Y-88655104D01*
X186530104Y-88504792D01*
X186530106Y-88504788D01*
X186530109Y-88504786D01*
X186655048Y-88332820D01*
X186655047Y-88332820D01*
X186655051Y-88332816D01*
X186751557Y-88143412D01*
X186817246Y-87941243D01*
X186850500Y-87731287D01*
X186850500Y-87268713D01*
X186817246Y-87058757D01*
X186751557Y-86856588D01*
X186655051Y-86667184D01*
X186655049Y-86667181D01*
X186655048Y-86667179D01*
X186530109Y-86495213D01*
X186379786Y-86344890D01*
X186207820Y-86219951D01*
X186018414Y-86123444D01*
X186018413Y-86123443D01*
X186018412Y-86123443D01*
X185816243Y-86057754D01*
X185816241Y-86057753D01*
X185816240Y-86057753D01*
X185654957Y-86032208D01*
X185606287Y-86024500D01*
X185393713Y-86024500D01*
X185345042Y-86032208D01*
X185183760Y-86057753D01*
X184981585Y-86123444D01*
X184792179Y-86219951D01*
X184620215Y-86344889D01*
X184481398Y-86483706D01*
X184420075Y-86517190D01*
X184350383Y-86512206D01*
X184294450Y-86470334D01*
X184288178Y-86461120D01*
X184192712Y-86306344D01*
X184068657Y-86182289D01*
X184068656Y-86182288D01*
X183919334Y-86090186D01*
X183752797Y-86035001D01*
X183752795Y-86035000D01*
X183650010Y-86024500D01*
X182349998Y-86024500D01*
X182349981Y-86024501D01*
X182247203Y-86035000D01*
X182247200Y-86035001D01*
X182080668Y-86090185D01*
X182080659Y-86090189D01*
X181990113Y-86146039D01*
X181925017Y-86164500D01*
X172620761Y-86164500D01*
X172553722Y-86144815D01*
X172507967Y-86092011D01*
X172498023Y-86022853D01*
X172519186Y-85969376D01*
X172531065Y-85952411D01*
X172550142Y-85925167D01*
X172643723Y-85724480D01*
X172701035Y-85510591D01*
X172720334Y-85290000D01*
X172701035Y-85069409D01*
X172643723Y-84855520D01*
X172607063Y-84776903D01*
X172596572Y-84707827D01*
X172625092Y-84644043D01*
X172683568Y-84605804D01*
X172719446Y-84600500D01*
X177523075Y-84600500D01*
X177523091Y-84600501D01*
X177530687Y-84600501D01*
X177688798Y-84600501D01*
X177688801Y-84600501D01*
X177841529Y-84559577D01*
X177891648Y-84530639D01*
X177978460Y-84480520D01*
X178090264Y-84368716D01*
X178090264Y-84368714D01*
X178100472Y-84358507D01*
X178100474Y-84358504D01*
X184653453Y-77805524D01*
X184714774Y-77772041D01*
X184784466Y-77777025D01*
X184797420Y-77782719D01*
X184981588Y-77876557D01*
X185183757Y-77942246D01*
X185393713Y-77975500D01*
X185393714Y-77975500D01*
X185606286Y-77975500D01*
X185606287Y-77975500D01*
X185816243Y-77942246D01*
X186018412Y-77876557D01*
X186207816Y-77780051D01*
X186262577Y-77740265D01*
X186379786Y-77655109D01*
X186379788Y-77655106D01*
X186379792Y-77655104D01*
X186530104Y-77504792D01*
X186530106Y-77504788D01*
X186530109Y-77504786D01*
X186655048Y-77332820D01*
X186655047Y-77332820D01*
X186655051Y-77332816D01*
X186751557Y-77143412D01*
X186817246Y-76941243D01*
X186850500Y-76731287D01*
X186850500Y-76268713D01*
X186817246Y-76058757D01*
X186751557Y-75856588D01*
X186655051Y-75667184D01*
X186655049Y-75667181D01*
X186655048Y-75667179D01*
X186530109Y-75495213D01*
X186379786Y-75344890D01*
X186207815Y-75219948D01*
X186207814Y-75219947D01*
X186168205Y-75199765D01*
X186117409Y-75151791D01*
X186100500Y-75089281D01*
X186100500Y-66910718D01*
X186120185Y-66843679D01*
X186168207Y-66800233D01*
X186207815Y-66780052D01*
X186207815Y-66780051D01*
X186207816Y-66780051D01*
X186299193Y-66713661D01*
X186379786Y-66655109D01*
X186379788Y-66655106D01*
X186379792Y-66655104D01*
X186530104Y-66504792D01*
X186530106Y-66504788D01*
X186530109Y-66504786D01*
X186655048Y-66332820D01*
X186655047Y-66332820D01*
X186655051Y-66332816D01*
X186751557Y-66143412D01*
X186817246Y-65941243D01*
X186850500Y-65731287D01*
X186850500Y-65268713D01*
X186817246Y-65058757D01*
X186751557Y-64856588D01*
X186655051Y-64667184D01*
X186655049Y-64667181D01*
X186655048Y-64667179D01*
X186530109Y-64495213D01*
X186379786Y-64344890D01*
X186207815Y-64219948D01*
X186207814Y-64219947D01*
X186168205Y-64199765D01*
X186117409Y-64151791D01*
X186100500Y-64089281D01*
X186100500Y-55910718D01*
X186120185Y-55843679D01*
X186168207Y-55800233D01*
X186207815Y-55780052D01*
X186207815Y-55780051D01*
X186207816Y-55780051D01*
X186326728Y-55693657D01*
X186379786Y-55655109D01*
X186379788Y-55655106D01*
X186379792Y-55655104D01*
X186530104Y-55504792D01*
X186530106Y-55504788D01*
X186530109Y-55504786D01*
X186655048Y-55332820D01*
X186655047Y-55332820D01*
X186655051Y-55332816D01*
X186751557Y-55143412D01*
X186817246Y-54941243D01*
X186850500Y-54731287D01*
X186850500Y-54268713D01*
X186817246Y-54058757D01*
X186751557Y-53856588D01*
X186655051Y-53667184D01*
X186655049Y-53667181D01*
X186655048Y-53667179D01*
X186530109Y-53495213D01*
X186379786Y-53344890D01*
X186207815Y-53219948D01*
X186207814Y-53219947D01*
X186168205Y-53199765D01*
X186117409Y-53151791D01*
X186100500Y-53089281D01*
X186100500Y-44910718D01*
X186120185Y-44843679D01*
X186168207Y-44800233D01*
X186207815Y-44780052D01*
X186207815Y-44780051D01*
X186207816Y-44780051D01*
X186326728Y-44693657D01*
X186379786Y-44655109D01*
X186379788Y-44655106D01*
X186379792Y-44655104D01*
X186530104Y-44504792D01*
X186530106Y-44504788D01*
X186530109Y-44504786D01*
X186655048Y-44332820D01*
X186655047Y-44332820D01*
X186655051Y-44332816D01*
X186751557Y-44143412D01*
X186817246Y-43941243D01*
X186850500Y-43731287D01*
X186850500Y-43268713D01*
X186817246Y-43058757D01*
X186751557Y-42856588D01*
X186655051Y-42667184D01*
X186655049Y-42667181D01*
X186655048Y-42667179D01*
X186530109Y-42495213D01*
X186379786Y-42344890D01*
X186207820Y-42219951D01*
X186018414Y-42123444D01*
X186018413Y-42123443D01*
X186018412Y-42123443D01*
X185816243Y-42057754D01*
X185816241Y-42057753D01*
X185816240Y-42057753D01*
X185654957Y-42032208D01*
X185606287Y-42024500D01*
X185393713Y-42024500D01*
X185345042Y-42032208D01*
X185183760Y-42057753D01*
X184981585Y-42123444D01*
X184792179Y-42219951D01*
X184620215Y-42344889D01*
X184481398Y-42483706D01*
X184420075Y-42517190D01*
X184350383Y-42512206D01*
X184294450Y-42470334D01*
X184288178Y-42461120D01*
X184192712Y-42306344D01*
X184068657Y-42182289D01*
X184068656Y-42182288D01*
X183919334Y-42090186D01*
X183752797Y-42035001D01*
X183752795Y-42035000D01*
X183650010Y-42024500D01*
X182349998Y-42024500D01*
X182349981Y-42024501D01*
X182247203Y-42035000D01*
X182247200Y-42035001D01*
X182080668Y-42090185D01*
X182080663Y-42090187D01*
X181931342Y-42182289D01*
X181807289Y-42306342D01*
X181715187Y-42455663D01*
X181715185Y-42455668D01*
X181710325Y-42470334D01*
X181660001Y-42622203D01*
X181660001Y-42622204D01*
X181660000Y-42622204D01*
X181649500Y-42724983D01*
X181649500Y-44275001D01*
X181649501Y-44275018D01*
X181660000Y-44377796D01*
X181660001Y-44377799D01*
X181705894Y-44516294D01*
X181715186Y-44544334D01*
X181807288Y-44693656D01*
X181931344Y-44817712D01*
X182080666Y-44909814D01*
X182247203Y-44964999D01*
X182349991Y-44975500D01*
X183650008Y-44975499D01*
X183752797Y-44964999D01*
X183919334Y-44909814D01*
X184068656Y-44817712D01*
X184192712Y-44693656D01*
X184284814Y-44544334D01*
X184284814Y-44544331D01*
X184288178Y-44538879D01*
X184340126Y-44492154D01*
X184409088Y-44480931D01*
X184473170Y-44508774D01*
X184481398Y-44516294D01*
X184620213Y-44655109D01*
X184792184Y-44780051D01*
X184792184Y-44780052D01*
X184831793Y-44800233D01*
X184882590Y-44848206D01*
X184899500Y-44910718D01*
X184899500Y-53089281D01*
X184879815Y-53156320D01*
X184831795Y-53199765D01*
X184792185Y-53219947D01*
X184792184Y-53219948D01*
X184620215Y-53344889D01*
X184481398Y-53483706D01*
X184420075Y-53517190D01*
X184350383Y-53512206D01*
X184294450Y-53470334D01*
X184288178Y-53461120D01*
X184192712Y-53306344D01*
X184068657Y-53182289D01*
X184068656Y-53182288D01*
X183919334Y-53090186D01*
X183752797Y-53035001D01*
X183752795Y-53035000D01*
X183650010Y-53024500D01*
X182349998Y-53024500D01*
X182349981Y-53024501D01*
X182247203Y-53035000D01*
X182247200Y-53035001D01*
X182080668Y-53090185D01*
X182080663Y-53090187D01*
X181931342Y-53182289D01*
X181807289Y-53306342D01*
X181715187Y-53455663D01*
X181715185Y-53455668D01*
X181710325Y-53470334D01*
X181660001Y-53622203D01*
X181660001Y-53622204D01*
X181660000Y-53622204D01*
X181649500Y-53724983D01*
X181649500Y-55275001D01*
X181649501Y-55275018D01*
X181660000Y-55377796D01*
X181660001Y-55377799D01*
X181705894Y-55516294D01*
X181715186Y-55544334D01*
X181807288Y-55693656D01*
X181931344Y-55817712D01*
X182080666Y-55909814D01*
X182247203Y-55964999D01*
X182349991Y-55975500D01*
X183650008Y-55975499D01*
X183752797Y-55964999D01*
X183919334Y-55909814D01*
X184068656Y-55817712D01*
X184192712Y-55693656D01*
X184284814Y-55544334D01*
X184284814Y-55544331D01*
X184288178Y-55538879D01*
X184340126Y-55492154D01*
X184409088Y-55480931D01*
X184473170Y-55508774D01*
X184481398Y-55516294D01*
X184620213Y-55655109D01*
X184792184Y-55780051D01*
X184792184Y-55780052D01*
X184831793Y-55800233D01*
X184882590Y-55848206D01*
X184899500Y-55910718D01*
X184899500Y-64089281D01*
X184879815Y-64156320D01*
X184831795Y-64199765D01*
X184792185Y-64219947D01*
X184792184Y-64219948D01*
X184620215Y-64344889D01*
X184481398Y-64483706D01*
X184420075Y-64517190D01*
X184350383Y-64512206D01*
X184294450Y-64470334D01*
X184288178Y-64461120D01*
X184192712Y-64306344D01*
X184068657Y-64182289D01*
X184068656Y-64182288D01*
X183919334Y-64090186D01*
X183752797Y-64035001D01*
X183752795Y-64035000D01*
X183650010Y-64024500D01*
X182349998Y-64024500D01*
X182349981Y-64024501D01*
X182247203Y-64035000D01*
X182247200Y-64035001D01*
X182080668Y-64090185D01*
X182080663Y-64090187D01*
X181931342Y-64182289D01*
X181807289Y-64306342D01*
X181715187Y-64455663D01*
X181715185Y-64455668D01*
X181710325Y-64470334D01*
X181660001Y-64622203D01*
X181660001Y-64622204D01*
X181660000Y-64622204D01*
X181649500Y-64724983D01*
X181649500Y-64724996D01*
X181649501Y-66050500D01*
X181629816Y-66117539D01*
X181577013Y-66163294D01*
X181525501Y-66174500D01*
X114877919Y-66174500D01*
X114719805Y-66174500D01*
X114567077Y-66215423D01*
X114567076Y-66215423D01*
X114567074Y-66215424D01*
X114567071Y-66215425D01*
X114516958Y-66244359D01*
X114516957Y-66244360D01*
X114473551Y-66269420D01*
X114430147Y-66294479D01*
X114430144Y-66294481D01*
X109252540Y-71472086D01*
X109191217Y-71505571D01*
X109121525Y-71500587D01*
X109077178Y-71472086D01*
X109072544Y-71467452D01*
X108957335Y-71381206D01*
X108957328Y-71381202D01*
X108822482Y-71330908D01*
X108822483Y-71330908D01*
X108762883Y-71324501D01*
X108762881Y-71324500D01*
X108762873Y-71324500D01*
X108762864Y-71324500D01*
X107137129Y-71324500D01*
X107137123Y-71324501D01*
X107077516Y-71330908D01*
X106942671Y-71381202D01*
X106942664Y-71381206D01*
X106827455Y-71467452D01*
X106827452Y-71467455D01*
X106741206Y-71582664D01*
X106741202Y-71582671D01*
X106690908Y-71717517D01*
X106685207Y-71770548D01*
X106684501Y-71777123D01*
X106684500Y-71777135D01*
X106684500Y-73402870D01*
X106684501Y-73402876D01*
X106690908Y-73462483D01*
X106741202Y-73597328D01*
X106741206Y-73597335D01*
X106827452Y-73712544D01*
X106827455Y-73712547D01*
X106942664Y-73798793D01*
X106942671Y-73798797D01*
X107077517Y-73849091D01*
X107077516Y-73849091D01*
X107084444Y-73849835D01*
X107137127Y-73855500D01*
X107170564Y-73855499D01*
X107237601Y-73875182D01*
X107283357Y-73927984D01*
X107293302Y-73997143D01*
X107264279Y-74060699D01*
X107241689Y-74081073D01*
X107133447Y-74156866D01*
X107133441Y-74156871D01*
X106976868Y-74313444D01*
X106849857Y-74494834D01*
X106849856Y-74494836D01*
X106756279Y-74695513D01*
X106756275Y-74695524D01*
X106698965Y-74909407D01*
X106698964Y-74909414D01*
X106679666Y-75129998D01*
X106679666Y-75130001D01*
X106698964Y-75350585D01*
X106698965Y-75350592D01*
X106756275Y-75564475D01*
X106756279Y-75564486D01*
X106804168Y-75667184D01*
X106849858Y-75765167D01*
X106976868Y-75946555D01*
X107133445Y-76103132D01*
X107314833Y-76230142D01*
X107376828Y-76259050D01*
X107438091Y-76287618D01*
X107490531Y-76333790D01*
X107509683Y-76400983D01*
X107489467Y-76467865D01*
X107438091Y-76512382D01*
X107314836Y-76569856D01*
X107314834Y-76569857D01*
X107133444Y-76696868D01*
X106976868Y-76853444D01*
X106849857Y-77034834D01*
X106849856Y-77034836D01*
X106756279Y-77235513D01*
X106756275Y-77235524D01*
X106698965Y-77449407D01*
X106698964Y-77449414D01*
X106679666Y-77669998D01*
X106679666Y-77670001D01*
X106698964Y-77890585D01*
X106698965Y-77890592D01*
X106756275Y-78104475D01*
X106756279Y-78104486D01*
X106794840Y-78187180D01*
X106849858Y-78305167D01*
X106976868Y-78486555D01*
X107133445Y-78643132D01*
X107314833Y-78770142D01*
X107376828Y-78799050D01*
X107438091Y-78827618D01*
X107490531Y-78873790D01*
X107509683Y-78940983D01*
X107489467Y-79007865D01*
X107438091Y-79052382D01*
X107314836Y-79109856D01*
X107314834Y-79109857D01*
X107133444Y-79236868D01*
X106976868Y-79393444D01*
X106849857Y-79574834D01*
X106849856Y-79574836D01*
X106756279Y-79775513D01*
X106756275Y-79775524D01*
X106698965Y-79989407D01*
X106698964Y-79989414D01*
X106679666Y-80209998D01*
X106679666Y-80210001D01*
X106698964Y-80430585D01*
X106698965Y-80430592D01*
X106756275Y-80644475D01*
X106756279Y-80644486D01*
X106820702Y-80782642D01*
X106849858Y-80845167D01*
X106976868Y-81026555D01*
X107133445Y-81183132D01*
X107314833Y-81310142D01*
X107376828Y-81339050D01*
X107438091Y-81367618D01*
X107490531Y-81413790D01*
X107509683Y-81480983D01*
X107489467Y-81547865D01*
X107438091Y-81592382D01*
X107314836Y-81649856D01*
X107314834Y-81649857D01*
X107133444Y-81776868D01*
X106976868Y-81933444D01*
X106849857Y-82114834D01*
X106849856Y-82114836D01*
X106756279Y-82315513D01*
X106756275Y-82315524D01*
X106698965Y-82529407D01*
X106698964Y-82529414D01*
X106679666Y-82749998D01*
X106679666Y-82750001D01*
X106698964Y-82970585D01*
X106698965Y-82970592D01*
X106756275Y-83184475D01*
X106756279Y-83184486D01*
X106839606Y-83363181D01*
X106849858Y-83385167D01*
X106976868Y-83566555D01*
X107133445Y-83723132D01*
X107314833Y-83850142D01*
X107376828Y-83879050D01*
X107438091Y-83907618D01*
X107490531Y-83953790D01*
X107509683Y-84020983D01*
X107489467Y-84087865D01*
X107438091Y-84132382D01*
X107314836Y-84189856D01*
X107314834Y-84189857D01*
X107133444Y-84316868D01*
X106976868Y-84473444D01*
X106849857Y-84654834D01*
X106849856Y-84654836D01*
X106756279Y-84855513D01*
X106756275Y-84855524D01*
X106698965Y-85069407D01*
X106698964Y-85069414D01*
X106679666Y-85289998D01*
X106679666Y-85290001D01*
X106698964Y-85510585D01*
X106698965Y-85510592D01*
X106756275Y-85724475D01*
X106756279Y-85724486D01*
X106820702Y-85862642D01*
X106849858Y-85925167D01*
X106976868Y-86106555D01*
X107133445Y-86263132D01*
X107314833Y-86390142D01*
X107376828Y-86419050D01*
X107438091Y-86447618D01*
X107490531Y-86493790D01*
X107509683Y-86560983D01*
X107489467Y-86627865D01*
X107438091Y-86672382D01*
X107314836Y-86729856D01*
X107314834Y-86729857D01*
X107133444Y-86856868D01*
X106976868Y-87013444D01*
X106849857Y-87194834D01*
X106849856Y-87194836D01*
X106756279Y-87395513D01*
X106756275Y-87395524D01*
X106698965Y-87609407D01*
X106698964Y-87609414D01*
X106679666Y-87829998D01*
X106679666Y-87830001D01*
X106698964Y-88050585D01*
X106698965Y-88050592D01*
X106756275Y-88264475D01*
X106756279Y-88264486D01*
X106809117Y-88377797D01*
X106849858Y-88465167D01*
X106976868Y-88646555D01*
X107133445Y-88803132D01*
X107314833Y-88930142D01*
X107356851Y-88949735D01*
X107438091Y-88987618D01*
X107490531Y-89033790D01*
X107509683Y-89100983D01*
X107489467Y-89167865D01*
X107438091Y-89212382D01*
X107314836Y-89269856D01*
X107314834Y-89269857D01*
X107133444Y-89396868D01*
X106976868Y-89553444D01*
X106849857Y-89734834D01*
X106849856Y-89734836D01*
X106756279Y-89935513D01*
X106756275Y-89935524D01*
X106698965Y-90149407D01*
X106698964Y-90149414D01*
X106679666Y-90369998D01*
X106679666Y-90370001D01*
X106698964Y-90590585D01*
X106698965Y-90590592D01*
X106756275Y-90804475D01*
X106756279Y-90804486D01*
X106820702Y-90942642D01*
X106849858Y-91005167D01*
X106976868Y-91186555D01*
X107133445Y-91343132D01*
X107314833Y-91470142D01*
X107343169Y-91483355D01*
X107438091Y-91527618D01*
X107490531Y-91573790D01*
X107509683Y-91640983D01*
X107489467Y-91707865D01*
X107438091Y-91752382D01*
X107314836Y-91809856D01*
X107314834Y-91809857D01*
X107133444Y-91936868D01*
X106976868Y-92093444D01*
X106849857Y-92274834D01*
X106849856Y-92274836D01*
X106756279Y-92475513D01*
X106756275Y-92475524D01*
X106698965Y-92689407D01*
X106698964Y-92689414D01*
X106679666Y-92909998D01*
X106679666Y-92910001D01*
X106698964Y-93130585D01*
X106698967Y-93130599D01*
X106718729Y-93204355D01*
X106717066Y-93274205D01*
X106686635Y-93324128D01*
X105631286Y-94379478D01*
X105519481Y-94491282D01*
X105519479Y-94491285D01*
X105482980Y-94554505D01*
X105482979Y-94554507D01*
X105440423Y-94628214D01*
X105426781Y-94679124D01*
X105399499Y-94780943D01*
X105399499Y-94780945D01*
X105399499Y-94949046D01*
X105399500Y-94949059D01*
X105399500Y-163523074D01*
X105399499Y-163523092D01*
X105399499Y-163688798D01*
X105399498Y-163688798D01*
X99000500Y-163688798D01*
X99000500Y-34624500D01*
X99020185Y-34557461D01*
X99072989Y-34511706D01*
X99124500Y-34500500D01*
X208875500Y-34500500D01*
X208942539Y-34520185D01*
G37*
G04 #@! TD.AperFunction*
M02*
