%TF.GenerationSoftware,KiCad,Pcbnew,8.0.8*%
%TF.CreationDate,2025-02-19T12:15:52-05:00*%
%TF.ProjectId,capstone_pcb,63617073-746f-46e6-955f-7063622e6b69,rev?*%
%TF.SameCoordinates,Original*%
%TF.FileFunction,Drillmap*%
%TF.FilePolarity,Positive*%
%FSLAX45Y45*%
G04 Gerber Fmt 4.5, Leading zero omitted, Abs format (unit mm)*
G04 Created by KiCad (PCBNEW 8.0.8) date 2025-02-19 12:15:52*
%MOMM*%
%LPD*%
G01*
G04 APERTURE LIST*
%ADD10C,0.050000*%
%ADD11C,0.200000*%
%ADD12C,0.100000*%
%ADD13C,0.102000*%
%ADD14C,0.107000*%
%ADD15C,0.170000*%
G04 APERTURE END LIST*
D10*
X9850000Y-3400000D02*
X20950000Y-3400000D01*
X20950000Y-17350000D01*
X9850000Y-17350000D01*
X9850000Y-3400000D01*
D11*
D12*
X10702500Y-13252500D02*
X10797500Y-13347500D01*
X10797500Y-13252500D02*
X10702500Y-13347500D01*
X10702500Y-14252500D02*
X10797500Y-14347500D01*
X10797500Y-14252500D02*
X10702500Y-14347500D01*
X10702500Y-15252500D02*
X10797500Y-15347500D01*
X10797500Y-15252500D02*
X10702500Y-15347500D01*
X10702500Y-16252500D02*
X10797500Y-16347500D01*
X10797500Y-16252500D02*
X10702500Y-16347500D01*
X10952500Y-13252500D02*
X11047500Y-13347500D01*
X11047500Y-13252500D02*
X10952500Y-13347500D01*
X10952500Y-14252500D02*
X11047500Y-14347500D01*
X11047500Y-14252500D02*
X10952500Y-14347500D01*
X10952500Y-15252500D02*
X11047500Y-15347500D01*
X11047500Y-15252500D02*
X10952500Y-15347500D01*
X10952500Y-16252500D02*
X11047500Y-16347500D01*
X11047500Y-16252500D02*
X10952500Y-16347500D01*
X11202500Y-13252500D02*
X11297500Y-13347500D01*
X11297500Y-13252500D02*
X11202500Y-13347500D01*
X11202500Y-14252500D02*
X11297500Y-14347500D01*
X11297500Y-14252500D02*
X11202500Y-14347500D01*
X11202500Y-15252500D02*
X11297500Y-15347500D01*
X11297500Y-15252500D02*
X11202500Y-15347500D01*
X11202500Y-16252500D02*
X11297500Y-16347500D01*
X11297500Y-16252500D02*
X11202500Y-16347500D01*
X12102500Y-13252500D02*
X12197500Y-13347500D01*
X12197500Y-13252500D02*
X12102500Y-13347500D01*
X12102500Y-14252500D02*
X12197500Y-14347500D01*
X12197500Y-14252500D02*
X12102500Y-14347500D01*
X12102500Y-15252500D02*
X12197500Y-15347500D01*
X12197500Y-15252500D02*
X12102500Y-15347500D01*
X12102500Y-16252500D02*
X12197500Y-16347500D01*
X12197500Y-16252500D02*
X12102500Y-16347500D01*
X12352500Y-13252500D02*
X12447500Y-13347500D01*
X12447500Y-13252500D02*
X12352500Y-13347500D01*
X12352500Y-14252500D02*
X12447500Y-14347500D01*
X12447500Y-14252500D02*
X12352500Y-14347500D01*
X12352500Y-15252500D02*
X12447500Y-15347500D01*
X12447500Y-15252500D02*
X12352500Y-15347500D01*
X12352500Y-16252500D02*
X12447500Y-16347500D01*
X12447500Y-16252500D02*
X12352500Y-16347500D01*
X12602500Y-13252500D02*
X12697500Y-13347500D01*
X12697500Y-13252500D02*
X12602500Y-13347500D01*
X12602500Y-14252500D02*
X12697500Y-14347500D01*
X12697500Y-14252500D02*
X12602500Y-14347500D01*
X12602500Y-15252500D02*
X12697500Y-15347500D01*
X12697500Y-15252500D02*
X12602500Y-15347500D01*
X12602500Y-16252500D02*
X12697500Y-16347500D01*
X12697500Y-16252500D02*
X12602500Y-16347500D01*
X13552500Y-13252500D02*
X13647500Y-13347500D01*
X13647500Y-13252500D02*
X13552500Y-13347500D01*
X13552500Y-14252500D02*
X13647500Y-14347500D01*
X13647500Y-14252500D02*
X13552500Y-14347500D01*
X13552500Y-15252500D02*
X13647500Y-15347500D01*
X13647500Y-15252500D02*
X13552500Y-15347500D01*
X13552500Y-16252500D02*
X13647500Y-16347500D01*
X13647500Y-16252500D02*
X13552500Y-16347500D01*
X13802500Y-13252500D02*
X13897500Y-13347500D01*
X13897500Y-13252500D02*
X13802500Y-13347500D01*
X13802500Y-14252500D02*
X13897500Y-14347500D01*
X13897500Y-14252500D02*
X13802500Y-14347500D01*
X13802500Y-15252500D02*
X13897500Y-15347500D01*
X13897500Y-15252500D02*
X13802500Y-15347500D01*
X13802500Y-16252500D02*
X13897500Y-16347500D01*
X13897500Y-16252500D02*
X13802500Y-16347500D01*
X14052500Y-13252500D02*
X14147500Y-13347500D01*
X14147500Y-13252500D02*
X14052500Y-13347500D01*
X14052500Y-14252500D02*
X14147500Y-14347500D01*
X14147500Y-14252500D02*
X14052500Y-14347500D01*
X14052500Y-15252500D02*
X14147500Y-15347500D01*
X14147500Y-15252500D02*
X14052500Y-15347500D01*
X14052500Y-16252500D02*
X14147500Y-16347500D01*
X14147500Y-16252500D02*
X14052500Y-16347500D01*
X15002500Y-13252500D02*
X15097500Y-13347500D01*
X15097500Y-13252500D02*
X15002500Y-13347500D01*
X15002500Y-14252500D02*
X15097500Y-14347500D01*
X15097500Y-14252500D02*
X15002500Y-14347500D01*
X15002500Y-15252500D02*
X15097500Y-15347500D01*
X15097500Y-15252500D02*
X15002500Y-15347500D01*
X15002500Y-16252500D02*
X15097500Y-16347500D01*
X15097500Y-16252500D02*
X15002500Y-16347500D01*
X15252500Y-13252500D02*
X15347500Y-13347500D01*
X15347500Y-13252500D02*
X15252500Y-13347500D01*
X15252500Y-14252500D02*
X15347500Y-14347500D01*
X15347500Y-14252500D02*
X15252500Y-14347500D01*
X15252500Y-15252500D02*
X15347500Y-15347500D01*
X15347500Y-15252500D02*
X15252500Y-15347500D01*
X15252500Y-16252500D02*
X15347500Y-16347500D01*
X15347500Y-16252500D02*
X15252500Y-16347500D01*
X15502500Y-13252500D02*
X15597500Y-13347500D01*
X15597500Y-13252500D02*
X15502500Y-13347500D01*
X15502500Y-14252500D02*
X15597500Y-14347500D01*
X15597500Y-14252500D02*
X15502500Y-14347500D01*
X15502500Y-15252500D02*
X15597500Y-15347500D01*
X15597500Y-15252500D02*
X15502500Y-15347500D01*
X15502500Y-16252500D02*
X15597500Y-16347500D01*
X15597500Y-16252500D02*
X15502500Y-16347500D01*
X16452500Y-13252500D02*
X16547500Y-13347500D01*
X16547500Y-13252500D02*
X16452500Y-13347500D01*
X16452500Y-14252500D02*
X16547500Y-14347500D01*
X16547500Y-14252500D02*
X16452500Y-14347500D01*
X16702500Y-13252500D02*
X16797500Y-13347500D01*
X16797500Y-13252500D02*
X16702500Y-13347500D01*
X16702500Y-14252500D02*
X16797500Y-14347500D01*
X16797500Y-14252500D02*
X16702500Y-14347500D01*
X16952500Y-13252500D02*
X17047500Y-13347500D01*
X17047500Y-13252500D02*
X16952500Y-13347500D01*
X16952500Y-14252500D02*
X17047500Y-14347500D01*
X17047500Y-14252500D02*
X16952500Y-14347500D01*
X17202500Y-13252500D02*
X17297500Y-13347500D01*
X17297500Y-13252500D02*
X17202500Y-13347500D01*
X17202500Y-14252500D02*
X17297500Y-14347500D01*
X17297500Y-14252500D02*
X17202500Y-14347500D01*
X18252500Y-4302500D02*
X18347500Y-4397500D01*
X18347500Y-4302500D02*
X18252500Y-4397500D01*
X18252500Y-5402500D02*
X18347500Y-5497500D01*
X18347500Y-5402500D02*
X18252500Y-5497500D01*
X18252500Y-6502500D02*
X18347500Y-6597500D01*
X18347500Y-6502500D02*
X18252500Y-6597500D01*
X18252500Y-7602500D02*
X18347500Y-7697500D01*
X18347500Y-7602500D02*
X18252500Y-7697500D01*
X18252500Y-8702500D02*
X18347500Y-8797500D01*
X18347500Y-8702500D02*
X18252500Y-8797500D01*
X18252500Y-9802500D02*
X18347500Y-9897500D01*
X18347500Y-9802500D02*
X18252500Y-9897500D01*
X18252500Y-10902500D02*
X18347500Y-10997500D01*
X18347500Y-10902500D02*
X18252500Y-10997500D01*
X18252500Y-12002500D02*
X18347500Y-12097500D01*
X18347500Y-12002500D02*
X18252500Y-12097500D01*
X18252500Y-13252500D02*
X18347500Y-13347500D01*
X18347500Y-13252500D02*
X18252500Y-13347500D01*
X18252500Y-13502500D02*
X18347500Y-13597500D01*
X18347500Y-13502500D02*
X18252500Y-13597500D01*
X18252500Y-13752500D02*
X18347500Y-13847500D01*
X18347500Y-13752500D02*
X18252500Y-13847500D01*
X18252500Y-14002500D02*
X18347500Y-14097500D01*
X18347500Y-14002500D02*
X18252500Y-14097500D01*
X18252500Y-14252500D02*
X18347500Y-14347500D01*
X18347500Y-14252500D02*
X18252500Y-14347500D01*
X18502500Y-4302500D02*
X18597500Y-4397500D01*
X18597500Y-4302500D02*
X18502500Y-4397500D01*
X18502500Y-5402500D02*
X18597500Y-5497500D01*
X18597500Y-5402500D02*
X18502500Y-5497500D01*
X18502500Y-6502500D02*
X18597500Y-6597500D01*
X18597500Y-6502500D02*
X18502500Y-6597500D01*
X18502500Y-7602500D02*
X18597500Y-7697500D01*
X18597500Y-7602500D02*
X18502500Y-7697500D01*
X18502500Y-8702500D02*
X18597500Y-8797500D01*
X18597500Y-8702500D02*
X18502500Y-8797500D01*
X18502500Y-9802500D02*
X18597500Y-9897500D01*
X18597500Y-9802500D02*
X18502500Y-9897500D01*
X18502500Y-10902500D02*
X18597500Y-10997500D01*
X18597500Y-10902500D02*
X18502500Y-10997500D01*
X18502500Y-12002500D02*
X18597500Y-12097500D01*
X18597500Y-12002500D02*
X18502500Y-12097500D01*
X18502500Y-15202500D02*
X18597500Y-15297500D01*
X18597500Y-15202500D02*
X18502500Y-15297500D01*
X18752500Y-4302500D02*
X18847500Y-4397500D01*
X18847500Y-4302500D02*
X18752500Y-4397500D01*
X18752500Y-5402500D02*
X18847500Y-5497500D01*
X18847500Y-5402500D02*
X18752500Y-5497500D01*
X18752500Y-6502500D02*
X18847500Y-6597500D01*
X18847500Y-6502500D02*
X18752500Y-6597500D01*
X18752500Y-7602500D02*
X18847500Y-7697500D01*
X18847500Y-7602500D02*
X18752500Y-7697500D01*
X18752500Y-8702500D02*
X18847500Y-8797500D01*
X18847500Y-8702500D02*
X18752500Y-8797500D01*
X18752500Y-9802500D02*
X18847500Y-9897500D01*
X18847500Y-9802500D02*
X18752500Y-9897500D01*
X18752500Y-10902500D02*
X18847500Y-10997500D01*
X18847500Y-10902500D02*
X18752500Y-10997500D01*
X18752500Y-12002500D02*
X18847500Y-12097500D01*
X18847500Y-12002500D02*
X18752500Y-12097500D01*
X18752500Y-15202500D02*
X18847500Y-15297500D01*
X18847500Y-15202500D02*
X18752500Y-15297500D01*
X19002500Y-4302500D02*
X19097500Y-4397500D01*
X19097500Y-4302500D02*
X19002500Y-4397500D01*
X19002500Y-5402500D02*
X19097500Y-5497500D01*
X19097500Y-5402500D02*
X19002500Y-5497500D01*
X19002500Y-6502500D02*
X19097500Y-6597500D01*
X19097500Y-6502500D02*
X19002500Y-6597500D01*
X19002500Y-7602500D02*
X19097500Y-7697500D01*
X19097500Y-7602500D02*
X19002500Y-7697500D01*
X19002500Y-8702500D02*
X19097500Y-8797500D01*
X19097500Y-8702500D02*
X19002500Y-8797500D01*
X19002500Y-9802500D02*
X19097500Y-9897500D01*
X19097500Y-9802500D02*
X19002500Y-9897500D01*
X19002500Y-10902500D02*
X19097500Y-10997500D01*
X19097500Y-10902500D02*
X19002500Y-10997500D01*
X19002500Y-12002500D02*
X19097500Y-12097500D01*
X19097500Y-12002500D02*
X19002500Y-12097500D01*
X19002500Y-15202500D02*
X19097500Y-15297500D01*
X19097500Y-15202500D02*
X19002500Y-15297500D01*
X19252500Y-15202500D02*
X19347500Y-15297500D01*
X19347500Y-15202500D02*
X19252500Y-15297500D01*
X19452500Y-13252500D02*
X19547500Y-13347500D01*
X19547500Y-13252500D02*
X19452500Y-13347500D01*
X19452500Y-13502500D02*
X19547500Y-13597500D01*
X19547500Y-13502500D02*
X19452500Y-13597500D01*
X19452500Y-13752500D02*
X19547500Y-13847500D01*
X19547500Y-13752500D02*
X19452500Y-13847500D01*
X19452500Y-14002500D02*
X19547500Y-14097500D01*
X19547500Y-14002500D02*
X19452500Y-14097500D01*
X19452500Y-14252500D02*
X19547500Y-14347500D01*
X19547500Y-14252500D02*
X19452500Y-14347500D01*
X19502500Y-15202500D02*
X19597500Y-15297500D01*
X19597500Y-15202500D02*
X19502500Y-15297500D01*
D13*
X10846000Y-7259000D02*
G75*
G02*
X10744000Y-7259000I-51000J0D01*
G01*
X10744000Y-7259000D02*
G75*
G02*
X10846000Y-7259000I51000J0D01*
G01*
X10846000Y-7513000D02*
G75*
G02*
X10744000Y-7513000I-51000J0D01*
G01*
X10744000Y-7513000D02*
G75*
G02*
X10846000Y-7513000I51000J0D01*
G01*
X10846000Y-7767000D02*
G75*
G02*
X10744000Y-7767000I-51000J0D01*
G01*
X10744000Y-7767000D02*
G75*
G02*
X10846000Y-7767000I51000J0D01*
G01*
X10846000Y-8021000D02*
G75*
G02*
X10744000Y-8021000I-51000J0D01*
G01*
X10744000Y-8021000D02*
G75*
G02*
X10846000Y-8021000I51000J0D01*
G01*
X10846000Y-8275000D02*
G75*
G02*
X10744000Y-8275000I-51000J0D01*
G01*
X10744000Y-8275000D02*
G75*
G02*
X10846000Y-8275000I51000J0D01*
G01*
X10846000Y-8529000D02*
G75*
G02*
X10744000Y-8529000I-51000J0D01*
G01*
X10744000Y-8529000D02*
G75*
G02*
X10846000Y-8529000I51000J0D01*
G01*
X10846000Y-8783000D02*
G75*
G02*
X10744000Y-8783000I-51000J0D01*
G01*
X10744000Y-8783000D02*
G75*
G02*
X10846000Y-8783000I51000J0D01*
G01*
X10846000Y-9037000D02*
G75*
G02*
X10744000Y-9037000I-51000J0D01*
G01*
X10744000Y-9037000D02*
G75*
G02*
X10846000Y-9037000I51000J0D01*
G01*
X10846000Y-9291000D02*
G75*
G02*
X10744000Y-9291000I-51000J0D01*
G01*
X10744000Y-9291000D02*
G75*
G02*
X10846000Y-9291000I51000J0D01*
G01*
X10846000Y-9545000D02*
G75*
G02*
X10744000Y-9545000I-51000J0D01*
G01*
X10744000Y-9545000D02*
G75*
G02*
X10846000Y-9545000I51000J0D01*
G01*
X10846000Y-9799000D02*
G75*
G02*
X10744000Y-9799000I-51000J0D01*
G01*
X10744000Y-9799000D02*
G75*
G02*
X10846000Y-9799000I51000J0D01*
G01*
X10846000Y-10053000D02*
G75*
G02*
X10744000Y-10053000I-51000J0D01*
G01*
X10744000Y-10053000D02*
G75*
G02*
X10846000Y-10053000I51000J0D01*
G01*
X10846000Y-10307000D02*
G75*
G02*
X10744000Y-10307000I-51000J0D01*
G01*
X10744000Y-10307000D02*
G75*
G02*
X10846000Y-10307000I51000J0D01*
G01*
X10846000Y-10561000D02*
G75*
G02*
X10744000Y-10561000I-51000J0D01*
G01*
X10744000Y-10561000D02*
G75*
G02*
X10846000Y-10561000I51000J0D01*
G01*
X10846000Y-10815000D02*
G75*
G02*
X10744000Y-10815000I-51000J0D01*
G01*
X10744000Y-10815000D02*
G75*
G02*
X10846000Y-10815000I51000J0D01*
G01*
X10846000Y-11069000D02*
G75*
G02*
X10744000Y-11069000I-51000J0D01*
G01*
X10744000Y-11069000D02*
G75*
G02*
X10846000Y-11069000I51000J0D01*
G01*
X10846000Y-11323000D02*
G75*
G02*
X10744000Y-11323000I-51000J0D01*
G01*
X10744000Y-11323000D02*
G75*
G02*
X10846000Y-11323000I51000J0D01*
G01*
X10846000Y-11577000D02*
G75*
G02*
X10744000Y-11577000I-51000J0D01*
G01*
X10744000Y-11577000D02*
G75*
G02*
X10846000Y-11577000I51000J0D01*
G01*
X10846000Y-11831000D02*
G75*
G02*
X10744000Y-11831000I-51000J0D01*
G01*
X10744000Y-11831000D02*
G75*
G02*
X10846000Y-11831000I51000J0D01*
G01*
X11100000Y-7259000D02*
G75*
G02*
X10998000Y-7259000I-51000J0D01*
G01*
X10998000Y-7259000D02*
G75*
G02*
X11100000Y-7259000I51000J0D01*
G01*
X11100000Y-7513000D02*
G75*
G02*
X10998000Y-7513000I-51000J0D01*
G01*
X10998000Y-7513000D02*
G75*
G02*
X11100000Y-7513000I51000J0D01*
G01*
X11100000Y-7767000D02*
G75*
G02*
X10998000Y-7767000I-51000J0D01*
G01*
X10998000Y-7767000D02*
G75*
G02*
X11100000Y-7767000I51000J0D01*
G01*
X11100000Y-8021000D02*
G75*
G02*
X10998000Y-8021000I-51000J0D01*
G01*
X10998000Y-8021000D02*
G75*
G02*
X11100000Y-8021000I51000J0D01*
G01*
X11100000Y-8275000D02*
G75*
G02*
X10998000Y-8275000I-51000J0D01*
G01*
X10998000Y-8275000D02*
G75*
G02*
X11100000Y-8275000I51000J0D01*
G01*
X11100000Y-8529000D02*
G75*
G02*
X10998000Y-8529000I-51000J0D01*
G01*
X10998000Y-8529000D02*
G75*
G02*
X11100000Y-8529000I51000J0D01*
G01*
X11100000Y-8783000D02*
G75*
G02*
X10998000Y-8783000I-51000J0D01*
G01*
X10998000Y-8783000D02*
G75*
G02*
X11100000Y-8783000I51000J0D01*
G01*
X11100000Y-9037000D02*
G75*
G02*
X10998000Y-9037000I-51000J0D01*
G01*
X10998000Y-9037000D02*
G75*
G02*
X11100000Y-9037000I51000J0D01*
G01*
X11100000Y-9291000D02*
G75*
G02*
X10998000Y-9291000I-51000J0D01*
G01*
X10998000Y-9291000D02*
G75*
G02*
X11100000Y-9291000I51000J0D01*
G01*
X11100000Y-9545000D02*
G75*
G02*
X10998000Y-9545000I-51000J0D01*
G01*
X10998000Y-9545000D02*
G75*
G02*
X11100000Y-9545000I51000J0D01*
G01*
X11100000Y-9799000D02*
G75*
G02*
X10998000Y-9799000I-51000J0D01*
G01*
X10998000Y-9799000D02*
G75*
G02*
X11100000Y-9799000I51000J0D01*
G01*
X11100000Y-10053000D02*
G75*
G02*
X10998000Y-10053000I-51000J0D01*
G01*
X10998000Y-10053000D02*
G75*
G02*
X11100000Y-10053000I51000J0D01*
G01*
X11100000Y-10307000D02*
G75*
G02*
X10998000Y-10307000I-51000J0D01*
G01*
X10998000Y-10307000D02*
G75*
G02*
X11100000Y-10307000I51000J0D01*
G01*
X11100000Y-10561000D02*
G75*
G02*
X10998000Y-10561000I-51000J0D01*
G01*
X10998000Y-10561000D02*
G75*
G02*
X11100000Y-10561000I51000J0D01*
G01*
X11100000Y-10815000D02*
G75*
G02*
X10998000Y-10815000I-51000J0D01*
G01*
X10998000Y-10815000D02*
G75*
G02*
X11100000Y-10815000I51000J0D01*
G01*
X11100000Y-11069000D02*
G75*
G02*
X10998000Y-11069000I-51000J0D01*
G01*
X10998000Y-11069000D02*
G75*
G02*
X11100000Y-11069000I51000J0D01*
G01*
X11100000Y-11323000D02*
G75*
G02*
X10998000Y-11323000I-51000J0D01*
G01*
X10998000Y-11323000D02*
G75*
G02*
X11100000Y-11323000I51000J0D01*
G01*
X11100000Y-11577000D02*
G75*
G02*
X10998000Y-11577000I-51000J0D01*
G01*
X10998000Y-11577000D02*
G75*
G02*
X11100000Y-11577000I51000J0D01*
G01*
X11100000Y-11831000D02*
G75*
G02*
X10998000Y-11831000I-51000J0D01*
G01*
X10998000Y-11831000D02*
G75*
G02*
X11100000Y-11831000I51000J0D01*
G01*
X16942000Y-7259000D02*
G75*
G02*
X16840000Y-7259000I-51000J0D01*
G01*
X16840000Y-7259000D02*
G75*
G02*
X16942000Y-7259000I51000J0D01*
G01*
X16942000Y-7513000D02*
G75*
G02*
X16840000Y-7513000I-51000J0D01*
G01*
X16840000Y-7513000D02*
G75*
G02*
X16942000Y-7513000I51000J0D01*
G01*
X16942000Y-7767000D02*
G75*
G02*
X16840000Y-7767000I-51000J0D01*
G01*
X16840000Y-7767000D02*
G75*
G02*
X16942000Y-7767000I51000J0D01*
G01*
X16942000Y-8021000D02*
G75*
G02*
X16840000Y-8021000I-51000J0D01*
G01*
X16840000Y-8021000D02*
G75*
G02*
X16942000Y-8021000I51000J0D01*
G01*
X16942000Y-8275000D02*
G75*
G02*
X16840000Y-8275000I-51000J0D01*
G01*
X16840000Y-8275000D02*
G75*
G02*
X16942000Y-8275000I51000J0D01*
G01*
X16942000Y-8529000D02*
G75*
G02*
X16840000Y-8529000I-51000J0D01*
G01*
X16840000Y-8529000D02*
G75*
G02*
X16942000Y-8529000I51000J0D01*
G01*
X16942000Y-8783000D02*
G75*
G02*
X16840000Y-8783000I-51000J0D01*
G01*
X16840000Y-8783000D02*
G75*
G02*
X16942000Y-8783000I51000J0D01*
G01*
X16942000Y-9037000D02*
G75*
G02*
X16840000Y-9037000I-51000J0D01*
G01*
X16840000Y-9037000D02*
G75*
G02*
X16942000Y-9037000I51000J0D01*
G01*
X16942000Y-9291000D02*
G75*
G02*
X16840000Y-9291000I-51000J0D01*
G01*
X16840000Y-9291000D02*
G75*
G02*
X16942000Y-9291000I51000J0D01*
G01*
X16942000Y-9545000D02*
G75*
G02*
X16840000Y-9545000I-51000J0D01*
G01*
X16840000Y-9545000D02*
G75*
G02*
X16942000Y-9545000I51000J0D01*
G01*
X16942000Y-9799000D02*
G75*
G02*
X16840000Y-9799000I-51000J0D01*
G01*
X16840000Y-9799000D02*
G75*
G02*
X16942000Y-9799000I51000J0D01*
G01*
X16942000Y-10053000D02*
G75*
G02*
X16840000Y-10053000I-51000J0D01*
G01*
X16840000Y-10053000D02*
G75*
G02*
X16942000Y-10053000I51000J0D01*
G01*
X16942000Y-10307000D02*
G75*
G02*
X16840000Y-10307000I-51000J0D01*
G01*
X16840000Y-10307000D02*
G75*
G02*
X16942000Y-10307000I51000J0D01*
G01*
X16942000Y-10561000D02*
G75*
G02*
X16840000Y-10561000I-51000J0D01*
G01*
X16840000Y-10561000D02*
G75*
G02*
X16942000Y-10561000I51000J0D01*
G01*
X16942000Y-10815000D02*
G75*
G02*
X16840000Y-10815000I-51000J0D01*
G01*
X16840000Y-10815000D02*
G75*
G02*
X16942000Y-10815000I51000J0D01*
G01*
X16942000Y-11069000D02*
G75*
G02*
X16840000Y-11069000I-51000J0D01*
G01*
X16840000Y-11069000D02*
G75*
G02*
X16942000Y-11069000I51000J0D01*
G01*
X16942000Y-11323000D02*
G75*
G02*
X16840000Y-11323000I-51000J0D01*
G01*
X16840000Y-11323000D02*
G75*
G02*
X16942000Y-11323000I51000J0D01*
G01*
X16942000Y-11577000D02*
G75*
G02*
X16840000Y-11577000I-51000J0D01*
G01*
X16840000Y-11577000D02*
G75*
G02*
X16942000Y-11577000I51000J0D01*
G01*
X16942000Y-11831000D02*
G75*
G02*
X16840000Y-11831000I-51000J0D01*
G01*
X16840000Y-11831000D02*
G75*
G02*
X16942000Y-11831000I51000J0D01*
G01*
X17196000Y-7259000D02*
G75*
G02*
X17094000Y-7259000I-51000J0D01*
G01*
X17094000Y-7259000D02*
G75*
G02*
X17196000Y-7259000I51000J0D01*
G01*
X17196000Y-7513000D02*
G75*
G02*
X17094000Y-7513000I-51000J0D01*
G01*
X17094000Y-7513000D02*
G75*
G02*
X17196000Y-7513000I51000J0D01*
G01*
X17196000Y-7767000D02*
G75*
G02*
X17094000Y-7767000I-51000J0D01*
G01*
X17094000Y-7767000D02*
G75*
G02*
X17196000Y-7767000I51000J0D01*
G01*
X17196000Y-8021000D02*
G75*
G02*
X17094000Y-8021000I-51000J0D01*
G01*
X17094000Y-8021000D02*
G75*
G02*
X17196000Y-8021000I51000J0D01*
G01*
X17196000Y-8275000D02*
G75*
G02*
X17094000Y-8275000I-51000J0D01*
G01*
X17094000Y-8275000D02*
G75*
G02*
X17196000Y-8275000I51000J0D01*
G01*
X17196000Y-8529000D02*
G75*
G02*
X17094000Y-8529000I-51000J0D01*
G01*
X17094000Y-8529000D02*
G75*
G02*
X17196000Y-8529000I51000J0D01*
G01*
X17196000Y-8783000D02*
G75*
G02*
X17094000Y-8783000I-51000J0D01*
G01*
X17094000Y-8783000D02*
G75*
G02*
X17196000Y-8783000I51000J0D01*
G01*
X17196000Y-9037000D02*
G75*
G02*
X17094000Y-9037000I-51000J0D01*
G01*
X17094000Y-9037000D02*
G75*
G02*
X17196000Y-9037000I51000J0D01*
G01*
X17196000Y-9291000D02*
G75*
G02*
X17094000Y-9291000I-51000J0D01*
G01*
X17094000Y-9291000D02*
G75*
G02*
X17196000Y-9291000I51000J0D01*
G01*
X17196000Y-9545000D02*
G75*
G02*
X17094000Y-9545000I-51000J0D01*
G01*
X17094000Y-9545000D02*
G75*
G02*
X17196000Y-9545000I51000J0D01*
G01*
X17196000Y-9799000D02*
G75*
G02*
X17094000Y-9799000I-51000J0D01*
G01*
X17094000Y-9799000D02*
G75*
G02*
X17196000Y-9799000I51000J0D01*
G01*
X17196000Y-10053000D02*
G75*
G02*
X17094000Y-10053000I-51000J0D01*
G01*
X17094000Y-10053000D02*
G75*
G02*
X17196000Y-10053000I51000J0D01*
G01*
X17196000Y-10307000D02*
G75*
G02*
X17094000Y-10307000I-51000J0D01*
G01*
X17094000Y-10307000D02*
G75*
G02*
X17196000Y-10307000I51000J0D01*
G01*
X17196000Y-10561000D02*
G75*
G02*
X17094000Y-10561000I-51000J0D01*
G01*
X17094000Y-10561000D02*
G75*
G02*
X17196000Y-10561000I51000J0D01*
G01*
X17196000Y-10815000D02*
G75*
G02*
X17094000Y-10815000I-51000J0D01*
G01*
X17094000Y-10815000D02*
G75*
G02*
X17196000Y-10815000I51000J0D01*
G01*
X17196000Y-11069000D02*
G75*
G02*
X17094000Y-11069000I-51000J0D01*
G01*
X17094000Y-11069000D02*
G75*
G02*
X17196000Y-11069000I51000J0D01*
G01*
X17196000Y-11323000D02*
G75*
G02*
X17094000Y-11323000I-51000J0D01*
G01*
X17094000Y-11323000D02*
G75*
G02*
X17196000Y-11323000I51000J0D01*
G01*
X17196000Y-11577000D02*
G75*
G02*
X17094000Y-11577000I-51000J0D01*
G01*
X17094000Y-11577000D02*
G75*
G02*
X17196000Y-11577000I51000J0D01*
G01*
X17196000Y-11831000D02*
G75*
G02*
X17094000Y-11831000I-51000J0D01*
G01*
X17094000Y-11831000D02*
G75*
G02*
X17196000Y-11831000I51000J0D01*
G01*
D14*
X11557000Y-8221500D02*
X11557000Y-8328500D01*
X11503500Y-8275000D02*
X11610500Y-8275000D01*
X11557000Y-8475500D02*
X11557000Y-8582500D01*
X11503500Y-8529000D02*
X11610500Y-8529000D01*
X11557000Y-8729500D02*
X11557000Y-8836500D01*
X11503500Y-8783000D02*
X11610500Y-8783000D01*
X11557000Y-8983500D02*
X11557000Y-9090500D01*
X11503500Y-9037000D02*
X11610500Y-9037000D01*
X11557000Y-9237500D02*
X11557000Y-9344500D01*
X11503500Y-9291000D02*
X11610500Y-9291000D01*
X11557000Y-9491500D02*
X11557000Y-9598500D01*
X11503500Y-9545000D02*
X11610500Y-9545000D01*
X11557000Y-9745500D02*
X11557000Y-9852500D01*
X11503500Y-9799000D02*
X11610500Y-9799000D01*
X11557000Y-9999500D02*
X11557000Y-10106500D01*
X11503500Y-10053000D02*
X11610500Y-10053000D01*
X11557000Y-10507500D02*
X11557000Y-10614500D01*
X11503500Y-10561000D02*
X11610500Y-10561000D01*
X11557000Y-10761500D02*
X11557000Y-10868500D01*
X11503500Y-10815000D02*
X11610500Y-10815000D01*
X11557000Y-11015500D02*
X11557000Y-11122500D01*
X11503500Y-11069000D02*
X11610500Y-11069000D01*
X11557000Y-11269500D02*
X11557000Y-11376500D01*
X11503500Y-11323000D02*
X11610500Y-11323000D01*
X11557000Y-11523500D02*
X11557000Y-11630500D01*
X11503500Y-11577000D02*
X11610500Y-11577000D01*
X11557000Y-11777500D02*
X11557000Y-11884500D01*
X11503500Y-11831000D02*
X11610500Y-11831000D01*
X16383000Y-7307500D02*
X16383000Y-7414500D01*
X16329500Y-7361000D02*
X16436500Y-7361000D01*
X16383000Y-7561500D02*
X16383000Y-7668500D01*
X16329500Y-7615000D02*
X16436500Y-7615000D01*
X16383000Y-7815500D02*
X16383000Y-7922500D01*
X16329500Y-7869000D02*
X16436500Y-7869000D01*
X16383000Y-8069500D02*
X16383000Y-8176500D01*
X16329500Y-8123000D02*
X16436500Y-8123000D01*
X16383000Y-8323500D02*
X16383000Y-8430500D01*
X16329500Y-8377000D02*
X16436500Y-8377000D01*
X16383000Y-8577500D02*
X16383000Y-8684500D01*
X16329500Y-8631000D02*
X16436500Y-8631000D01*
X16383000Y-8831500D02*
X16383000Y-8938500D01*
X16329500Y-8885000D02*
X16436500Y-8885000D01*
X16383000Y-9085500D02*
X16383000Y-9192500D01*
X16329500Y-9139000D02*
X16436500Y-9139000D01*
X16383000Y-9339500D02*
X16383000Y-9446500D01*
X16329500Y-9393000D02*
X16436500Y-9393000D01*
X16383000Y-9593500D02*
X16383000Y-9700500D01*
X16329500Y-9647000D02*
X16436500Y-9647000D01*
X16383000Y-9999500D02*
X16383000Y-10106500D01*
X16329500Y-10053000D02*
X16436500Y-10053000D01*
X16383000Y-10253500D02*
X16383000Y-10360500D01*
X16329500Y-10307000D02*
X16436500Y-10307000D01*
X16383000Y-10507500D02*
X16383000Y-10614500D01*
X16329500Y-10561000D02*
X16436500Y-10561000D01*
X16383000Y-10761500D02*
X16383000Y-10868500D01*
X16329500Y-10815000D02*
X16436500Y-10815000D01*
X16383000Y-11015500D02*
X16383000Y-11122500D01*
X16329500Y-11069000D02*
X16436500Y-11069000D01*
X16383000Y-11269500D02*
X16383000Y-11376500D01*
X16329500Y-11323000D02*
X16436500Y-11323000D01*
X16383000Y-11523500D02*
X16383000Y-11630500D01*
X16329500Y-11577000D02*
X16436500Y-11577000D01*
X16383000Y-11777500D02*
X16383000Y-11884500D01*
X16329500Y-11831000D02*
X16436500Y-11831000D01*
D15*
X20064105Y-12110105D02*
X20064105Y-11989895D01*
X19943895Y-11989895D01*
X19943895Y-12110105D01*
X20064105Y-12110105D01*
X20460105Y-12110105D02*
X20460105Y-11989895D01*
X20339895Y-11989895D01*
X20339895Y-12110105D01*
X20460105Y-12110105D01*
D11*
X10108277Y-17663984D02*
X10108277Y-17463984D01*
X10108277Y-17463984D02*
X10155896Y-17463984D01*
X10155896Y-17463984D02*
X10184467Y-17473508D01*
X10184467Y-17473508D02*
X10203515Y-17492555D01*
X10203515Y-17492555D02*
X10213039Y-17511603D01*
X10213039Y-17511603D02*
X10222563Y-17549698D01*
X10222563Y-17549698D02*
X10222563Y-17578270D01*
X10222563Y-17578270D02*
X10213039Y-17616365D01*
X10213039Y-17616365D02*
X10203515Y-17635412D01*
X10203515Y-17635412D02*
X10184467Y-17654460D01*
X10184467Y-17654460D02*
X10155896Y-17663984D01*
X10155896Y-17663984D02*
X10108277Y-17663984D01*
X10308277Y-17663984D02*
X10308277Y-17530650D01*
X10308277Y-17568746D02*
X10317801Y-17549698D01*
X10317801Y-17549698D02*
X10327324Y-17540174D01*
X10327324Y-17540174D02*
X10346372Y-17530650D01*
X10346372Y-17530650D02*
X10365420Y-17530650D01*
X10432086Y-17663984D02*
X10432086Y-17530650D01*
X10432086Y-17463984D02*
X10422563Y-17473508D01*
X10422563Y-17473508D02*
X10432086Y-17483031D01*
X10432086Y-17483031D02*
X10441610Y-17473508D01*
X10441610Y-17473508D02*
X10432086Y-17463984D01*
X10432086Y-17463984D02*
X10432086Y-17483031D01*
X10555896Y-17663984D02*
X10536848Y-17654460D01*
X10536848Y-17654460D02*
X10527324Y-17635412D01*
X10527324Y-17635412D02*
X10527324Y-17463984D01*
X10660658Y-17663984D02*
X10641610Y-17654460D01*
X10641610Y-17654460D02*
X10632086Y-17635412D01*
X10632086Y-17635412D02*
X10632086Y-17463984D01*
X10889229Y-17663984D02*
X10889229Y-17463984D01*
X10889229Y-17463984D02*
X10955896Y-17606841D01*
X10955896Y-17606841D02*
X11022563Y-17463984D01*
X11022563Y-17463984D02*
X11022563Y-17663984D01*
X11203515Y-17663984D02*
X11203515Y-17559222D01*
X11203515Y-17559222D02*
X11193991Y-17540174D01*
X11193991Y-17540174D02*
X11174944Y-17530650D01*
X11174944Y-17530650D02*
X11136848Y-17530650D01*
X11136848Y-17530650D02*
X11117801Y-17540174D01*
X11203515Y-17654460D02*
X11184467Y-17663984D01*
X11184467Y-17663984D02*
X11136848Y-17663984D01*
X11136848Y-17663984D02*
X11117801Y-17654460D01*
X11117801Y-17654460D02*
X11108277Y-17635412D01*
X11108277Y-17635412D02*
X11108277Y-17616365D01*
X11108277Y-17616365D02*
X11117801Y-17597317D01*
X11117801Y-17597317D02*
X11136848Y-17587793D01*
X11136848Y-17587793D02*
X11184467Y-17587793D01*
X11184467Y-17587793D02*
X11203515Y-17578270D01*
X11298753Y-17530650D02*
X11298753Y-17730650D01*
X11298753Y-17540174D02*
X11317801Y-17530650D01*
X11317801Y-17530650D02*
X11355896Y-17530650D01*
X11355896Y-17530650D02*
X11374943Y-17540174D01*
X11374943Y-17540174D02*
X11384467Y-17549698D01*
X11384467Y-17549698D02*
X11393991Y-17568746D01*
X11393991Y-17568746D02*
X11393991Y-17625889D01*
X11393991Y-17625889D02*
X11384467Y-17644936D01*
X11384467Y-17644936D02*
X11374943Y-17654460D01*
X11374943Y-17654460D02*
X11355896Y-17663984D01*
X11355896Y-17663984D02*
X11317801Y-17663984D01*
X11317801Y-17663984D02*
X11298753Y-17654460D01*
X11479705Y-17644936D02*
X11489229Y-17654460D01*
X11489229Y-17654460D02*
X11479705Y-17663984D01*
X11479705Y-17663984D02*
X11470182Y-17654460D01*
X11470182Y-17654460D02*
X11479705Y-17644936D01*
X11479705Y-17644936D02*
X11479705Y-17663984D01*
X11479705Y-17540174D02*
X11489229Y-17549698D01*
X11489229Y-17549698D02*
X11479705Y-17559222D01*
X11479705Y-17559222D02*
X11470182Y-17549698D01*
X11470182Y-17549698D02*
X11479705Y-17540174D01*
X11479705Y-17540174D02*
X11479705Y-17559222D01*
D12*
X9752500Y-17945000D02*
X9847500Y-18040000D01*
X9847500Y-17945000D02*
X9752500Y-18040000D01*
D11*
X10146372Y-17883984D02*
X10165420Y-17883984D01*
X10165420Y-17883984D02*
X10184467Y-17893508D01*
X10184467Y-17893508D02*
X10193991Y-17903031D01*
X10193991Y-17903031D02*
X10203515Y-17922079D01*
X10203515Y-17922079D02*
X10213039Y-17960174D01*
X10213039Y-17960174D02*
X10213039Y-18007793D01*
X10213039Y-18007793D02*
X10203515Y-18045889D01*
X10203515Y-18045889D02*
X10193991Y-18064936D01*
X10193991Y-18064936D02*
X10184467Y-18074460D01*
X10184467Y-18074460D02*
X10165420Y-18083984D01*
X10165420Y-18083984D02*
X10146372Y-18083984D01*
X10146372Y-18083984D02*
X10127324Y-18074460D01*
X10127324Y-18074460D02*
X10117801Y-18064936D01*
X10117801Y-18064936D02*
X10108277Y-18045889D01*
X10108277Y-18045889D02*
X10098753Y-18007793D01*
X10098753Y-18007793D02*
X10098753Y-17960174D01*
X10098753Y-17960174D02*
X10108277Y-17922079D01*
X10108277Y-17922079D02*
X10117801Y-17903031D01*
X10117801Y-17903031D02*
X10127324Y-17893508D01*
X10127324Y-17893508D02*
X10146372Y-17883984D01*
X10298753Y-18064936D02*
X10308277Y-18074460D01*
X10308277Y-18074460D02*
X10298753Y-18083984D01*
X10298753Y-18083984D02*
X10289229Y-18074460D01*
X10289229Y-18074460D02*
X10298753Y-18064936D01*
X10298753Y-18064936D02*
X10298753Y-18083984D01*
X10403515Y-18083984D02*
X10441610Y-18083984D01*
X10441610Y-18083984D02*
X10460658Y-18074460D01*
X10460658Y-18074460D02*
X10470182Y-18064936D01*
X10470182Y-18064936D02*
X10489229Y-18036365D01*
X10489229Y-18036365D02*
X10498753Y-17998270D01*
X10498753Y-17998270D02*
X10498753Y-17922079D01*
X10498753Y-17922079D02*
X10489229Y-17903031D01*
X10489229Y-17903031D02*
X10479705Y-17893508D01*
X10479705Y-17893508D02*
X10460658Y-17883984D01*
X10460658Y-17883984D02*
X10422563Y-17883984D01*
X10422563Y-17883984D02*
X10403515Y-17893508D01*
X10403515Y-17893508D02*
X10393991Y-17903031D01*
X10393991Y-17903031D02*
X10384467Y-17922079D01*
X10384467Y-17922079D02*
X10384467Y-17969698D01*
X10384467Y-17969698D02*
X10393991Y-17988746D01*
X10393991Y-17988746D02*
X10403515Y-17998270D01*
X10403515Y-17998270D02*
X10422563Y-18007793D01*
X10422563Y-18007793D02*
X10460658Y-18007793D01*
X10460658Y-18007793D02*
X10479705Y-17998270D01*
X10479705Y-17998270D02*
X10489229Y-17988746D01*
X10489229Y-17988746D02*
X10498753Y-17969698D01*
X10679705Y-17883984D02*
X10584467Y-17883984D01*
X10584467Y-17883984D02*
X10574944Y-17979222D01*
X10574944Y-17979222D02*
X10584467Y-17969698D01*
X10584467Y-17969698D02*
X10603515Y-17960174D01*
X10603515Y-17960174D02*
X10651134Y-17960174D01*
X10651134Y-17960174D02*
X10670182Y-17969698D01*
X10670182Y-17969698D02*
X10679705Y-17979222D01*
X10679705Y-17979222D02*
X10689229Y-17998270D01*
X10689229Y-17998270D02*
X10689229Y-18045889D01*
X10689229Y-18045889D02*
X10679705Y-18064936D01*
X10679705Y-18064936D02*
X10670182Y-18074460D01*
X10670182Y-18074460D02*
X10651134Y-18083984D01*
X10651134Y-18083984D02*
X10603515Y-18083984D01*
X10603515Y-18083984D02*
X10584467Y-18074460D01*
X10584467Y-18074460D02*
X10574944Y-18064936D01*
X10813039Y-17883984D02*
X10832086Y-17883984D01*
X10832086Y-17883984D02*
X10851134Y-17893508D01*
X10851134Y-17893508D02*
X10860658Y-17903031D01*
X10860658Y-17903031D02*
X10870182Y-17922079D01*
X10870182Y-17922079D02*
X10879705Y-17960174D01*
X10879705Y-17960174D02*
X10879705Y-18007793D01*
X10879705Y-18007793D02*
X10870182Y-18045889D01*
X10870182Y-18045889D02*
X10860658Y-18064936D01*
X10860658Y-18064936D02*
X10851134Y-18074460D01*
X10851134Y-18074460D02*
X10832086Y-18083984D01*
X10832086Y-18083984D02*
X10813039Y-18083984D01*
X10813039Y-18083984D02*
X10793991Y-18074460D01*
X10793991Y-18074460D02*
X10784467Y-18064936D01*
X10784467Y-18064936D02*
X10774944Y-18045889D01*
X10774944Y-18045889D02*
X10765420Y-18007793D01*
X10765420Y-18007793D02*
X10765420Y-17960174D01*
X10765420Y-17960174D02*
X10774944Y-17922079D01*
X10774944Y-17922079D02*
X10784467Y-17903031D01*
X10784467Y-17903031D02*
X10793991Y-17893508D01*
X10793991Y-17893508D02*
X10813039Y-17883984D01*
X10965420Y-18083984D02*
X10965420Y-17950650D01*
X10965420Y-17969698D02*
X10974944Y-17960174D01*
X10974944Y-17960174D02*
X10993991Y-17950650D01*
X10993991Y-17950650D02*
X11022563Y-17950650D01*
X11022563Y-17950650D02*
X11041610Y-17960174D01*
X11041610Y-17960174D02*
X11051134Y-17979222D01*
X11051134Y-17979222D02*
X11051134Y-18083984D01*
X11051134Y-17979222D02*
X11060658Y-17960174D01*
X11060658Y-17960174D02*
X11079705Y-17950650D01*
X11079705Y-17950650D02*
X11108277Y-17950650D01*
X11108277Y-17950650D02*
X11127325Y-17960174D01*
X11127325Y-17960174D02*
X11136848Y-17979222D01*
X11136848Y-17979222D02*
X11136848Y-18083984D01*
X11232086Y-18083984D02*
X11232086Y-17950650D01*
X11232086Y-17969698D02*
X11241610Y-17960174D01*
X11241610Y-17960174D02*
X11260658Y-17950650D01*
X11260658Y-17950650D02*
X11289229Y-17950650D01*
X11289229Y-17950650D02*
X11308277Y-17960174D01*
X11308277Y-17960174D02*
X11317801Y-17979222D01*
X11317801Y-17979222D02*
X11317801Y-18083984D01*
X11317801Y-17979222D02*
X11327324Y-17960174D01*
X11327324Y-17960174D02*
X11346372Y-17950650D01*
X11346372Y-17950650D02*
X11374943Y-17950650D01*
X11374943Y-17950650D02*
X11393991Y-17960174D01*
X11393991Y-17960174D02*
X11403515Y-17979222D01*
X11403515Y-17979222D02*
X11403515Y-18083984D01*
X11793991Y-17874460D02*
X11622563Y-18131603D01*
X12051134Y-17883984D02*
X12070182Y-17883984D01*
X12070182Y-17883984D02*
X12089229Y-17893508D01*
X12089229Y-17893508D02*
X12098753Y-17903031D01*
X12098753Y-17903031D02*
X12108277Y-17922079D01*
X12108277Y-17922079D02*
X12117801Y-17960174D01*
X12117801Y-17960174D02*
X12117801Y-18007793D01*
X12117801Y-18007793D02*
X12108277Y-18045889D01*
X12108277Y-18045889D02*
X12098753Y-18064936D01*
X12098753Y-18064936D02*
X12089229Y-18074460D01*
X12089229Y-18074460D02*
X12070182Y-18083984D01*
X12070182Y-18083984D02*
X12051134Y-18083984D01*
X12051134Y-18083984D02*
X12032086Y-18074460D01*
X12032086Y-18074460D02*
X12022563Y-18064936D01*
X12022563Y-18064936D02*
X12013039Y-18045889D01*
X12013039Y-18045889D02*
X12003515Y-18007793D01*
X12003515Y-18007793D02*
X12003515Y-17960174D01*
X12003515Y-17960174D02*
X12013039Y-17922079D01*
X12013039Y-17922079D02*
X12022563Y-17903031D01*
X12022563Y-17903031D02*
X12032086Y-17893508D01*
X12032086Y-17893508D02*
X12051134Y-17883984D01*
X12203515Y-18064936D02*
X12213039Y-18074460D01*
X12213039Y-18074460D02*
X12203515Y-18083984D01*
X12203515Y-18083984D02*
X12193991Y-18074460D01*
X12193991Y-18074460D02*
X12203515Y-18064936D01*
X12203515Y-18064936D02*
X12203515Y-18083984D01*
X12336848Y-17883984D02*
X12355896Y-17883984D01*
X12355896Y-17883984D02*
X12374944Y-17893508D01*
X12374944Y-17893508D02*
X12384467Y-17903031D01*
X12384467Y-17903031D02*
X12393991Y-17922079D01*
X12393991Y-17922079D02*
X12403515Y-17960174D01*
X12403515Y-17960174D02*
X12403515Y-18007793D01*
X12403515Y-18007793D02*
X12393991Y-18045889D01*
X12393991Y-18045889D02*
X12384467Y-18064936D01*
X12384467Y-18064936D02*
X12374944Y-18074460D01*
X12374944Y-18074460D02*
X12355896Y-18083984D01*
X12355896Y-18083984D02*
X12336848Y-18083984D01*
X12336848Y-18083984D02*
X12317801Y-18074460D01*
X12317801Y-18074460D02*
X12308277Y-18064936D01*
X12308277Y-18064936D02*
X12298753Y-18045889D01*
X12298753Y-18045889D02*
X12289229Y-18007793D01*
X12289229Y-18007793D02*
X12289229Y-17960174D01*
X12289229Y-17960174D02*
X12298753Y-17922079D01*
X12298753Y-17922079D02*
X12308277Y-17903031D01*
X12308277Y-17903031D02*
X12317801Y-17893508D01*
X12317801Y-17893508D02*
X12336848Y-17883984D01*
X12470182Y-17883984D02*
X12593991Y-17883984D01*
X12593991Y-17883984D02*
X12527325Y-17960174D01*
X12527325Y-17960174D02*
X12555896Y-17960174D01*
X12555896Y-17960174D02*
X12574944Y-17969698D01*
X12574944Y-17969698D02*
X12584467Y-17979222D01*
X12584467Y-17979222D02*
X12593991Y-17998270D01*
X12593991Y-17998270D02*
X12593991Y-18045889D01*
X12593991Y-18045889D02*
X12584467Y-18064936D01*
X12584467Y-18064936D02*
X12574944Y-18074460D01*
X12574944Y-18074460D02*
X12555896Y-18083984D01*
X12555896Y-18083984D02*
X12498753Y-18083984D01*
X12498753Y-18083984D02*
X12479706Y-18074460D01*
X12479706Y-18074460D02*
X12470182Y-18064936D01*
X12660658Y-17883984D02*
X12793991Y-17883984D01*
X12793991Y-17883984D02*
X12708277Y-18083984D01*
X12955896Y-17950650D02*
X12955896Y-18083984D01*
X12908277Y-17874460D02*
X12860658Y-18017317D01*
X12860658Y-18017317D02*
X12984467Y-18017317D01*
X13051134Y-17883984D02*
X13051134Y-17922079D01*
X13127325Y-17883984D02*
X13127325Y-17922079D01*
X13422563Y-18160174D02*
X13413039Y-18150650D01*
X13413039Y-18150650D02*
X13393991Y-18122079D01*
X13393991Y-18122079D02*
X13384468Y-18103031D01*
X13384468Y-18103031D02*
X13374944Y-18074460D01*
X13374944Y-18074460D02*
X13365420Y-18026841D01*
X13365420Y-18026841D02*
X13365420Y-17988746D01*
X13365420Y-17988746D02*
X13374944Y-17941127D01*
X13374944Y-17941127D02*
X13384468Y-17912555D01*
X13384468Y-17912555D02*
X13393991Y-17893508D01*
X13393991Y-17893508D02*
X13413039Y-17864936D01*
X13413039Y-17864936D02*
X13422563Y-17855412D01*
X13603515Y-18083984D02*
X13489229Y-18083984D01*
X13546372Y-18083984D02*
X13546372Y-17883984D01*
X13546372Y-17883984D02*
X13527325Y-17912555D01*
X13527325Y-17912555D02*
X13508277Y-17931603D01*
X13508277Y-17931603D02*
X13489229Y-17941127D01*
X13727325Y-17883984D02*
X13746372Y-17883984D01*
X13746372Y-17883984D02*
X13765420Y-17893508D01*
X13765420Y-17893508D02*
X13774944Y-17903031D01*
X13774944Y-17903031D02*
X13784468Y-17922079D01*
X13784468Y-17922079D02*
X13793991Y-17960174D01*
X13793991Y-17960174D02*
X13793991Y-18007793D01*
X13793991Y-18007793D02*
X13784468Y-18045889D01*
X13784468Y-18045889D02*
X13774944Y-18064936D01*
X13774944Y-18064936D02*
X13765420Y-18074460D01*
X13765420Y-18074460D02*
X13746372Y-18083984D01*
X13746372Y-18083984D02*
X13727325Y-18083984D01*
X13727325Y-18083984D02*
X13708277Y-18074460D01*
X13708277Y-18074460D02*
X13698753Y-18064936D01*
X13698753Y-18064936D02*
X13689229Y-18045889D01*
X13689229Y-18045889D02*
X13679706Y-18007793D01*
X13679706Y-18007793D02*
X13679706Y-17960174D01*
X13679706Y-17960174D02*
X13689229Y-17922079D01*
X13689229Y-17922079D02*
X13698753Y-17903031D01*
X13698753Y-17903031D02*
X13708277Y-17893508D01*
X13708277Y-17893508D02*
X13727325Y-17883984D01*
X13860658Y-17883984D02*
X13984468Y-17883984D01*
X13984468Y-17883984D02*
X13917801Y-17960174D01*
X13917801Y-17960174D02*
X13946372Y-17960174D01*
X13946372Y-17960174D02*
X13965420Y-17969698D01*
X13965420Y-17969698D02*
X13974944Y-17979222D01*
X13974944Y-17979222D02*
X13984468Y-17998270D01*
X13984468Y-17998270D02*
X13984468Y-18045889D01*
X13984468Y-18045889D02*
X13974944Y-18064936D01*
X13974944Y-18064936D02*
X13965420Y-18074460D01*
X13965420Y-18074460D02*
X13946372Y-18083984D01*
X13946372Y-18083984D02*
X13889229Y-18083984D01*
X13889229Y-18083984D02*
X13870182Y-18074460D01*
X13870182Y-18074460D02*
X13860658Y-18064936D01*
X14222563Y-18083984D02*
X14222563Y-17883984D01*
X14308277Y-18083984D02*
X14308277Y-17979222D01*
X14308277Y-17979222D02*
X14298753Y-17960174D01*
X14298753Y-17960174D02*
X14279706Y-17950650D01*
X14279706Y-17950650D02*
X14251134Y-17950650D01*
X14251134Y-17950650D02*
X14232087Y-17960174D01*
X14232087Y-17960174D02*
X14222563Y-17969698D01*
X14432087Y-18083984D02*
X14413039Y-18074460D01*
X14413039Y-18074460D02*
X14403515Y-18064936D01*
X14403515Y-18064936D02*
X14393991Y-18045889D01*
X14393991Y-18045889D02*
X14393991Y-17988746D01*
X14393991Y-17988746D02*
X14403515Y-17969698D01*
X14403515Y-17969698D02*
X14413039Y-17960174D01*
X14413039Y-17960174D02*
X14432087Y-17950650D01*
X14432087Y-17950650D02*
X14460658Y-17950650D01*
X14460658Y-17950650D02*
X14479706Y-17960174D01*
X14479706Y-17960174D02*
X14489230Y-17969698D01*
X14489230Y-17969698D02*
X14498753Y-17988746D01*
X14498753Y-17988746D02*
X14498753Y-18045889D01*
X14498753Y-18045889D02*
X14489230Y-18064936D01*
X14489230Y-18064936D02*
X14479706Y-18074460D01*
X14479706Y-18074460D02*
X14460658Y-18083984D01*
X14460658Y-18083984D02*
X14432087Y-18083984D01*
X14613039Y-18083984D02*
X14593991Y-18074460D01*
X14593991Y-18074460D02*
X14584468Y-18055412D01*
X14584468Y-18055412D02*
X14584468Y-17883984D01*
X14765420Y-18074460D02*
X14746372Y-18083984D01*
X14746372Y-18083984D02*
X14708277Y-18083984D01*
X14708277Y-18083984D02*
X14689230Y-18074460D01*
X14689230Y-18074460D02*
X14679706Y-18055412D01*
X14679706Y-18055412D02*
X14679706Y-17979222D01*
X14679706Y-17979222D02*
X14689230Y-17960174D01*
X14689230Y-17960174D02*
X14708277Y-17950650D01*
X14708277Y-17950650D02*
X14746372Y-17950650D01*
X14746372Y-17950650D02*
X14765420Y-17960174D01*
X14765420Y-17960174D02*
X14774944Y-17979222D01*
X14774944Y-17979222D02*
X14774944Y-17998270D01*
X14774944Y-17998270D02*
X14679706Y-18017317D01*
X14851134Y-18074460D02*
X14870182Y-18083984D01*
X14870182Y-18083984D02*
X14908277Y-18083984D01*
X14908277Y-18083984D02*
X14927325Y-18074460D01*
X14927325Y-18074460D02*
X14936849Y-18055412D01*
X14936849Y-18055412D02*
X14936849Y-18045889D01*
X14936849Y-18045889D02*
X14927325Y-18026841D01*
X14927325Y-18026841D02*
X14908277Y-18017317D01*
X14908277Y-18017317D02*
X14879706Y-18017317D01*
X14879706Y-18017317D02*
X14860658Y-18007793D01*
X14860658Y-18007793D02*
X14851134Y-17988746D01*
X14851134Y-17988746D02*
X14851134Y-17979222D01*
X14851134Y-17979222D02*
X14860658Y-17960174D01*
X14860658Y-17960174D02*
X14879706Y-17950650D01*
X14879706Y-17950650D02*
X14908277Y-17950650D01*
X14908277Y-17950650D02*
X14927325Y-17960174D01*
X15003515Y-18160174D02*
X15013039Y-18150650D01*
X15013039Y-18150650D02*
X15032087Y-18122079D01*
X15032087Y-18122079D02*
X15041611Y-18103031D01*
X15041611Y-18103031D02*
X15051134Y-18074460D01*
X15051134Y-18074460D02*
X15060658Y-18026841D01*
X15060658Y-18026841D02*
X15060658Y-17988746D01*
X15060658Y-17988746D02*
X15051134Y-17941127D01*
X15051134Y-17941127D02*
X15041611Y-17912555D01*
X15041611Y-17912555D02*
X15032087Y-17893508D01*
X15032087Y-17893508D02*
X15013039Y-17864936D01*
X15013039Y-17864936D02*
X15003515Y-17855412D01*
D13*
X9847500Y-18256500D02*
G75*
G02*
X9745500Y-18256500I-51000J0D01*
G01*
X9745500Y-18256500D02*
G75*
G02*
X9847500Y-18256500I51000J0D01*
G01*
D11*
X10213039Y-18347984D02*
X10098753Y-18347984D01*
X10155896Y-18347984D02*
X10155896Y-18147984D01*
X10155896Y-18147984D02*
X10136848Y-18176555D01*
X10136848Y-18176555D02*
X10117801Y-18195603D01*
X10117801Y-18195603D02*
X10098753Y-18205127D01*
X10298753Y-18328936D02*
X10308277Y-18338460D01*
X10308277Y-18338460D02*
X10298753Y-18347984D01*
X10298753Y-18347984D02*
X10289229Y-18338460D01*
X10289229Y-18338460D02*
X10298753Y-18328936D01*
X10298753Y-18328936D02*
X10298753Y-18347984D01*
X10432086Y-18147984D02*
X10451134Y-18147984D01*
X10451134Y-18147984D02*
X10470182Y-18157508D01*
X10470182Y-18157508D02*
X10479705Y-18167031D01*
X10479705Y-18167031D02*
X10489229Y-18186079D01*
X10489229Y-18186079D02*
X10498753Y-18224174D01*
X10498753Y-18224174D02*
X10498753Y-18271793D01*
X10498753Y-18271793D02*
X10489229Y-18309889D01*
X10489229Y-18309889D02*
X10479705Y-18328936D01*
X10479705Y-18328936D02*
X10470182Y-18338460D01*
X10470182Y-18338460D02*
X10451134Y-18347984D01*
X10451134Y-18347984D02*
X10432086Y-18347984D01*
X10432086Y-18347984D02*
X10413039Y-18338460D01*
X10413039Y-18338460D02*
X10403515Y-18328936D01*
X10403515Y-18328936D02*
X10393991Y-18309889D01*
X10393991Y-18309889D02*
X10384467Y-18271793D01*
X10384467Y-18271793D02*
X10384467Y-18224174D01*
X10384467Y-18224174D02*
X10393991Y-18186079D01*
X10393991Y-18186079D02*
X10403515Y-18167031D01*
X10403515Y-18167031D02*
X10413039Y-18157508D01*
X10413039Y-18157508D02*
X10432086Y-18147984D01*
X10574944Y-18167031D02*
X10584467Y-18157508D01*
X10584467Y-18157508D02*
X10603515Y-18147984D01*
X10603515Y-18147984D02*
X10651134Y-18147984D01*
X10651134Y-18147984D02*
X10670182Y-18157508D01*
X10670182Y-18157508D02*
X10679705Y-18167031D01*
X10679705Y-18167031D02*
X10689229Y-18186079D01*
X10689229Y-18186079D02*
X10689229Y-18205127D01*
X10689229Y-18205127D02*
X10679705Y-18233698D01*
X10679705Y-18233698D02*
X10565420Y-18347984D01*
X10565420Y-18347984D02*
X10689229Y-18347984D01*
X10813039Y-18147984D02*
X10832086Y-18147984D01*
X10832086Y-18147984D02*
X10851134Y-18157508D01*
X10851134Y-18157508D02*
X10860658Y-18167031D01*
X10860658Y-18167031D02*
X10870182Y-18186079D01*
X10870182Y-18186079D02*
X10879705Y-18224174D01*
X10879705Y-18224174D02*
X10879705Y-18271793D01*
X10879705Y-18271793D02*
X10870182Y-18309889D01*
X10870182Y-18309889D02*
X10860658Y-18328936D01*
X10860658Y-18328936D02*
X10851134Y-18338460D01*
X10851134Y-18338460D02*
X10832086Y-18347984D01*
X10832086Y-18347984D02*
X10813039Y-18347984D01*
X10813039Y-18347984D02*
X10793991Y-18338460D01*
X10793991Y-18338460D02*
X10784467Y-18328936D01*
X10784467Y-18328936D02*
X10774944Y-18309889D01*
X10774944Y-18309889D02*
X10765420Y-18271793D01*
X10765420Y-18271793D02*
X10765420Y-18224174D01*
X10765420Y-18224174D02*
X10774944Y-18186079D01*
X10774944Y-18186079D02*
X10784467Y-18167031D01*
X10784467Y-18167031D02*
X10793991Y-18157508D01*
X10793991Y-18157508D02*
X10813039Y-18147984D01*
X10965420Y-18347984D02*
X10965420Y-18214650D01*
X10965420Y-18233698D02*
X10974944Y-18224174D01*
X10974944Y-18224174D02*
X10993991Y-18214650D01*
X10993991Y-18214650D02*
X11022563Y-18214650D01*
X11022563Y-18214650D02*
X11041610Y-18224174D01*
X11041610Y-18224174D02*
X11051134Y-18243222D01*
X11051134Y-18243222D02*
X11051134Y-18347984D01*
X11051134Y-18243222D02*
X11060658Y-18224174D01*
X11060658Y-18224174D02*
X11079705Y-18214650D01*
X11079705Y-18214650D02*
X11108277Y-18214650D01*
X11108277Y-18214650D02*
X11127325Y-18224174D01*
X11127325Y-18224174D02*
X11136848Y-18243222D01*
X11136848Y-18243222D02*
X11136848Y-18347984D01*
X11232086Y-18347984D02*
X11232086Y-18214650D01*
X11232086Y-18233698D02*
X11241610Y-18224174D01*
X11241610Y-18224174D02*
X11260658Y-18214650D01*
X11260658Y-18214650D02*
X11289229Y-18214650D01*
X11289229Y-18214650D02*
X11308277Y-18224174D01*
X11308277Y-18224174D02*
X11317801Y-18243222D01*
X11317801Y-18243222D02*
X11317801Y-18347984D01*
X11317801Y-18243222D02*
X11327324Y-18224174D01*
X11327324Y-18224174D02*
X11346372Y-18214650D01*
X11346372Y-18214650D02*
X11374943Y-18214650D01*
X11374943Y-18214650D02*
X11393991Y-18224174D01*
X11393991Y-18224174D02*
X11403515Y-18243222D01*
X11403515Y-18243222D02*
X11403515Y-18347984D01*
X11793991Y-18138460D02*
X11622563Y-18395603D01*
X12051134Y-18147984D02*
X12070182Y-18147984D01*
X12070182Y-18147984D02*
X12089229Y-18157508D01*
X12089229Y-18157508D02*
X12098753Y-18167031D01*
X12098753Y-18167031D02*
X12108277Y-18186079D01*
X12108277Y-18186079D02*
X12117801Y-18224174D01*
X12117801Y-18224174D02*
X12117801Y-18271793D01*
X12117801Y-18271793D02*
X12108277Y-18309889D01*
X12108277Y-18309889D02*
X12098753Y-18328936D01*
X12098753Y-18328936D02*
X12089229Y-18338460D01*
X12089229Y-18338460D02*
X12070182Y-18347984D01*
X12070182Y-18347984D02*
X12051134Y-18347984D01*
X12051134Y-18347984D02*
X12032086Y-18338460D01*
X12032086Y-18338460D02*
X12022563Y-18328936D01*
X12022563Y-18328936D02*
X12013039Y-18309889D01*
X12013039Y-18309889D02*
X12003515Y-18271793D01*
X12003515Y-18271793D02*
X12003515Y-18224174D01*
X12003515Y-18224174D02*
X12013039Y-18186079D01*
X12013039Y-18186079D02*
X12022563Y-18167031D01*
X12022563Y-18167031D02*
X12032086Y-18157508D01*
X12032086Y-18157508D02*
X12051134Y-18147984D01*
X12203515Y-18328936D02*
X12213039Y-18338460D01*
X12213039Y-18338460D02*
X12203515Y-18347984D01*
X12203515Y-18347984D02*
X12193991Y-18338460D01*
X12193991Y-18338460D02*
X12203515Y-18328936D01*
X12203515Y-18328936D02*
X12203515Y-18347984D01*
X12336848Y-18147984D02*
X12355896Y-18147984D01*
X12355896Y-18147984D02*
X12374944Y-18157508D01*
X12374944Y-18157508D02*
X12384467Y-18167031D01*
X12384467Y-18167031D02*
X12393991Y-18186079D01*
X12393991Y-18186079D02*
X12403515Y-18224174D01*
X12403515Y-18224174D02*
X12403515Y-18271793D01*
X12403515Y-18271793D02*
X12393991Y-18309889D01*
X12393991Y-18309889D02*
X12384467Y-18328936D01*
X12384467Y-18328936D02*
X12374944Y-18338460D01*
X12374944Y-18338460D02*
X12355896Y-18347984D01*
X12355896Y-18347984D02*
X12336848Y-18347984D01*
X12336848Y-18347984D02*
X12317801Y-18338460D01*
X12317801Y-18338460D02*
X12308277Y-18328936D01*
X12308277Y-18328936D02*
X12298753Y-18309889D01*
X12298753Y-18309889D02*
X12289229Y-18271793D01*
X12289229Y-18271793D02*
X12289229Y-18224174D01*
X12289229Y-18224174D02*
X12298753Y-18186079D01*
X12298753Y-18186079D02*
X12308277Y-18167031D01*
X12308277Y-18167031D02*
X12317801Y-18157508D01*
X12317801Y-18157508D02*
X12336848Y-18147984D01*
X12574944Y-18214650D02*
X12574944Y-18347984D01*
X12527325Y-18138460D02*
X12479706Y-18281317D01*
X12479706Y-18281317D02*
X12603515Y-18281317D01*
X12717801Y-18147984D02*
X12736848Y-18147984D01*
X12736848Y-18147984D02*
X12755896Y-18157508D01*
X12755896Y-18157508D02*
X12765420Y-18167031D01*
X12765420Y-18167031D02*
X12774944Y-18186079D01*
X12774944Y-18186079D02*
X12784467Y-18224174D01*
X12784467Y-18224174D02*
X12784467Y-18271793D01*
X12784467Y-18271793D02*
X12774944Y-18309889D01*
X12774944Y-18309889D02*
X12765420Y-18328936D01*
X12765420Y-18328936D02*
X12755896Y-18338460D01*
X12755896Y-18338460D02*
X12736848Y-18347984D01*
X12736848Y-18347984D02*
X12717801Y-18347984D01*
X12717801Y-18347984D02*
X12698753Y-18338460D01*
X12698753Y-18338460D02*
X12689229Y-18328936D01*
X12689229Y-18328936D02*
X12679706Y-18309889D01*
X12679706Y-18309889D02*
X12670182Y-18271793D01*
X12670182Y-18271793D02*
X12670182Y-18224174D01*
X12670182Y-18224174D02*
X12679706Y-18186079D01*
X12679706Y-18186079D02*
X12689229Y-18167031D01*
X12689229Y-18167031D02*
X12698753Y-18157508D01*
X12698753Y-18157508D02*
X12717801Y-18147984D01*
X12860658Y-18167031D02*
X12870182Y-18157508D01*
X12870182Y-18157508D02*
X12889229Y-18147984D01*
X12889229Y-18147984D02*
X12936848Y-18147984D01*
X12936848Y-18147984D02*
X12955896Y-18157508D01*
X12955896Y-18157508D02*
X12965420Y-18167031D01*
X12965420Y-18167031D02*
X12974944Y-18186079D01*
X12974944Y-18186079D02*
X12974944Y-18205127D01*
X12974944Y-18205127D02*
X12965420Y-18233698D01*
X12965420Y-18233698D02*
X12851134Y-18347984D01*
X12851134Y-18347984D02*
X12974944Y-18347984D01*
X13051134Y-18147984D02*
X13051134Y-18186079D01*
X13127325Y-18147984D02*
X13127325Y-18186079D01*
X13422563Y-18424174D02*
X13413039Y-18414650D01*
X13413039Y-18414650D02*
X13393991Y-18386079D01*
X13393991Y-18386079D02*
X13384468Y-18367031D01*
X13384468Y-18367031D02*
X13374944Y-18338460D01*
X13374944Y-18338460D02*
X13365420Y-18290841D01*
X13365420Y-18290841D02*
X13365420Y-18252746D01*
X13365420Y-18252746D02*
X13374944Y-18205127D01*
X13374944Y-18205127D02*
X13384468Y-18176555D01*
X13384468Y-18176555D02*
X13393991Y-18157508D01*
X13393991Y-18157508D02*
X13413039Y-18128936D01*
X13413039Y-18128936D02*
X13422563Y-18119412D01*
X13479706Y-18147984D02*
X13613039Y-18147984D01*
X13613039Y-18147984D02*
X13527325Y-18347984D01*
X13774944Y-18147984D02*
X13736848Y-18147984D01*
X13736848Y-18147984D02*
X13717801Y-18157508D01*
X13717801Y-18157508D02*
X13708277Y-18167031D01*
X13708277Y-18167031D02*
X13689229Y-18195603D01*
X13689229Y-18195603D02*
X13679706Y-18233698D01*
X13679706Y-18233698D02*
X13679706Y-18309889D01*
X13679706Y-18309889D02*
X13689229Y-18328936D01*
X13689229Y-18328936D02*
X13698753Y-18338460D01*
X13698753Y-18338460D02*
X13717801Y-18347984D01*
X13717801Y-18347984D02*
X13755896Y-18347984D01*
X13755896Y-18347984D02*
X13774944Y-18338460D01*
X13774944Y-18338460D02*
X13784468Y-18328936D01*
X13784468Y-18328936D02*
X13793991Y-18309889D01*
X13793991Y-18309889D02*
X13793991Y-18262270D01*
X13793991Y-18262270D02*
X13784468Y-18243222D01*
X13784468Y-18243222D02*
X13774944Y-18233698D01*
X13774944Y-18233698D02*
X13755896Y-18224174D01*
X13755896Y-18224174D02*
X13717801Y-18224174D01*
X13717801Y-18224174D02*
X13698753Y-18233698D01*
X13698753Y-18233698D02*
X13689229Y-18243222D01*
X13689229Y-18243222D02*
X13679706Y-18262270D01*
X14032087Y-18347984D02*
X14032087Y-18147984D01*
X14117801Y-18347984D02*
X14117801Y-18243222D01*
X14117801Y-18243222D02*
X14108277Y-18224174D01*
X14108277Y-18224174D02*
X14089230Y-18214650D01*
X14089230Y-18214650D02*
X14060658Y-18214650D01*
X14060658Y-18214650D02*
X14041610Y-18224174D01*
X14041610Y-18224174D02*
X14032087Y-18233698D01*
X14241610Y-18347984D02*
X14222563Y-18338460D01*
X14222563Y-18338460D02*
X14213039Y-18328936D01*
X14213039Y-18328936D02*
X14203515Y-18309889D01*
X14203515Y-18309889D02*
X14203515Y-18252746D01*
X14203515Y-18252746D02*
X14213039Y-18233698D01*
X14213039Y-18233698D02*
X14222563Y-18224174D01*
X14222563Y-18224174D02*
X14241610Y-18214650D01*
X14241610Y-18214650D02*
X14270182Y-18214650D01*
X14270182Y-18214650D02*
X14289230Y-18224174D01*
X14289230Y-18224174D02*
X14298753Y-18233698D01*
X14298753Y-18233698D02*
X14308277Y-18252746D01*
X14308277Y-18252746D02*
X14308277Y-18309889D01*
X14308277Y-18309889D02*
X14298753Y-18328936D01*
X14298753Y-18328936D02*
X14289230Y-18338460D01*
X14289230Y-18338460D02*
X14270182Y-18347984D01*
X14270182Y-18347984D02*
X14241610Y-18347984D01*
X14422563Y-18347984D02*
X14403515Y-18338460D01*
X14403515Y-18338460D02*
X14393991Y-18319412D01*
X14393991Y-18319412D02*
X14393991Y-18147984D01*
X14574944Y-18338460D02*
X14555896Y-18347984D01*
X14555896Y-18347984D02*
X14517801Y-18347984D01*
X14517801Y-18347984D02*
X14498753Y-18338460D01*
X14498753Y-18338460D02*
X14489230Y-18319412D01*
X14489230Y-18319412D02*
X14489230Y-18243222D01*
X14489230Y-18243222D02*
X14498753Y-18224174D01*
X14498753Y-18224174D02*
X14517801Y-18214650D01*
X14517801Y-18214650D02*
X14555896Y-18214650D01*
X14555896Y-18214650D02*
X14574944Y-18224174D01*
X14574944Y-18224174D02*
X14584468Y-18243222D01*
X14584468Y-18243222D02*
X14584468Y-18262270D01*
X14584468Y-18262270D02*
X14489230Y-18281317D01*
X14660658Y-18338460D02*
X14679706Y-18347984D01*
X14679706Y-18347984D02*
X14717801Y-18347984D01*
X14717801Y-18347984D02*
X14736849Y-18338460D01*
X14736849Y-18338460D02*
X14746372Y-18319412D01*
X14746372Y-18319412D02*
X14746372Y-18309889D01*
X14746372Y-18309889D02*
X14736849Y-18290841D01*
X14736849Y-18290841D02*
X14717801Y-18281317D01*
X14717801Y-18281317D02*
X14689230Y-18281317D01*
X14689230Y-18281317D02*
X14670182Y-18271793D01*
X14670182Y-18271793D02*
X14660658Y-18252746D01*
X14660658Y-18252746D02*
X14660658Y-18243222D01*
X14660658Y-18243222D02*
X14670182Y-18224174D01*
X14670182Y-18224174D02*
X14689230Y-18214650D01*
X14689230Y-18214650D02*
X14717801Y-18214650D01*
X14717801Y-18214650D02*
X14736849Y-18224174D01*
X14813039Y-18424174D02*
X14822563Y-18414650D01*
X14822563Y-18414650D02*
X14841611Y-18386079D01*
X14841611Y-18386079D02*
X14851134Y-18367031D01*
X14851134Y-18367031D02*
X14860658Y-18338460D01*
X14860658Y-18338460D02*
X14870182Y-18290841D01*
X14870182Y-18290841D02*
X14870182Y-18252746D01*
X14870182Y-18252746D02*
X14860658Y-18205127D01*
X14860658Y-18205127D02*
X14851134Y-18176555D01*
X14851134Y-18176555D02*
X14841611Y-18157508D01*
X14841611Y-18157508D02*
X14822563Y-18128936D01*
X14822563Y-18128936D02*
X14813039Y-18119412D01*
D14*
X9794000Y-18467000D02*
X9794000Y-18574000D01*
X9740500Y-18520500D02*
X9847500Y-18520500D01*
D11*
X10213039Y-18611984D02*
X10098753Y-18611984D01*
X10155896Y-18611984D02*
X10155896Y-18411984D01*
X10155896Y-18411984D02*
X10136848Y-18440555D01*
X10136848Y-18440555D02*
X10117801Y-18459603D01*
X10117801Y-18459603D02*
X10098753Y-18469127D01*
X10298753Y-18592936D02*
X10308277Y-18602460D01*
X10308277Y-18602460D02*
X10298753Y-18611984D01*
X10298753Y-18611984D02*
X10289229Y-18602460D01*
X10289229Y-18602460D02*
X10298753Y-18592936D01*
X10298753Y-18592936D02*
X10298753Y-18611984D01*
X10432086Y-18411984D02*
X10451134Y-18411984D01*
X10451134Y-18411984D02*
X10470182Y-18421508D01*
X10470182Y-18421508D02*
X10479705Y-18431031D01*
X10479705Y-18431031D02*
X10489229Y-18450079D01*
X10489229Y-18450079D02*
X10498753Y-18488174D01*
X10498753Y-18488174D02*
X10498753Y-18535793D01*
X10498753Y-18535793D02*
X10489229Y-18573889D01*
X10489229Y-18573889D02*
X10479705Y-18592936D01*
X10479705Y-18592936D02*
X10470182Y-18602460D01*
X10470182Y-18602460D02*
X10451134Y-18611984D01*
X10451134Y-18611984D02*
X10432086Y-18611984D01*
X10432086Y-18611984D02*
X10413039Y-18602460D01*
X10413039Y-18602460D02*
X10403515Y-18592936D01*
X10403515Y-18592936D02*
X10393991Y-18573889D01*
X10393991Y-18573889D02*
X10384467Y-18535793D01*
X10384467Y-18535793D02*
X10384467Y-18488174D01*
X10384467Y-18488174D02*
X10393991Y-18450079D01*
X10393991Y-18450079D02*
X10403515Y-18431031D01*
X10403515Y-18431031D02*
X10413039Y-18421508D01*
X10413039Y-18421508D02*
X10432086Y-18411984D01*
X10565420Y-18411984D02*
X10698753Y-18411984D01*
X10698753Y-18411984D02*
X10613039Y-18611984D01*
X10813039Y-18411984D02*
X10832086Y-18411984D01*
X10832086Y-18411984D02*
X10851134Y-18421508D01*
X10851134Y-18421508D02*
X10860658Y-18431031D01*
X10860658Y-18431031D02*
X10870182Y-18450079D01*
X10870182Y-18450079D02*
X10879705Y-18488174D01*
X10879705Y-18488174D02*
X10879705Y-18535793D01*
X10879705Y-18535793D02*
X10870182Y-18573889D01*
X10870182Y-18573889D02*
X10860658Y-18592936D01*
X10860658Y-18592936D02*
X10851134Y-18602460D01*
X10851134Y-18602460D02*
X10832086Y-18611984D01*
X10832086Y-18611984D02*
X10813039Y-18611984D01*
X10813039Y-18611984D02*
X10793991Y-18602460D01*
X10793991Y-18602460D02*
X10784467Y-18592936D01*
X10784467Y-18592936D02*
X10774944Y-18573889D01*
X10774944Y-18573889D02*
X10765420Y-18535793D01*
X10765420Y-18535793D02*
X10765420Y-18488174D01*
X10765420Y-18488174D02*
X10774944Y-18450079D01*
X10774944Y-18450079D02*
X10784467Y-18431031D01*
X10784467Y-18431031D02*
X10793991Y-18421508D01*
X10793991Y-18421508D02*
X10813039Y-18411984D01*
X10965420Y-18611984D02*
X10965420Y-18478650D01*
X10965420Y-18497698D02*
X10974944Y-18488174D01*
X10974944Y-18488174D02*
X10993991Y-18478650D01*
X10993991Y-18478650D02*
X11022563Y-18478650D01*
X11022563Y-18478650D02*
X11041610Y-18488174D01*
X11041610Y-18488174D02*
X11051134Y-18507222D01*
X11051134Y-18507222D02*
X11051134Y-18611984D01*
X11051134Y-18507222D02*
X11060658Y-18488174D01*
X11060658Y-18488174D02*
X11079705Y-18478650D01*
X11079705Y-18478650D02*
X11108277Y-18478650D01*
X11108277Y-18478650D02*
X11127325Y-18488174D01*
X11127325Y-18488174D02*
X11136848Y-18507222D01*
X11136848Y-18507222D02*
X11136848Y-18611984D01*
X11232086Y-18611984D02*
X11232086Y-18478650D01*
X11232086Y-18497698D02*
X11241610Y-18488174D01*
X11241610Y-18488174D02*
X11260658Y-18478650D01*
X11260658Y-18478650D02*
X11289229Y-18478650D01*
X11289229Y-18478650D02*
X11308277Y-18488174D01*
X11308277Y-18488174D02*
X11317801Y-18507222D01*
X11317801Y-18507222D02*
X11317801Y-18611984D01*
X11317801Y-18507222D02*
X11327324Y-18488174D01*
X11327324Y-18488174D02*
X11346372Y-18478650D01*
X11346372Y-18478650D02*
X11374943Y-18478650D01*
X11374943Y-18478650D02*
X11393991Y-18488174D01*
X11393991Y-18488174D02*
X11403515Y-18507222D01*
X11403515Y-18507222D02*
X11403515Y-18611984D01*
X11793991Y-18402460D02*
X11622563Y-18659603D01*
X12051134Y-18411984D02*
X12070182Y-18411984D01*
X12070182Y-18411984D02*
X12089229Y-18421508D01*
X12089229Y-18421508D02*
X12098753Y-18431031D01*
X12098753Y-18431031D02*
X12108277Y-18450079D01*
X12108277Y-18450079D02*
X12117801Y-18488174D01*
X12117801Y-18488174D02*
X12117801Y-18535793D01*
X12117801Y-18535793D02*
X12108277Y-18573889D01*
X12108277Y-18573889D02*
X12098753Y-18592936D01*
X12098753Y-18592936D02*
X12089229Y-18602460D01*
X12089229Y-18602460D02*
X12070182Y-18611984D01*
X12070182Y-18611984D02*
X12051134Y-18611984D01*
X12051134Y-18611984D02*
X12032086Y-18602460D01*
X12032086Y-18602460D02*
X12022563Y-18592936D01*
X12022563Y-18592936D02*
X12013039Y-18573889D01*
X12013039Y-18573889D02*
X12003515Y-18535793D01*
X12003515Y-18535793D02*
X12003515Y-18488174D01*
X12003515Y-18488174D02*
X12013039Y-18450079D01*
X12013039Y-18450079D02*
X12022563Y-18431031D01*
X12022563Y-18431031D02*
X12032086Y-18421508D01*
X12032086Y-18421508D02*
X12051134Y-18411984D01*
X12203515Y-18592936D02*
X12213039Y-18602460D01*
X12213039Y-18602460D02*
X12203515Y-18611984D01*
X12203515Y-18611984D02*
X12193991Y-18602460D01*
X12193991Y-18602460D02*
X12203515Y-18592936D01*
X12203515Y-18592936D02*
X12203515Y-18611984D01*
X12336848Y-18411984D02*
X12355896Y-18411984D01*
X12355896Y-18411984D02*
X12374944Y-18421508D01*
X12374944Y-18421508D02*
X12384467Y-18431031D01*
X12384467Y-18431031D02*
X12393991Y-18450079D01*
X12393991Y-18450079D02*
X12403515Y-18488174D01*
X12403515Y-18488174D02*
X12403515Y-18535793D01*
X12403515Y-18535793D02*
X12393991Y-18573889D01*
X12393991Y-18573889D02*
X12384467Y-18592936D01*
X12384467Y-18592936D02*
X12374944Y-18602460D01*
X12374944Y-18602460D02*
X12355896Y-18611984D01*
X12355896Y-18611984D02*
X12336848Y-18611984D01*
X12336848Y-18611984D02*
X12317801Y-18602460D01*
X12317801Y-18602460D02*
X12308277Y-18592936D01*
X12308277Y-18592936D02*
X12298753Y-18573889D01*
X12298753Y-18573889D02*
X12289229Y-18535793D01*
X12289229Y-18535793D02*
X12289229Y-18488174D01*
X12289229Y-18488174D02*
X12298753Y-18450079D01*
X12298753Y-18450079D02*
X12308277Y-18431031D01*
X12308277Y-18431031D02*
X12317801Y-18421508D01*
X12317801Y-18421508D02*
X12336848Y-18411984D01*
X12574944Y-18478650D02*
X12574944Y-18611984D01*
X12527325Y-18402460D02*
X12479706Y-18545317D01*
X12479706Y-18545317D02*
X12603515Y-18545317D01*
X12670182Y-18431031D02*
X12679706Y-18421508D01*
X12679706Y-18421508D02*
X12698753Y-18411984D01*
X12698753Y-18411984D02*
X12746372Y-18411984D01*
X12746372Y-18411984D02*
X12765420Y-18421508D01*
X12765420Y-18421508D02*
X12774944Y-18431031D01*
X12774944Y-18431031D02*
X12784467Y-18450079D01*
X12784467Y-18450079D02*
X12784467Y-18469127D01*
X12784467Y-18469127D02*
X12774944Y-18497698D01*
X12774944Y-18497698D02*
X12660658Y-18611984D01*
X12660658Y-18611984D02*
X12784467Y-18611984D01*
X12974944Y-18611984D02*
X12860658Y-18611984D01*
X12917801Y-18611984D02*
X12917801Y-18411984D01*
X12917801Y-18411984D02*
X12898753Y-18440555D01*
X12898753Y-18440555D02*
X12879706Y-18459603D01*
X12879706Y-18459603D02*
X12860658Y-18469127D01*
X13051134Y-18411984D02*
X13051134Y-18450079D01*
X13127325Y-18411984D02*
X13127325Y-18450079D01*
X13422563Y-18688174D02*
X13413039Y-18678650D01*
X13413039Y-18678650D02*
X13393991Y-18650079D01*
X13393991Y-18650079D02*
X13384468Y-18631031D01*
X13384468Y-18631031D02*
X13374944Y-18602460D01*
X13374944Y-18602460D02*
X13365420Y-18554841D01*
X13365420Y-18554841D02*
X13365420Y-18516746D01*
X13365420Y-18516746D02*
X13374944Y-18469127D01*
X13374944Y-18469127D02*
X13384468Y-18440555D01*
X13384468Y-18440555D02*
X13393991Y-18421508D01*
X13393991Y-18421508D02*
X13413039Y-18392936D01*
X13413039Y-18392936D02*
X13422563Y-18383412D01*
X13479706Y-18411984D02*
X13603515Y-18411984D01*
X13603515Y-18411984D02*
X13536848Y-18488174D01*
X13536848Y-18488174D02*
X13565420Y-18488174D01*
X13565420Y-18488174D02*
X13584468Y-18497698D01*
X13584468Y-18497698D02*
X13593991Y-18507222D01*
X13593991Y-18507222D02*
X13603515Y-18526270D01*
X13603515Y-18526270D02*
X13603515Y-18573889D01*
X13603515Y-18573889D02*
X13593991Y-18592936D01*
X13593991Y-18592936D02*
X13584468Y-18602460D01*
X13584468Y-18602460D02*
X13565420Y-18611984D01*
X13565420Y-18611984D02*
X13508277Y-18611984D01*
X13508277Y-18611984D02*
X13489229Y-18602460D01*
X13489229Y-18602460D02*
X13479706Y-18592936D01*
X13679706Y-18431031D02*
X13689229Y-18421508D01*
X13689229Y-18421508D02*
X13708277Y-18411984D01*
X13708277Y-18411984D02*
X13755896Y-18411984D01*
X13755896Y-18411984D02*
X13774944Y-18421508D01*
X13774944Y-18421508D02*
X13784468Y-18431031D01*
X13784468Y-18431031D02*
X13793991Y-18450079D01*
X13793991Y-18450079D02*
X13793991Y-18469127D01*
X13793991Y-18469127D02*
X13784468Y-18497698D01*
X13784468Y-18497698D02*
X13670182Y-18611984D01*
X13670182Y-18611984D02*
X13793991Y-18611984D01*
X14032087Y-18611984D02*
X14032087Y-18411984D01*
X14117801Y-18611984D02*
X14117801Y-18507222D01*
X14117801Y-18507222D02*
X14108277Y-18488174D01*
X14108277Y-18488174D02*
X14089230Y-18478650D01*
X14089230Y-18478650D02*
X14060658Y-18478650D01*
X14060658Y-18478650D02*
X14041610Y-18488174D01*
X14041610Y-18488174D02*
X14032087Y-18497698D01*
X14241610Y-18611984D02*
X14222563Y-18602460D01*
X14222563Y-18602460D02*
X14213039Y-18592936D01*
X14213039Y-18592936D02*
X14203515Y-18573889D01*
X14203515Y-18573889D02*
X14203515Y-18516746D01*
X14203515Y-18516746D02*
X14213039Y-18497698D01*
X14213039Y-18497698D02*
X14222563Y-18488174D01*
X14222563Y-18488174D02*
X14241610Y-18478650D01*
X14241610Y-18478650D02*
X14270182Y-18478650D01*
X14270182Y-18478650D02*
X14289230Y-18488174D01*
X14289230Y-18488174D02*
X14298753Y-18497698D01*
X14298753Y-18497698D02*
X14308277Y-18516746D01*
X14308277Y-18516746D02*
X14308277Y-18573889D01*
X14308277Y-18573889D02*
X14298753Y-18592936D01*
X14298753Y-18592936D02*
X14289230Y-18602460D01*
X14289230Y-18602460D02*
X14270182Y-18611984D01*
X14270182Y-18611984D02*
X14241610Y-18611984D01*
X14422563Y-18611984D02*
X14403515Y-18602460D01*
X14403515Y-18602460D02*
X14393991Y-18583412D01*
X14393991Y-18583412D02*
X14393991Y-18411984D01*
X14574944Y-18602460D02*
X14555896Y-18611984D01*
X14555896Y-18611984D02*
X14517801Y-18611984D01*
X14517801Y-18611984D02*
X14498753Y-18602460D01*
X14498753Y-18602460D02*
X14489230Y-18583412D01*
X14489230Y-18583412D02*
X14489230Y-18507222D01*
X14489230Y-18507222D02*
X14498753Y-18488174D01*
X14498753Y-18488174D02*
X14517801Y-18478650D01*
X14517801Y-18478650D02*
X14555896Y-18478650D01*
X14555896Y-18478650D02*
X14574944Y-18488174D01*
X14574944Y-18488174D02*
X14584468Y-18507222D01*
X14584468Y-18507222D02*
X14584468Y-18526270D01*
X14584468Y-18526270D02*
X14489230Y-18545317D01*
X14660658Y-18602460D02*
X14679706Y-18611984D01*
X14679706Y-18611984D02*
X14717801Y-18611984D01*
X14717801Y-18611984D02*
X14736849Y-18602460D01*
X14736849Y-18602460D02*
X14746372Y-18583412D01*
X14746372Y-18583412D02*
X14746372Y-18573889D01*
X14746372Y-18573889D02*
X14736849Y-18554841D01*
X14736849Y-18554841D02*
X14717801Y-18545317D01*
X14717801Y-18545317D02*
X14689230Y-18545317D01*
X14689230Y-18545317D02*
X14670182Y-18535793D01*
X14670182Y-18535793D02*
X14660658Y-18516746D01*
X14660658Y-18516746D02*
X14660658Y-18507222D01*
X14660658Y-18507222D02*
X14670182Y-18488174D01*
X14670182Y-18488174D02*
X14689230Y-18478650D01*
X14689230Y-18478650D02*
X14717801Y-18478650D01*
X14717801Y-18478650D02*
X14736849Y-18488174D01*
X14813039Y-18688174D02*
X14822563Y-18678650D01*
X14822563Y-18678650D02*
X14841611Y-18650079D01*
X14841611Y-18650079D02*
X14851134Y-18631031D01*
X14851134Y-18631031D02*
X14860658Y-18602460D01*
X14860658Y-18602460D02*
X14870182Y-18554841D01*
X14870182Y-18554841D02*
X14870182Y-18516746D01*
X14870182Y-18516746D02*
X14860658Y-18469127D01*
X14860658Y-18469127D02*
X14851134Y-18440555D01*
X14851134Y-18440555D02*
X14841611Y-18421508D01*
X14841611Y-18421508D02*
X14822563Y-18392936D01*
X14822563Y-18392936D02*
X14813039Y-18383412D01*
D15*
X9822605Y-18844605D02*
X9822605Y-18724395D01*
X9702395Y-18724395D01*
X9702395Y-18844605D01*
X9822605Y-18844605D01*
D11*
X10213039Y-18875984D02*
X10098753Y-18875984D01*
X10155896Y-18875984D02*
X10155896Y-18675984D01*
X10155896Y-18675984D02*
X10136848Y-18704555D01*
X10136848Y-18704555D02*
X10117801Y-18723603D01*
X10117801Y-18723603D02*
X10098753Y-18733127D01*
X10298753Y-18856936D02*
X10308277Y-18866460D01*
X10308277Y-18866460D02*
X10298753Y-18875984D01*
X10298753Y-18875984D02*
X10289229Y-18866460D01*
X10289229Y-18866460D02*
X10298753Y-18856936D01*
X10298753Y-18856936D02*
X10298753Y-18875984D01*
X10374944Y-18675984D02*
X10508277Y-18675984D01*
X10508277Y-18675984D02*
X10422563Y-18875984D01*
X10622563Y-18675984D02*
X10641610Y-18675984D01*
X10641610Y-18675984D02*
X10660658Y-18685508D01*
X10660658Y-18685508D02*
X10670182Y-18695031D01*
X10670182Y-18695031D02*
X10679705Y-18714079D01*
X10679705Y-18714079D02*
X10689229Y-18752174D01*
X10689229Y-18752174D02*
X10689229Y-18799793D01*
X10689229Y-18799793D02*
X10679705Y-18837889D01*
X10679705Y-18837889D02*
X10670182Y-18856936D01*
X10670182Y-18856936D02*
X10660658Y-18866460D01*
X10660658Y-18866460D02*
X10641610Y-18875984D01*
X10641610Y-18875984D02*
X10622563Y-18875984D01*
X10622563Y-18875984D02*
X10603515Y-18866460D01*
X10603515Y-18866460D02*
X10593991Y-18856936D01*
X10593991Y-18856936D02*
X10584467Y-18837889D01*
X10584467Y-18837889D02*
X10574944Y-18799793D01*
X10574944Y-18799793D02*
X10574944Y-18752174D01*
X10574944Y-18752174D02*
X10584467Y-18714079D01*
X10584467Y-18714079D02*
X10593991Y-18695031D01*
X10593991Y-18695031D02*
X10603515Y-18685508D01*
X10603515Y-18685508D02*
X10622563Y-18675984D01*
X10813039Y-18675984D02*
X10832086Y-18675984D01*
X10832086Y-18675984D02*
X10851134Y-18685508D01*
X10851134Y-18685508D02*
X10860658Y-18695031D01*
X10860658Y-18695031D02*
X10870182Y-18714079D01*
X10870182Y-18714079D02*
X10879705Y-18752174D01*
X10879705Y-18752174D02*
X10879705Y-18799793D01*
X10879705Y-18799793D02*
X10870182Y-18837889D01*
X10870182Y-18837889D02*
X10860658Y-18856936D01*
X10860658Y-18856936D02*
X10851134Y-18866460D01*
X10851134Y-18866460D02*
X10832086Y-18875984D01*
X10832086Y-18875984D02*
X10813039Y-18875984D01*
X10813039Y-18875984D02*
X10793991Y-18866460D01*
X10793991Y-18866460D02*
X10784467Y-18856936D01*
X10784467Y-18856936D02*
X10774944Y-18837889D01*
X10774944Y-18837889D02*
X10765420Y-18799793D01*
X10765420Y-18799793D02*
X10765420Y-18752174D01*
X10765420Y-18752174D02*
X10774944Y-18714079D01*
X10774944Y-18714079D02*
X10784467Y-18695031D01*
X10784467Y-18695031D02*
X10793991Y-18685508D01*
X10793991Y-18685508D02*
X10813039Y-18675984D01*
X10965420Y-18875984D02*
X10965420Y-18742650D01*
X10965420Y-18761698D02*
X10974944Y-18752174D01*
X10974944Y-18752174D02*
X10993991Y-18742650D01*
X10993991Y-18742650D02*
X11022563Y-18742650D01*
X11022563Y-18742650D02*
X11041610Y-18752174D01*
X11041610Y-18752174D02*
X11051134Y-18771222D01*
X11051134Y-18771222D02*
X11051134Y-18875984D01*
X11051134Y-18771222D02*
X11060658Y-18752174D01*
X11060658Y-18752174D02*
X11079705Y-18742650D01*
X11079705Y-18742650D02*
X11108277Y-18742650D01*
X11108277Y-18742650D02*
X11127325Y-18752174D01*
X11127325Y-18752174D02*
X11136848Y-18771222D01*
X11136848Y-18771222D02*
X11136848Y-18875984D01*
X11232086Y-18875984D02*
X11232086Y-18742650D01*
X11232086Y-18761698D02*
X11241610Y-18752174D01*
X11241610Y-18752174D02*
X11260658Y-18742650D01*
X11260658Y-18742650D02*
X11289229Y-18742650D01*
X11289229Y-18742650D02*
X11308277Y-18752174D01*
X11308277Y-18752174D02*
X11317801Y-18771222D01*
X11317801Y-18771222D02*
X11317801Y-18875984D01*
X11317801Y-18771222D02*
X11327324Y-18752174D01*
X11327324Y-18752174D02*
X11346372Y-18742650D01*
X11346372Y-18742650D02*
X11374943Y-18742650D01*
X11374943Y-18742650D02*
X11393991Y-18752174D01*
X11393991Y-18752174D02*
X11403515Y-18771222D01*
X11403515Y-18771222D02*
X11403515Y-18875984D01*
X11793991Y-18666460D02*
X11622563Y-18923603D01*
X12051134Y-18675984D02*
X12070182Y-18675984D01*
X12070182Y-18675984D02*
X12089229Y-18685508D01*
X12089229Y-18685508D02*
X12098753Y-18695031D01*
X12098753Y-18695031D02*
X12108277Y-18714079D01*
X12108277Y-18714079D02*
X12117801Y-18752174D01*
X12117801Y-18752174D02*
X12117801Y-18799793D01*
X12117801Y-18799793D02*
X12108277Y-18837889D01*
X12108277Y-18837889D02*
X12098753Y-18856936D01*
X12098753Y-18856936D02*
X12089229Y-18866460D01*
X12089229Y-18866460D02*
X12070182Y-18875984D01*
X12070182Y-18875984D02*
X12051134Y-18875984D01*
X12051134Y-18875984D02*
X12032086Y-18866460D01*
X12032086Y-18866460D02*
X12022563Y-18856936D01*
X12022563Y-18856936D02*
X12013039Y-18837889D01*
X12013039Y-18837889D02*
X12003515Y-18799793D01*
X12003515Y-18799793D02*
X12003515Y-18752174D01*
X12003515Y-18752174D02*
X12013039Y-18714079D01*
X12013039Y-18714079D02*
X12022563Y-18695031D01*
X12022563Y-18695031D02*
X12032086Y-18685508D01*
X12032086Y-18685508D02*
X12051134Y-18675984D01*
X12203515Y-18856936D02*
X12213039Y-18866460D01*
X12213039Y-18866460D02*
X12203515Y-18875984D01*
X12203515Y-18875984D02*
X12193991Y-18866460D01*
X12193991Y-18866460D02*
X12203515Y-18856936D01*
X12203515Y-18856936D02*
X12203515Y-18875984D01*
X12336848Y-18675984D02*
X12355896Y-18675984D01*
X12355896Y-18675984D02*
X12374944Y-18685508D01*
X12374944Y-18685508D02*
X12384467Y-18695031D01*
X12384467Y-18695031D02*
X12393991Y-18714079D01*
X12393991Y-18714079D02*
X12403515Y-18752174D01*
X12403515Y-18752174D02*
X12403515Y-18799793D01*
X12403515Y-18799793D02*
X12393991Y-18837889D01*
X12393991Y-18837889D02*
X12384467Y-18856936D01*
X12384467Y-18856936D02*
X12374944Y-18866460D01*
X12374944Y-18866460D02*
X12355896Y-18875984D01*
X12355896Y-18875984D02*
X12336848Y-18875984D01*
X12336848Y-18875984D02*
X12317801Y-18866460D01*
X12317801Y-18866460D02*
X12308277Y-18856936D01*
X12308277Y-18856936D02*
X12298753Y-18837889D01*
X12298753Y-18837889D02*
X12289229Y-18799793D01*
X12289229Y-18799793D02*
X12289229Y-18752174D01*
X12289229Y-18752174D02*
X12298753Y-18714079D01*
X12298753Y-18714079D02*
X12308277Y-18695031D01*
X12308277Y-18695031D02*
X12317801Y-18685508D01*
X12317801Y-18685508D02*
X12336848Y-18675984D01*
X12574944Y-18675984D02*
X12536848Y-18675984D01*
X12536848Y-18675984D02*
X12517801Y-18685508D01*
X12517801Y-18685508D02*
X12508277Y-18695031D01*
X12508277Y-18695031D02*
X12489229Y-18723603D01*
X12489229Y-18723603D02*
X12479706Y-18761698D01*
X12479706Y-18761698D02*
X12479706Y-18837889D01*
X12479706Y-18837889D02*
X12489229Y-18856936D01*
X12489229Y-18856936D02*
X12498753Y-18866460D01*
X12498753Y-18866460D02*
X12517801Y-18875984D01*
X12517801Y-18875984D02*
X12555896Y-18875984D01*
X12555896Y-18875984D02*
X12574944Y-18866460D01*
X12574944Y-18866460D02*
X12584467Y-18856936D01*
X12584467Y-18856936D02*
X12593991Y-18837889D01*
X12593991Y-18837889D02*
X12593991Y-18790270D01*
X12593991Y-18790270D02*
X12584467Y-18771222D01*
X12584467Y-18771222D02*
X12574944Y-18761698D01*
X12574944Y-18761698D02*
X12555896Y-18752174D01*
X12555896Y-18752174D02*
X12517801Y-18752174D01*
X12517801Y-18752174D02*
X12498753Y-18761698D01*
X12498753Y-18761698D02*
X12489229Y-18771222D01*
X12489229Y-18771222D02*
X12479706Y-18790270D01*
X12765420Y-18675984D02*
X12727325Y-18675984D01*
X12727325Y-18675984D02*
X12708277Y-18685508D01*
X12708277Y-18685508D02*
X12698753Y-18695031D01*
X12698753Y-18695031D02*
X12679706Y-18723603D01*
X12679706Y-18723603D02*
X12670182Y-18761698D01*
X12670182Y-18761698D02*
X12670182Y-18837889D01*
X12670182Y-18837889D02*
X12679706Y-18856936D01*
X12679706Y-18856936D02*
X12689229Y-18866460D01*
X12689229Y-18866460D02*
X12708277Y-18875984D01*
X12708277Y-18875984D02*
X12746372Y-18875984D01*
X12746372Y-18875984D02*
X12765420Y-18866460D01*
X12765420Y-18866460D02*
X12774944Y-18856936D01*
X12774944Y-18856936D02*
X12784467Y-18837889D01*
X12784467Y-18837889D02*
X12784467Y-18790270D01*
X12784467Y-18790270D02*
X12774944Y-18771222D01*
X12774944Y-18771222D02*
X12765420Y-18761698D01*
X12765420Y-18761698D02*
X12746372Y-18752174D01*
X12746372Y-18752174D02*
X12708277Y-18752174D01*
X12708277Y-18752174D02*
X12689229Y-18761698D01*
X12689229Y-18761698D02*
X12679706Y-18771222D01*
X12679706Y-18771222D02*
X12670182Y-18790270D01*
X12879706Y-18875984D02*
X12917801Y-18875984D01*
X12917801Y-18875984D02*
X12936848Y-18866460D01*
X12936848Y-18866460D02*
X12946372Y-18856936D01*
X12946372Y-18856936D02*
X12965420Y-18828365D01*
X12965420Y-18828365D02*
X12974944Y-18790270D01*
X12974944Y-18790270D02*
X12974944Y-18714079D01*
X12974944Y-18714079D02*
X12965420Y-18695031D01*
X12965420Y-18695031D02*
X12955896Y-18685508D01*
X12955896Y-18685508D02*
X12936848Y-18675984D01*
X12936848Y-18675984D02*
X12898753Y-18675984D01*
X12898753Y-18675984D02*
X12879706Y-18685508D01*
X12879706Y-18685508D02*
X12870182Y-18695031D01*
X12870182Y-18695031D02*
X12860658Y-18714079D01*
X12860658Y-18714079D02*
X12860658Y-18761698D01*
X12860658Y-18761698D02*
X12870182Y-18780746D01*
X12870182Y-18780746D02*
X12879706Y-18790270D01*
X12879706Y-18790270D02*
X12898753Y-18799793D01*
X12898753Y-18799793D02*
X12936848Y-18799793D01*
X12936848Y-18799793D02*
X12955896Y-18790270D01*
X12955896Y-18790270D02*
X12965420Y-18780746D01*
X12965420Y-18780746D02*
X12974944Y-18761698D01*
X13051134Y-18675984D02*
X13051134Y-18714079D01*
X13127325Y-18675984D02*
X13127325Y-18714079D01*
X13422563Y-18952174D02*
X13413039Y-18942650D01*
X13413039Y-18942650D02*
X13393991Y-18914079D01*
X13393991Y-18914079D02*
X13384468Y-18895031D01*
X13384468Y-18895031D02*
X13374944Y-18866460D01*
X13374944Y-18866460D02*
X13365420Y-18818841D01*
X13365420Y-18818841D02*
X13365420Y-18780746D01*
X13365420Y-18780746D02*
X13374944Y-18733127D01*
X13374944Y-18733127D02*
X13384468Y-18704555D01*
X13384468Y-18704555D02*
X13393991Y-18685508D01*
X13393991Y-18685508D02*
X13413039Y-18656936D01*
X13413039Y-18656936D02*
X13422563Y-18647412D01*
X13489229Y-18695031D02*
X13498753Y-18685508D01*
X13498753Y-18685508D02*
X13517801Y-18675984D01*
X13517801Y-18675984D02*
X13565420Y-18675984D01*
X13565420Y-18675984D02*
X13584468Y-18685508D01*
X13584468Y-18685508D02*
X13593991Y-18695031D01*
X13593991Y-18695031D02*
X13603515Y-18714079D01*
X13603515Y-18714079D02*
X13603515Y-18733127D01*
X13603515Y-18733127D02*
X13593991Y-18761698D01*
X13593991Y-18761698D02*
X13479706Y-18875984D01*
X13479706Y-18875984D02*
X13603515Y-18875984D01*
X13841610Y-18875984D02*
X13841610Y-18675984D01*
X13927325Y-18875984D02*
X13927325Y-18771222D01*
X13927325Y-18771222D02*
X13917801Y-18752174D01*
X13917801Y-18752174D02*
X13898753Y-18742650D01*
X13898753Y-18742650D02*
X13870182Y-18742650D01*
X13870182Y-18742650D02*
X13851134Y-18752174D01*
X13851134Y-18752174D02*
X13841610Y-18761698D01*
X14051134Y-18875984D02*
X14032087Y-18866460D01*
X14032087Y-18866460D02*
X14022563Y-18856936D01*
X14022563Y-18856936D02*
X14013039Y-18837889D01*
X14013039Y-18837889D02*
X14013039Y-18780746D01*
X14013039Y-18780746D02*
X14022563Y-18761698D01*
X14022563Y-18761698D02*
X14032087Y-18752174D01*
X14032087Y-18752174D02*
X14051134Y-18742650D01*
X14051134Y-18742650D02*
X14079706Y-18742650D01*
X14079706Y-18742650D02*
X14098753Y-18752174D01*
X14098753Y-18752174D02*
X14108277Y-18761698D01*
X14108277Y-18761698D02*
X14117801Y-18780746D01*
X14117801Y-18780746D02*
X14117801Y-18837889D01*
X14117801Y-18837889D02*
X14108277Y-18856936D01*
X14108277Y-18856936D02*
X14098753Y-18866460D01*
X14098753Y-18866460D02*
X14079706Y-18875984D01*
X14079706Y-18875984D02*
X14051134Y-18875984D01*
X14232087Y-18875984D02*
X14213039Y-18866460D01*
X14213039Y-18866460D02*
X14203515Y-18847412D01*
X14203515Y-18847412D02*
X14203515Y-18675984D01*
X14384468Y-18866460D02*
X14365420Y-18875984D01*
X14365420Y-18875984D02*
X14327325Y-18875984D01*
X14327325Y-18875984D02*
X14308277Y-18866460D01*
X14308277Y-18866460D02*
X14298753Y-18847412D01*
X14298753Y-18847412D02*
X14298753Y-18771222D01*
X14298753Y-18771222D02*
X14308277Y-18752174D01*
X14308277Y-18752174D02*
X14327325Y-18742650D01*
X14327325Y-18742650D02*
X14365420Y-18742650D01*
X14365420Y-18742650D02*
X14384468Y-18752174D01*
X14384468Y-18752174D02*
X14393991Y-18771222D01*
X14393991Y-18771222D02*
X14393991Y-18790270D01*
X14393991Y-18790270D02*
X14298753Y-18809317D01*
X14470182Y-18866460D02*
X14489230Y-18875984D01*
X14489230Y-18875984D02*
X14527325Y-18875984D01*
X14527325Y-18875984D02*
X14546372Y-18866460D01*
X14546372Y-18866460D02*
X14555896Y-18847412D01*
X14555896Y-18847412D02*
X14555896Y-18837889D01*
X14555896Y-18837889D02*
X14546372Y-18818841D01*
X14546372Y-18818841D02*
X14527325Y-18809317D01*
X14527325Y-18809317D02*
X14498753Y-18809317D01*
X14498753Y-18809317D02*
X14479706Y-18799793D01*
X14479706Y-18799793D02*
X14470182Y-18780746D01*
X14470182Y-18780746D02*
X14470182Y-18771222D01*
X14470182Y-18771222D02*
X14479706Y-18752174D01*
X14479706Y-18752174D02*
X14498753Y-18742650D01*
X14498753Y-18742650D02*
X14527325Y-18742650D01*
X14527325Y-18742650D02*
X14546372Y-18752174D01*
X14622563Y-18952174D02*
X14632087Y-18942650D01*
X14632087Y-18942650D02*
X14651134Y-18914079D01*
X14651134Y-18914079D02*
X14660658Y-18895031D01*
X14660658Y-18895031D02*
X14670182Y-18866460D01*
X14670182Y-18866460D02*
X14679706Y-18818841D01*
X14679706Y-18818841D02*
X14679706Y-18780746D01*
X14679706Y-18780746D02*
X14670182Y-18733127D01*
X14670182Y-18733127D02*
X14660658Y-18704555D01*
X14660658Y-18704555D02*
X14651134Y-18685508D01*
X14651134Y-18685508D02*
X14632087Y-18656936D01*
X14632087Y-18656936D02*
X14622563Y-18647412D01*
M02*
