G04 #@! TF.GenerationSoftware,KiCad,Pcbnew,8.0.8*
G04 #@! TF.CreationDate,2025-02-19T12:15:39-05:00*
G04 #@! TF.ProjectId,capstone_pcb,63617073-746f-46e6-955f-7063622e6b69,rev?*
G04 #@! TF.SameCoordinates,Original*
G04 #@! TF.FileFunction,Copper,L2,Bot*
G04 #@! TF.FilePolarity,Positive*
%FSLAX46Y46*%
G04 Gerber Fmt 4.6, Leading zero omitted, Abs format (unit mm)*
G04 Created by KiCad (PCBNEW 8.0.8) date 2025-02-19 12:15:39*
%MOMM*%
%LPD*%
G01*
G04 APERTURE LIST*
G04 Aperture macros list*
%AMRoundRect*
0 Rectangle with rounded corners*
0 $1 Rounding radius*
0 $2 $3 $4 $5 $6 $7 $8 $9 X,Y pos of 4 corners*
0 Add a 4 corners polygon primitive as box body*
4,1,4,$2,$3,$4,$5,$6,$7,$8,$9,$2,$3,0*
0 Add four circle primitives for the rounded corners*
1,1,$1+$1,$2,$3*
1,1,$1+$1,$4,$5*
1,1,$1+$1,$6,$7*
1,1,$1+$1,$8,$9*
0 Add four rect primitives between the rounded corners*
20,1,$1+$1,$2,$3,$4,$5,0*
20,1,$1+$1,$4,$5,$6,$7,0*
20,1,$1+$1,$6,$7,$8,$9,0*
20,1,$1+$1,$8,$9,$2,$3,0*%
G04 Aperture macros list end*
G04 #@! TA.AperFunction,ComponentPad*
%ADD10RoundRect,0.250000X-0.600000X-0.725000X0.600000X-0.725000X0.600000X0.725000X-0.600000X0.725000X0*%
G04 #@! TD*
G04 #@! TA.AperFunction,ComponentPad*
%ADD11O,1.700000X1.950000*%
G04 #@! TD*
G04 #@! TA.AperFunction,ComponentPad*
%ADD12RoundRect,0.250000X0.725000X-0.600000X0.725000X0.600000X-0.725000X0.600000X-0.725000X-0.600000X0*%
G04 #@! TD*
G04 #@! TA.AperFunction,ComponentPad*
%ADD13O,1.950000X1.700000*%
G04 #@! TD*
G04 #@! TA.AperFunction,ComponentPad*
%ADD14R,1.605000X1.605000*%
G04 #@! TD*
G04 #@! TA.AperFunction,ComponentPad*
%ADD15C,1.605000*%
G04 #@! TD*
G04 #@! TA.AperFunction,ComponentPad*
%ADD16R,1.530000X1.530000*%
G04 #@! TD*
G04 #@! TA.AperFunction,ComponentPad*
%ADD17C,1.530000*%
G04 #@! TD*
G04 #@! TA.AperFunction,ComponentPad*
%ADD18RoundRect,0.250001X-1.099999X-1.099999X1.099999X-1.099999X1.099999X1.099999X-1.099999X1.099999X0*%
G04 #@! TD*
G04 #@! TA.AperFunction,ComponentPad*
%ADD19C,2.700000*%
G04 #@! TD*
G04 #@! TA.AperFunction,Conductor*
%ADD20C,0.200000*%
G04 #@! TD*
G04 #@! TA.AperFunction,Conductor*
%ADD21C,1.500000*%
G04 #@! TD*
G04 #@! TA.AperFunction,Conductor*
%ADD22C,5.000000*%
G04 #@! TD*
G04 APERTURE END LIST*
D10*
X136000000Y-163000000D03*
D11*
X138500000Y-163000000D03*
X141000000Y-163000000D03*
D10*
X136000000Y-153000000D03*
D11*
X138500000Y-153000000D03*
X141000000Y-153000000D03*
D12*
X183000000Y-143000000D03*
D13*
X183000000Y-140500000D03*
X183000000Y-138000000D03*
X183000000Y-135500000D03*
X183000000Y-133000000D03*
D10*
X107500000Y-153000000D03*
D11*
X110000000Y-153000000D03*
X112500000Y-153000000D03*
D10*
X183000000Y-54500000D03*
D11*
X185500000Y-54500000D03*
X188000000Y-54500000D03*
X190500000Y-54500000D03*
D12*
X195000000Y-143000000D03*
D13*
X195000000Y-140500000D03*
X195000000Y-138000000D03*
X195000000Y-135500000D03*
X195000000Y-133000000D03*
D10*
X183000000Y-43500000D03*
D11*
X185500000Y-43500000D03*
X188000000Y-43500000D03*
X190500000Y-43500000D03*
D10*
X121500000Y-163000000D03*
D11*
X124000000Y-163000000D03*
X126500000Y-163000000D03*
D10*
X107500000Y-133000000D03*
D11*
X110000000Y-133000000D03*
X112500000Y-133000000D03*
D10*
X183000000Y-109500000D03*
D11*
X185500000Y-109500000D03*
X188000000Y-109500000D03*
X190500000Y-109500000D03*
D10*
X150500000Y-153000000D03*
D11*
X153000000Y-153000000D03*
X155500000Y-153000000D03*
D14*
X163830000Y-96470000D03*
D15*
X163830000Y-93930000D03*
X163830000Y-91390000D03*
X163830000Y-88850000D03*
X163830000Y-86310000D03*
X163830000Y-83770000D03*
X163830000Y-81230000D03*
X163830000Y-78690000D03*
X163830000Y-76150000D03*
X163830000Y-73610000D03*
D14*
X115570000Y-82750000D03*
D15*
X115570000Y-85290000D03*
X115570000Y-87830000D03*
X115570000Y-90370000D03*
X115570000Y-92910000D03*
X115570000Y-95450000D03*
X115570000Y-97990000D03*
X115570000Y-100530000D03*
D16*
X107950000Y-72590000D03*
D17*
X110490000Y-72590000D03*
X107950000Y-75130000D03*
X110490000Y-75130000D03*
X107950000Y-77670000D03*
X110490000Y-77670000D03*
X107950000Y-80210000D03*
X110490000Y-80210000D03*
X107950000Y-82750000D03*
X110490000Y-82750000D03*
X107950000Y-85290000D03*
X110490000Y-85290000D03*
X107950000Y-87830000D03*
X110490000Y-87830000D03*
X107950000Y-90370000D03*
X110490000Y-90370000D03*
X107950000Y-92910000D03*
X110490000Y-92910000D03*
X107950000Y-95450000D03*
X110490000Y-95450000D03*
X107950000Y-97990000D03*
X110490000Y-97990000D03*
X107950000Y-100530000D03*
X110490000Y-100530000D03*
X107950000Y-103070000D03*
X110490000Y-103070000D03*
X107950000Y-105610000D03*
X110490000Y-105610000D03*
X107950000Y-108150000D03*
X110490000Y-108150000D03*
X107950000Y-110690000D03*
X110490000Y-110690000D03*
X107950000Y-113230000D03*
X110490000Y-113230000D03*
X107950000Y-115770000D03*
X110490000Y-115770000D03*
X107950000Y-118310000D03*
X110490000Y-118310000D03*
D14*
X115570000Y-105610000D03*
D15*
X115570000Y-108150000D03*
X115570000Y-110690000D03*
X115570000Y-113230000D03*
X115570000Y-115770000D03*
X115570000Y-118310000D03*
D14*
X163830000Y-118310000D03*
D15*
X163830000Y-115770000D03*
X163830000Y-113230000D03*
X163830000Y-110690000D03*
X163830000Y-108150000D03*
X163830000Y-105610000D03*
X163830000Y-103070000D03*
X163830000Y-100530000D03*
D16*
X168910000Y-72590000D03*
D17*
X171450000Y-72590000D03*
X168910000Y-75130000D03*
X171450000Y-75130000D03*
X168910000Y-77670000D03*
X171450000Y-77670000D03*
X168910000Y-80210000D03*
X171450000Y-80210000D03*
X168910000Y-82750000D03*
X171450000Y-82750000D03*
X168910000Y-85290000D03*
X171450000Y-85290000D03*
X168910000Y-87830000D03*
X171450000Y-87830000D03*
X168910000Y-90370000D03*
X171450000Y-90370000D03*
X168910000Y-92910000D03*
X171450000Y-92910000D03*
X168910000Y-95450000D03*
X171450000Y-95450000D03*
X168910000Y-97990000D03*
X171450000Y-97990000D03*
X168910000Y-100530000D03*
X171450000Y-100530000D03*
X168910000Y-103070000D03*
X171450000Y-103070000D03*
X168910000Y-105610000D03*
X171450000Y-105610000D03*
X168910000Y-108150000D03*
X171450000Y-108150000D03*
X168910000Y-110690000D03*
X171450000Y-110690000D03*
X168910000Y-113230000D03*
X171450000Y-113230000D03*
X168910000Y-115770000D03*
X171450000Y-115770000D03*
X168910000Y-118310000D03*
X171450000Y-118310000D03*
D18*
X200040000Y-120500000D03*
D19*
X204000000Y-120500000D03*
D10*
X150500000Y-133000000D03*
D11*
X153000000Y-133000000D03*
X155500000Y-133000000D03*
D10*
X121500000Y-153000000D03*
D11*
X124000000Y-153000000D03*
X126500000Y-153000000D03*
D10*
X183000000Y-87500000D03*
D11*
X185500000Y-87500000D03*
X188000000Y-87500000D03*
X190500000Y-87500000D03*
D10*
X150500000Y-143000000D03*
D11*
X153000000Y-143000000D03*
X155500000Y-143000000D03*
D10*
X165000000Y-133000000D03*
D11*
X167500000Y-133000000D03*
X170000000Y-133000000D03*
X172500000Y-133000000D03*
D10*
X121500000Y-143000000D03*
D11*
X124000000Y-143000000D03*
X126500000Y-143000000D03*
D10*
X183000000Y-76500000D03*
D11*
X185500000Y-76500000D03*
X188000000Y-76500000D03*
X190500000Y-76500000D03*
D10*
X150500000Y-163000000D03*
D11*
X153000000Y-163000000D03*
X155500000Y-163000000D03*
D10*
X183000000Y-65500000D03*
D11*
X185500000Y-65500000D03*
X188000000Y-65500000D03*
X190500000Y-65500000D03*
D10*
X183000000Y-120500000D03*
D11*
X185500000Y-120500000D03*
X188000000Y-120500000D03*
X190500000Y-120500000D03*
D10*
X165000000Y-143000000D03*
D11*
X167500000Y-143000000D03*
X170000000Y-143000000D03*
X172500000Y-143000000D03*
D10*
X107500000Y-143000000D03*
D11*
X110000000Y-143000000D03*
X112500000Y-143000000D03*
D10*
X185500000Y-152500000D03*
D11*
X188000000Y-152500000D03*
X190500000Y-152500000D03*
X193000000Y-152500000D03*
X195500000Y-152500000D03*
D10*
X136000000Y-133000000D03*
D11*
X138500000Y-133000000D03*
X141000000Y-133000000D03*
D10*
X136000000Y-143000000D03*
D11*
X138500000Y-143000000D03*
X141000000Y-143000000D03*
D10*
X121500000Y-133000000D03*
D11*
X124000000Y-133000000D03*
X126500000Y-133000000D03*
D10*
X107500000Y-163000000D03*
D11*
X110000000Y-163000000D03*
X112500000Y-163000000D03*
D10*
X183000000Y-98500000D03*
D11*
X185500000Y-98500000D03*
X188000000Y-98500000D03*
X190500000Y-98500000D03*
D20*
X183000000Y-43500000D02*
X183000000Y-76500000D01*
X109425000Y-132425000D02*
X109425000Y-81275000D01*
D21*
X183000000Y-138000000D02*
X186500000Y-138000000D01*
X189829416Y-67500000D02*
X200000000Y-67500000D01*
X189829416Y-100500000D02*
X200000000Y-100500000D01*
X189754416Y-78425000D02*
X199575000Y-78425000D01*
X188000000Y-44000000D02*
X188000000Y-43500000D01*
X186500000Y-138000000D02*
X204000000Y-120500000D01*
X200000000Y-52000000D02*
X196000000Y-52000000D01*
X188000000Y-65670584D02*
X189829416Y-67500000D01*
X191500000Y-133000000D02*
X204000000Y-120500000D01*
X192000000Y-122500000D02*
X200000000Y-114500000D01*
D22*
X200000000Y-78000000D02*
X200000000Y-89500000D01*
D20*
X170000000Y-133000000D02*
X170000000Y-140109744D01*
D21*
X188000000Y-76670584D02*
X189754416Y-78425000D01*
X191329416Y-58000000D02*
X188000000Y-54670584D01*
X200000000Y-58000000D02*
X191329416Y-58000000D01*
D20*
X167500000Y-143000000D02*
X168775000Y-141725000D01*
D21*
X189754416Y-111425000D02*
X199575000Y-111425000D01*
X193000000Y-152329416D02*
X204000000Y-141329416D01*
X196000000Y-52000000D02*
X188000000Y-44000000D01*
D20*
X172500000Y-143000000D02*
X173650000Y-141850000D01*
D22*
X200000000Y-100500000D02*
X200000000Y-111000000D01*
D20*
X168775000Y-141725000D02*
X171225000Y-141725000D01*
D21*
X204000000Y-118500000D02*
X200000000Y-114500000D01*
X199575000Y-111425000D02*
X200000000Y-111000000D01*
D22*
X200000000Y-67500000D02*
X200000000Y-78000000D01*
D20*
X184500000Y-139500000D02*
X183000000Y-138000000D01*
D21*
X195125000Y-133000000D02*
X204000000Y-124125000D01*
X188000000Y-98670584D02*
X189829416Y-100500000D01*
D22*
X200000000Y-52000000D02*
X200000000Y-58000000D01*
D20*
X173650000Y-141850000D02*
X183401346Y-141850000D01*
D21*
X204000000Y-129170584D02*
X204000000Y-120500000D01*
X188000000Y-109670584D02*
X189754416Y-111425000D01*
X183000000Y-133000000D02*
X191500000Y-133000000D01*
X189829416Y-122500000D02*
X192000000Y-122500000D01*
X189829416Y-89500000D02*
X200000000Y-89500000D01*
D20*
X184500000Y-140751346D02*
X184500000Y-139500000D01*
D21*
X199575000Y-78425000D02*
X200000000Y-78000000D01*
D20*
X183401346Y-141850000D02*
X184500000Y-140751346D01*
X170000000Y-140109744D02*
X167500000Y-142609744D01*
D21*
X188000000Y-120670584D02*
X189829416Y-122500000D01*
X204000000Y-120500000D02*
X204000000Y-118500000D01*
X204000000Y-141329416D02*
X204000000Y-120500000D01*
D22*
X200000000Y-89500000D02*
X200000000Y-100500000D01*
D21*
X188000000Y-87670584D02*
X189829416Y-89500000D01*
X195170584Y-138000000D02*
X204000000Y-129170584D01*
D22*
X200000000Y-58000000D02*
X200000000Y-67500000D01*
D20*
X109425000Y-81275000D02*
X110490000Y-80210000D01*
X171225000Y-141725000D02*
X172500000Y-143000000D01*
D21*
X204000000Y-124125000D02*
X204000000Y-120500000D01*
D22*
X200000000Y-111000000D02*
X200000000Y-114500000D01*
D20*
X185500000Y-120500000D02*
X172515000Y-107515000D01*
X172515000Y-88895000D02*
X171450000Y-87830000D01*
X172515000Y-107515000D02*
X172515000Y-88895000D01*
X116847500Y-94347500D02*
X114467500Y-94347500D01*
X155500000Y-133000000D02*
X116847500Y-94347500D01*
X114467500Y-94347500D02*
X110490000Y-90370000D01*
X155500000Y-143000000D02*
X155500000Y-153000000D01*
X165695000Y-76195000D02*
X164547500Y-75047500D01*
X170385000Y-76195000D02*
X165695000Y-76195000D01*
X105500000Y-78000000D02*
X105500000Y-131000000D01*
X164547500Y-75047500D02*
X112452500Y-75047500D01*
X110895000Y-76605000D02*
X106895000Y-76605000D01*
X105500000Y-131000000D02*
X107500000Y-133000000D01*
X112452500Y-75047500D02*
X110895000Y-76605000D01*
X106895000Y-76605000D02*
X105500000Y-78000000D01*
X171450000Y-75130000D02*
X170385000Y-76195000D01*
X121500000Y-133000000D02*
X121500000Y-129320000D01*
X121500000Y-129320000D02*
X110490000Y-118310000D01*
X119872500Y-116872500D02*
X111592500Y-116872500D01*
X111592500Y-116872500D02*
X110490000Y-115770000D01*
X136000000Y-133000000D02*
X119872500Y-116872500D01*
X106885000Y-116835000D02*
X107950000Y-115770000D01*
X108650000Y-120650000D02*
X106885000Y-118885000D01*
X106885000Y-118885000D02*
X106885000Y-116835000D01*
X134725000Y-151725000D02*
X126725000Y-151725000D01*
X126725000Y-151725000D02*
X108650000Y-133650000D01*
X136000000Y-153000000D02*
X134725000Y-151725000D01*
X108650000Y-133650000D02*
X108650000Y-120650000D01*
X168468862Y-114705000D02*
X165000000Y-118173862D01*
X165000000Y-118173862D02*
X165000000Y-128500000D01*
X169975000Y-114705000D02*
X168468862Y-114705000D01*
X171450000Y-113230000D02*
X169975000Y-114705000D01*
X165000000Y-128500000D02*
X150500000Y-143000000D01*
X172515000Y-76605000D02*
X172515000Y-74515000D01*
X172000000Y-74000000D02*
X166000000Y-74000000D01*
X156500000Y-72000000D02*
X154435000Y-74065000D01*
X104500000Y-163500000D02*
X105500000Y-164500000D01*
X171450000Y-77670000D02*
X172515000Y-76605000D01*
X164000000Y-72000000D02*
X156500000Y-72000000D01*
X151109744Y-164500000D02*
X151650000Y-163959744D01*
X151650000Y-154150000D02*
X150500000Y-153000000D01*
X104500000Y-75500000D02*
X104500000Y-163500000D01*
X105935000Y-74065000D02*
X104500000Y-75500000D01*
X151650000Y-163959744D02*
X151650000Y-154150000D01*
X166000000Y-74000000D02*
X164000000Y-72000000D01*
X105500000Y-164500000D02*
X151109744Y-164500000D01*
X154435000Y-74065000D02*
X105935000Y-74065000D01*
X172515000Y-74515000D02*
X172000000Y-74000000D01*
X149000000Y-141500000D02*
X149000000Y-161500000D01*
X162727500Y-117207500D02*
X162727500Y-127772500D01*
X162727500Y-127772500D02*
X149000000Y-141500000D01*
X149000000Y-161500000D02*
X150500000Y-163000000D01*
X168910000Y-95450000D02*
X167835000Y-96525000D01*
X167835000Y-96525000D02*
X167835000Y-114305000D01*
X164932500Y-117207500D02*
X162727500Y-117207500D01*
X167835000Y-114305000D02*
X164932500Y-117207500D01*
X172390256Y-152500000D02*
X163850000Y-143959744D01*
X163850000Y-136401346D02*
X166350000Y-133901346D01*
X163850000Y-143959744D02*
X163850000Y-136401346D01*
X173500000Y-125248654D02*
X173500000Y-110823862D01*
X173500000Y-110823862D02*
X171891138Y-109215000D01*
X171008862Y-109215000D02*
X170385000Y-108591138D01*
X166350000Y-133901346D02*
X166350000Y-132398654D01*
X185500000Y-152500000D02*
X172390256Y-152500000D01*
X170385000Y-86355000D02*
X171450000Y-85290000D01*
X166350000Y-132398654D02*
X173500000Y-125248654D01*
X171891138Y-109215000D02*
X171008862Y-109215000D01*
X170385000Y-108591138D02*
X170385000Y-86355000D01*
X175000000Y-107000000D02*
X175000000Y-74633862D01*
X166350000Y-143601346D02*
X166350000Y-136150000D01*
X183000000Y-143000000D02*
X181725000Y-144275000D01*
X185850000Y-122000000D02*
X186850000Y-121000000D01*
X167023654Y-144275000D02*
X166350000Y-143601346D01*
X166350000Y-136150000D02*
X168850000Y-133650000D01*
X186850000Y-118850000D02*
X175000000Y-107000000D01*
X168850000Y-133650000D02*
X168850000Y-132398654D01*
X168850000Y-132398654D02*
X179248654Y-122000000D01*
X181725000Y-144275000D02*
X167023654Y-144275000D01*
X179248654Y-122000000D02*
X185850000Y-122000000D01*
X170000000Y-71500000D02*
X168910000Y-72590000D01*
X171866138Y-71500000D02*
X170000000Y-71500000D01*
X186850000Y-121000000D02*
X186850000Y-118850000D01*
X175000000Y-74633862D02*
X171866138Y-71500000D01*
X183000000Y-140500000D02*
X180000000Y-140500000D01*
X180000000Y-140500000D02*
X172500000Y-133000000D01*
X152751346Y-165000000D02*
X105000000Y-165000000D01*
X186650000Y-151350000D02*
X186650000Y-153459744D01*
X186650000Y-153459744D02*
X186334744Y-153775000D01*
X109425000Y-71525000D02*
X110490000Y-72590000D01*
X106885000Y-71525000D02*
X109425000Y-71525000D01*
X105000000Y-165000000D02*
X104000000Y-164000000D01*
X157725000Y-153775000D02*
X154150000Y-157350000D01*
X104000000Y-74410000D02*
X106885000Y-71525000D01*
X154150000Y-157350000D02*
X154150000Y-163601346D01*
X195000000Y-143000000D02*
X186650000Y-151350000D01*
X186334744Y-153775000D02*
X157725000Y-153775000D01*
X104000000Y-164000000D02*
X104000000Y-74410000D01*
X154150000Y-163601346D02*
X152751346Y-165000000D01*
X169985000Y-128015000D02*
X169985000Y-116845000D01*
X165000000Y-133000000D02*
X169985000Y-128015000D01*
X169985000Y-116845000D02*
X168910000Y-115770000D01*
G04 #@! TA.AperFunction,Conductor*
G36*
X167757335Y-116368275D02*
G01*
X167813268Y-116410147D01*
X167815573Y-116413330D01*
X167936868Y-116586555D01*
X168093445Y-116743132D01*
X168274833Y-116870142D01*
X168336828Y-116899050D01*
X168398091Y-116927618D01*
X168450531Y-116973790D01*
X168469683Y-117040983D01*
X168449467Y-117107865D01*
X168398091Y-117152382D01*
X168274836Y-117209856D01*
X168274834Y-117209857D01*
X168093444Y-117336868D01*
X167936868Y-117493444D01*
X167809857Y-117674834D01*
X167809856Y-117674836D01*
X167716279Y-117875513D01*
X167716275Y-117875524D01*
X167658965Y-118089407D01*
X167658964Y-118089414D01*
X167639666Y-118309998D01*
X167639666Y-118310001D01*
X167658964Y-118530585D01*
X167658965Y-118530592D01*
X167716275Y-118744475D01*
X167716279Y-118744486D01*
X167802346Y-118929058D01*
X167809858Y-118945167D01*
X167936868Y-119126555D01*
X168093445Y-119283132D01*
X168274833Y-119410142D01*
X168372465Y-119455668D01*
X168475513Y-119503720D01*
X168475515Y-119503720D01*
X168475520Y-119503723D01*
X168689409Y-119561035D01*
X168846974Y-119574820D01*
X168909998Y-119580334D01*
X168910000Y-119580334D01*
X168910002Y-119580334D01*
X168965147Y-119575509D01*
X169130591Y-119561035D01*
X169228406Y-119534825D01*
X169298255Y-119536487D01*
X169356118Y-119575648D01*
X169383623Y-119639877D01*
X169384500Y-119654599D01*
X169384500Y-127714902D01*
X169364815Y-127781941D01*
X169348181Y-127802583D01*
X165662582Y-131488181D01*
X165601259Y-131521666D01*
X165574901Y-131524500D01*
X164349998Y-131524500D01*
X164349981Y-131524501D01*
X164247203Y-131535000D01*
X164247200Y-131535001D01*
X164080668Y-131590185D01*
X164080663Y-131590187D01*
X163931342Y-131682289D01*
X163807289Y-131806342D01*
X163715187Y-131955663D01*
X163715186Y-131955666D01*
X163660001Y-132122203D01*
X163660001Y-132122204D01*
X163660000Y-132122204D01*
X163649500Y-132224983D01*
X163649500Y-133775001D01*
X163649501Y-133775018D01*
X163660000Y-133877796D01*
X163660001Y-133877799D01*
X163661322Y-133881785D01*
X163715186Y-134044334D01*
X163807288Y-134193656D01*
X163931344Y-134317712D01*
X164080666Y-134409814D01*
X164247203Y-134464999D01*
X164349991Y-134475500D01*
X164627249Y-134475499D01*
X164694287Y-134495183D01*
X164740042Y-134547987D01*
X164749986Y-134617146D01*
X164720961Y-134680701D01*
X164714929Y-134687180D01*
X163481286Y-135920824D01*
X163369481Y-136032628D01*
X163369479Y-136032631D01*
X163319361Y-136119440D01*
X163319359Y-136119442D01*
X163290425Y-136169555D01*
X163290424Y-136169556D01*
X163290423Y-136169561D01*
X163249499Y-136322289D01*
X163249499Y-136322291D01*
X163249499Y-136490392D01*
X163249500Y-136490405D01*
X163249500Y-143873074D01*
X163249499Y-143873092D01*
X163249499Y-144038798D01*
X163249498Y-144038798D01*
X163250982Y-144044336D01*
X163289949Y-144189761D01*
X163290423Y-144191528D01*
X163290424Y-144191531D01*
X163296381Y-144201848D01*
X163296382Y-144201850D01*
X163369477Y-144328456D01*
X163369481Y-144328461D01*
X163488349Y-144447329D01*
X163488355Y-144447334D01*
X171905395Y-152864374D01*
X171905405Y-152864385D01*
X171909735Y-152868715D01*
X171909736Y-152868716D01*
X172003840Y-152962820D01*
X172037324Y-153024141D01*
X172032340Y-153093833D01*
X171990469Y-153149767D01*
X171925005Y-153174184D01*
X171916158Y-153174500D01*
X157645940Y-153174500D01*
X157605019Y-153185464D01*
X157605019Y-153185465D01*
X157567751Y-153195451D01*
X157493214Y-153215423D01*
X157493209Y-153215426D01*
X157356290Y-153294475D01*
X157356282Y-153294481D01*
X157244478Y-153406286D01*
X156993659Y-153657104D01*
X156932336Y-153690589D01*
X156862644Y-153685605D01*
X156806711Y-153643733D01*
X156782294Y-153578269D01*
X156788046Y-153531110D01*
X156817246Y-153441243D01*
X156850500Y-153231287D01*
X156850500Y-152768713D01*
X156817246Y-152558757D01*
X156751557Y-152356588D01*
X156655051Y-152167184D01*
X156655049Y-152167181D01*
X156655048Y-152167179D01*
X156530109Y-151995213D01*
X156379786Y-151844890D01*
X156207815Y-151719948D01*
X156207814Y-151719947D01*
X156168205Y-151699765D01*
X156117409Y-151651791D01*
X156100500Y-151589281D01*
X156100500Y-144410718D01*
X156120185Y-144343679D01*
X156168207Y-144300233D01*
X156207815Y-144280052D01*
X156207815Y-144280051D01*
X156207816Y-144280051D01*
X156326728Y-144193657D01*
X156379786Y-144155109D01*
X156379788Y-144155106D01*
X156379792Y-144155104D01*
X156530104Y-144004792D01*
X156530106Y-144004788D01*
X156530109Y-144004786D01*
X156655048Y-143832820D01*
X156655047Y-143832820D01*
X156655051Y-143832816D01*
X156751557Y-143643412D01*
X156817246Y-143441243D01*
X156850500Y-143231287D01*
X156850500Y-142768713D01*
X156817246Y-142558757D01*
X156751557Y-142356588D01*
X156655051Y-142167184D01*
X156655049Y-142167181D01*
X156655048Y-142167179D01*
X156530109Y-141995213D01*
X156379786Y-141844890D01*
X156207820Y-141719951D01*
X156018414Y-141623444D01*
X156018413Y-141623443D01*
X156018412Y-141623443D01*
X155816243Y-141557754D01*
X155816241Y-141557753D01*
X155816240Y-141557753D01*
X155641669Y-141530104D01*
X155606287Y-141524500D01*
X155393713Y-141524500D01*
X155358331Y-141530104D01*
X155183760Y-141557753D01*
X154981585Y-141623444D01*
X154792179Y-141719951D01*
X154620213Y-141844890D01*
X154469890Y-141995213D01*
X154344951Y-142167179D01*
X154248444Y-142356585D01*
X154182753Y-142558760D01*
X154149500Y-142768713D01*
X154149500Y-143231286D01*
X154164755Y-143327606D01*
X154182754Y-143441243D01*
X154247937Y-143641856D01*
X154248444Y-143643414D01*
X154344951Y-143832820D01*
X154469890Y-144004786D01*
X154620213Y-144155109D01*
X154792184Y-144280051D01*
X154792184Y-144280052D01*
X154831793Y-144300233D01*
X154882590Y-144348206D01*
X154899500Y-144410718D01*
X154899500Y-151589281D01*
X154879815Y-151656320D01*
X154831795Y-151699765D01*
X154792185Y-151719947D01*
X154792184Y-151719948D01*
X154620213Y-151844890D01*
X154469890Y-151995213D01*
X154344951Y-152167179D01*
X154248444Y-152356585D01*
X154182753Y-152558760D01*
X154155428Y-152731286D01*
X154149500Y-152768713D01*
X154149500Y-153231287D01*
X154182754Y-153441243D01*
X154203402Y-153504792D01*
X154248444Y-153643414D01*
X154344951Y-153832820D01*
X154469890Y-154004786D01*
X154620213Y-154155109D01*
X154792179Y-154280048D01*
X154792181Y-154280049D01*
X154792184Y-154280051D01*
X154981588Y-154376557D01*
X155183757Y-154442246D01*
X155393713Y-154475500D01*
X155393714Y-154475500D01*
X155606286Y-154475500D01*
X155606287Y-154475500D01*
X155816243Y-154442246D01*
X155906108Y-154413046D01*
X155975945Y-154411052D01*
X156035778Y-154447132D01*
X156066607Y-154509832D01*
X156058643Y-154579247D01*
X156032104Y-154618659D01*
X153781286Y-156869478D01*
X153669481Y-156981282D01*
X153669479Y-156981285D01*
X153619361Y-157068094D01*
X153619359Y-157068096D01*
X153590425Y-157118209D01*
X153590424Y-157118210D01*
X153590423Y-157118215D01*
X153549499Y-157270943D01*
X153549499Y-157270945D01*
X153549499Y-157439046D01*
X153549500Y-157439059D01*
X153549500Y-163301249D01*
X153529815Y-163368288D01*
X153513181Y-163388930D01*
X152538930Y-164363181D01*
X152477607Y-164396666D01*
X152451249Y-164399500D01*
X152304279Y-164399500D01*
X152237240Y-164379815D01*
X152191485Y-164327011D01*
X152181541Y-164257853D01*
X152196891Y-164213501D01*
X152209576Y-164191529D01*
X152209577Y-164191528D01*
X152244933Y-164059577D01*
X152250500Y-164038802D01*
X152250500Y-163880687D01*
X152250500Y-154239060D01*
X152250501Y-154239047D01*
X152250501Y-154070944D01*
X152250501Y-154070943D01*
X152209577Y-153918216D01*
X152209573Y-153918209D01*
X152130524Y-153781290D01*
X152130518Y-153781282D01*
X151886818Y-153537582D01*
X151853333Y-153476259D01*
X151850499Y-153449901D01*
X151850499Y-152224998D01*
X151850498Y-152224981D01*
X151839999Y-152122203D01*
X151839998Y-152122200D01*
X151818975Y-152058757D01*
X151784814Y-151955666D01*
X151692712Y-151806344D01*
X151568656Y-151682288D01*
X151419334Y-151590186D01*
X151252797Y-151535001D01*
X151252795Y-151535000D01*
X151150010Y-151524500D01*
X149849998Y-151524500D01*
X149849981Y-151524501D01*
X149740468Y-151535689D01*
X149740249Y-151533545D01*
X149680756Y-151529079D01*
X149624971Y-151487010D01*
X149600785Y-151421460D01*
X149600500Y-151413051D01*
X149600500Y-144586948D01*
X149620185Y-144519909D01*
X149672989Y-144474154D01*
X149740453Y-144464453D01*
X149740468Y-144464311D01*
X149741038Y-144464369D01*
X149742147Y-144464210D01*
X149745701Y-144464845D01*
X149747200Y-144464998D01*
X149747203Y-144464999D01*
X149849991Y-144475500D01*
X151150008Y-144475499D01*
X151252797Y-144464999D01*
X151419334Y-144409814D01*
X151568656Y-144317712D01*
X151692712Y-144193656D01*
X151784814Y-144044334D01*
X151839999Y-143877797D01*
X151850500Y-143775009D01*
X151850499Y-142550095D01*
X151870184Y-142483057D01*
X151886813Y-142462420D01*
X165480520Y-128868716D01*
X165559577Y-128731784D01*
X165600501Y-128579057D01*
X165600501Y-128420942D01*
X165600501Y-128413347D01*
X165600500Y-128413329D01*
X165600500Y-118473959D01*
X165620185Y-118406920D01*
X165636819Y-118386278D01*
X166575996Y-117447101D01*
X167626322Y-116396774D01*
X167687643Y-116363291D01*
X167757335Y-116368275D01*
G37*
G04 #@! TD.AperFunction*
G04 #@! TA.AperFunction,Conductor*
G36*
X111945971Y-92677408D02*
G01*
X111960926Y-92690161D01*
X113982639Y-94711874D01*
X113982649Y-94711885D01*
X113986979Y-94716215D01*
X113986980Y-94716216D01*
X114098784Y-94828020D01*
X114098786Y-94828021D01*
X114098790Y-94828024D01*
X114235709Y-94907073D01*
X114235716Y-94907077D01*
X114237970Y-94907681D01*
X114239657Y-94908709D01*
X114243223Y-94910186D01*
X114242992Y-94910741D01*
X114297630Y-94944040D01*
X114328163Y-95006885D01*
X114325656Y-95059549D01*
X114281895Y-95222866D01*
X114281893Y-95222877D01*
X114262023Y-95449998D01*
X114262023Y-95450001D01*
X114281893Y-95677122D01*
X114281894Y-95677129D01*
X114340902Y-95897349D01*
X114340903Y-95897351D01*
X114340904Y-95897354D01*
X114346553Y-95909468D01*
X114437259Y-96103989D01*
X114437261Y-96103993D01*
X114568027Y-96290746D01*
X114568032Y-96290752D01*
X114729247Y-96451967D01*
X114729253Y-96451972D01*
X114916006Y-96582738D01*
X114916008Y-96582739D01*
X114916011Y-96582741D01*
X114960688Y-96603574D01*
X114969360Y-96607618D01*
X115021800Y-96653790D01*
X115040952Y-96720983D01*
X115020737Y-96787865D01*
X114969361Y-96832382D01*
X114916013Y-96857258D01*
X114916011Y-96857259D01*
X114729246Y-96988032D01*
X114568032Y-97149246D01*
X114437259Y-97336011D01*
X114437258Y-97336013D01*
X114340905Y-97542642D01*
X114281894Y-97762870D01*
X114281893Y-97762877D01*
X114262023Y-97989998D01*
X114262023Y-97990001D01*
X114281893Y-98217122D01*
X114281894Y-98217129D01*
X114340902Y-98437349D01*
X114340903Y-98437351D01*
X114340904Y-98437354D01*
X114346553Y-98449468D01*
X114437259Y-98643989D01*
X114437261Y-98643993D01*
X114568027Y-98830746D01*
X114568032Y-98830752D01*
X114729247Y-98991967D01*
X114729253Y-98991972D01*
X114916006Y-99122738D01*
X114916008Y-99122739D01*
X114916011Y-99122741D01*
X114960340Y-99143412D01*
X114969360Y-99147618D01*
X115021800Y-99193790D01*
X115040952Y-99260983D01*
X115020737Y-99327865D01*
X114969361Y-99372382D01*
X114916013Y-99397258D01*
X114916011Y-99397259D01*
X114729246Y-99528032D01*
X114568032Y-99689246D01*
X114437259Y-99876011D01*
X114437258Y-99876013D01*
X114340905Y-100082642D01*
X114281894Y-100302870D01*
X114281893Y-100302877D01*
X114262023Y-100529998D01*
X114262023Y-100530001D01*
X114281893Y-100757122D01*
X114281894Y-100757129D01*
X114340902Y-100977349D01*
X114340903Y-100977351D01*
X114340904Y-100977354D01*
X114346553Y-100989468D01*
X114437259Y-101183989D01*
X114437261Y-101183993D01*
X114568027Y-101370746D01*
X114568032Y-101370752D01*
X114729247Y-101531967D01*
X114729253Y-101531972D01*
X114916006Y-101662738D01*
X114916008Y-101662739D01*
X114916011Y-101662741D01*
X115122646Y-101759096D01*
X115342872Y-101818106D01*
X115505106Y-101832299D01*
X115569998Y-101837977D01*
X115570000Y-101837977D01*
X115570002Y-101837977D01*
X115626782Y-101833009D01*
X115797128Y-101818106D01*
X116017354Y-101759096D01*
X116223989Y-101662741D01*
X116410751Y-101531969D01*
X116571969Y-101370751D01*
X116702741Y-101183989D01*
X116799096Y-100977354D01*
X116858106Y-100757128D01*
X116877977Y-100530000D01*
X116858106Y-100302872D01*
X116799096Y-100082646D01*
X116702741Y-99876012D01*
X116588911Y-99713445D01*
X116571970Y-99689250D01*
X116497533Y-99614813D01*
X116410751Y-99528031D01*
X116410747Y-99528028D01*
X116410746Y-99528027D01*
X116223993Y-99397261D01*
X116223985Y-99397257D01*
X116170640Y-99372382D01*
X116118200Y-99326210D01*
X116099048Y-99259017D01*
X116119263Y-99192135D01*
X116170640Y-99147618D01*
X116179655Y-99143414D01*
X116223989Y-99122741D01*
X116410751Y-98991969D01*
X116571969Y-98830751D01*
X116702741Y-98643989D01*
X116799096Y-98437354D01*
X116858106Y-98217128D01*
X116877977Y-97990000D01*
X116858106Y-97762872D01*
X116799096Y-97542646D01*
X116702741Y-97336012D01*
X116588911Y-97173445D01*
X116571970Y-97149250D01*
X116497533Y-97074813D01*
X116410751Y-96988031D01*
X116410747Y-96988028D01*
X116410746Y-96988027D01*
X116223993Y-96857261D01*
X116223985Y-96857257D01*
X116170640Y-96832382D01*
X116118200Y-96786210D01*
X116099048Y-96719017D01*
X116119263Y-96652135D01*
X116170640Y-96607618D01*
X116178276Y-96604057D01*
X116223989Y-96582741D01*
X116410751Y-96451969D01*
X116571969Y-96290751D01*
X116702741Y-96103989D01*
X116799096Y-95897354D01*
X116858106Y-95677128D01*
X116872724Y-95510041D01*
X116898176Y-95444973D01*
X116954767Y-95403994D01*
X117024529Y-95400116D01*
X117083932Y-95433167D01*
X135655666Y-114004902D01*
X154141738Y-132490974D01*
X154175223Y-132552297D01*
X154176530Y-132598053D01*
X154167138Y-132657351D01*
X154149500Y-132768713D01*
X154149500Y-133231287D01*
X154182754Y-133441243D01*
X154224896Y-133570943D01*
X154248444Y-133643414D01*
X154344951Y-133832820D01*
X154469890Y-134004786D01*
X154620213Y-134155109D01*
X154792179Y-134280048D01*
X154792181Y-134280049D01*
X154792184Y-134280051D01*
X154981588Y-134376557D01*
X155009999Y-134385788D01*
X155067675Y-134425226D01*
X155094873Y-134489584D01*
X155082958Y-134558431D01*
X155059362Y-134591400D01*
X148631286Y-141019478D01*
X148519481Y-141131282D01*
X148519475Y-141131290D01*
X148475295Y-141207814D01*
X148475295Y-141207815D01*
X148440423Y-141268214D01*
X148440423Y-141268215D01*
X148399499Y-141420943D01*
X148399499Y-141420945D01*
X148399499Y-141589046D01*
X148399500Y-141589059D01*
X148399500Y-161413330D01*
X148399499Y-161413348D01*
X148399499Y-161579054D01*
X148399498Y-161579054D01*
X148440423Y-161731785D01*
X148469358Y-161781900D01*
X148469359Y-161781904D01*
X148469360Y-161781904D01*
X148519479Y-161868714D01*
X148519481Y-161868717D01*
X148638349Y-161987585D01*
X148638355Y-161987590D01*
X149113181Y-162462416D01*
X149146666Y-162523739D01*
X149149500Y-162550097D01*
X149149501Y-163775500D01*
X149129816Y-163842539D01*
X149077013Y-163888294D01*
X149025501Y-163899500D01*
X142323424Y-163899500D01*
X142256385Y-163879815D01*
X142210630Y-163827011D01*
X142200686Y-163757853D01*
X142212939Y-163719206D01*
X142251554Y-163643417D01*
X142251557Y-163643412D01*
X142317246Y-163441243D01*
X142350500Y-163231287D01*
X142350500Y-162768713D01*
X142317246Y-162558757D01*
X142251557Y-162356588D01*
X142155051Y-162167184D01*
X142155049Y-162167181D01*
X142155048Y-162167179D01*
X142030109Y-161995213D01*
X141879786Y-161844890D01*
X141707820Y-161719951D01*
X141518414Y-161623444D01*
X141518413Y-161623443D01*
X141518412Y-161623443D01*
X141316243Y-161557754D01*
X141316241Y-161557753D01*
X141316240Y-161557753D01*
X141154957Y-161532208D01*
X141106287Y-161524500D01*
X140893713Y-161524500D01*
X140845042Y-161532208D01*
X140683760Y-161557753D01*
X140481585Y-161623444D01*
X140292179Y-161719951D01*
X140120213Y-161844890D01*
X139969890Y-161995213D01*
X139844951Y-162167179D01*
X139748444Y-162356585D01*
X139682753Y-162558760D01*
X139649500Y-162768713D01*
X139649500Y-163231286D01*
X139682753Y-163441239D01*
X139748445Y-163643417D01*
X139787061Y-163719206D01*
X139799957Y-163787875D01*
X139773680Y-163852615D01*
X139716574Y-163892872D01*
X139676576Y-163899500D01*
X137474500Y-163899500D01*
X137407461Y-163879815D01*
X137361706Y-163827011D01*
X137350500Y-163775500D01*
X137350499Y-162224998D01*
X137350498Y-162224981D01*
X137339999Y-162122203D01*
X137339998Y-162122200D01*
X137284814Y-161955666D01*
X137192712Y-161806344D01*
X137068656Y-161682288D01*
X136919334Y-161590186D01*
X136752797Y-161535001D01*
X136752795Y-161535000D01*
X136650010Y-161524500D01*
X135349998Y-161524500D01*
X135349981Y-161524501D01*
X135247203Y-161535000D01*
X135247200Y-161535001D01*
X135080668Y-161590185D01*
X135080663Y-161590187D01*
X134931342Y-161682289D01*
X134807289Y-161806342D01*
X134715187Y-161955663D01*
X134715186Y-161955666D01*
X134660001Y-162122203D01*
X134660001Y-162122204D01*
X134660000Y-162122204D01*
X134649500Y-162224983D01*
X134649500Y-162224996D01*
X134649501Y-163775500D01*
X134629816Y-163842539D01*
X134577013Y-163888294D01*
X134525501Y-163899500D01*
X127823424Y-163899500D01*
X127756385Y-163879815D01*
X127710630Y-163827011D01*
X127700686Y-163757853D01*
X127712939Y-163719206D01*
X127751554Y-163643417D01*
X127751557Y-163643412D01*
X127817246Y-163441243D01*
X127850500Y-163231287D01*
X127850500Y-162768713D01*
X127817246Y-162558757D01*
X127751557Y-162356588D01*
X127655051Y-162167184D01*
X127655049Y-162167181D01*
X127655048Y-162167179D01*
X127530109Y-161995213D01*
X127379786Y-161844890D01*
X127207820Y-161719951D01*
X127018414Y-161623444D01*
X127018413Y-161623443D01*
X127018412Y-161623443D01*
X126816243Y-161557754D01*
X126816241Y-161557753D01*
X126816240Y-161557753D01*
X126654957Y-161532208D01*
X126606287Y-161524500D01*
X126393713Y-161524500D01*
X126345042Y-161532208D01*
X126183760Y-161557753D01*
X125981585Y-161623444D01*
X125792179Y-161719951D01*
X125620213Y-161844890D01*
X125469890Y-161995213D01*
X125344951Y-162167179D01*
X125248444Y-162356585D01*
X125182753Y-162558760D01*
X125149500Y-162768713D01*
X125149500Y-163231286D01*
X125182753Y-163441239D01*
X125248445Y-163643417D01*
X125287061Y-163719206D01*
X125299957Y-163787875D01*
X125273680Y-163852615D01*
X125216574Y-163892872D01*
X125176576Y-163899500D01*
X122974500Y-163899500D01*
X122907461Y-163879815D01*
X122861706Y-163827011D01*
X122850500Y-163775500D01*
X122850499Y-162224998D01*
X122850498Y-162224981D01*
X122839999Y-162122203D01*
X122839998Y-162122200D01*
X122784814Y-161955666D01*
X122692712Y-161806344D01*
X122568656Y-161682288D01*
X122419334Y-161590186D01*
X122252797Y-161535001D01*
X122252795Y-161535000D01*
X122150010Y-161524500D01*
X120849998Y-161524500D01*
X120849981Y-161524501D01*
X120747203Y-161535000D01*
X120747200Y-161535001D01*
X120580668Y-161590185D01*
X120580663Y-161590187D01*
X120431342Y-161682289D01*
X120307289Y-161806342D01*
X120215187Y-161955663D01*
X120215186Y-161955666D01*
X120160001Y-162122203D01*
X120160001Y-162122204D01*
X120160000Y-162122204D01*
X120149500Y-162224983D01*
X120149500Y-162224996D01*
X120149501Y-163775500D01*
X120129816Y-163842539D01*
X120077013Y-163888294D01*
X120025501Y-163899500D01*
X113823424Y-163899500D01*
X113756385Y-163879815D01*
X113710630Y-163827011D01*
X113700686Y-163757853D01*
X113712939Y-163719206D01*
X113751554Y-163643417D01*
X113751557Y-163643412D01*
X113817246Y-163441243D01*
X113850500Y-163231287D01*
X113850500Y-162768713D01*
X113817246Y-162558757D01*
X113751557Y-162356588D01*
X113655051Y-162167184D01*
X113655049Y-162167181D01*
X113655048Y-162167179D01*
X113530109Y-161995213D01*
X113379786Y-161844890D01*
X113207820Y-161719951D01*
X113018414Y-161623444D01*
X113018413Y-161623443D01*
X113018412Y-161623443D01*
X112816243Y-161557754D01*
X112816241Y-161557753D01*
X112816240Y-161557753D01*
X112654957Y-161532208D01*
X112606287Y-161524500D01*
X112393713Y-161524500D01*
X112345042Y-161532208D01*
X112183760Y-161557753D01*
X111981585Y-161623444D01*
X111792179Y-161719951D01*
X111620213Y-161844890D01*
X111469890Y-161995213D01*
X111344951Y-162167179D01*
X111248444Y-162356585D01*
X111182753Y-162558760D01*
X111149500Y-162768713D01*
X111149500Y-163231286D01*
X111182753Y-163441239D01*
X111248445Y-163643417D01*
X111287061Y-163719206D01*
X111299957Y-163787875D01*
X111273680Y-163852615D01*
X111216574Y-163892872D01*
X111176576Y-163899500D01*
X108974500Y-163899500D01*
X108907461Y-163879815D01*
X108861706Y-163827011D01*
X108850500Y-163775500D01*
X108850499Y-162224998D01*
X108850498Y-162224981D01*
X108839999Y-162122203D01*
X108839998Y-162122200D01*
X108784814Y-161955666D01*
X108692712Y-161806344D01*
X108568656Y-161682288D01*
X108419334Y-161590186D01*
X108252797Y-161535001D01*
X108252795Y-161535000D01*
X108150010Y-161524500D01*
X106849998Y-161524500D01*
X106849981Y-161524501D01*
X106747203Y-161535000D01*
X106747200Y-161535001D01*
X106580668Y-161590185D01*
X106580663Y-161590187D01*
X106431342Y-161682289D01*
X106307289Y-161806342D01*
X106215187Y-161955663D01*
X106215186Y-161955666D01*
X106160001Y-162122203D01*
X106160001Y-162122204D01*
X106160000Y-162122204D01*
X106149500Y-162224983D01*
X106149500Y-162224996D01*
X106149501Y-163775500D01*
X106129816Y-163842539D01*
X106077013Y-163888294D01*
X106025501Y-163899500D01*
X105800098Y-163899500D01*
X105733059Y-163879815D01*
X105712417Y-163863181D01*
X105136819Y-163287583D01*
X105103334Y-163226260D01*
X105100500Y-163199902D01*
X105100500Y-152224983D01*
X106149500Y-152224983D01*
X106149500Y-153775001D01*
X106149501Y-153775018D01*
X106160000Y-153877796D01*
X106160001Y-153877799D01*
X106202081Y-154004786D01*
X106215186Y-154044334D01*
X106307288Y-154193656D01*
X106431344Y-154317712D01*
X106580666Y-154409814D01*
X106747203Y-154464999D01*
X106849991Y-154475500D01*
X108150008Y-154475499D01*
X108252797Y-154464999D01*
X108419334Y-154409814D01*
X108568656Y-154317712D01*
X108692712Y-154193656D01*
X108784814Y-154044334D01*
X108839999Y-153877797D01*
X108850500Y-153775009D01*
X108850499Y-152768713D01*
X111149500Y-152768713D01*
X111149500Y-153231287D01*
X111182754Y-153441243D01*
X111203402Y-153504792D01*
X111248444Y-153643414D01*
X111344951Y-153832820D01*
X111469890Y-154004786D01*
X111620213Y-154155109D01*
X111792179Y-154280048D01*
X111792181Y-154280049D01*
X111792184Y-154280051D01*
X111981588Y-154376557D01*
X112183757Y-154442246D01*
X112393713Y-154475500D01*
X112393714Y-154475500D01*
X112606286Y-154475500D01*
X112606287Y-154475500D01*
X112816243Y-154442246D01*
X113018412Y-154376557D01*
X113207816Y-154280051D01*
X113277998Y-154229061D01*
X113379786Y-154155109D01*
X113379788Y-154155106D01*
X113379792Y-154155104D01*
X113530104Y-154004792D01*
X113530106Y-154004788D01*
X113530109Y-154004786D01*
X113655048Y-153832820D01*
X113655047Y-153832820D01*
X113655051Y-153832816D01*
X113751557Y-153643412D01*
X113817246Y-153441243D01*
X113850500Y-153231287D01*
X113850500Y-152768713D01*
X113817246Y-152558757D01*
X113751557Y-152356588D01*
X113684501Y-152224983D01*
X120149500Y-152224983D01*
X120149500Y-153775001D01*
X120149501Y-153775018D01*
X120160000Y-153877796D01*
X120160001Y-153877799D01*
X120202081Y-154004786D01*
X120215186Y-154044334D01*
X120307288Y-154193656D01*
X120431344Y-154317712D01*
X120580666Y-154409814D01*
X120747203Y-154464999D01*
X120849991Y-154475500D01*
X122150008Y-154475499D01*
X122252797Y-154464999D01*
X122419334Y-154409814D01*
X122568656Y-154317712D01*
X122692712Y-154193656D01*
X122784814Y-154044334D01*
X122839999Y-153877797D01*
X122850500Y-153775009D01*
X122850499Y-152224992D01*
X122839999Y-152122203D01*
X122784814Y-151955666D01*
X122692712Y-151806344D01*
X122568656Y-151682288D01*
X122419334Y-151590186D01*
X122252797Y-151535001D01*
X122252795Y-151535000D01*
X122150010Y-151524500D01*
X120849998Y-151524500D01*
X120849981Y-151524501D01*
X120747203Y-151535000D01*
X120747200Y-151535001D01*
X120580668Y-151590185D01*
X120580663Y-151590187D01*
X120431342Y-151682289D01*
X120307289Y-151806342D01*
X120215187Y-151955663D01*
X120215186Y-151955666D01*
X120160001Y-152122203D01*
X120160001Y-152122204D01*
X120160000Y-152122204D01*
X120149500Y-152224983D01*
X113684501Y-152224983D01*
X113655051Y-152167184D01*
X113655049Y-152167181D01*
X113655048Y-152167179D01*
X113530109Y-151995213D01*
X113379786Y-151844890D01*
X113207820Y-151719951D01*
X113018414Y-151623444D01*
X113018413Y-151623443D01*
X113018412Y-151623443D01*
X112816243Y-151557754D01*
X112816241Y-151557753D01*
X112816240Y-151557753D01*
X112635197Y-151529079D01*
X112606287Y-151524500D01*
X112393713Y-151524500D01*
X112364803Y-151529079D01*
X112183760Y-151557753D01*
X111981585Y-151623444D01*
X111792179Y-151719951D01*
X111620213Y-151844890D01*
X111469890Y-151995213D01*
X111344951Y-152167179D01*
X111248444Y-152356585D01*
X111182753Y-152558760D01*
X111155428Y-152731286D01*
X111149500Y-152768713D01*
X108850499Y-152768713D01*
X108850499Y-152224992D01*
X108839999Y-152122203D01*
X108784814Y-151955666D01*
X108692712Y-151806344D01*
X108568656Y-151682288D01*
X108419334Y-151590186D01*
X108252797Y-151535001D01*
X108252795Y-151535000D01*
X108150010Y-151524500D01*
X106849998Y-151524500D01*
X106849981Y-151524501D01*
X106747203Y-151535000D01*
X106747200Y-151535001D01*
X106580668Y-151590185D01*
X106580663Y-151590187D01*
X106431342Y-151682289D01*
X106307289Y-151806342D01*
X106215187Y-151955663D01*
X106215186Y-151955666D01*
X106160001Y-152122203D01*
X106160001Y-152122204D01*
X106160000Y-152122204D01*
X106149500Y-152224983D01*
X105100500Y-152224983D01*
X105100500Y-142224983D01*
X106149500Y-142224983D01*
X106149500Y-143775001D01*
X106149501Y-143775018D01*
X106160000Y-143877796D01*
X106160001Y-143877799D01*
X106202081Y-144004786D01*
X106215186Y-144044334D01*
X106307288Y-144193656D01*
X106431344Y-144317712D01*
X106580666Y-144409814D01*
X106747203Y-144464999D01*
X106849991Y-144475500D01*
X108150008Y-144475499D01*
X108252797Y-144464999D01*
X108419334Y-144409814D01*
X108568656Y-144317712D01*
X108692712Y-144193656D01*
X108784814Y-144044334D01*
X108839999Y-143877797D01*
X108850500Y-143775009D01*
X108850499Y-142768713D01*
X111149500Y-142768713D01*
X111149500Y-143231286D01*
X111164755Y-143327606D01*
X111182754Y-143441243D01*
X111247937Y-143641856D01*
X111248444Y-143643414D01*
X111344951Y-143832820D01*
X111469890Y-144004786D01*
X111620213Y-144155109D01*
X111792179Y-144280048D01*
X111792181Y-144280049D01*
X111792184Y-144280051D01*
X111981588Y-144376557D01*
X112183757Y-144442246D01*
X112393713Y-144475500D01*
X112393714Y-144475500D01*
X112606286Y-144475500D01*
X112606287Y-144475500D01*
X112816243Y-144442246D01*
X113018412Y-144376557D01*
X113207816Y-144280051D01*
X113258160Y-144243474D01*
X113379786Y-144155109D01*
X113379788Y-144155106D01*
X113379792Y-144155104D01*
X113530104Y-144004792D01*
X113530106Y-144004788D01*
X113530109Y-144004786D01*
X113655048Y-143832820D01*
X113655047Y-143832820D01*
X113655051Y-143832816D01*
X113751557Y-143643412D01*
X113817246Y-143441243D01*
X113850500Y-143231287D01*
X113850500Y-142768713D01*
X113817246Y-142558757D01*
X113751557Y-142356588D01*
X113655051Y-142167184D01*
X113655049Y-142167181D01*
X113655048Y-142167179D01*
X113530109Y-141995213D01*
X113379786Y-141844890D01*
X113207820Y-141719951D01*
X113018414Y-141623444D01*
X113018413Y-141623443D01*
X113018412Y-141623443D01*
X112816243Y-141557754D01*
X112816241Y-141557753D01*
X112816240Y-141557753D01*
X112641669Y-141530104D01*
X112606287Y-141524500D01*
X112393713Y-141524500D01*
X112358331Y-141530104D01*
X112183760Y-141557753D01*
X111981585Y-141623444D01*
X111792179Y-141719951D01*
X111620213Y-141844890D01*
X111469890Y-141995213D01*
X111344951Y-142167179D01*
X111248444Y-142356585D01*
X111182753Y-142558760D01*
X111149500Y-142768713D01*
X108850499Y-142768713D01*
X108850499Y-142224992D01*
X108839999Y-142122203D01*
X108784814Y-141955666D01*
X108692712Y-141806344D01*
X108568656Y-141682288D01*
X108419334Y-141590186D01*
X108252797Y-141535001D01*
X108252795Y-141535000D01*
X108150010Y-141524500D01*
X106849998Y-141524500D01*
X106849981Y-141524501D01*
X106747203Y-141535000D01*
X106747200Y-141535001D01*
X106580668Y-141590185D01*
X106580663Y-141590187D01*
X106431342Y-141682289D01*
X106307289Y-141806342D01*
X106215187Y-141955663D01*
X106215186Y-141955666D01*
X106160001Y-142122203D01*
X106160001Y-142122204D01*
X106160000Y-142122204D01*
X106149500Y-142224983D01*
X105100500Y-142224983D01*
X105100500Y-131749097D01*
X105120185Y-131682058D01*
X105172989Y-131636303D01*
X105242147Y-131626359D01*
X105305703Y-131655384D01*
X105312181Y-131661416D01*
X106113181Y-132462416D01*
X106146666Y-132523739D01*
X106149500Y-132550097D01*
X106149500Y-133775001D01*
X106149501Y-133775018D01*
X106160000Y-133877796D01*
X106160001Y-133877799D01*
X106161322Y-133881785D01*
X106215186Y-134044334D01*
X106307288Y-134193656D01*
X106431344Y-134317712D01*
X106580666Y-134409814D01*
X106747203Y-134464999D01*
X106849991Y-134475500D01*
X108150008Y-134475499D01*
X108252797Y-134464999D01*
X108419334Y-134409814D01*
X108419339Y-134409811D01*
X108423245Y-134407402D01*
X108490637Y-134388961D01*
X108557301Y-134409883D01*
X108576024Y-134425259D01*
X125735005Y-151584240D01*
X125768490Y-151645563D01*
X125763506Y-151715255D01*
X125721634Y-151771188D01*
X125720210Y-151772239D01*
X125620209Y-151844894D01*
X125469890Y-151995213D01*
X125344951Y-152167179D01*
X125248444Y-152356585D01*
X125182753Y-152558760D01*
X125155428Y-152731286D01*
X125149500Y-152768713D01*
X125149500Y-153231287D01*
X125182754Y-153441243D01*
X125203402Y-153504792D01*
X125248444Y-153643414D01*
X125344951Y-153832820D01*
X125469890Y-154004786D01*
X125620213Y-154155109D01*
X125792179Y-154280048D01*
X125792181Y-154280049D01*
X125792184Y-154280051D01*
X125981588Y-154376557D01*
X126183757Y-154442246D01*
X126393713Y-154475500D01*
X126393714Y-154475500D01*
X126606286Y-154475500D01*
X126606287Y-154475500D01*
X126816243Y-154442246D01*
X127018412Y-154376557D01*
X127207816Y-154280051D01*
X127277998Y-154229061D01*
X127379786Y-154155109D01*
X127379788Y-154155106D01*
X127379792Y-154155104D01*
X127530104Y-154004792D01*
X127530106Y-154004788D01*
X127530109Y-154004786D01*
X127655048Y-153832820D01*
X127655047Y-153832820D01*
X127655051Y-153832816D01*
X127751557Y-153643412D01*
X127817246Y-153441243D01*
X127850500Y-153231287D01*
X127850500Y-152768713D01*
X127817246Y-152558757D01*
X127794195Y-152487816D01*
X127792201Y-152417977D01*
X127828281Y-152358144D01*
X127890982Y-152327316D01*
X127912127Y-152325500D01*
X134424903Y-152325500D01*
X134491942Y-152345185D01*
X134512584Y-152361819D01*
X134613181Y-152462416D01*
X134646666Y-152523739D01*
X134649500Y-152550097D01*
X134649500Y-153775001D01*
X134649501Y-153775018D01*
X134660000Y-153877796D01*
X134660001Y-153877799D01*
X134702081Y-154004786D01*
X134715186Y-154044334D01*
X134807288Y-154193656D01*
X134931344Y-154317712D01*
X135080666Y-154409814D01*
X135247203Y-154464999D01*
X135349991Y-154475500D01*
X136650008Y-154475499D01*
X136752797Y-154464999D01*
X136919334Y-154409814D01*
X137068656Y-154317712D01*
X137192712Y-154193656D01*
X137284814Y-154044334D01*
X137339999Y-153877797D01*
X137350500Y-153775009D01*
X137350499Y-152768713D01*
X139649500Y-152768713D01*
X139649500Y-153231287D01*
X139682754Y-153441243D01*
X139703402Y-153504792D01*
X139748444Y-153643414D01*
X139844951Y-153832820D01*
X139969890Y-154004786D01*
X140120213Y-154155109D01*
X140292179Y-154280048D01*
X140292181Y-154280049D01*
X140292184Y-154280051D01*
X140481588Y-154376557D01*
X140683757Y-154442246D01*
X140893713Y-154475500D01*
X140893714Y-154475500D01*
X141106286Y-154475500D01*
X141106287Y-154475500D01*
X141316243Y-154442246D01*
X141518412Y-154376557D01*
X141707816Y-154280051D01*
X141777998Y-154229061D01*
X141879786Y-154155109D01*
X141879788Y-154155106D01*
X141879792Y-154155104D01*
X142030104Y-154004792D01*
X142030106Y-154004788D01*
X142030109Y-154004786D01*
X142155048Y-153832820D01*
X142155047Y-153832820D01*
X142155051Y-153832816D01*
X142251557Y-153643412D01*
X142317246Y-153441243D01*
X142350500Y-153231287D01*
X142350500Y-152768713D01*
X142317246Y-152558757D01*
X142251557Y-152356588D01*
X142155051Y-152167184D01*
X142155049Y-152167181D01*
X142155048Y-152167179D01*
X142030109Y-151995213D01*
X141879786Y-151844890D01*
X141707820Y-151719951D01*
X141518414Y-151623444D01*
X141518413Y-151623443D01*
X141518412Y-151623443D01*
X141316243Y-151557754D01*
X141316241Y-151557753D01*
X141316240Y-151557753D01*
X141135197Y-151529079D01*
X141106287Y-151524500D01*
X140893713Y-151524500D01*
X140864803Y-151529079D01*
X140683760Y-151557753D01*
X140481585Y-151623444D01*
X140292179Y-151719951D01*
X140120213Y-151844890D01*
X139969890Y-151995213D01*
X139844951Y-152167179D01*
X139748444Y-152356585D01*
X139682753Y-152558760D01*
X139655428Y-152731286D01*
X139649500Y-152768713D01*
X137350499Y-152768713D01*
X137350499Y-152224992D01*
X137339999Y-152122203D01*
X137284814Y-151955666D01*
X137192712Y-151806344D01*
X137068656Y-151682288D01*
X136919334Y-151590186D01*
X136752797Y-151535001D01*
X136752795Y-151535000D01*
X136650016Y-151524500D01*
X136650009Y-151524500D01*
X135425097Y-151524500D01*
X135358058Y-151504815D01*
X135337416Y-151488181D01*
X135212590Y-151363355D01*
X135212588Y-151363352D01*
X135093717Y-151244481D01*
X135093716Y-151244480D01*
X135006904Y-151194360D01*
X135006904Y-151194359D01*
X135006900Y-151194358D01*
X134956785Y-151165423D01*
X134804057Y-151124499D01*
X134645943Y-151124499D01*
X134638347Y-151124499D01*
X134638331Y-151124500D01*
X127025097Y-151124500D01*
X126958058Y-151104815D01*
X126937416Y-151088181D01*
X120469616Y-144620381D01*
X120436131Y-144559058D01*
X120441115Y-144489366D01*
X120482987Y-144433433D01*
X120548451Y-144409016D01*
X120596296Y-144414993D01*
X120747203Y-144464999D01*
X120849991Y-144475500D01*
X122150008Y-144475499D01*
X122252797Y-144464999D01*
X122419334Y-144409814D01*
X122568656Y-144317712D01*
X122692712Y-144193656D01*
X122784814Y-144044334D01*
X122839999Y-143877797D01*
X122850500Y-143775009D01*
X122850499Y-142768713D01*
X125149500Y-142768713D01*
X125149500Y-143231286D01*
X125164755Y-143327606D01*
X125182754Y-143441243D01*
X125247937Y-143641856D01*
X125248444Y-143643414D01*
X125344951Y-143832820D01*
X125469890Y-144004786D01*
X125620213Y-144155109D01*
X125792179Y-144280048D01*
X125792181Y-144280049D01*
X125792184Y-144280051D01*
X125981588Y-144376557D01*
X126183757Y-144442246D01*
X126393713Y-144475500D01*
X126393714Y-144475500D01*
X126606286Y-144475500D01*
X126606287Y-144475500D01*
X126816243Y-144442246D01*
X127018412Y-144376557D01*
X127207816Y-144280051D01*
X127258160Y-144243474D01*
X127379786Y-144155109D01*
X127379788Y-144155106D01*
X127379792Y-144155104D01*
X127530104Y-144004792D01*
X127530106Y-144004788D01*
X127530109Y-144004786D01*
X127655048Y-143832820D01*
X127655047Y-143832820D01*
X127655051Y-143832816D01*
X127751557Y-143643412D01*
X127817246Y-143441243D01*
X127850500Y-143231287D01*
X127850500Y-142768713D01*
X127817246Y-142558757D01*
X127751557Y-142356588D01*
X127684501Y-142224983D01*
X134649500Y-142224983D01*
X134649500Y-143775001D01*
X134649501Y-143775018D01*
X134660000Y-143877796D01*
X134660001Y-143877799D01*
X134702081Y-144004786D01*
X134715186Y-144044334D01*
X134807288Y-144193656D01*
X134931344Y-144317712D01*
X135080666Y-144409814D01*
X135247203Y-144464999D01*
X135349991Y-144475500D01*
X136650008Y-144475499D01*
X136752797Y-144464999D01*
X136919334Y-144409814D01*
X137068656Y-144317712D01*
X137192712Y-144193656D01*
X137284814Y-144044334D01*
X137339999Y-143877797D01*
X137350500Y-143775009D01*
X137350499Y-142768713D01*
X139649500Y-142768713D01*
X139649500Y-143231286D01*
X139664755Y-143327606D01*
X139682754Y-143441243D01*
X139747937Y-143641856D01*
X139748444Y-143643414D01*
X139844951Y-143832820D01*
X139969890Y-144004786D01*
X140120213Y-144155109D01*
X140292179Y-144280048D01*
X140292181Y-144280049D01*
X140292184Y-144280051D01*
X140481588Y-144376557D01*
X140683757Y-144442246D01*
X140893713Y-144475500D01*
X140893714Y-144475500D01*
X141106286Y-144475500D01*
X141106287Y-144475500D01*
X141316243Y-144442246D01*
X141518412Y-144376557D01*
X141707816Y-144280051D01*
X141758160Y-144243474D01*
X141879786Y-144155109D01*
X141879788Y-144155106D01*
X141879792Y-144155104D01*
X142030104Y-144004792D01*
X142030106Y-144004788D01*
X142030109Y-144004786D01*
X142155048Y-143832820D01*
X142155047Y-143832820D01*
X142155051Y-143832816D01*
X142251557Y-143643412D01*
X142317246Y-143441243D01*
X142350500Y-143231287D01*
X142350500Y-142768713D01*
X142317246Y-142558757D01*
X142251557Y-142356588D01*
X142155051Y-142167184D01*
X142155049Y-142167181D01*
X142155048Y-142167179D01*
X142030109Y-141995213D01*
X141879786Y-141844890D01*
X141707820Y-141719951D01*
X141518414Y-141623444D01*
X141518413Y-141623443D01*
X141518412Y-141623443D01*
X141316243Y-141557754D01*
X141316241Y-141557753D01*
X141316240Y-141557753D01*
X141141669Y-141530104D01*
X141106287Y-141524500D01*
X140893713Y-141524500D01*
X140858331Y-141530104D01*
X140683760Y-141557753D01*
X140481585Y-141623444D01*
X140292179Y-141719951D01*
X140120213Y-141844890D01*
X139969890Y-141995213D01*
X139844951Y-142167179D01*
X139748444Y-142356585D01*
X139682753Y-142558760D01*
X139649500Y-142768713D01*
X137350499Y-142768713D01*
X137350499Y-142224992D01*
X137339999Y-142122203D01*
X137284814Y-141955666D01*
X137192712Y-141806344D01*
X137068656Y-141682288D01*
X136919334Y-141590186D01*
X136752797Y-141535001D01*
X136752795Y-141535000D01*
X136650010Y-141524500D01*
X135349998Y-141524500D01*
X135349981Y-141524501D01*
X135247203Y-141535000D01*
X135247200Y-141535001D01*
X135080668Y-141590185D01*
X135080663Y-141590187D01*
X134931342Y-141682289D01*
X134807289Y-141806342D01*
X134715187Y-141955663D01*
X134715186Y-141955666D01*
X134660001Y-142122203D01*
X134660001Y-142122204D01*
X134660000Y-142122204D01*
X134649500Y-142224983D01*
X127684501Y-142224983D01*
X127655051Y-142167184D01*
X127655049Y-142167181D01*
X127655048Y-142167179D01*
X127530109Y-141995213D01*
X127379786Y-141844890D01*
X127207820Y-141719951D01*
X127018414Y-141623444D01*
X127018413Y-141623443D01*
X127018412Y-141623443D01*
X126816243Y-141557754D01*
X126816241Y-141557753D01*
X126816240Y-141557753D01*
X126641669Y-141530104D01*
X126606287Y-141524500D01*
X126393713Y-141524500D01*
X126358331Y-141530104D01*
X126183760Y-141557753D01*
X125981585Y-141623444D01*
X125792179Y-141719951D01*
X125620213Y-141844890D01*
X125469890Y-141995213D01*
X125344951Y-142167179D01*
X125248444Y-142356585D01*
X125182753Y-142558760D01*
X125149500Y-142768713D01*
X122850499Y-142768713D01*
X122850499Y-142224992D01*
X122839999Y-142122203D01*
X122784814Y-141955666D01*
X122692712Y-141806344D01*
X122568656Y-141682288D01*
X122419334Y-141590186D01*
X122252797Y-141535001D01*
X122252795Y-141535000D01*
X122150010Y-141524500D01*
X120849998Y-141524500D01*
X120849981Y-141524501D01*
X120747203Y-141535000D01*
X120747200Y-141535001D01*
X120580668Y-141590185D01*
X120580663Y-141590187D01*
X120431342Y-141682289D01*
X120307289Y-141806342D01*
X120215187Y-141955663D01*
X120215186Y-141955666D01*
X120160001Y-142122203D01*
X120160001Y-142122204D01*
X120160000Y-142122204D01*
X120149500Y-142224983D01*
X120149500Y-143775001D01*
X120149501Y-143775018D01*
X120160000Y-143877796D01*
X120160001Y-143877799D01*
X120210005Y-144028698D01*
X120212407Y-144098526D01*
X120176675Y-144158568D01*
X120114155Y-144189761D01*
X120044696Y-144182201D01*
X120004618Y-144155383D01*
X109286819Y-133437584D01*
X109253334Y-133376261D01*
X109250500Y-133349903D01*
X109250500Y-132768713D01*
X111149500Y-132768713D01*
X111149500Y-133231287D01*
X111182754Y-133441243D01*
X111224896Y-133570943D01*
X111248444Y-133643414D01*
X111344951Y-133832820D01*
X111469890Y-134004786D01*
X111620213Y-134155109D01*
X111792179Y-134280048D01*
X111792181Y-134280049D01*
X111792184Y-134280051D01*
X111981588Y-134376557D01*
X112183757Y-134442246D01*
X112393713Y-134475500D01*
X112393714Y-134475500D01*
X112606286Y-134475500D01*
X112606287Y-134475500D01*
X112816243Y-134442246D01*
X113018412Y-134376557D01*
X113207816Y-134280051D01*
X113251321Y-134248443D01*
X113379786Y-134155109D01*
X113379788Y-134155106D01*
X113379792Y-134155104D01*
X113530104Y-134004792D01*
X113530106Y-134004788D01*
X113530109Y-134004786D01*
X113655048Y-133832820D01*
X113655047Y-133832820D01*
X113655051Y-133832816D01*
X113751557Y-133643412D01*
X113817246Y-133441243D01*
X113850500Y-133231287D01*
X113850500Y-132768713D01*
X113817246Y-132558757D01*
X113751557Y-132356588D01*
X113655051Y-132167184D01*
X113655049Y-132167181D01*
X113655048Y-132167179D01*
X113530109Y-131995213D01*
X113379786Y-131844890D01*
X113207820Y-131719951D01*
X113018414Y-131623444D01*
X113018413Y-131623443D01*
X113018412Y-131623443D01*
X112816243Y-131557754D01*
X112816241Y-131557753D01*
X112816240Y-131557753D01*
X112654957Y-131532208D01*
X112606287Y-131524500D01*
X112393713Y-131524500D01*
X112345042Y-131532208D01*
X112183760Y-131557753D01*
X111981585Y-131623444D01*
X111792179Y-131719951D01*
X111620213Y-131844890D01*
X111469890Y-131995213D01*
X111344951Y-132167179D01*
X111248444Y-132356585D01*
X111182753Y-132558760D01*
X111167138Y-132657351D01*
X111149500Y-132768713D01*
X109250500Y-132768713D01*
X109250500Y-120739059D01*
X109250501Y-120739046D01*
X109250501Y-120570945D01*
X109250501Y-120570943D01*
X109209577Y-120418215D01*
X109180639Y-120368095D01*
X109130520Y-120281284D01*
X109018716Y-120169480D01*
X109018715Y-120169479D01*
X109014385Y-120165149D01*
X109014374Y-120165139D01*
X108488204Y-119638969D01*
X108454719Y-119577646D01*
X108459703Y-119507954D01*
X108501575Y-119452021D01*
X108523470Y-119438911D01*
X108585167Y-119410142D01*
X108766555Y-119283132D01*
X108923132Y-119126555D01*
X109050142Y-118945167D01*
X109107618Y-118821907D01*
X109153790Y-118769468D01*
X109220983Y-118750316D01*
X109287864Y-118770531D01*
X109332381Y-118821907D01*
X109389858Y-118945167D01*
X109516868Y-119126555D01*
X109673445Y-119283132D01*
X109854833Y-119410142D01*
X109952465Y-119455668D01*
X110055513Y-119503720D01*
X110055515Y-119503720D01*
X110055520Y-119503723D01*
X110269409Y-119561035D01*
X110426974Y-119574820D01*
X110489998Y-119580334D01*
X110490000Y-119580334D01*
X110490002Y-119580334D01*
X110520724Y-119577646D01*
X110710591Y-119561035D01*
X110784352Y-119541270D01*
X110854201Y-119542931D01*
X110904128Y-119573363D01*
X120863181Y-129532416D01*
X120896666Y-129593739D01*
X120899500Y-129620097D01*
X120899500Y-131407465D01*
X120879815Y-131474504D01*
X120827011Y-131520259D01*
X120788102Y-131530823D01*
X120747202Y-131535001D01*
X120747200Y-131535001D01*
X120580668Y-131590185D01*
X120580663Y-131590187D01*
X120431342Y-131682289D01*
X120307289Y-131806342D01*
X120215187Y-131955663D01*
X120215186Y-131955666D01*
X120160001Y-132122203D01*
X120160001Y-132122204D01*
X120160000Y-132122204D01*
X120149500Y-132224983D01*
X120149500Y-133775001D01*
X120149501Y-133775018D01*
X120160000Y-133877796D01*
X120160001Y-133877799D01*
X120161322Y-133881785D01*
X120215186Y-134044334D01*
X120307288Y-134193656D01*
X120431344Y-134317712D01*
X120580666Y-134409814D01*
X120747203Y-134464999D01*
X120849991Y-134475500D01*
X122150008Y-134475499D01*
X122252797Y-134464999D01*
X122419334Y-134409814D01*
X122568656Y-134317712D01*
X122692712Y-134193656D01*
X122784814Y-134044334D01*
X122839999Y-133877797D01*
X122850500Y-133775009D01*
X122850499Y-132768713D01*
X125149500Y-132768713D01*
X125149500Y-133231287D01*
X125182754Y-133441243D01*
X125224896Y-133570943D01*
X125248444Y-133643414D01*
X125344951Y-133832820D01*
X125469890Y-134004786D01*
X125620213Y-134155109D01*
X125792179Y-134280048D01*
X125792181Y-134280049D01*
X125792184Y-134280051D01*
X125981588Y-134376557D01*
X126183757Y-134442246D01*
X126393713Y-134475500D01*
X126393714Y-134475500D01*
X126606286Y-134475500D01*
X126606287Y-134475500D01*
X126816243Y-134442246D01*
X127018412Y-134376557D01*
X127207816Y-134280051D01*
X127251321Y-134248443D01*
X127379786Y-134155109D01*
X127379788Y-134155106D01*
X127379792Y-134155104D01*
X127530104Y-134004792D01*
X127530106Y-134004788D01*
X127530109Y-134004786D01*
X127655048Y-133832820D01*
X127655047Y-133832820D01*
X127655051Y-133832816D01*
X127751557Y-133643412D01*
X127817246Y-133441243D01*
X127850500Y-133231287D01*
X127850500Y-132768713D01*
X127817246Y-132558757D01*
X127751557Y-132356588D01*
X127655051Y-132167184D01*
X127655049Y-132167181D01*
X127655048Y-132167179D01*
X127530109Y-131995213D01*
X127379786Y-131844890D01*
X127207820Y-131719951D01*
X127018414Y-131623444D01*
X127018413Y-131623443D01*
X127018412Y-131623443D01*
X126816243Y-131557754D01*
X126816241Y-131557753D01*
X126816240Y-131557753D01*
X126654957Y-131532208D01*
X126606287Y-131524500D01*
X126393713Y-131524500D01*
X126345042Y-131532208D01*
X126183760Y-131557753D01*
X125981585Y-131623444D01*
X125792179Y-131719951D01*
X125620213Y-131844890D01*
X125469890Y-131995213D01*
X125344951Y-132167179D01*
X125248444Y-132356585D01*
X125182753Y-132558760D01*
X125167138Y-132657351D01*
X125149500Y-132768713D01*
X122850499Y-132768713D01*
X122850499Y-132224992D01*
X122839999Y-132122203D01*
X122784814Y-131955666D01*
X122692712Y-131806344D01*
X122568656Y-131682288D01*
X122473253Y-131623443D01*
X122419336Y-131590187D01*
X122419331Y-131590185D01*
X122417862Y-131589698D01*
X122252797Y-131535001D01*
X122252795Y-131535000D01*
X122211896Y-131530822D01*
X122147205Y-131504425D01*
X122107054Y-131447244D01*
X122100500Y-131407464D01*
X122100500Y-129240945D01*
X122100500Y-129240943D01*
X122062869Y-129100500D01*
X122062869Y-129100499D01*
X122062869Y-129100498D01*
X122059579Y-129088220D01*
X122059578Y-129088217D01*
X121997399Y-128980520D01*
X121997398Y-128980518D01*
X121980522Y-128951287D01*
X121980521Y-128951286D01*
X121980520Y-128951284D01*
X121868716Y-128839480D01*
X121868715Y-128839479D01*
X121864385Y-128835149D01*
X121864374Y-128835139D01*
X111753363Y-118724128D01*
X111719878Y-118662805D01*
X111721270Y-118604351D01*
X111741034Y-118530595D01*
X111741034Y-118530594D01*
X111741035Y-118530591D01*
X111760334Y-118310000D01*
X111741035Y-118089409D01*
X111683723Y-117875520D01*
X111671574Y-117849467D01*
X111590143Y-117674836D01*
X111590142Y-117674834D01*
X111590142Y-117674833D01*
X111585444Y-117668123D01*
X111563117Y-117601917D01*
X111580128Y-117534149D01*
X111631076Y-117486337D01*
X111687019Y-117473000D01*
X114328147Y-117473000D01*
X114395186Y-117492685D01*
X114440941Y-117545489D01*
X114450885Y-117614647D01*
X114438444Y-117650592D01*
X114439547Y-117651106D01*
X114340905Y-117862642D01*
X114281894Y-118082870D01*
X114281893Y-118082877D01*
X114262023Y-118309998D01*
X114262023Y-118310001D01*
X114281893Y-118537122D01*
X114281894Y-118537129D01*
X114340902Y-118757349D01*
X114340903Y-118757351D01*
X114340904Y-118757354D01*
X114427315Y-118942664D01*
X114437259Y-118963989D01*
X114437261Y-118963993D01*
X114568027Y-119150746D01*
X114568032Y-119150752D01*
X114729247Y-119311967D01*
X114729253Y-119311972D01*
X114916006Y-119442738D01*
X114916008Y-119442739D01*
X114916011Y-119442741D01*
X115122646Y-119539096D01*
X115342872Y-119598106D01*
X115505106Y-119612299D01*
X115569998Y-119617977D01*
X115570000Y-119617977D01*
X115570002Y-119617977D01*
X115626899Y-119612999D01*
X115797128Y-119598106D01*
X116017354Y-119539096D01*
X116223989Y-119442741D01*
X116410751Y-119311969D01*
X116571969Y-119150751D01*
X116702741Y-118963989D01*
X116799096Y-118757354D01*
X116858106Y-118537128D01*
X116877977Y-118310000D01*
X116858106Y-118082872D01*
X116799096Y-117862646D01*
X116702741Y-117656012D01*
X116702740Y-117656010D01*
X116700453Y-117651106D01*
X116702336Y-117650227D01*
X116687994Y-117591096D01*
X116710848Y-117525070D01*
X116765771Y-117481881D01*
X116811853Y-117473000D01*
X119572403Y-117473000D01*
X119639442Y-117492685D01*
X119660084Y-117509319D01*
X134613181Y-132462416D01*
X134646666Y-132523739D01*
X134649500Y-132550097D01*
X134649500Y-133775001D01*
X134649501Y-133775018D01*
X134660000Y-133877796D01*
X134660001Y-133877799D01*
X134661322Y-133881785D01*
X134715186Y-134044334D01*
X134807288Y-134193656D01*
X134931344Y-134317712D01*
X135080666Y-134409814D01*
X135247203Y-134464999D01*
X135349991Y-134475500D01*
X136650008Y-134475499D01*
X136752797Y-134464999D01*
X136919334Y-134409814D01*
X137068656Y-134317712D01*
X137192712Y-134193656D01*
X137284814Y-134044334D01*
X137339999Y-133877797D01*
X137350500Y-133775009D01*
X137350499Y-132768713D01*
X139649500Y-132768713D01*
X139649500Y-133231287D01*
X139682754Y-133441243D01*
X139724896Y-133570943D01*
X139748444Y-133643414D01*
X139844951Y-133832820D01*
X139969890Y-134004786D01*
X140120213Y-134155109D01*
X140292179Y-134280048D01*
X140292181Y-134280049D01*
X140292184Y-134280051D01*
X140481588Y-134376557D01*
X140683757Y-134442246D01*
X140893713Y-134475500D01*
X140893714Y-134475500D01*
X141106286Y-134475500D01*
X141106287Y-134475500D01*
X141316243Y-134442246D01*
X141518412Y-134376557D01*
X141707816Y-134280051D01*
X141751321Y-134248443D01*
X141879786Y-134155109D01*
X141879788Y-134155106D01*
X141879792Y-134155104D01*
X142030104Y-134004792D01*
X142030106Y-134004788D01*
X142030109Y-134004786D01*
X142155048Y-133832820D01*
X142155047Y-133832820D01*
X142155051Y-133832816D01*
X142251557Y-133643412D01*
X142317246Y-133441243D01*
X142350500Y-133231287D01*
X142350500Y-132768713D01*
X142317246Y-132558757D01*
X142251557Y-132356588D01*
X142184501Y-132224983D01*
X149149500Y-132224983D01*
X149149500Y-133775001D01*
X149149501Y-133775018D01*
X149160000Y-133877796D01*
X149160001Y-133877799D01*
X149161322Y-133881785D01*
X149215186Y-134044334D01*
X149307288Y-134193656D01*
X149431344Y-134317712D01*
X149580666Y-134409814D01*
X149747203Y-134464999D01*
X149849991Y-134475500D01*
X151150008Y-134475499D01*
X151252797Y-134464999D01*
X151419334Y-134409814D01*
X151568656Y-134317712D01*
X151692712Y-134193656D01*
X151784814Y-134044334D01*
X151839999Y-133877797D01*
X151850500Y-133775009D01*
X151850499Y-132224992D01*
X151839999Y-132122203D01*
X151784814Y-131955666D01*
X151692712Y-131806344D01*
X151568656Y-131682288D01*
X151473253Y-131623443D01*
X151419336Y-131590187D01*
X151419331Y-131590185D01*
X151417862Y-131589698D01*
X151252797Y-131535001D01*
X151252795Y-131535000D01*
X151150010Y-131524500D01*
X149849998Y-131524500D01*
X149849981Y-131524501D01*
X149747203Y-131535000D01*
X149747200Y-131535001D01*
X149580668Y-131590185D01*
X149580663Y-131590187D01*
X149431342Y-131682289D01*
X149307289Y-131806342D01*
X149215187Y-131955663D01*
X149215186Y-131955666D01*
X149160001Y-132122203D01*
X149160001Y-132122204D01*
X149160000Y-132122204D01*
X149149500Y-132224983D01*
X142184501Y-132224983D01*
X142155051Y-132167184D01*
X142155049Y-132167181D01*
X142155048Y-132167179D01*
X142030109Y-131995213D01*
X141879786Y-131844890D01*
X141707820Y-131719951D01*
X141518414Y-131623444D01*
X141518413Y-131623443D01*
X141518412Y-131623443D01*
X141316243Y-131557754D01*
X141316241Y-131557753D01*
X141316240Y-131557753D01*
X141154957Y-131532208D01*
X141106287Y-131524500D01*
X140893713Y-131524500D01*
X140845042Y-131532208D01*
X140683760Y-131557753D01*
X140481585Y-131623444D01*
X140292179Y-131719951D01*
X140120213Y-131844890D01*
X139969890Y-131995213D01*
X139844951Y-132167179D01*
X139748444Y-132356585D01*
X139682753Y-132558760D01*
X139667138Y-132657351D01*
X139649500Y-132768713D01*
X137350499Y-132768713D01*
X137350499Y-132224992D01*
X137339999Y-132122203D01*
X137284814Y-131955666D01*
X137192712Y-131806344D01*
X137068656Y-131682288D01*
X136973253Y-131623443D01*
X136919336Y-131590187D01*
X136919331Y-131590185D01*
X136917862Y-131589698D01*
X136752797Y-131535001D01*
X136752795Y-131535000D01*
X136650016Y-131524500D01*
X136650009Y-131524500D01*
X135425097Y-131524500D01*
X135358058Y-131504815D01*
X135337416Y-131488181D01*
X120360090Y-116510855D01*
X120360088Y-116510852D01*
X120241217Y-116391981D01*
X120241216Y-116391980D01*
X120154404Y-116341860D01*
X120154404Y-116341859D01*
X120154400Y-116341858D01*
X120104285Y-116312923D01*
X119951557Y-116271999D01*
X119793443Y-116271999D01*
X119785847Y-116271999D01*
X119785831Y-116272000D01*
X116946054Y-116272000D01*
X116879015Y-116252315D01*
X116833260Y-116199511D01*
X116823316Y-116130353D01*
X116826279Y-116115906D01*
X116858106Y-115997128D01*
X116877977Y-115770000D01*
X116858106Y-115542872D01*
X116799096Y-115322646D01*
X116702741Y-115116012D01*
X116588911Y-114953445D01*
X116571970Y-114929250D01*
X116571966Y-114929246D01*
X116410751Y-114768031D01*
X116410747Y-114768028D01*
X116410746Y-114768027D01*
X116223993Y-114637261D01*
X116223985Y-114637257D01*
X116170640Y-114612382D01*
X116118200Y-114566210D01*
X116099048Y-114499017D01*
X116119263Y-114432135D01*
X116170640Y-114387618D01*
X116175021Y-114385574D01*
X116223989Y-114362741D01*
X116410751Y-114231969D01*
X116571969Y-114070751D01*
X116702741Y-113883989D01*
X116799096Y-113677354D01*
X116858106Y-113457128D01*
X116877977Y-113230000D01*
X116858106Y-113002872D01*
X116799096Y-112782646D01*
X116702741Y-112576012D01*
X116588911Y-112413445D01*
X116571970Y-112389250D01*
X116571966Y-112389246D01*
X116410751Y-112228031D01*
X116410747Y-112228028D01*
X116410746Y-112228027D01*
X116223993Y-112097261D01*
X116223985Y-112097257D01*
X116170640Y-112072382D01*
X116118200Y-112026210D01*
X116099048Y-111959017D01*
X116119263Y-111892135D01*
X116170640Y-111847618D01*
X116175021Y-111845574D01*
X116223989Y-111822741D01*
X116410751Y-111691969D01*
X116571969Y-111530751D01*
X116702741Y-111343989D01*
X116799096Y-111137354D01*
X116858106Y-110917128D01*
X116877977Y-110690000D01*
X116874924Y-110655109D01*
X116865233Y-110544334D01*
X116858106Y-110462872D01*
X116799096Y-110242646D01*
X116702741Y-110036012D01*
X116588911Y-109873445D01*
X116571970Y-109849250D01*
X116513244Y-109790524D01*
X116410751Y-109688031D01*
X116410747Y-109688028D01*
X116410746Y-109688027D01*
X116223993Y-109557261D01*
X116223985Y-109557257D01*
X116170640Y-109532382D01*
X116118200Y-109486210D01*
X116099048Y-109419017D01*
X116119263Y-109352135D01*
X116170640Y-109307618D01*
X116175021Y-109305574D01*
X116223989Y-109282741D01*
X116410751Y-109151969D01*
X116571969Y-108990751D01*
X116702741Y-108803989D01*
X116799096Y-108597354D01*
X116858106Y-108377128D01*
X116877977Y-108150000D01*
X116858106Y-107922872D01*
X116799096Y-107702646D01*
X116702741Y-107496012D01*
X116588911Y-107333445D01*
X116571970Y-107309250D01*
X116494505Y-107231785D01*
X116410751Y-107148031D01*
X116410747Y-107148028D01*
X116410746Y-107148027D01*
X116410743Y-107148024D01*
X116391741Y-107134719D01*
X116348116Y-107080142D01*
X116340924Y-107010643D01*
X116372447Y-106948289D01*
X116432677Y-106912876D01*
X116449608Y-106909856D01*
X116479983Y-106906591D01*
X116614831Y-106856296D01*
X116730046Y-106770046D01*
X116816296Y-106654831D01*
X116866591Y-106519983D01*
X116873000Y-106460373D01*
X116872999Y-104759628D01*
X116866591Y-104700017D01*
X116832282Y-104608031D01*
X116816297Y-104565171D01*
X116816293Y-104565164D01*
X116730047Y-104449955D01*
X116730044Y-104449952D01*
X116614835Y-104363706D01*
X116614828Y-104363702D01*
X116479982Y-104313408D01*
X116479983Y-104313408D01*
X116420383Y-104307001D01*
X116420381Y-104307000D01*
X116420373Y-104307000D01*
X116420364Y-104307000D01*
X114719629Y-104307000D01*
X114719623Y-104307001D01*
X114660016Y-104313408D01*
X114525171Y-104363702D01*
X114525164Y-104363706D01*
X114409955Y-104449952D01*
X114409952Y-104449955D01*
X114323706Y-104565164D01*
X114323702Y-104565171D01*
X114273408Y-104700017D01*
X114267001Y-104759616D01*
X114267001Y-104759623D01*
X114267000Y-104759635D01*
X114267000Y-106460370D01*
X114267001Y-106460376D01*
X114273408Y-106519983D01*
X114323702Y-106654828D01*
X114323706Y-106654835D01*
X114409952Y-106770044D01*
X114409955Y-106770047D01*
X114525164Y-106856293D01*
X114525171Y-106856297D01*
X114570118Y-106873061D01*
X114660017Y-106906591D01*
X114690391Y-106909856D01*
X114754939Y-106936592D01*
X114794788Y-106993984D01*
X114797283Y-107063809D01*
X114761631Y-107123899D01*
X114748260Y-107134718D01*
X114729247Y-107148031D01*
X114568032Y-107309246D01*
X114437259Y-107496011D01*
X114437258Y-107496013D01*
X114340905Y-107702642D01*
X114281894Y-107922870D01*
X114281893Y-107922877D01*
X114262023Y-108149998D01*
X114262023Y-108150001D01*
X114281893Y-108377122D01*
X114281894Y-108377129D01*
X114340902Y-108597349D01*
X114340903Y-108597351D01*
X114340904Y-108597354D01*
X114352492Y-108622204D01*
X114437259Y-108803989D01*
X114437261Y-108803993D01*
X114568027Y-108990746D01*
X114568032Y-108990752D01*
X114729247Y-109151967D01*
X114729253Y-109151972D01*
X114916006Y-109282738D01*
X114916008Y-109282739D01*
X114916011Y-109282741D01*
X114960688Y-109303574D01*
X114969360Y-109307618D01*
X115021800Y-109353790D01*
X115040952Y-109420983D01*
X115020737Y-109487865D01*
X114969361Y-109532382D01*
X114916013Y-109557258D01*
X114916011Y-109557259D01*
X114729246Y-109688032D01*
X114568032Y-109849246D01*
X114437259Y-110036011D01*
X114437258Y-110036013D01*
X114340905Y-110242642D01*
X114281894Y-110462870D01*
X114281893Y-110462877D01*
X114262023Y-110689998D01*
X114262023Y-110690001D01*
X114281893Y-110917122D01*
X114281894Y-110917129D01*
X114340902Y-111137349D01*
X114340903Y-111137351D01*
X114340904Y-111137354D01*
X114346553Y-111149468D01*
X114437259Y-111343989D01*
X114437261Y-111343993D01*
X114568027Y-111530746D01*
X114568032Y-111530752D01*
X114729247Y-111691967D01*
X114729253Y-111691972D01*
X114916006Y-111822738D01*
X114916008Y-111822739D01*
X114916011Y-111822741D01*
X114960688Y-111843574D01*
X114969360Y-111847618D01*
X115021800Y-111893790D01*
X115040952Y-111960983D01*
X115020737Y-112027865D01*
X114969361Y-112072382D01*
X114916013Y-112097258D01*
X114916011Y-112097259D01*
X114729246Y-112228032D01*
X114568032Y-112389246D01*
X114437259Y-112576011D01*
X114437258Y-112576013D01*
X114340905Y-112782642D01*
X114281894Y-113002870D01*
X114281893Y-113002877D01*
X114262023Y-113229998D01*
X114262023Y-113230001D01*
X114281893Y-113457122D01*
X114281894Y-113457129D01*
X114340902Y-113677349D01*
X114340903Y-113677351D01*
X114340904Y-113677354D01*
X114428480Y-113865163D01*
X114437259Y-113883989D01*
X114437261Y-113883993D01*
X114568027Y-114070746D01*
X114568032Y-114070752D01*
X114729247Y-114231967D01*
X114729253Y-114231972D01*
X114916006Y-114362738D01*
X114916008Y-114362739D01*
X114916011Y-114362741D01*
X114960688Y-114383574D01*
X114969360Y-114387618D01*
X115021800Y-114433790D01*
X115040952Y-114500983D01*
X115020737Y-114567865D01*
X114969361Y-114612382D01*
X114916013Y-114637258D01*
X114916011Y-114637259D01*
X114729246Y-114768032D01*
X114568032Y-114929246D01*
X114437259Y-115116011D01*
X114437258Y-115116013D01*
X114340905Y-115322642D01*
X114281894Y-115542870D01*
X114281893Y-115542877D01*
X114262023Y-115769998D01*
X114262023Y-115770001D01*
X114281893Y-115997122D01*
X114281894Y-115997129D01*
X114313721Y-116115906D01*
X114312058Y-116185756D01*
X114272896Y-116243619D01*
X114208667Y-116271123D01*
X114193946Y-116272000D01*
X111892597Y-116272000D01*
X111825558Y-116252315D01*
X111804916Y-116235681D01*
X111753363Y-116184128D01*
X111719878Y-116122805D01*
X111721270Y-116064351D01*
X111741034Y-115990595D01*
X111741034Y-115990594D01*
X111741035Y-115990591D01*
X111760334Y-115770000D01*
X111741035Y-115549409D01*
X111683723Y-115335520D01*
X111671574Y-115309467D01*
X111590143Y-115134836D01*
X111590142Y-115134834D01*
X111590142Y-115134833D01*
X111463132Y-114953445D01*
X111306555Y-114796868D01*
X111125167Y-114669858D01*
X111001907Y-114612381D01*
X110949468Y-114566210D01*
X110930316Y-114499017D01*
X110950531Y-114432136D01*
X111001908Y-114387618D01*
X111055255Y-114362742D01*
X111125167Y-114330142D01*
X111306555Y-114203132D01*
X111463132Y-114046555D01*
X111590142Y-113865167D01*
X111683723Y-113664480D01*
X111741035Y-113450591D01*
X111760334Y-113230000D01*
X111741035Y-113009409D01*
X111683723Y-112795520D01*
X111671574Y-112769467D01*
X111590143Y-112594836D01*
X111590142Y-112594834D01*
X111590142Y-112594833D01*
X111463132Y-112413445D01*
X111306555Y-112256868D01*
X111125167Y-112129858D01*
X111001907Y-112072381D01*
X110949468Y-112026210D01*
X110930316Y-111959017D01*
X110950531Y-111892136D01*
X111001908Y-111847618D01*
X111055255Y-111822742D01*
X111125167Y-111790142D01*
X111306555Y-111663132D01*
X111463132Y-111506555D01*
X111590142Y-111325167D01*
X111683723Y-111124480D01*
X111741035Y-110910591D01*
X111760334Y-110690000D01*
X111757281Y-110655109D01*
X111744479Y-110508774D01*
X111741035Y-110469409D01*
X111683723Y-110255520D01*
X111671574Y-110229467D01*
X111590143Y-110054836D01*
X111590142Y-110054834D01*
X111590142Y-110054833D01*
X111463132Y-109873445D01*
X111306555Y-109716868D01*
X111125167Y-109589858D01*
X111111995Y-109583716D01*
X111001908Y-109532382D01*
X110949468Y-109486210D01*
X110930316Y-109419017D01*
X110950531Y-109352136D01*
X111001908Y-109307618D01*
X111055255Y-109282742D01*
X111125167Y-109250142D01*
X111306555Y-109123132D01*
X111463132Y-108966555D01*
X111590142Y-108785167D01*
X111683723Y-108584480D01*
X111741035Y-108370591D01*
X111760334Y-108150000D01*
X111741035Y-107929409D01*
X111683723Y-107715520D01*
X111671574Y-107689467D01*
X111590143Y-107514836D01*
X111590142Y-107514834D01*
X111590142Y-107514833D01*
X111463132Y-107333445D01*
X111306555Y-107176868D01*
X111125167Y-107049858D01*
X111001907Y-106992381D01*
X110949468Y-106946210D01*
X110930316Y-106879017D01*
X110950531Y-106812136D01*
X111001908Y-106767618D01*
X111125167Y-106710142D01*
X111306555Y-106583132D01*
X111463132Y-106426555D01*
X111590142Y-106245167D01*
X111683723Y-106044480D01*
X111741035Y-105830591D01*
X111760334Y-105610000D01*
X111741035Y-105389409D01*
X111683723Y-105175520D01*
X111671574Y-105149467D01*
X111590143Y-104974836D01*
X111590142Y-104974834D01*
X111590142Y-104974833D01*
X111463132Y-104793445D01*
X111306555Y-104636868D01*
X111125167Y-104509858D01*
X111001907Y-104452381D01*
X110949468Y-104406210D01*
X110930316Y-104339017D01*
X110950531Y-104272136D01*
X111001908Y-104227618D01*
X111055255Y-104202742D01*
X111125167Y-104170142D01*
X111306555Y-104043132D01*
X111463132Y-103886555D01*
X111590142Y-103705167D01*
X111683723Y-103504480D01*
X111741035Y-103290591D01*
X111760334Y-103070000D01*
X111741035Y-102849409D01*
X111683723Y-102635520D01*
X111671574Y-102609467D01*
X111590143Y-102434836D01*
X111590142Y-102434834D01*
X111590142Y-102434833D01*
X111463132Y-102253445D01*
X111306555Y-102096868D01*
X111125167Y-101969858D01*
X111001907Y-101912381D01*
X110949468Y-101866210D01*
X110930316Y-101799017D01*
X110950531Y-101732136D01*
X111001908Y-101687618D01*
X111055255Y-101662742D01*
X111125167Y-101630142D01*
X111306555Y-101503132D01*
X111463132Y-101346555D01*
X111590142Y-101165167D01*
X111683723Y-100964480D01*
X111741035Y-100750591D01*
X111760334Y-100530000D01*
X111741035Y-100309409D01*
X111683723Y-100095520D01*
X111671574Y-100069467D01*
X111627756Y-99975498D01*
X111590142Y-99894833D01*
X111463132Y-99713445D01*
X111306555Y-99556868D01*
X111125167Y-99429858D01*
X111001907Y-99372381D01*
X110949468Y-99326210D01*
X110930316Y-99259017D01*
X110950531Y-99192136D01*
X111001908Y-99147618D01*
X111125167Y-99090142D01*
X111306555Y-98963132D01*
X111463132Y-98806555D01*
X111590142Y-98625167D01*
X111683723Y-98424480D01*
X111741035Y-98210591D01*
X111760334Y-97990000D01*
X111741035Y-97769409D01*
X111683723Y-97555520D01*
X111671574Y-97529467D01*
X111637159Y-97455663D01*
X111590142Y-97354833D01*
X111463132Y-97173445D01*
X111306555Y-97016868D01*
X111125167Y-96889858D01*
X111001907Y-96832381D01*
X110949468Y-96786210D01*
X110930316Y-96719017D01*
X110950531Y-96652136D01*
X111001908Y-96607618D01*
X111055255Y-96582742D01*
X111125167Y-96550142D01*
X111306555Y-96423132D01*
X111463132Y-96266555D01*
X111590142Y-96085167D01*
X111683723Y-95884480D01*
X111741035Y-95670591D01*
X111760334Y-95450000D01*
X111758861Y-95433168D01*
X111748082Y-95309955D01*
X111741035Y-95229409D01*
X111683723Y-95015520D01*
X111679696Y-95006885D01*
X111596293Y-94828024D01*
X111590142Y-94814833D01*
X111463132Y-94633445D01*
X111306555Y-94476868D01*
X111125167Y-94349858D01*
X111001907Y-94292381D01*
X110949468Y-94246210D01*
X110930316Y-94179017D01*
X110950531Y-94112136D01*
X111001908Y-94067618D01*
X111125167Y-94010142D01*
X111306555Y-93883132D01*
X111463132Y-93726555D01*
X111590142Y-93545167D01*
X111683723Y-93344480D01*
X111741035Y-93130591D01*
X111760334Y-92910000D01*
X111749717Y-92788648D01*
X111763483Y-92720150D01*
X111812099Y-92669967D01*
X111880127Y-92654033D01*
X111945971Y-92677408D01*
G37*
G04 #@! TD.AperFunction*
G04 #@! TA.AperFunction,Conductor*
G36*
X162520985Y-75667685D02*
G01*
X162566740Y-75720489D01*
X162576684Y-75789647D01*
X162573721Y-75804094D01*
X162541894Y-75922870D01*
X162541893Y-75922877D01*
X162522023Y-76149998D01*
X162522023Y-76150001D01*
X162541893Y-76377122D01*
X162541894Y-76377129D01*
X162600902Y-76597349D01*
X162600903Y-76597351D01*
X162600904Y-76597354D01*
X162641333Y-76684055D01*
X162697259Y-76803989D01*
X162697261Y-76803993D01*
X162828027Y-76990746D01*
X162828032Y-76990752D01*
X162989247Y-77151967D01*
X162989253Y-77151972D01*
X163176006Y-77282738D01*
X163176008Y-77282739D01*
X163176011Y-77282741D01*
X163220688Y-77303574D01*
X163229360Y-77307618D01*
X163281800Y-77353790D01*
X163300952Y-77420983D01*
X163280737Y-77487865D01*
X163229361Y-77532382D01*
X163176013Y-77557258D01*
X163176011Y-77557259D01*
X162989246Y-77688032D01*
X162828032Y-77849246D01*
X162697259Y-78036011D01*
X162697258Y-78036013D01*
X162600905Y-78242642D01*
X162541894Y-78462870D01*
X162541893Y-78462877D01*
X162522023Y-78689998D01*
X162522023Y-78690001D01*
X162541893Y-78917122D01*
X162541894Y-78917129D01*
X162600902Y-79137349D01*
X162600903Y-79137351D01*
X162600904Y-79137354D01*
X162647308Y-79236868D01*
X162697259Y-79343989D01*
X162697261Y-79343993D01*
X162828027Y-79530746D01*
X162828032Y-79530752D01*
X162989247Y-79691967D01*
X162989253Y-79691972D01*
X163176006Y-79822738D01*
X163176008Y-79822739D01*
X163176011Y-79822741D01*
X163220688Y-79843574D01*
X163229360Y-79847618D01*
X163281800Y-79893790D01*
X163300952Y-79960983D01*
X163280737Y-80027865D01*
X163229361Y-80072382D01*
X163176013Y-80097258D01*
X163176011Y-80097259D01*
X162989246Y-80228032D01*
X162828032Y-80389246D01*
X162697259Y-80576011D01*
X162697258Y-80576013D01*
X162600905Y-80782642D01*
X162541894Y-81002870D01*
X162541893Y-81002877D01*
X162522023Y-81229998D01*
X162522023Y-81230001D01*
X162541893Y-81457122D01*
X162541894Y-81457129D01*
X162600902Y-81677349D01*
X162600903Y-81677351D01*
X162600904Y-81677354D01*
X162647308Y-81776868D01*
X162697259Y-81883989D01*
X162697261Y-81883993D01*
X162828027Y-82070746D01*
X162828032Y-82070752D01*
X162989247Y-82231967D01*
X162989253Y-82231972D01*
X163176006Y-82362738D01*
X163176008Y-82362739D01*
X163176011Y-82362741D01*
X163220688Y-82383574D01*
X163229360Y-82387618D01*
X163281800Y-82433790D01*
X163300952Y-82500983D01*
X163280737Y-82567865D01*
X163229361Y-82612382D01*
X163176013Y-82637258D01*
X163176011Y-82637259D01*
X162989246Y-82768032D01*
X162828032Y-82929246D01*
X162697259Y-83116011D01*
X162697258Y-83116013D01*
X162600905Y-83322642D01*
X162541894Y-83542870D01*
X162541893Y-83542877D01*
X162522023Y-83769998D01*
X162522023Y-83770001D01*
X162541893Y-83997122D01*
X162541894Y-83997129D01*
X162600902Y-84217349D01*
X162600903Y-84217351D01*
X162600904Y-84217354D01*
X162633861Y-84288031D01*
X162697259Y-84423989D01*
X162697261Y-84423993D01*
X162828027Y-84610746D01*
X162828032Y-84610752D01*
X162989247Y-84771967D01*
X162989253Y-84771972D01*
X163176006Y-84902738D01*
X163176008Y-84902739D01*
X163176011Y-84902741D01*
X163220688Y-84923574D01*
X163229360Y-84927618D01*
X163281800Y-84973790D01*
X163300952Y-85040983D01*
X163280737Y-85107865D01*
X163229361Y-85152382D01*
X163176013Y-85177258D01*
X163176011Y-85177259D01*
X162989246Y-85308032D01*
X162828032Y-85469246D01*
X162697259Y-85656011D01*
X162697258Y-85656013D01*
X162600905Y-85862642D01*
X162541894Y-86082870D01*
X162541893Y-86082877D01*
X162522023Y-86309998D01*
X162522023Y-86310001D01*
X162541893Y-86537122D01*
X162541894Y-86537129D01*
X162600902Y-86757349D01*
X162600903Y-86757351D01*
X162600904Y-86757354D01*
X162647308Y-86856868D01*
X162697259Y-86963989D01*
X162697261Y-86963993D01*
X162828027Y-87150746D01*
X162828032Y-87150752D01*
X162989247Y-87311967D01*
X162989253Y-87311972D01*
X163176006Y-87442738D01*
X163176008Y-87442739D01*
X163176011Y-87442741D01*
X163220688Y-87463574D01*
X163229360Y-87467618D01*
X163281800Y-87513790D01*
X163300952Y-87580983D01*
X163280737Y-87647865D01*
X163229361Y-87692382D01*
X163176013Y-87717258D01*
X163176011Y-87717259D01*
X162989246Y-87848032D01*
X162828032Y-88009246D01*
X162697259Y-88196011D01*
X162697258Y-88196013D01*
X162600905Y-88402642D01*
X162541894Y-88622870D01*
X162541893Y-88622877D01*
X162522023Y-88849998D01*
X162522023Y-88850001D01*
X162541893Y-89077122D01*
X162541894Y-89077129D01*
X162600902Y-89297349D01*
X162600903Y-89297351D01*
X162600904Y-89297354D01*
X162633861Y-89368031D01*
X162697259Y-89503989D01*
X162697261Y-89503993D01*
X162828027Y-89690746D01*
X162828032Y-89690752D01*
X162989247Y-89851967D01*
X162989253Y-89851972D01*
X163176006Y-89982738D01*
X163176008Y-89982739D01*
X163176011Y-89982741D01*
X163220688Y-90003574D01*
X163229360Y-90007618D01*
X163281800Y-90053790D01*
X163300952Y-90120983D01*
X163280737Y-90187865D01*
X163229361Y-90232382D01*
X163176013Y-90257258D01*
X163176011Y-90257259D01*
X162989246Y-90388032D01*
X162828032Y-90549246D01*
X162697259Y-90736011D01*
X162697258Y-90736013D01*
X162600905Y-90942642D01*
X162541894Y-91162870D01*
X162541893Y-91162877D01*
X162522023Y-91389998D01*
X162522023Y-91390001D01*
X162541893Y-91617122D01*
X162541894Y-91617129D01*
X162600902Y-91837349D01*
X162600903Y-91837351D01*
X162600904Y-91837354D01*
X162633861Y-91908031D01*
X162697259Y-92043989D01*
X162697261Y-92043993D01*
X162828027Y-92230746D01*
X162828032Y-92230752D01*
X162989247Y-92391967D01*
X162989253Y-92391972D01*
X163176006Y-92522738D01*
X163176008Y-92522739D01*
X163176011Y-92522741D01*
X163220688Y-92543574D01*
X163229360Y-92547618D01*
X163281800Y-92593790D01*
X163300952Y-92660983D01*
X163280737Y-92727865D01*
X163229361Y-92772382D01*
X163176013Y-92797258D01*
X163176011Y-92797259D01*
X162989246Y-92928032D01*
X162828032Y-93089246D01*
X162697259Y-93276011D01*
X162697258Y-93276013D01*
X162600905Y-93482642D01*
X162541894Y-93702870D01*
X162541893Y-93702877D01*
X162522023Y-93929998D01*
X162522023Y-93930001D01*
X162541893Y-94157122D01*
X162541894Y-94157129D01*
X162600902Y-94377349D01*
X162600903Y-94377351D01*
X162600904Y-94377354D01*
X162647308Y-94476868D01*
X162697259Y-94583989D01*
X162697261Y-94583993D01*
X162789843Y-94716213D01*
X162828031Y-94770751D01*
X162989249Y-94931969D01*
X163008258Y-94945279D01*
X163051882Y-94999856D01*
X163059075Y-95069355D01*
X163027553Y-95131709D01*
X162967323Y-95167123D01*
X162950388Y-95170144D01*
X162920016Y-95173409D01*
X162785171Y-95223702D01*
X162785164Y-95223706D01*
X162669955Y-95309952D01*
X162669952Y-95309955D01*
X162583706Y-95425164D01*
X162583702Y-95425171D01*
X162533408Y-95560017D01*
X162527001Y-95619616D01*
X162527001Y-95619623D01*
X162527000Y-95619635D01*
X162527000Y-97320370D01*
X162527001Y-97320376D01*
X162533408Y-97379983D01*
X162583702Y-97514828D01*
X162583706Y-97514835D01*
X162669952Y-97630044D01*
X162669955Y-97630047D01*
X162785164Y-97716293D01*
X162785171Y-97716297D01*
X162920017Y-97766591D01*
X162920016Y-97766591D01*
X162926944Y-97767335D01*
X162979627Y-97773000D01*
X164680372Y-97772999D01*
X164739983Y-97766591D01*
X164874831Y-97716296D01*
X164990046Y-97630046D01*
X165076296Y-97514831D01*
X165126591Y-97379983D01*
X165133000Y-97320373D01*
X165132999Y-95619628D01*
X165126591Y-95560017D01*
X165085557Y-95450000D01*
X165076297Y-95425171D01*
X165076293Y-95425164D01*
X164990047Y-95309955D01*
X164990044Y-95309952D01*
X164874835Y-95223706D01*
X164874828Y-95223702D01*
X164739982Y-95173408D01*
X164739984Y-95173408D01*
X164709609Y-95170143D01*
X164645058Y-95143405D01*
X164605210Y-95086012D01*
X164602717Y-95016187D01*
X164638370Y-94956098D01*
X164651742Y-94945279D01*
X164670751Y-94931969D01*
X164831969Y-94770751D01*
X164962741Y-94583989D01*
X165059096Y-94377354D01*
X165118106Y-94157128D01*
X165137977Y-93930000D01*
X165132463Y-93866980D01*
X165128807Y-93825187D01*
X165118106Y-93702872D01*
X165059096Y-93482646D01*
X164962741Y-93276012D01*
X164865490Y-93137122D01*
X164831970Y-93089250D01*
X164801318Y-93058598D01*
X164670751Y-92928031D01*
X164670747Y-92928028D01*
X164670746Y-92928027D01*
X164483993Y-92797261D01*
X164483985Y-92797257D01*
X164430640Y-92772382D01*
X164378200Y-92726210D01*
X164359048Y-92659017D01*
X164379263Y-92592135D01*
X164430640Y-92547618D01*
X164435021Y-92545574D01*
X164483989Y-92522741D01*
X164670751Y-92391969D01*
X164831969Y-92230751D01*
X164962741Y-92043989D01*
X165059096Y-91837354D01*
X165118106Y-91617128D01*
X165137977Y-91390000D01*
X165118106Y-91162872D01*
X165059096Y-90942646D01*
X164962741Y-90736012D01*
X164860920Y-90590595D01*
X164831970Y-90549250D01*
X164831966Y-90549246D01*
X164670751Y-90388031D01*
X164670747Y-90388028D01*
X164670746Y-90388027D01*
X164483993Y-90257261D01*
X164483985Y-90257257D01*
X164430640Y-90232382D01*
X164378200Y-90186210D01*
X164359048Y-90119017D01*
X164379263Y-90052135D01*
X164430640Y-90007618D01*
X164435021Y-90005574D01*
X164483989Y-89982741D01*
X164670751Y-89851969D01*
X164831969Y-89690751D01*
X164962741Y-89503989D01*
X165059096Y-89297354D01*
X165118106Y-89077128D01*
X165137977Y-88850000D01*
X165134997Y-88815943D01*
X165124299Y-88693656D01*
X165118106Y-88622872D01*
X165059096Y-88402646D01*
X164962741Y-88196012D01*
X164860920Y-88050595D01*
X164831970Y-88009250D01*
X164763959Y-87941239D01*
X164670751Y-87848031D01*
X164670747Y-87848028D01*
X164670746Y-87848027D01*
X164483993Y-87717261D01*
X164483985Y-87717257D01*
X164430640Y-87692382D01*
X164378200Y-87646210D01*
X164359048Y-87579017D01*
X164379263Y-87512135D01*
X164430640Y-87467618D01*
X164435021Y-87465574D01*
X164483989Y-87442741D01*
X164670751Y-87311969D01*
X164831969Y-87150751D01*
X164962741Y-86963989D01*
X165059096Y-86757354D01*
X165118106Y-86537128D01*
X165137977Y-86310000D01*
X165134997Y-86275943D01*
X165122294Y-86130746D01*
X165118106Y-86082872D01*
X165059096Y-85862646D01*
X164962741Y-85656012D01*
X164865490Y-85517122D01*
X164831970Y-85469250D01*
X164831966Y-85469246D01*
X164670751Y-85308031D01*
X164670747Y-85308028D01*
X164670746Y-85308027D01*
X164483993Y-85177261D01*
X164483985Y-85177257D01*
X164430640Y-85152382D01*
X164378200Y-85106210D01*
X164359048Y-85039017D01*
X164379263Y-84972135D01*
X164430640Y-84927618D01*
X164435021Y-84925574D01*
X164483989Y-84902741D01*
X164670751Y-84771969D01*
X164831969Y-84610751D01*
X164962741Y-84423989D01*
X165059096Y-84217354D01*
X165118106Y-83997128D01*
X165137977Y-83770000D01*
X165118106Y-83542872D01*
X165059096Y-83322646D01*
X164962741Y-83116012D01*
X164897355Y-83022630D01*
X164831970Y-82929250D01*
X164831966Y-82929246D01*
X164670751Y-82768031D01*
X164670747Y-82768028D01*
X164670746Y-82768027D01*
X164483993Y-82637261D01*
X164483985Y-82637257D01*
X164430640Y-82612382D01*
X164378200Y-82566210D01*
X164359048Y-82499017D01*
X164379263Y-82432135D01*
X164430640Y-82387618D01*
X164435021Y-82385574D01*
X164483989Y-82362741D01*
X164670751Y-82231969D01*
X164831969Y-82070751D01*
X164962741Y-81883989D01*
X165059096Y-81677354D01*
X165118106Y-81457128D01*
X165137977Y-81230000D01*
X165118106Y-81002872D01*
X165059096Y-80782646D01*
X164962741Y-80576012D01*
X164897355Y-80482630D01*
X164831970Y-80389250D01*
X164831966Y-80389246D01*
X164670751Y-80228031D01*
X164670747Y-80228028D01*
X164670746Y-80228027D01*
X164483993Y-80097261D01*
X164483985Y-80097257D01*
X164430640Y-80072382D01*
X164378200Y-80026210D01*
X164359048Y-79959017D01*
X164379263Y-79892135D01*
X164430640Y-79847618D01*
X164435021Y-79845574D01*
X164483989Y-79822741D01*
X164670751Y-79691969D01*
X164831969Y-79530751D01*
X164962741Y-79343989D01*
X165059096Y-79137354D01*
X165118106Y-78917128D01*
X165137977Y-78690000D01*
X165118106Y-78462872D01*
X165059096Y-78242646D01*
X164962741Y-78036012D01*
X164873464Y-77908510D01*
X164831970Y-77849250D01*
X164762768Y-77780048D01*
X164670751Y-77688031D01*
X164670747Y-77688028D01*
X164670746Y-77688027D01*
X164483993Y-77557261D01*
X164483985Y-77557257D01*
X164430640Y-77532382D01*
X164378200Y-77486210D01*
X164359048Y-77419017D01*
X164379263Y-77352135D01*
X164430640Y-77307618D01*
X164435021Y-77305574D01*
X164483989Y-77282741D01*
X164670751Y-77151969D01*
X164831969Y-76990751D01*
X164962741Y-76803989D01*
X165044366Y-76628941D01*
X165090538Y-76576502D01*
X165157731Y-76557350D01*
X165224612Y-76577565D01*
X165244429Y-76593665D01*
X165326284Y-76675520D01*
X165413095Y-76725639D01*
X165413097Y-76725641D01*
X165451151Y-76747611D01*
X165463215Y-76754577D01*
X165615943Y-76795500D01*
X167739239Y-76795500D01*
X167806278Y-76815185D01*
X167852033Y-76867989D01*
X167861977Y-76937147D01*
X167840814Y-76990622D01*
X167840725Y-76990751D01*
X167809857Y-77034834D01*
X167809856Y-77034836D01*
X167716279Y-77235513D01*
X167716275Y-77235524D01*
X167658965Y-77449407D01*
X167658964Y-77449414D01*
X167639666Y-77669998D01*
X167639666Y-77670001D01*
X167658964Y-77890585D01*
X167658965Y-77890592D01*
X167716275Y-78104475D01*
X167716279Y-78104486D01*
X167807493Y-78300096D01*
X167809858Y-78305167D01*
X167936868Y-78486555D01*
X168093445Y-78643132D01*
X168274833Y-78770142D01*
X168336828Y-78799050D01*
X168398091Y-78827618D01*
X168450531Y-78873790D01*
X168469683Y-78940983D01*
X168449467Y-79007865D01*
X168398091Y-79052382D01*
X168274836Y-79109856D01*
X168274834Y-79109857D01*
X168093444Y-79236868D01*
X167936868Y-79393444D01*
X167809857Y-79574834D01*
X167809856Y-79574836D01*
X167716279Y-79775513D01*
X167716275Y-79775524D01*
X167658965Y-79989407D01*
X167658964Y-79989414D01*
X167639666Y-80209998D01*
X167639666Y-80210001D01*
X167658964Y-80430585D01*
X167658965Y-80430592D01*
X167716275Y-80644475D01*
X167716279Y-80644486D01*
X167780702Y-80782642D01*
X167809858Y-80845167D01*
X167936868Y-81026555D01*
X168093445Y-81183132D01*
X168274833Y-81310142D01*
X168336828Y-81339050D01*
X168398091Y-81367618D01*
X168450531Y-81413790D01*
X168469683Y-81480983D01*
X168449467Y-81547865D01*
X168398091Y-81592382D01*
X168274836Y-81649856D01*
X168274834Y-81649857D01*
X168093444Y-81776868D01*
X167936868Y-81933444D01*
X167809857Y-82114834D01*
X167809856Y-82114836D01*
X167716279Y-82315513D01*
X167716275Y-82315524D01*
X167658965Y-82529407D01*
X167658964Y-82529414D01*
X167639666Y-82749998D01*
X167639666Y-82750001D01*
X167658964Y-82970585D01*
X167658965Y-82970592D01*
X167716275Y-83184475D01*
X167716279Y-83184486D01*
X167780702Y-83322642D01*
X167809858Y-83385167D01*
X167936868Y-83566555D01*
X168093445Y-83723132D01*
X168274833Y-83850142D01*
X168336828Y-83879050D01*
X168398091Y-83907618D01*
X168450531Y-83953790D01*
X168469683Y-84020983D01*
X168449467Y-84087865D01*
X168398091Y-84132382D01*
X168274836Y-84189856D01*
X168274834Y-84189857D01*
X168093444Y-84316868D01*
X167936868Y-84473444D01*
X167809857Y-84654834D01*
X167809856Y-84654836D01*
X167716279Y-84855513D01*
X167716275Y-84855524D01*
X167658965Y-85069407D01*
X167658964Y-85069414D01*
X167639666Y-85289998D01*
X167639666Y-85290001D01*
X167658964Y-85510585D01*
X167658965Y-85510592D01*
X167716275Y-85724475D01*
X167716279Y-85724486D01*
X167770938Y-85841703D01*
X167809858Y-85925167D01*
X167936868Y-86106555D01*
X168093445Y-86263132D01*
X168274833Y-86390142D01*
X168336828Y-86419050D01*
X168398091Y-86447618D01*
X168450531Y-86493790D01*
X168469683Y-86560983D01*
X168449467Y-86627865D01*
X168398091Y-86672382D01*
X168274836Y-86729856D01*
X168274834Y-86729857D01*
X168093444Y-86856868D01*
X167936868Y-87013444D01*
X167809857Y-87194834D01*
X167809856Y-87194836D01*
X167716279Y-87395513D01*
X167716275Y-87395524D01*
X167658965Y-87609407D01*
X167658964Y-87609414D01*
X167639666Y-87829998D01*
X167639666Y-87830001D01*
X167658964Y-88050585D01*
X167658965Y-88050592D01*
X167716275Y-88264475D01*
X167716279Y-88264486D01*
X167786222Y-88414480D01*
X167809858Y-88465167D01*
X167936868Y-88646555D01*
X168093445Y-88803132D01*
X168274833Y-88930142D01*
X168336828Y-88959050D01*
X168398091Y-88987618D01*
X168450531Y-89033790D01*
X168469683Y-89100983D01*
X168449467Y-89167865D01*
X168398091Y-89212382D01*
X168274836Y-89269856D01*
X168274834Y-89269857D01*
X168093444Y-89396868D01*
X167936868Y-89553444D01*
X167809857Y-89734834D01*
X167809856Y-89734836D01*
X167716279Y-89935513D01*
X167716275Y-89935524D01*
X167658965Y-90149407D01*
X167658964Y-90149414D01*
X167639666Y-90369998D01*
X167639666Y-90370001D01*
X167658964Y-90590585D01*
X167658965Y-90590592D01*
X167716275Y-90804475D01*
X167716279Y-90804486D01*
X167780702Y-90942642D01*
X167809858Y-91005167D01*
X167936868Y-91186555D01*
X168093445Y-91343132D01*
X168274833Y-91470142D01*
X168336828Y-91499050D01*
X168398091Y-91527618D01*
X168450531Y-91573790D01*
X168469683Y-91640983D01*
X168449467Y-91707865D01*
X168398091Y-91752382D01*
X168274836Y-91809856D01*
X168274834Y-91809857D01*
X168093444Y-91936868D01*
X167936868Y-92093444D01*
X167809857Y-92274834D01*
X167809856Y-92274836D01*
X167716279Y-92475513D01*
X167716275Y-92475524D01*
X167658965Y-92689407D01*
X167658964Y-92689414D01*
X167639666Y-92909998D01*
X167639666Y-92910001D01*
X167658964Y-93130585D01*
X167658965Y-93130592D01*
X167716275Y-93344475D01*
X167716279Y-93344486D01*
X167780702Y-93482642D01*
X167809858Y-93545167D01*
X167936868Y-93726555D01*
X168093445Y-93883132D01*
X168274833Y-94010142D01*
X168336828Y-94039050D01*
X168398091Y-94067618D01*
X168450531Y-94113790D01*
X168469683Y-94180983D01*
X168449467Y-94247865D01*
X168398091Y-94292382D01*
X168274836Y-94349856D01*
X168274834Y-94349857D01*
X168093444Y-94476868D01*
X167936868Y-94633444D01*
X167809857Y-94814834D01*
X167809856Y-94814836D01*
X167716279Y-95015513D01*
X167716275Y-95015524D01*
X167658965Y-95229407D01*
X167658964Y-95229414D01*
X167639666Y-95449998D01*
X167639666Y-95450001D01*
X167658964Y-95670585D01*
X167658967Y-95670599D01*
X167678729Y-95744355D01*
X167677066Y-95814205D01*
X167646635Y-95864128D01*
X167466286Y-96044478D01*
X167354481Y-96156282D01*
X167354480Y-96156284D01*
X167309088Y-96234906D01*
X167290815Y-96266555D01*
X167276846Y-96290751D01*
X167275423Y-96293215D01*
X167234499Y-96445943D01*
X167234499Y-96445945D01*
X167234499Y-96614046D01*
X167234500Y-96614059D01*
X167234500Y-114004902D01*
X167214815Y-114071941D01*
X167198181Y-114092583D01*
X165342178Y-115948585D01*
X165280855Y-115982070D01*
X165211163Y-115977086D01*
X165155230Y-115935214D01*
X165130813Y-115869750D01*
X165130968Y-115850102D01*
X165137977Y-115770000D01*
X165118106Y-115542872D01*
X165059096Y-115322646D01*
X164962741Y-115116012D01*
X164848911Y-114953445D01*
X164831970Y-114929250D01*
X164831966Y-114929246D01*
X164670751Y-114768031D01*
X164670747Y-114768028D01*
X164670746Y-114768027D01*
X164483993Y-114637261D01*
X164483985Y-114637257D01*
X164430640Y-114612382D01*
X164378200Y-114566210D01*
X164359048Y-114499017D01*
X164379263Y-114432135D01*
X164430640Y-114387618D01*
X164435021Y-114385574D01*
X164483989Y-114362741D01*
X164670751Y-114231969D01*
X164831969Y-114070751D01*
X164962741Y-113883989D01*
X165059096Y-113677354D01*
X165118106Y-113457128D01*
X165137977Y-113230000D01*
X165118106Y-113002872D01*
X165059096Y-112782646D01*
X164962741Y-112576012D01*
X164848911Y-112413445D01*
X164831970Y-112389250D01*
X164831966Y-112389246D01*
X164670751Y-112228031D01*
X164670747Y-112228028D01*
X164670746Y-112228027D01*
X164483993Y-112097261D01*
X164483985Y-112097257D01*
X164430640Y-112072382D01*
X164378200Y-112026210D01*
X164359048Y-111959017D01*
X164379263Y-111892135D01*
X164430640Y-111847618D01*
X164435021Y-111845574D01*
X164483989Y-111822741D01*
X164670751Y-111691969D01*
X164831969Y-111530751D01*
X164962741Y-111343989D01*
X165059096Y-111137354D01*
X165118106Y-110917128D01*
X165137977Y-110690000D01*
X165134924Y-110655109D01*
X165125233Y-110544334D01*
X165118106Y-110462872D01*
X165059096Y-110242646D01*
X164962741Y-110036012D01*
X164848911Y-109873445D01*
X164831970Y-109849250D01*
X164773244Y-109790524D01*
X164670751Y-109688031D01*
X164670747Y-109688028D01*
X164670746Y-109688027D01*
X164483993Y-109557261D01*
X164483985Y-109557257D01*
X164430640Y-109532382D01*
X164378200Y-109486210D01*
X164359048Y-109419017D01*
X164379263Y-109352135D01*
X164430640Y-109307618D01*
X164435021Y-109305574D01*
X164483989Y-109282741D01*
X164670751Y-109151969D01*
X164831969Y-108990751D01*
X164962741Y-108803989D01*
X165059096Y-108597354D01*
X165118106Y-108377128D01*
X165137977Y-108150000D01*
X165118106Y-107922872D01*
X165059096Y-107702646D01*
X164962741Y-107496012D01*
X164848911Y-107333445D01*
X164831970Y-107309250D01*
X164754505Y-107231785D01*
X164670751Y-107148031D01*
X164670747Y-107148028D01*
X164670746Y-107148027D01*
X164483993Y-107017261D01*
X164483985Y-107017257D01*
X164430640Y-106992382D01*
X164378200Y-106946210D01*
X164359048Y-106879017D01*
X164379263Y-106812135D01*
X164430640Y-106767618D01*
X164435021Y-106765574D01*
X164483989Y-106742741D01*
X164670751Y-106611969D01*
X164831969Y-106450751D01*
X164962741Y-106263989D01*
X165059096Y-106057354D01*
X165118106Y-105837128D01*
X165137977Y-105610000D01*
X165118106Y-105382872D01*
X165059096Y-105162646D01*
X164962741Y-104956012D01*
X164848911Y-104793445D01*
X164831970Y-104769250D01*
X164757533Y-104694813D01*
X164670751Y-104608031D01*
X164670747Y-104608028D01*
X164670746Y-104608027D01*
X164483993Y-104477261D01*
X164483985Y-104477257D01*
X164430640Y-104452382D01*
X164378200Y-104406210D01*
X164359048Y-104339017D01*
X164379263Y-104272135D01*
X164430640Y-104227618D01*
X164435021Y-104225574D01*
X164483989Y-104202741D01*
X164670751Y-104071969D01*
X164831969Y-103910751D01*
X164962741Y-103723989D01*
X165059096Y-103517354D01*
X165118106Y-103297128D01*
X165137977Y-103070000D01*
X165118106Y-102842872D01*
X165059096Y-102622646D01*
X164962741Y-102416012D01*
X164848911Y-102253445D01*
X164831970Y-102229250D01*
X164757533Y-102154813D01*
X164670751Y-102068031D01*
X164670747Y-102068028D01*
X164670746Y-102068027D01*
X164483993Y-101937261D01*
X164483985Y-101937257D01*
X164430640Y-101912382D01*
X164378200Y-101866210D01*
X164359048Y-101799017D01*
X164379263Y-101732135D01*
X164430640Y-101687618D01*
X164435021Y-101685574D01*
X164483989Y-101662741D01*
X164670751Y-101531969D01*
X164831969Y-101370751D01*
X164962741Y-101183989D01*
X165059096Y-100977354D01*
X165118106Y-100757128D01*
X165137977Y-100530000D01*
X165118106Y-100302872D01*
X165059096Y-100082646D01*
X164962741Y-99876012D01*
X164848911Y-99713445D01*
X164831970Y-99689250D01*
X164757533Y-99614813D01*
X164670751Y-99528031D01*
X164670747Y-99528028D01*
X164670746Y-99528027D01*
X164483993Y-99397261D01*
X164483989Y-99397259D01*
X164483985Y-99397257D01*
X164277354Y-99300904D01*
X164277351Y-99300903D01*
X164277349Y-99300902D01*
X164057129Y-99241894D01*
X164057122Y-99241893D01*
X163830002Y-99222023D01*
X163829998Y-99222023D01*
X163602877Y-99241893D01*
X163602870Y-99241894D01*
X163382642Y-99300905D01*
X163176013Y-99397258D01*
X163176011Y-99397259D01*
X162989246Y-99528032D01*
X162828032Y-99689246D01*
X162697259Y-99876011D01*
X162697258Y-99876013D01*
X162600905Y-100082642D01*
X162541894Y-100302870D01*
X162541893Y-100302877D01*
X162522023Y-100529998D01*
X162522023Y-100530001D01*
X162541893Y-100757122D01*
X162541894Y-100757129D01*
X162600902Y-100977349D01*
X162600903Y-100977351D01*
X162600904Y-100977354D01*
X162606553Y-100989468D01*
X162697259Y-101183989D01*
X162697261Y-101183993D01*
X162828027Y-101370746D01*
X162828032Y-101370752D01*
X162989247Y-101531967D01*
X162989253Y-101531972D01*
X163176006Y-101662738D01*
X163176008Y-101662739D01*
X163176011Y-101662741D01*
X163220688Y-101683574D01*
X163229360Y-101687618D01*
X163281800Y-101733790D01*
X163300952Y-101800983D01*
X163280737Y-101867865D01*
X163229361Y-101912382D01*
X163176013Y-101937258D01*
X163176011Y-101937259D01*
X162989246Y-102068032D01*
X162828032Y-102229246D01*
X162697259Y-102416011D01*
X162697258Y-102416013D01*
X162600905Y-102622642D01*
X162541894Y-102842870D01*
X162541893Y-102842877D01*
X162522023Y-103069998D01*
X162522023Y-103070001D01*
X162541893Y-103297122D01*
X162541894Y-103297129D01*
X162600902Y-103517349D01*
X162600903Y-103517351D01*
X162600904Y-103517354D01*
X162606553Y-103529468D01*
X162697259Y-103723989D01*
X162697261Y-103723993D01*
X162828027Y-103910746D01*
X162828032Y-103910752D01*
X162989247Y-104071967D01*
X162989253Y-104071972D01*
X163176006Y-104202738D01*
X163176008Y-104202739D01*
X163176011Y-104202741D01*
X163220688Y-104223574D01*
X163229360Y-104227618D01*
X163281800Y-104273790D01*
X163300952Y-104340983D01*
X163280737Y-104407865D01*
X163229361Y-104452382D01*
X163176013Y-104477258D01*
X163176011Y-104477259D01*
X162989246Y-104608032D01*
X162828032Y-104769246D01*
X162697259Y-104956011D01*
X162697258Y-104956013D01*
X162600905Y-105162642D01*
X162541894Y-105382870D01*
X162541893Y-105382877D01*
X162522023Y-105609998D01*
X162522023Y-105610001D01*
X162541893Y-105837122D01*
X162541894Y-105837129D01*
X162600902Y-106057349D01*
X162600903Y-106057351D01*
X162600904Y-106057354D01*
X162606553Y-106069468D01*
X162697259Y-106263989D01*
X162697261Y-106263993D01*
X162828027Y-106450746D01*
X162828032Y-106450752D01*
X162989247Y-106611967D01*
X162989253Y-106611972D01*
X163176006Y-106742738D01*
X163176008Y-106742739D01*
X163176011Y-106742741D01*
X163194289Y-106751264D01*
X163229360Y-106767618D01*
X163281800Y-106813790D01*
X163300952Y-106880983D01*
X163280737Y-106947865D01*
X163229361Y-106992382D01*
X163176013Y-107017258D01*
X163176011Y-107017259D01*
X162989246Y-107148032D01*
X162828032Y-107309246D01*
X162697259Y-107496011D01*
X162697258Y-107496013D01*
X162600905Y-107702642D01*
X162541894Y-107922870D01*
X162541893Y-107922877D01*
X162522023Y-108149998D01*
X162522023Y-108150001D01*
X162541893Y-108377122D01*
X162541894Y-108377129D01*
X162600902Y-108597349D01*
X162600903Y-108597351D01*
X162600904Y-108597354D01*
X162612492Y-108622204D01*
X162697259Y-108803989D01*
X162697261Y-108803993D01*
X162828027Y-108990746D01*
X162828032Y-108990752D01*
X162989247Y-109151967D01*
X162989253Y-109151972D01*
X163176006Y-109282738D01*
X163176008Y-109282739D01*
X163176011Y-109282741D01*
X163220688Y-109303574D01*
X163229360Y-109307618D01*
X163281800Y-109353790D01*
X163300952Y-109420983D01*
X163280737Y-109487865D01*
X163229361Y-109532382D01*
X163176013Y-109557258D01*
X163176011Y-109557259D01*
X162989246Y-109688032D01*
X162828032Y-109849246D01*
X162697259Y-110036011D01*
X162697258Y-110036013D01*
X162600905Y-110242642D01*
X162541894Y-110462870D01*
X162541893Y-110462877D01*
X162522023Y-110689998D01*
X162522023Y-110690001D01*
X162541893Y-110917122D01*
X162541894Y-110917129D01*
X162600902Y-111137349D01*
X162600903Y-111137351D01*
X162600904Y-111137354D01*
X162606553Y-111149468D01*
X162697259Y-111343989D01*
X162697261Y-111343993D01*
X162828027Y-111530746D01*
X162828032Y-111530752D01*
X162989247Y-111691967D01*
X162989253Y-111691972D01*
X163176006Y-111822738D01*
X163176008Y-111822739D01*
X163176011Y-111822741D01*
X163220688Y-111843574D01*
X163229360Y-111847618D01*
X163281800Y-111893790D01*
X163300952Y-111960983D01*
X163280737Y-112027865D01*
X163229361Y-112072382D01*
X163176013Y-112097258D01*
X163176011Y-112097259D01*
X162989246Y-112228032D01*
X162828032Y-112389246D01*
X162697259Y-112576011D01*
X162697258Y-112576013D01*
X162600905Y-112782642D01*
X162541894Y-113002870D01*
X162541893Y-113002877D01*
X162522023Y-113229998D01*
X162522023Y-113230001D01*
X162541893Y-113457122D01*
X162541894Y-113457129D01*
X162600902Y-113677349D01*
X162600903Y-113677351D01*
X162600904Y-113677354D01*
X162688480Y-113865163D01*
X162697259Y-113883989D01*
X162697261Y-113883993D01*
X162828027Y-114070746D01*
X162828032Y-114070752D01*
X162989247Y-114231967D01*
X162989253Y-114231972D01*
X163176006Y-114362738D01*
X163176008Y-114362739D01*
X163176011Y-114362741D01*
X163220688Y-114383574D01*
X163229360Y-114387618D01*
X163281800Y-114433790D01*
X163300952Y-114500983D01*
X163280737Y-114567865D01*
X163229361Y-114612382D01*
X163176013Y-114637258D01*
X163176011Y-114637259D01*
X162989246Y-114768032D01*
X162828032Y-114929246D01*
X162697259Y-115116011D01*
X162697258Y-115116013D01*
X162600905Y-115322642D01*
X162541894Y-115542870D01*
X162541893Y-115542877D01*
X162522023Y-115769998D01*
X162522023Y-115770001D01*
X162541893Y-115997122D01*
X162541894Y-115997129D01*
X162600902Y-116217349D01*
X162600903Y-116217351D01*
X162600904Y-116217354D01*
X162688480Y-116405163D01*
X162697259Y-116423989D01*
X162699968Y-116428681D01*
X162698428Y-116429570D01*
X162718201Y-116488241D01*
X162701178Y-116556005D01*
X162650220Y-116603808D01*
X162626396Y-116612907D01*
X162571981Y-116627488D01*
X162495714Y-116647923D01*
X162495709Y-116647926D01*
X162358790Y-116726975D01*
X162358782Y-116726981D01*
X162246981Y-116838782D01*
X162246975Y-116838790D01*
X162167926Y-116975709D01*
X162167923Y-116975716D01*
X162127000Y-117128443D01*
X162127000Y-127472402D01*
X162107315Y-127539441D01*
X162090681Y-127560083D01*
X157026897Y-132623866D01*
X156965574Y-132657351D01*
X156895882Y-132652367D01*
X156839949Y-132610495D01*
X156819937Y-132563124D01*
X156818384Y-132563497D01*
X156817246Y-132558760D01*
X156817246Y-132558757D01*
X156751557Y-132356588D01*
X156655051Y-132167184D01*
X156655049Y-132167181D01*
X156655048Y-132167179D01*
X156530109Y-131995213D01*
X156379786Y-131844890D01*
X156207820Y-131719951D01*
X156018414Y-131623444D01*
X156018413Y-131623443D01*
X156018412Y-131623443D01*
X155816243Y-131557754D01*
X155816241Y-131557753D01*
X155816240Y-131557753D01*
X155654957Y-131532208D01*
X155606287Y-131524500D01*
X155393713Y-131524500D01*
X155354202Y-131530757D01*
X155183759Y-131557753D01*
X155183755Y-131557754D01*
X155047130Y-131602146D01*
X154977289Y-131604141D01*
X154921132Y-131571896D01*
X144084494Y-120735258D01*
X146839500Y-120735258D01*
X146839500Y-120964741D01*
X146854551Y-121079055D01*
X146869452Y-121192238D01*
X146924987Y-121399499D01*
X146928842Y-121413887D01*
X147016650Y-121625876D01*
X147016657Y-121625890D01*
X147131392Y-121824617D01*
X147271081Y-122006661D01*
X147271089Y-122006670D01*
X147433330Y-122168911D01*
X147433338Y-122168918D01*
X147615382Y-122308607D01*
X147615385Y-122308608D01*
X147615388Y-122308611D01*
X147814112Y-122423344D01*
X147814117Y-122423346D01*
X147814123Y-122423349D01*
X147905480Y-122461190D01*
X148026113Y-122511158D01*
X148247762Y-122570548D01*
X148475266Y-122600500D01*
X148475273Y-122600500D01*
X148704727Y-122600500D01*
X148704734Y-122600500D01*
X148932238Y-122570548D01*
X149153887Y-122511158D01*
X149365888Y-122423344D01*
X149564612Y-122308611D01*
X149746661Y-122168919D01*
X149746665Y-122168914D01*
X149746670Y-122168911D01*
X149908911Y-122006670D01*
X149908914Y-122006665D01*
X149908919Y-122006661D01*
X150048611Y-121824612D01*
X150163344Y-121625888D01*
X150251158Y-121413887D01*
X150310548Y-121192238D01*
X150340500Y-120964734D01*
X150340500Y-120735266D01*
X150310548Y-120507762D01*
X150251158Y-120286113D01*
X150163344Y-120074112D01*
X150048611Y-119875388D01*
X150048608Y-119875385D01*
X150048607Y-119875382D01*
X149908918Y-119693338D01*
X149908911Y-119693330D01*
X149746670Y-119531089D01*
X149746661Y-119531081D01*
X149564617Y-119391392D01*
X149365890Y-119276657D01*
X149365876Y-119276650D01*
X149153887Y-119188842D01*
X148932238Y-119129452D01*
X148882791Y-119122942D01*
X148704741Y-119099500D01*
X148704734Y-119099500D01*
X148475266Y-119099500D01*
X148475258Y-119099500D01*
X148258935Y-119127981D01*
X148247762Y-119129452D01*
X148154076Y-119154554D01*
X148026112Y-119188842D01*
X147814123Y-119276650D01*
X147814109Y-119276657D01*
X147615382Y-119391392D01*
X147433338Y-119531081D01*
X147271081Y-119693338D01*
X147131392Y-119875382D01*
X147016657Y-120074109D01*
X147016650Y-120074123D01*
X146928842Y-120286112D01*
X146869453Y-120507759D01*
X146869451Y-120507770D01*
X146839500Y-120735258D01*
X144084494Y-120735258D01*
X117335090Y-93985855D01*
X117335088Y-93985852D01*
X117216217Y-93866981D01*
X117216216Y-93866980D01*
X117129404Y-93816860D01*
X117129404Y-93816859D01*
X117129400Y-93816858D01*
X117079285Y-93787923D01*
X116926557Y-93746999D01*
X116811854Y-93746999D01*
X116744815Y-93727314D01*
X116699060Y-93674510D01*
X116689116Y-93605352D01*
X116701556Y-93569409D01*
X116700453Y-93568895D01*
X116702741Y-93563989D01*
X116799096Y-93357354D01*
X116858106Y-93137128D01*
X116877977Y-92910000D01*
X116858106Y-92682872D01*
X116799096Y-92462646D01*
X116702741Y-92256012D01*
X116588911Y-92093445D01*
X116571970Y-92069250D01*
X116497533Y-91994813D01*
X116410751Y-91908031D01*
X116410747Y-91908028D01*
X116410746Y-91908027D01*
X116223993Y-91777261D01*
X116223985Y-91777257D01*
X116170640Y-91752382D01*
X116118200Y-91706210D01*
X116099048Y-91639017D01*
X116119263Y-91572135D01*
X116170640Y-91527618D01*
X116175021Y-91525574D01*
X116223989Y-91502741D01*
X116410751Y-91371969D01*
X116571969Y-91210751D01*
X116702741Y-91023989D01*
X116799096Y-90817354D01*
X116858106Y-90597128D01*
X116877977Y-90370000D01*
X116858106Y-90142872D01*
X116799096Y-89922646D01*
X116702741Y-89716012D01*
X116588911Y-89553445D01*
X116571970Y-89529250D01*
X116497533Y-89454813D01*
X116410751Y-89368031D01*
X116410747Y-89368028D01*
X116410746Y-89368027D01*
X116223993Y-89237261D01*
X116223985Y-89237257D01*
X116170640Y-89212382D01*
X116118200Y-89166210D01*
X116099048Y-89099017D01*
X116119263Y-89032135D01*
X116170640Y-88987618D01*
X116175021Y-88985574D01*
X116223989Y-88962741D01*
X116410751Y-88831969D01*
X116571969Y-88670751D01*
X116702741Y-88483989D01*
X116799096Y-88277354D01*
X116858106Y-88057128D01*
X116877977Y-87830000D01*
X116858106Y-87602872D01*
X116799096Y-87382646D01*
X116702741Y-87176012D01*
X116588911Y-87013445D01*
X116571970Y-86989250D01*
X116497533Y-86914813D01*
X116410751Y-86828031D01*
X116410747Y-86828028D01*
X116410746Y-86828027D01*
X116223993Y-86697261D01*
X116223985Y-86697257D01*
X116170640Y-86672382D01*
X116118200Y-86626210D01*
X116099048Y-86559017D01*
X116119263Y-86492135D01*
X116170640Y-86447618D01*
X116175021Y-86445574D01*
X116223989Y-86422741D01*
X116410751Y-86291969D01*
X116571969Y-86130751D01*
X116702741Y-85943989D01*
X116799096Y-85737354D01*
X116858106Y-85517128D01*
X116877977Y-85290000D01*
X116858106Y-85062872D01*
X116799096Y-84842646D01*
X116702741Y-84636012D01*
X116588911Y-84473445D01*
X116571970Y-84449250D01*
X116546709Y-84423989D01*
X116410751Y-84288031D01*
X116410747Y-84288028D01*
X116410746Y-84288027D01*
X116410743Y-84288024D01*
X116391741Y-84274719D01*
X116348116Y-84220142D01*
X116340924Y-84150643D01*
X116372447Y-84088289D01*
X116432677Y-84052876D01*
X116449608Y-84049856D01*
X116479983Y-84046591D01*
X116614831Y-83996296D01*
X116730046Y-83910046D01*
X116816296Y-83794831D01*
X116866591Y-83659983D01*
X116873000Y-83600373D01*
X116872999Y-81899628D01*
X116866591Y-81840017D01*
X116816296Y-81705169D01*
X116816295Y-81705168D01*
X116816293Y-81705164D01*
X116730047Y-81589955D01*
X116730044Y-81589952D01*
X116614835Y-81503706D01*
X116614828Y-81503702D01*
X116479982Y-81453408D01*
X116479983Y-81453408D01*
X116420383Y-81447001D01*
X116420381Y-81447000D01*
X116420373Y-81447000D01*
X116420364Y-81447000D01*
X114719629Y-81447000D01*
X114719623Y-81447001D01*
X114660016Y-81453408D01*
X114525171Y-81503702D01*
X114525164Y-81503706D01*
X114409955Y-81589952D01*
X114409952Y-81589955D01*
X114323706Y-81705164D01*
X114323702Y-81705171D01*
X114273408Y-81840017D01*
X114268681Y-81883989D01*
X114267001Y-81899623D01*
X114267000Y-81899635D01*
X114267000Y-83600370D01*
X114267001Y-83600376D01*
X114273408Y-83659983D01*
X114323702Y-83794828D01*
X114323706Y-83794835D01*
X114409952Y-83910044D01*
X114409955Y-83910047D01*
X114525164Y-83996293D01*
X114525171Y-83996297D01*
X114570118Y-84013061D01*
X114660017Y-84046591D01*
X114690391Y-84049856D01*
X114754939Y-84076592D01*
X114794788Y-84133984D01*
X114797283Y-84203809D01*
X114761631Y-84263899D01*
X114748260Y-84274718D01*
X114729247Y-84288031D01*
X114568032Y-84449246D01*
X114437259Y-84636011D01*
X114437258Y-84636013D01*
X114340905Y-84842642D01*
X114281894Y-85062870D01*
X114281893Y-85062877D01*
X114262023Y-85289998D01*
X114262023Y-85290001D01*
X114281893Y-85517122D01*
X114281894Y-85517129D01*
X114340902Y-85737349D01*
X114340903Y-85737351D01*
X114340904Y-85737354D01*
X114428480Y-85925163D01*
X114437259Y-85943989D01*
X114437261Y-85943993D01*
X114568027Y-86130746D01*
X114568032Y-86130752D01*
X114729247Y-86291967D01*
X114729253Y-86291972D01*
X114916006Y-86422738D01*
X114916008Y-86422739D01*
X114916011Y-86422741D01*
X114940285Y-86434060D01*
X114969360Y-86447618D01*
X115021800Y-86493790D01*
X115040952Y-86560983D01*
X115020737Y-86627865D01*
X114969361Y-86672382D01*
X114916013Y-86697258D01*
X114916011Y-86697259D01*
X114729246Y-86828032D01*
X114568032Y-86989246D01*
X114437259Y-87176011D01*
X114437258Y-87176013D01*
X114340905Y-87382642D01*
X114281894Y-87602870D01*
X114281893Y-87602877D01*
X114262023Y-87829998D01*
X114262023Y-87830001D01*
X114281893Y-88057122D01*
X114281894Y-88057129D01*
X114340902Y-88277349D01*
X114340903Y-88277351D01*
X114340904Y-88277354D01*
X114402827Y-88410149D01*
X114437259Y-88483989D01*
X114437261Y-88483993D01*
X114568027Y-88670746D01*
X114568032Y-88670752D01*
X114729247Y-88831967D01*
X114729253Y-88831972D01*
X114916006Y-88962738D01*
X114916008Y-88962739D01*
X114916011Y-88962741D01*
X114943369Y-88975498D01*
X114969360Y-88987618D01*
X115021800Y-89033790D01*
X115040952Y-89100983D01*
X115020737Y-89167865D01*
X114969361Y-89212382D01*
X114916013Y-89237258D01*
X114916011Y-89237259D01*
X114729246Y-89368032D01*
X114568032Y-89529246D01*
X114437259Y-89716011D01*
X114437258Y-89716013D01*
X114340905Y-89922642D01*
X114281894Y-90142870D01*
X114281893Y-90142877D01*
X114262023Y-90369998D01*
X114262023Y-90370001D01*
X114281893Y-90597122D01*
X114281894Y-90597129D01*
X114340902Y-90817349D01*
X114340903Y-90817351D01*
X114340904Y-90817354D01*
X114428480Y-91005163D01*
X114437259Y-91023989D01*
X114437261Y-91023993D01*
X114568027Y-91210746D01*
X114568032Y-91210752D01*
X114729247Y-91371967D01*
X114729253Y-91371972D01*
X114916006Y-91502738D01*
X114916008Y-91502739D01*
X114916011Y-91502741D01*
X114960688Y-91523574D01*
X114969360Y-91527618D01*
X115021800Y-91573790D01*
X115040952Y-91640983D01*
X115020737Y-91707865D01*
X114969361Y-91752382D01*
X114916013Y-91777258D01*
X114916011Y-91777259D01*
X114729246Y-91908032D01*
X114568032Y-92069246D01*
X114437259Y-92256011D01*
X114437258Y-92256013D01*
X114340905Y-92462642D01*
X114281894Y-92682870D01*
X114281893Y-92682877D01*
X114262023Y-92909998D01*
X114262023Y-92910002D01*
X114269030Y-92990098D01*
X114255263Y-93058598D01*
X114206648Y-93108781D01*
X114138619Y-93124714D01*
X114072775Y-93101338D01*
X114057821Y-93088586D01*
X111753363Y-90784128D01*
X111719878Y-90722805D01*
X111721270Y-90664351D01*
X111741034Y-90590595D01*
X111741034Y-90590594D01*
X111741035Y-90590591D01*
X111760334Y-90370000D01*
X111741035Y-90149409D01*
X111683723Y-89935520D01*
X111671574Y-89909467D01*
X111590143Y-89734836D01*
X111590142Y-89734834D01*
X111590142Y-89734833D01*
X111463132Y-89553445D01*
X111306555Y-89396868D01*
X111125167Y-89269858D01*
X111001907Y-89212381D01*
X110949468Y-89166210D01*
X110930316Y-89099017D01*
X110950531Y-89032136D01*
X111001908Y-88987618D01*
X111125167Y-88930142D01*
X111306555Y-88803132D01*
X111463132Y-88646555D01*
X111590142Y-88465167D01*
X111683723Y-88264480D01*
X111741035Y-88050591D01*
X111760334Y-87830000D01*
X111741035Y-87609409D01*
X111683723Y-87395520D01*
X111671574Y-87369467D01*
X111590143Y-87194836D01*
X111590142Y-87194834D01*
X111590142Y-87194833D01*
X111463132Y-87013445D01*
X111306555Y-86856868D01*
X111125167Y-86729858D01*
X111114712Y-86724983D01*
X111001908Y-86672382D01*
X110949468Y-86626210D01*
X110930316Y-86559017D01*
X110950531Y-86492136D01*
X111001908Y-86447618D01*
X111125167Y-86390142D01*
X111306555Y-86263132D01*
X111463132Y-86106555D01*
X111590142Y-85925167D01*
X111683723Y-85724480D01*
X111741035Y-85510591D01*
X111760334Y-85290000D01*
X111741035Y-85069409D01*
X111683723Y-84855520D01*
X111671574Y-84829467D01*
X111590143Y-84654836D01*
X111590142Y-84654834D01*
X111590142Y-84654833D01*
X111463132Y-84473445D01*
X111306555Y-84316868D01*
X111125167Y-84189858D01*
X111001907Y-84132381D01*
X110949468Y-84086210D01*
X110930316Y-84019017D01*
X110950531Y-83952136D01*
X111001908Y-83907618D01*
X111125167Y-83850142D01*
X111306555Y-83723132D01*
X111463132Y-83566555D01*
X111590142Y-83385167D01*
X111683723Y-83184480D01*
X111741035Y-82970591D01*
X111760334Y-82750000D01*
X111741035Y-82529409D01*
X111683723Y-82315520D01*
X111671574Y-82289467D01*
X111590143Y-82114836D01*
X111590142Y-82114834D01*
X111590142Y-82114833D01*
X111463132Y-81933445D01*
X111306555Y-81776868D01*
X111125167Y-81649858D01*
X111125163Y-81649856D01*
X110924486Y-81556279D01*
X110924475Y-81556275D01*
X110710592Y-81498965D01*
X110710585Y-81498964D01*
X110490002Y-81479666D01*
X110489998Y-81479666D01*
X110269414Y-81498964D01*
X110269407Y-81498965D01*
X110055524Y-81556275D01*
X110055513Y-81556279D01*
X109854836Y-81649856D01*
X109854834Y-81649857D01*
X109673444Y-81776868D01*
X109516868Y-81933444D01*
X109389857Y-82114834D01*
X109389856Y-82114836D01*
X109332382Y-82238091D01*
X109286210Y-82290531D01*
X109219017Y-82309683D01*
X109152135Y-82289467D01*
X109107618Y-82238091D01*
X109050143Y-82114836D01*
X109050142Y-82114834D01*
X109050142Y-82114833D01*
X108923132Y-81933445D01*
X108766555Y-81776868D01*
X108585167Y-81649858D01*
X108461907Y-81592381D01*
X108409468Y-81546210D01*
X108390316Y-81479017D01*
X108410531Y-81412136D01*
X108461908Y-81367618D01*
X108585167Y-81310142D01*
X108766555Y-81183132D01*
X108923132Y-81026555D01*
X109050142Y-80845167D01*
X109143723Y-80644480D01*
X109201035Y-80430591D01*
X109220334Y-80210000D01*
X109201035Y-79989409D01*
X109143723Y-79775520D01*
X109131574Y-79749467D01*
X109050143Y-79574836D01*
X109050142Y-79574834D01*
X109050142Y-79574833D01*
X108923132Y-79393445D01*
X108766555Y-79236868D01*
X108585167Y-79109858D01*
X108461907Y-79052381D01*
X108409468Y-79006210D01*
X108390316Y-78939017D01*
X108410531Y-78872136D01*
X108461908Y-78827618D01*
X108585167Y-78770142D01*
X108766555Y-78643132D01*
X108923132Y-78486555D01*
X109050142Y-78305167D01*
X109107618Y-78181907D01*
X109153790Y-78129468D01*
X109220983Y-78110316D01*
X109287864Y-78130531D01*
X109332381Y-78181907D01*
X109389858Y-78305167D01*
X109516868Y-78486555D01*
X109673445Y-78643132D01*
X109854833Y-78770142D01*
X109975572Y-78826443D01*
X110055513Y-78863720D01*
X110055515Y-78863720D01*
X110055520Y-78863723D01*
X110269409Y-78921035D01*
X110426974Y-78934820D01*
X110489998Y-78940334D01*
X110490000Y-78940334D01*
X110490002Y-78940334D01*
X110545147Y-78935509D01*
X110710591Y-78921035D01*
X110924480Y-78863723D01*
X111125167Y-78770142D01*
X111306555Y-78643132D01*
X111463132Y-78486555D01*
X111590142Y-78305167D01*
X111683723Y-78104480D01*
X111741035Y-77890591D01*
X111758264Y-77693656D01*
X111760334Y-77670001D01*
X111760334Y-77669998D01*
X111750471Y-77557261D01*
X111741035Y-77449409D01*
X111683723Y-77235520D01*
X111590142Y-77034833D01*
X111536260Y-76957882D01*
X111513933Y-76891679D01*
X111530942Y-76823911D01*
X111550150Y-76799083D01*
X112664917Y-75684319D01*
X112726240Y-75650834D01*
X112752598Y-75648000D01*
X162453946Y-75648000D01*
X162520985Y-75667685D01*
G37*
G04 #@! TD.AperFunction*
G04 #@! TA.AperFunction,Conductor*
G36*
X109287864Y-116230531D02*
G01*
X109332381Y-116281907D01*
X109389858Y-116405167D01*
X109516868Y-116586555D01*
X109673445Y-116743132D01*
X109854833Y-116870142D01*
X109916828Y-116899050D01*
X109978091Y-116927618D01*
X110030531Y-116973790D01*
X110049683Y-117040983D01*
X110029467Y-117107865D01*
X109978091Y-117152382D01*
X109854836Y-117209856D01*
X109854834Y-117209857D01*
X109673444Y-117336868D01*
X109516868Y-117493444D01*
X109389857Y-117674834D01*
X109389856Y-117674836D01*
X109332382Y-117798091D01*
X109286210Y-117850531D01*
X109219017Y-117869683D01*
X109152135Y-117849467D01*
X109107618Y-117798091D01*
X109050143Y-117674836D01*
X109050142Y-117674834D01*
X109050142Y-117674833D01*
X108923132Y-117493445D01*
X108766555Y-117336868D01*
X108585167Y-117209858D01*
X108461907Y-117152381D01*
X108409468Y-117106210D01*
X108390316Y-117039017D01*
X108410531Y-116972136D01*
X108461908Y-116927618D01*
X108469536Y-116924061D01*
X108585167Y-116870142D01*
X108766555Y-116743132D01*
X108923132Y-116586555D01*
X109050142Y-116405167D01*
X109107618Y-116281907D01*
X109153790Y-116229468D01*
X109220983Y-116210316D01*
X109287864Y-116230531D01*
G37*
G04 #@! TD.AperFunction*
G04 #@! TA.AperFunction,Conductor*
G36*
X109287864Y-113690531D02*
G01*
X109332381Y-113741907D01*
X109389858Y-113865167D01*
X109516868Y-114046555D01*
X109673445Y-114203132D01*
X109854833Y-114330142D01*
X109916828Y-114359050D01*
X109978091Y-114387618D01*
X110030531Y-114433790D01*
X110049683Y-114500983D01*
X110029467Y-114567865D01*
X109978091Y-114612382D01*
X109854836Y-114669856D01*
X109854834Y-114669857D01*
X109673444Y-114796868D01*
X109516868Y-114953444D01*
X109389857Y-115134834D01*
X109389856Y-115134836D01*
X109332382Y-115258091D01*
X109286210Y-115310531D01*
X109219017Y-115329683D01*
X109152135Y-115309467D01*
X109107618Y-115258091D01*
X109050143Y-115134836D01*
X109050142Y-115134834D01*
X109050142Y-115134833D01*
X108923132Y-114953445D01*
X108766555Y-114796868D01*
X108585167Y-114669858D01*
X108461907Y-114612381D01*
X108409468Y-114566210D01*
X108390316Y-114499017D01*
X108410531Y-114432136D01*
X108461908Y-114387618D01*
X108515255Y-114362742D01*
X108585167Y-114330142D01*
X108766555Y-114203132D01*
X108923132Y-114046555D01*
X109050142Y-113865167D01*
X109107618Y-113741907D01*
X109153790Y-113689468D01*
X109220983Y-113670316D01*
X109287864Y-113690531D01*
G37*
G04 #@! TD.AperFunction*
G04 #@! TA.AperFunction,Conductor*
G36*
X109287864Y-111150531D02*
G01*
X109332381Y-111201907D01*
X109389858Y-111325167D01*
X109516868Y-111506555D01*
X109673445Y-111663132D01*
X109854833Y-111790142D01*
X109916828Y-111819050D01*
X109978091Y-111847618D01*
X110030531Y-111893790D01*
X110049683Y-111960983D01*
X110029467Y-112027865D01*
X109978091Y-112072382D01*
X109854836Y-112129856D01*
X109854834Y-112129857D01*
X109673444Y-112256868D01*
X109516868Y-112413444D01*
X109389857Y-112594834D01*
X109389856Y-112594836D01*
X109332382Y-112718091D01*
X109286210Y-112770531D01*
X109219017Y-112789683D01*
X109152135Y-112769467D01*
X109107618Y-112718091D01*
X109050143Y-112594836D01*
X109050142Y-112594834D01*
X109050142Y-112594833D01*
X108923132Y-112413445D01*
X108766555Y-112256868D01*
X108585167Y-112129858D01*
X108461907Y-112072381D01*
X108409468Y-112026210D01*
X108390316Y-111959017D01*
X108410531Y-111892136D01*
X108461908Y-111847618D01*
X108515255Y-111822742D01*
X108585167Y-111790142D01*
X108766555Y-111663132D01*
X108923132Y-111506555D01*
X109050142Y-111325167D01*
X109107618Y-111201907D01*
X109153790Y-111149468D01*
X109220983Y-111130316D01*
X109287864Y-111150531D01*
G37*
G04 #@! TD.AperFunction*
G04 #@! TA.AperFunction,Conductor*
G36*
X109287864Y-108610531D02*
G01*
X109332381Y-108661907D01*
X109389858Y-108785167D01*
X109516868Y-108966555D01*
X109673445Y-109123132D01*
X109854833Y-109250142D01*
X109894659Y-109268713D01*
X109978091Y-109307618D01*
X110030531Y-109353790D01*
X110049683Y-109420983D01*
X110029467Y-109487865D01*
X109978091Y-109532382D01*
X109854836Y-109589856D01*
X109854834Y-109589857D01*
X109673444Y-109716868D01*
X109516868Y-109873444D01*
X109389857Y-110054834D01*
X109389856Y-110054836D01*
X109332382Y-110178091D01*
X109286210Y-110230531D01*
X109219017Y-110249683D01*
X109152135Y-110229467D01*
X109107618Y-110178091D01*
X109050143Y-110054836D01*
X109050142Y-110054834D01*
X109050142Y-110054833D01*
X108923132Y-109873445D01*
X108766555Y-109716868D01*
X108585167Y-109589858D01*
X108571995Y-109583716D01*
X108461908Y-109532382D01*
X108409468Y-109486210D01*
X108390316Y-109419017D01*
X108410531Y-109352136D01*
X108461908Y-109307618D01*
X108515255Y-109282742D01*
X108585167Y-109250142D01*
X108766555Y-109123132D01*
X108923132Y-108966555D01*
X109050142Y-108785167D01*
X109107618Y-108661907D01*
X109153790Y-108609468D01*
X109220983Y-108590316D01*
X109287864Y-108610531D01*
G37*
G04 #@! TD.AperFunction*
G04 #@! TA.AperFunction,Conductor*
G36*
X109287864Y-106070531D02*
G01*
X109332381Y-106121907D01*
X109389858Y-106245167D01*
X109516868Y-106426555D01*
X109673445Y-106583132D01*
X109854833Y-106710142D01*
X109916828Y-106739050D01*
X109978091Y-106767618D01*
X110030531Y-106813790D01*
X110049683Y-106880983D01*
X110029467Y-106947865D01*
X109978091Y-106992382D01*
X109854836Y-107049856D01*
X109854834Y-107049857D01*
X109673444Y-107176868D01*
X109516868Y-107333444D01*
X109389857Y-107514834D01*
X109389856Y-107514836D01*
X109332382Y-107638091D01*
X109286210Y-107690531D01*
X109219017Y-107709683D01*
X109152135Y-107689467D01*
X109107618Y-107638091D01*
X109050143Y-107514836D01*
X109050142Y-107514834D01*
X109050142Y-107514833D01*
X108923132Y-107333445D01*
X108766555Y-107176868D01*
X108585167Y-107049858D01*
X108461907Y-106992381D01*
X108409468Y-106946210D01*
X108390316Y-106879017D01*
X108410531Y-106812136D01*
X108461908Y-106767618D01*
X108585167Y-106710142D01*
X108766555Y-106583132D01*
X108923132Y-106426555D01*
X109050142Y-106245167D01*
X109107618Y-106121907D01*
X109153790Y-106069468D01*
X109220983Y-106050316D01*
X109287864Y-106070531D01*
G37*
G04 #@! TD.AperFunction*
G04 #@! TA.AperFunction,Conductor*
G36*
X109287864Y-103530531D02*
G01*
X109332381Y-103581907D01*
X109389858Y-103705167D01*
X109516868Y-103886555D01*
X109673445Y-104043132D01*
X109854833Y-104170142D01*
X109916828Y-104199050D01*
X109978091Y-104227618D01*
X110030531Y-104273790D01*
X110049683Y-104340983D01*
X110029467Y-104407865D01*
X109978091Y-104452382D01*
X109854836Y-104509856D01*
X109854834Y-104509857D01*
X109673444Y-104636868D01*
X109516868Y-104793444D01*
X109389857Y-104974834D01*
X109389856Y-104974836D01*
X109332382Y-105098091D01*
X109286210Y-105150531D01*
X109219017Y-105169683D01*
X109152135Y-105149467D01*
X109107618Y-105098091D01*
X109050143Y-104974836D01*
X109050142Y-104974834D01*
X109050142Y-104974833D01*
X108923132Y-104793445D01*
X108766555Y-104636868D01*
X108585167Y-104509858D01*
X108461907Y-104452381D01*
X108409468Y-104406210D01*
X108390316Y-104339017D01*
X108410531Y-104272136D01*
X108461908Y-104227618D01*
X108515255Y-104202742D01*
X108585167Y-104170142D01*
X108766555Y-104043132D01*
X108923132Y-103886555D01*
X109050142Y-103705167D01*
X109107618Y-103581907D01*
X109153790Y-103529468D01*
X109220983Y-103510316D01*
X109287864Y-103530531D01*
G37*
G04 #@! TD.AperFunction*
G04 #@! TA.AperFunction,Conductor*
G36*
X109287864Y-100990531D02*
G01*
X109332381Y-101041907D01*
X109389858Y-101165167D01*
X109516868Y-101346555D01*
X109673445Y-101503132D01*
X109854833Y-101630142D01*
X109916828Y-101659050D01*
X109978091Y-101687618D01*
X110030531Y-101733790D01*
X110049683Y-101800983D01*
X110029467Y-101867865D01*
X109978091Y-101912382D01*
X109854836Y-101969856D01*
X109854834Y-101969857D01*
X109673444Y-102096868D01*
X109516868Y-102253444D01*
X109389857Y-102434834D01*
X109389856Y-102434836D01*
X109332382Y-102558091D01*
X109286210Y-102610531D01*
X109219017Y-102629683D01*
X109152135Y-102609467D01*
X109107618Y-102558091D01*
X109050143Y-102434836D01*
X109050142Y-102434834D01*
X109050142Y-102434833D01*
X108923132Y-102253445D01*
X108766555Y-102096868D01*
X108585167Y-101969858D01*
X108461907Y-101912381D01*
X108409468Y-101866210D01*
X108390316Y-101799017D01*
X108410531Y-101732136D01*
X108461908Y-101687618D01*
X108515255Y-101662742D01*
X108585167Y-101630142D01*
X108766555Y-101503132D01*
X108923132Y-101346555D01*
X109050142Y-101165167D01*
X109107618Y-101041907D01*
X109153790Y-100989468D01*
X109220983Y-100970316D01*
X109287864Y-100990531D01*
G37*
G04 #@! TD.AperFunction*
G04 #@! TA.AperFunction,Conductor*
G36*
X109287864Y-98450531D02*
G01*
X109332381Y-98501907D01*
X109389858Y-98625167D01*
X109516868Y-98806555D01*
X109673445Y-98963132D01*
X109854833Y-99090142D01*
X109916828Y-99119050D01*
X109978091Y-99147618D01*
X110030531Y-99193790D01*
X110049683Y-99260983D01*
X110029467Y-99327865D01*
X109978091Y-99372382D01*
X109854836Y-99429856D01*
X109854834Y-99429857D01*
X109673444Y-99556868D01*
X109516868Y-99713444D01*
X109389857Y-99894834D01*
X109389856Y-99894836D01*
X109332382Y-100018091D01*
X109286210Y-100070531D01*
X109219017Y-100089683D01*
X109152135Y-100069467D01*
X109107618Y-100018091D01*
X109072251Y-99942246D01*
X109050142Y-99894833D01*
X108923132Y-99713445D01*
X108766555Y-99556868D01*
X108585167Y-99429858D01*
X108461907Y-99372381D01*
X108409468Y-99326210D01*
X108390316Y-99259017D01*
X108410531Y-99192136D01*
X108461908Y-99147618D01*
X108585167Y-99090142D01*
X108766555Y-98963132D01*
X108923132Y-98806555D01*
X109050142Y-98625167D01*
X109107618Y-98501907D01*
X109153790Y-98449468D01*
X109220983Y-98430316D01*
X109287864Y-98450531D01*
G37*
G04 #@! TD.AperFunction*
G04 #@! TA.AperFunction,Conductor*
G36*
X109287864Y-95910531D02*
G01*
X109332382Y-95961908D01*
X109370885Y-96044480D01*
X109389858Y-96085167D01*
X109516868Y-96266555D01*
X109673445Y-96423132D01*
X109854833Y-96550142D01*
X109916828Y-96579050D01*
X109978091Y-96607618D01*
X110030531Y-96653790D01*
X110049683Y-96720983D01*
X110029467Y-96787865D01*
X109978091Y-96832382D01*
X109854836Y-96889856D01*
X109854834Y-96889857D01*
X109673444Y-97016868D01*
X109516868Y-97173444D01*
X109389857Y-97354834D01*
X109389856Y-97354836D01*
X109332382Y-97478091D01*
X109286210Y-97530531D01*
X109219017Y-97549683D01*
X109152135Y-97529467D01*
X109107618Y-97478091D01*
X109079050Y-97416828D01*
X109050142Y-97354833D01*
X108923132Y-97173445D01*
X108766555Y-97016868D01*
X108585167Y-96889858D01*
X108461907Y-96832381D01*
X108409468Y-96786210D01*
X108390316Y-96719017D01*
X108410531Y-96652136D01*
X108461908Y-96607618D01*
X108515255Y-96582742D01*
X108585167Y-96550142D01*
X108766555Y-96423132D01*
X108923132Y-96266555D01*
X109050142Y-96085167D01*
X109107618Y-95961907D01*
X109153790Y-95909468D01*
X109220983Y-95890316D01*
X109287864Y-95910531D01*
G37*
G04 #@! TD.AperFunction*
G04 #@! TA.AperFunction,Conductor*
G36*
X109287864Y-93370531D02*
G01*
X109332381Y-93421907D01*
X109389858Y-93545167D01*
X109516868Y-93726555D01*
X109673445Y-93883132D01*
X109854833Y-94010142D01*
X109916828Y-94039050D01*
X109978091Y-94067618D01*
X110030531Y-94113790D01*
X110049683Y-94180983D01*
X110029467Y-94247865D01*
X109978091Y-94292382D01*
X109854836Y-94349856D01*
X109854834Y-94349857D01*
X109673444Y-94476868D01*
X109516868Y-94633444D01*
X109389857Y-94814834D01*
X109389856Y-94814836D01*
X109332382Y-94938091D01*
X109286210Y-94990531D01*
X109219017Y-95009683D01*
X109152135Y-94989467D01*
X109107618Y-94938091D01*
X109056293Y-94828024D01*
X109050142Y-94814833D01*
X108923132Y-94633445D01*
X108766555Y-94476868D01*
X108585167Y-94349858D01*
X108461907Y-94292381D01*
X108409468Y-94246210D01*
X108390316Y-94179017D01*
X108410531Y-94112136D01*
X108461908Y-94067618D01*
X108585167Y-94010142D01*
X108766555Y-93883132D01*
X108923132Y-93726555D01*
X109050142Y-93545167D01*
X109107618Y-93421907D01*
X109153790Y-93369468D01*
X109220983Y-93350316D01*
X109287864Y-93370531D01*
G37*
G04 #@! TD.AperFunction*
G04 #@! TA.AperFunction,Conductor*
G36*
X109287864Y-90830531D02*
G01*
X109332381Y-90881907D01*
X109389858Y-91005167D01*
X109516868Y-91186555D01*
X109673445Y-91343132D01*
X109854833Y-91470142D01*
X109916828Y-91499050D01*
X109978091Y-91527618D01*
X110030531Y-91573790D01*
X110049683Y-91640983D01*
X110029467Y-91707865D01*
X109978091Y-91752382D01*
X109854836Y-91809856D01*
X109854834Y-91809857D01*
X109673444Y-91936868D01*
X109516868Y-92093444D01*
X109389857Y-92274834D01*
X109389856Y-92274836D01*
X109332382Y-92398091D01*
X109286210Y-92450531D01*
X109219017Y-92469683D01*
X109152135Y-92449467D01*
X109107618Y-92398091D01*
X109050143Y-92274836D01*
X109050142Y-92274834D01*
X109050142Y-92274833D01*
X108923132Y-92093445D01*
X108766555Y-91936868D01*
X108585167Y-91809858D01*
X108461907Y-91752381D01*
X108409468Y-91706210D01*
X108390316Y-91639017D01*
X108410531Y-91572136D01*
X108461908Y-91527618D01*
X108515255Y-91502742D01*
X108585167Y-91470142D01*
X108766555Y-91343132D01*
X108923132Y-91186555D01*
X109050142Y-91005167D01*
X109107618Y-90881907D01*
X109153790Y-90829468D01*
X109220983Y-90810316D01*
X109287864Y-90830531D01*
G37*
G04 #@! TD.AperFunction*
G04 #@! TA.AperFunction,Conductor*
G36*
X109287864Y-88290531D02*
G01*
X109332381Y-88341907D01*
X109389858Y-88465167D01*
X109516868Y-88646555D01*
X109673445Y-88803132D01*
X109854833Y-88930142D01*
X109916828Y-88959050D01*
X109978091Y-88987618D01*
X110030531Y-89033790D01*
X110049683Y-89100983D01*
X110029467Y-89167865D01*
X109978091Y-89212382D01*
X109854836Y-89269856D01*
X109854834Y-89269857D01*
X109673444Y-89396868D01*
X109516868Y-89553444D01*
X109389857Y-89734834D01*
X109389856Y-89734836D01*
X109332382Y-89858091D01*
X109286210Y-89910531D01*
X109219017Y-89929683D01*
X109152135Y-89909467D01*
X109107618Y-89858091D01*
X109050143Y-89734836D01*
X109050142Y-89734834D01*
X109050142Y-89734833D01*
X108923132Y-89553445D01*
X108766555Y-89396868D01*
X108585167Y-89269858D01*
X108461907Y-89212381D01*
X108409468Y-89166210D01*
X108390316Y-89099017D01*
X108410531Y-89032136D01*
X108461908Y-88987618D01*
X108585167Y-88930142D01*
X108766555Y-88803132D01*
X108923132Y-88646555D01*
X109050142Y-88465167D01*
X109107618Y-88341907D01*
X109153790Y-88289468D01*
X109220983Y-88270316D01*
X109287864Y-88290531D01*
G37*
G04 #@! TD.AperFunction*
G04 #@! TA.AperFunction,Conductor*
G36*
X109287864Y-85750531D02*
G01*
X109332381Y-85801907D01*
X109389858Y-85925167D01*
X109516868Y-86106555D01*
X109673445Y-86263132D01*
X109854833Y-86390142D01*
X109916828Y-86419050D01*
X109978091Y-86447618D01*
X110030531Y-86493790D01*
X110049683Y-86560983D01*
X110029467Y-86627865D01*
X109978091Y-86672382D01*
X109854836Y-86729856D01*
X109854834Y-86729857D01*
X109673444Y-86856868D01*
X109516868Y-87013444D01*
X109389857Y-87194834D01*
X109389856Y-87194836D01*
X109332382Y-87318091D01*
X109286210Y-87370531D01*
X109219017Y-87389683D01*
X109152135Y-87369467D01*
X109107618Y-87318091D01*
X109050143Y-87194836D01*
X109050142Y-87194834D01*
X109050142Y-87194833D01*
X108923132Y-87013445D01*
X108766555Y-86856868D01*
X108585167Y-86729858D01*
X108574712Y-86724983D01*
X108461908Y-86672382D01*
X108409468Y-86626210D01*
X108390316Y-86559017D01*
X108410531Y-86492136D01*
X108461908Y-86447618D01*
X108585167Y-86390142D01*
X108766555Y-86263132D01*
X108923132Y-86106555D01*
X109050142Y-85925167D01*
X109107618Y-85801907D01*
X109153790Y-85749468D01*
X109220983Y-85730316D01*
X109287864Y-85750531D01*
G37*
G04 #@! TD.AperFunction*
G04 #@! TA.AperFunction,Conductor*
G36*
X109287864Y-83210531D02*
G01*
X109332381Y-83261907D01*
X109389858Y-83385167D01*
X109516868Y-83566555D01*
X109673445Y-83723132D01*
X109854833Y-83850142D01*
X109916828Y-83879050D01*
X109978091Y-83907618D01*
X110030531Y-83953790D01*
X110049683Y-84020983D01*
X110029467Y-84087865D01*
X109978091Y-84132382D01*
X109854836Y-84189856D01*
X109854834Y-84189857D01*
X109673444Y-84316868D01*
X109516868Y-84473444D01*
X109389857Y-84654834D01*
X109389856Y-84654836D01*
X109332382Y-84778091D01*
X109286210Y-84830531D01*
X109219017Y-84849683D01*
X109152135Y-84829467D01*
X109107618Y-84778091D01*
X109050143Y-84654836D01*
X109050142Y-84654834D01*
X109050142Y-84654833D01*
X108923132Y-84473445D01*
X108766555Y-84316868D01*
X108585167Y-84189858D01*
X108461907Y-84132381D01*
X108409468Y-84086210D01*
X108390316Y-84019017D01*
X108410531Y-83952136D01*
X108461908Y-83907618D01*
X108585167Y-83850142D01*
X108766555Y-83723132D01*
X108923132Y-83566555D01*
X109050142Y-83385167D01*
X109107618Y-83261907D01*
X109153790Y-83209468D01*
X109220983Y-83190316D01*
X109287864Y-83210531D01*
G37*
G04 #@! TD.AperFunction*
G04 #@! TA.AperFunction,Conductor*
G36*
X208942539Y-34520185D02*
G01*
X208988294Y-34572989D01*
X208999500Y-34624500D01*
X208999500Y-172875500D01*
X208979815Y-172942539D01*
X208927011Y-172988294D01*
X208875500Y-172999500D01*
X99124500Y-172999500D01*
X99057461Y-172979815D01*
X99011706Y-172927011D01*
X99000500Y-172875500D01*
X99000500Y-164079054D01*
X103399498Y-164079054D01*
X103440424Y-164231789D01*
X103440425Y-164231790D01*
X103461455Y-164268214D01*
X103461456Y-164268216D01*
X103519475Y-164368709D01*
X103519481Y-164368717D01*
X103638349Y-164487585D01*
X103638354Y-164487589D01*
X104631284Y-165480520D01*
X104631286Y-165480521D01*
X104631290Y-165480524D01*
X104768209Y-165559573D01*
X104768216Y-165559577D01*
X104920943Y-165600501D01*
X104920945Y-165600501D01*
X105086654Y-165600501D01*
X105086670Y-165600500D01*
X152664677Y-165600500D01*
X152664693Y-165600501D01*
X152672289Y-165600501D01*
X152830400Y-165600501D01*
X152830403Y-165600501D01*
X152983131Y-165559577D01*
X153033250Y-165530639D01*
X153120062Y-165480520D01*
X153231866Y-165368716D01*
X153231866Y-165368714D01*
X153242074Y-165358507D01*
X153242076Y-165358504D01*
X154445161Y-164155419D01*
X154506484Y-164121934D01*
X154576176Y-164126918D01*
X154616018Y-164152524D01*
X154616512Y-164151947D01*
X154620213Y-164155109D01*
X154792179Y-164280048D01*
X154792181Y-164280049D01*
X154792184Y-164280051D01*
X154981588Y-164376557D01*
X155183757Y-164442246D01*
X155393713Y-164475500D01*
X155393714Y-164475500D01*
X155606286Y-164475500D01*
X155606287Y-164475500D01*
X155816243Y-164442246D01*
X156018412Y-164376557D01*
X156207816Y-164280051D01*
X156274242Y-164231790D01*
X156379786Y-164155109D01*
X156379788Y-164155106D01*
X156379792Y-164155104D01*
X156530104Y-164004792D01*
X156530106Y-164004788D01*
X156530109Y-164004786D01*
X156655048Y-163832820D01*
X156655047Y-163832820D01*
X156655051Y-163832816D01*
X156751557Y-163643412D01*
X156817246Y-163441243D01*
X156850500Y-163231287D01*
X156850500Y-162768713D01*
X156817246Y-162558757D01*
X156751557Y-162356588D01*
X156655051Y-162167184D01*
X156655049Y-162167181D01*
X156655048Y-162167179D01*
X156530109Y-161995213D01*
X156379786Y-161844890D01*
X156207820Y-161719951D01*
X156018414Y-161623444D01*
X156018413Y-161623443D01*
X156018412Y-161623443D01*
X155816243Y-161557754D01*
X155816241Y-161557753D01*
X155816240Y-161557753D01*
X155654957Y-161532208D01*
X155606287Y-161524500D01*
X155393713Y-161524500D01*
X155345042Y-161532208D01*
X155183760Y-161557753D01*
X154981585Y-161623444D01*
X154930795Y-161649323D01*
X154862125Y-161662219D01*
X154797385Y-161635942D01*
X154757128Y-161578836D01*
X154750500Y-161538838D01*
X154750500Y-157650097D01*
X154770185Y-157583058D01*
X154786819Y-157562416D01*
X157937416Y-154411819D01*
X157998739Y-154378334D01*
X158025097Y-154375500D01*
X186248075Y-154375500D01*
X186248091Y-154375501D01*
X186255687Y-154375501D01*
X186413798Y-154375501D01*
X186413801Y-154375501D01*
X186566529Y-154334577D01*
X186616648Y-154305639D01*
X186703460Y-154255520D01*
X186815264Y-154143716D01*
X186815264Y-154143714D01*
X186825472Y-154133507D01*
X186825474Y-154133504D01*
X187018713Y-153940265D01*
X187018716Y-153940264D01*
X187130520Y-153828460D01*
X187130523Y-153828454D01*
X187135464Y-153822016D01*
X187136693Y-153822959D01*
X187180582Y-153781103D01*
X187249187Y-153767872D01*
X187293704Y-153780825D01*
X187481588Y-153876557D01*
X187683757Y-153942246D01*
X187893713Y-153975500D01*
X187893714Y-153975500D01*
X188106286Y-153975500D01*
X188106287Y-153975500D01*
X188316243Y-153942246D01*
X188518412Y-153876557D01*
X188707816Y-153780051D01*
X188837811Y-153685605D01*
X188879786Y-153655109D01*
X188879788Y-153655106D01*
X188879792Y-153655104D01*
X189030104Y-153504792D01*
X189149683Y-153340204D01*
X189205011Y-153297540D01*
X189274624Y-153291561D01*
X189336420Y-153324166D01*
X189350313Y-153340199D01*
X189430016Y-153449901D01*
X189469896Y-153504792D01*
X189620213Y-153655109D01*
X189792179Y-153780048D01*
X189792181Y-153780049D01*
X189792184Y-153780051D01*
X189981588Y-153876557D01*
X190183757Y-153942246D01*
X190393713Y-153975500D01*
X190393714Y-153975500D01*
X190606286Y-153975500D01*
X190606287Y-153975500D01*
X190816243Y-153942246D01*
X191018412Y-153876557D01*
X191207816Y-153780051D01*
X191337811Y-153685605D01*
X191379786Y-153655109D01*
X191379788Y-153655106D01*
X191379792Y-153655104D01*
X191530104Y-153504792D01*
X191530106Y-153504788D01*
X191530109Y-153504786D01*
X191655048Y-153332820D01*
X191655047Y-153332820D01*
X191655051Y-153332816D01*
X191751557Y-153143412D01*
X191817246Y-152941243D01*
X191850500Y-152731287D01*
X191850500Y-152268713D01*
X194149500Y-152268713D01*
X194149500Y-152731287D01*
X194182754Y-152941243D01*
X194234500Y-153100501D01*
X194248444Y-153143414D01*
X194344951Y-153332820D01*
X194469890Y-153504786D01*
X194620213Y-153655109D01*
X194792179Y-153780048D01*
X194792181Y-153780049D01*
X194792184Y-153780051D01*
X194981588Y-153876557D01*
X195183757Y-153942246D01*
X195393713Y-153975500D01*
X195393714Y-153975500D01*
X195606286Y-153975500D01*
X195606287Y-153975500D01*
X195816243Y-153942246D01*
X196018412Y-153876557D01*
X196207816Y-153780051D01*
X196337811Y-153685605D01*
X196379786Y-153655109D01*
X196379788Y-153655106D01*
X196379792Y-153655104D01*
X196530104Y-153504792D01*
X196530106Y-153504788D01*
X196530109Y-153504786D01*
X196655048Y-153332820D01*
X196655047Y-153332820D01*
X196655051Y-153332816D01*
X196751557Y-153143412D01*
X196817246Y-152941243D01*
X196850500Y-152731287D01*
X196850500Y-152268713D01*
X196817246Y-152058757D01*
X196751557Y-151856588D01*
X196655051Y-151667184D01*
X196655049Y-151667181D01*
X196655048Y-151667179D01*
X196530109Y-151495213D01*
X196379786Y-151344890D01*
X196207820Y-151219951D01*
X196018414Y-151123444D01*
X196018413Y-151123443D01*
X196018412Y-151123443D01*
X195816243Y-151057754D01*
X195816241Y-151057753D01*
X195816240Y-151057753D01*
X195654957Y-151032208D01*
X195606287Y-151024500D01*
X195393713Y-151024500D01*
X195345042Y-151032208D01*
X195183760Y-151057753D01*
X194981585Y-151123444D01*
X194792179Y-151219951D01*
X194620213Y-151344890D01*
X194469890Y-151495213D01*
X194344951Y-151667179D01*
X194248444Y-151856585D01*
X194182753Y-152058760D01*
X194156426Y-152224983D01*
X194149500Y-152268713D01*
X191850500Y-152268713D01*
X191817246Y-152058757D01*
X191751557Y-151856588D01*
X191655051Y-151667184D01*
X191655049Y-151667181D01*
X191655048Y-151667179D01*
X191530109Y-151495213D01*
X191379786Y-151344890D01*
X191207820Y-151219951D01*
X191018414Y-151123444D01*
X191018413Y-151123443D01*
X191018412Y-151123443D01*
X190816243Y-151057754D01*
X190816241Y-151057753D01*
X190816240Y-151057753D01*
X190654957Y-151032208D01*
X190606287Y-151024500D01*
X190393713Y-151024500D01*
X190345042Y-151032208D01*
X190183760Y-151057753D01*
X189981585Y-151123444D01*
X189792179Y-151219951D01*
X189620213Y-151344890D01*
X189469894Y-151495209D01*
X189469890Y-151495214D01*
X189350318Y-151659793D01*
X189294989Y-151702459D01*
X189225375Y-151708438D01*
X189163580Y-151675833D01*
X189149682Y-151659793D01*
X189030109Y-151495214D01*
X189030105Y-151495209D01*
X188879786Y-151344890D01*
X188707820Y-151219951D01*
X188518414Y-151123444D01*
X188518413Y-151123443D01*
X188518412Y-151123443D01*
X188316243Y-151057754D01*
X188316241Y-151057753D01*
X188316240Y-151057753D01*
X188165504Y-151033879D01*
X188106287Y-151024500D01*
X188106286Y-151024500D01*
X188103596Y-151024074D01*
X188040461Y-150994145D01*
X188003530Y-150934833D01*
X188004528Y-150864971D01*
X188035311Y-150813922D01*
X194462416Y-144386818D01*
X194523739Y-144353333D01*
X194550097Y-144350499D01*
X195775002Y-144350499D01*
X195775008Y-144350499D01*
X195877797Y-144339999D01*
X196044334Y-144284814D01*
X196193656Y-144192712D01*
X196317712Y-144068656D01*
X196409814Y-143919334D01*
X196464999Y-143752797D01*
X196475500Y-143650009D01*
X196475499Y-142349992D01*
X196464999Y-142247203D01*
X196409814Y-142080666D01*
X196317712Y-141931344D01*
X196193656Y-141807288D01*
X196044334Y-141715186D01*
X196044333Y-141715185D01*
X196038878Y-141711821D01*
X195992154Y-141659873D01*
X195980931Y-141590910D01*
X196008775Y-141526828D01*
X196016272Y-141518623D01*
X196155104Y-141379792D01*
X196280051Y-141207816D01*
X196376557Y-141018412D01*
X196442246Y-140816243D01*
X196475500Y-140606287D01*
X196475500Y-140393713D01*
X196442246Y-140183757D01*
X196376557Y-139981588D01*
X196280051Y-139792184D01*
X196280049Y-139792181D01*
X196280048Y-139792179D01*
X196155109Y-139620213D01*
X196004786Y-139469890D01*
X195832820Y-139344951D01*
X195643414Y-139248444D01*
X195643413Y-139248443D01*
X195643412Y-139248443D01*
X195441243Y-139182754D01*
X195441241Y-139182753D01*
X195441240Y-139182753D01*
X195279957Y-139157208D01*
X195231287Y-139149500D01*
X194768713Y-139149500D01*
X194720042Y-139157208D01*
X194558760Y-139182753D01*
X194356585Y-139248444D01*
X194167179Y-139344951D01*
X193995213Y-139469890D01*
X193844890Y-139620213D01*
X193719951Y-139792179D01*
X193623444Y-139981585D01*
X193557753Y-140183760D01*
X193524500Y-140393713D01*
X193524500Y-140606287D01*
X193557754Y-140816243D01*
X193611132Y-140980524D01*
X193623444Y-141018414D01*
X193719951Y-141207820D01*
X193844890Y-141379786D01*
X193983705Y-141518601D01*
X194017190Y-141579924D01*
X194012206Y-141649616D01*
X193970334Y-141705549D01*
X193961121Y-141711821D01*
X193806342Y-141807289D01*
X193682289Y-141931342D01*
X193590187Y-142080663D01*
X193590185Y-142080668D01*
X193562349Y-142164670D01*
X193535001Y-142247203D01*
X193535001Y-142247204D01*
X193535000Y-142247204D01*
X193524500Y-142349983D01*
X193524500Y-143574902D01*
X193504815Y-143641941D01*
X193488181Y-143662583D01*
X186163733Y-150987031D01*
X186161494Y-150984792D01*
X186117080Y-151017202D01*
X186075169Y-151024500D01*
X184849998Y-151024500D01*
X184849981Y-151024501D01*
X184747203Y-151035000D01*
X184747200Y-151035001D01*
X184580668Y-151090185D01*
X184580663Y-151090187D01*
X184431342Y-151182289D01*
X184307289Y-151306342D01*
X184215187Y-151455663D01*
X184215185Y-151455668D01*
X184192377Y-151524500D01*
X184160001Y-151622203D01*
X184160001Y-151622204D01*
X184160000Y-151622204D01*
X184149500Y-151724983D01*
X184149500Y-151775500D01*
X184129815Y-151842539D01*
X184077011Y-151888294D01*
X184025500Y-151899500D01*
X172690353Y-151899500D01*
X172623314Y-151879815D01*
X172602672Y-151863181D01*
X165426671Y-144687180D01*
X165393186Y-144625857D01*
X165398170Y-144556165D01*
X165440042Y-144500232D01*
X165505506Y-144475815D01*
X165514352Y-144475499D01*
X165650002Y-144475499D01*
X165650008Y-144475499D01*
X165752797Y-144464999D01*
X165919334Y-144409814D01*
X166068656Y-144317712D01*
X166068657Y-144317710D01*
X166074803Y-144313920D01*
X166076150Y-144316104D01*
X166129784Y-144294457D01*
X166198428Y-144307487D01*
X166229599Y-144330180D01*
X166654938Y-144755520D01*
X166654940Y-144755521D01*
X166654944Y-144755524D01*
X166791863Y-144834573D01*
X166791870Y-144834577D01*
X166944597Y-144875501D01*
X166944599Y-144875501D01*
X167110308Y-144875501D01*
X167110324Y-144875500D01*
X181638331Y-144875500D01*
X181638347Y-144875501D01*
X181645943Y-144875501D01*
X181804054Y-144875501D01*
X181804057Y-144875501D01*
X181956785Y-144834577D01*
X182006904Y-144805639D01*
X182093716Y-144755520D01*
X182205520Y-144643716D01*
X182205520Y-144643714D01*
X182215728Y-144633507D01*
X182215730Y-144633504D01*
X182462416Y-144386818D01*
X182523739Y-144353333D01*
X182550097Y-144350499D01*
X183775002Y-144350499D01*
X183775008Y-144350499D01*
X183877797Y-144339999D01*
X184044334Y-144284814D01*
X184193656Y-144192712D01*
X184317712Y-144068656D01*
X184409814Y-143919334D01*
X184464999Y-143752797D01*
X184475500Y-143650009D01*
X184475499Y-142349992D01*
X184464999Y-142247203D01*
X184409814Y-142080666D01*
X184317712Y-141931344D01*
X184193656Y-141807288D01*
X184044334Y-141715186D01*
X184044333Y-141715185D01*
X184038878Y-141711821D01*
X183992154Y-141659873D01*
X183980931Y-141590910D01*
X184008775Y-141526828D01*
X184016272Y-141518623D01*
X184155104Y-141379792D01*
X184280051Y-141207816D01*
X184376557Y-141018412D01*
X184442246Y-140816243D01*
X184475500Y-140606287D01*
X184475500Y-140393713D01*
X184442246Y-140183757D01*
X184376557Y-139981588D01*
X184280051Y-139792184D01*
X184280049Y-139792181D01*
X184280048Y-139792179D01*
X184155109Y-139620213D01*
X184004786Y-139469890D01*
X183832820Y-139344951D01*
X183643414Y-139248444D01*
X183643413Y-139248443D01*
X183643412Y-139248443D01*
X183441243Y-139182754D01*
X183441241Y-139182753D01*
X183441240Y-139182753D01*
X183279957Y-139157208D01*
X183231287Y-139149500D01*
X182768713Y-139149500D01*
X182720042Y-139157208D01*
X182558760Y-139182753D01*
X182356585Y-139248444D01*
X182167179Y-139344951D01*
X181995213Y-139469890D01*
X181844890Y-139620213D01*
X181719948Y-139792184D01*
X181719947Y-139792185D01*
X181699765Y-139831795D01*
X181651791Y-139882591D01*
X181589281Y-139899500D01*
X180300098Y-139899500D01*
X180233059Y-139879815D01*
X180212417Y-139863181D01*
X175742948Y-135393713D01*
X181524500Y-135393713D01*
X181524500Y-135606286D01*
X181552216Y-135781282D01*
X181557754Y-135816243D01*
X181591735Y-135920826D01*
X181623444Y-136018414D01*
X181719951Y-136207820D01*
X181844890Y-136379786D01*
X181995213Y-136530109D01*
X182167179Y-136655048D01*
X182167181Y-136655049D01*
X182167184Y-136655051D01*
X182356588Y-136751557D01*
X182558757Y-136817246D01*
X182768713Y-136850500D01*
X182768714Y-136850500D01*
X183231286Y-136850500D01*
X183231287Y-136850500D01*
X183441243Y-136817246D01*
X183643412Y-136751557D01*
X183832816Y-136655051D01*
X183889647Y-136613761D01*
X184004786Y-136530109D01*
X184004788Y-136530106D01*
X184004792Y-136530104D01*
X184155104Y-136379792D01*
X184155106Y-136379788D01*
X184155109Y-136379786D01*
X184280048Y-136207820D01*
X184280047Y-136207820D01*
X184280051Y-136207816D01*
X184376557Y-136018412D01*
X184442246Y-135816243D01*
X184475500Y-135606287D01*
X184475500Y-135393713D01*
X193524500Y-135393713D01*
X193524500Y-135606286D01*
X193552216Y-135781282D01*
X193557754Y-135816243D01*
X193591735Y-135920826D01*
X193623444Y-136018414D01*
X193719951Y-136207820D01*
X193844890Y-136379786D01*
X193995213Y-136530109D01*
X194167179Y-136655048D01*
X194167181Y-136655049D01*
X194167184Y-136655051D01*
X194356588Y-136751557D01*
X194558757Y-136817246D01*
X194768713Y-136850500D01*
X194768714Y-136850500D01*
X195231286Y-136850500D01*
X195231287Y-136850500D01*
X195441243Y-136817246D01*
X195643412Y-136751557D01*
X195832816Y-136655051D01*
X195889647Y-136613761D01*
X196004786Y-136530109D01*
X196004788Y-136530106D01*
X196004792Y-136530104D01*
X196155104Y-136379792D01*
X196155106Y-136379788D01*
X196155109Y-136379786D01*
X196280048Y-136207820D01*
X196280047Y-136207820D01*
X196280051Y-136207816D01*
X196376557Y-136018412D01*
X196442246Y-135816243D01*
X196475500Y-135606287D01*
X196475500Y-135393713D01*
X196442246Y-135183757D01*
X196376557Y-134981588D01*
X196280051Y-134792184D01*
X196280049Y-134792181D01*
X196280048Y-134792179D01*
X196155109Y-134620213D01*
X196004786Y-134469890D01*
X195832820Y-134344951D01*
X195643414Y-134248444D01*
X195643413Y-134248443D01*
X195643412Y-134248443D01*
X195441243Y-134182754D01*
X195441241Y-134182753D01*
X195441240Y-134182753D01*
X195279957Y-134157208D01*
X195231287Y-134149500D01*
X194768713Y-134149500D01*
X194720042Y-134157208D01*
X194558760Y-134182753D01*
X194356585Y-134248444D01*
X194167179Y-134344951D01*
X193995213Y-134469890D01*
X193844890Y-134620213D01*
X193719951Y-134792179D01*
X193623444Y-134981585D01*
X193557753Y-135183760D01*
X193524500Y-135393713D01*
X184475500Y-135393713D01*
X184442246Y-135183757D01*
X184376557Y-134981588D01*
X184280051Y-134792184D01*
X184280049Y-134792181D01*
X184280048Y-134792179D01*
X184155109Y-134620213D01*
X184004786Y-134469890D01*
X183832820Y-134344951D01*
X183643414Y-134248444D01*
X183643413Y-134248443D01*
X183643412Y-134248443D01*
X183441243Y-134182754D01*
X183441241Y-134182753D01*
X183441240Y-134182753D01*
X183279957Y-134157208D01*
X183231287Y-134149500D01*
X182768713Y-134149500D01*
X182720042Y-134157208D01*
X182558760Y-134182753D01*
X182356585Y-134248444D01*
X182167179Y-134344951D01*
X181995213Y-134469890D01*
X181844890Y-134620213D01*
X181719951Y-134792179D01*
X181623444Y-134981585D01*
X181557753Y-135183760D01*
X181524500Y-135393713D01*
X175742948Y-135393713D01*
X173858261Y-133509026D01*
X173824776Y-133447703D01*
X173823469Y-133401951D01*
X173850500Y-133231287D01*
X173850500Y-132768713D01*
X173817246Y-132558757D01*
X173751557Y-132356588D01*
X173655051Y-132167184D01*
X173655049Y-132167181D01*
X173655048Y-132167179D01*
X173530109Y-131995213D01*
X173379786Y-131844890D01*
X173207820Y-131719951D01*
X173018414Y-131623444D01*
X173018413Y-131623443D01*
X173018412Y-131623443D01*
X172816243Y-131557754D01*
X172816241Y-131557753D01*
X172816240Y-131557753D01*
X172654957Y-131532208D01*
X172606287Y-131524500D01*
X172393713Y-131524500D01*
X172345042Y-131532208D01*
X172183760Y-131557753D01*
X171981585Y-131623444D01*
X171792179Y-131719951D01*
X171620213Y-131844890D01*
X171469890Y-131995213D01*
X171344951Y-132167179D01*
X171248444Y-132356585D01*
X171182753Y-132558760D01*
X171167138Y-132657351D01*
X171149500Y-132768713D01*
X171149500Y-133231287D01*
X171182754Y-133441243D01*
X171224896Y-133570943D01*
X171248444Y-133643414D01*
X171344951Y-133832820D01*
X171469890Y-134004786D01*
X171620213Y-134155109D01*
X171792179Y-134280048D01*
X171792181Y-134280049D01*
X171792184Y-134280051D01*
X171981588Y-134376557D01*
X172183757Y-134442246D01*
X172393713Y-134475500D01*
X172393714Y-134475500D01*
X172606286Y-134475500D01*
X172606287Y-134475500D01*
X172816243Y-134442246D01*
X172952873Y-134397851D01*
X173022708Y-134395856D01*
X173078866Y-134428101D01*
X179631284Y-140980520D01*
X179631286Y-140980521D01*
X179631290Y-140980524D01*
X179698765Y-141019480D01*
X179768216Y-141059577D01*
X179920943Y-141100501D01*
X179920945Y-141100501D01*
X180086654Y-141100501D01*
X180086670Y-141100500D01*
X181589281Y-141100500D01*
X181656320Y-141120185D01*
X181699765Y-141168205D01*
X181719947Y-141207814D01*
X181844890Y-141379786D01*
X181983705Y-141518601D01*
X182017190Y-141579924D01*
X182012206Y-141649616D01*
X181970334Y-141705549D01*
X181961121Y-141711821D01*
X181806342Y-141807289D01*
X181682289Y-141931342D01*
X181590187Y-142080663D01*
X181590185Y-142080668D01*
X181562349Y-142164670D01*
X181535001Y-142247203D01*
X181535001Y-142247204D01*
X181535000Y-142247204D01*
X181524500Y-142349983D01*
X181524500Y-143550500D01*
X181504815Y-143617539D01*
X181452011Y-143663294D01*
X181400500Y-143674500D01*
X171412127Y-143674500D01*
X171345088Y-143654815D01*
X171299333Y-143602011D01*
X171289389Y-143532853D01*
X171294196Y-143512182D01*
X171317246Y-143441243D01*
X171350500Y-143231287D01*
X171350500Y-142768713D01*
X171317246Y-142558757D01*
X171251557Y-142356588D01*
X171155051Y-142167184D01*
X171155049Y-142167181D01*
X171155048Y-142167179D01*
X171030109Y-141995213D01*
X170879786Y-141844890D01*
X170707820Y-141719951D01*
X170518414Y-141623444D01*
X170518413Y-141623443D01*
X170518412Y-141623443D01*
X170316243Y-141557754D01*
X170316241Y-141557753D01*
X170316240Y-141557753D01*
X170141669Y-141530104D01*
X170106287Y-141524500D01*
X169893713Y-141524500D01*
X169858331Y-141530104D01*
X169683760Y-141557753D01*
X169481585Y-141623444D01*
X169292179Y-141719951D01*
X169120213Y-141844890D01*
X168969890Y-141995213D01*
X168844951Y-142167179D01*
X168748444Y-142356585D01*
X168682753Y-142558760D01*
X168649500Y-142768713D01*
X168649500Y-143231286D01*
X168682753Y-143441239D01*
X168705804Y-143512182D01*
X168707799Y-143582023D01*
X168671719Y-143641856D01*
X168609018Y-143672684D01*
X168587873Y-143674500D01*
X167323752Y-143674500D01*
X167256713Y-143654815D01*
X167236071Y-143638181D01*
X166986819Y-143388929D01*
X166953334Y-143327606D01*
X166950500Y-143301248D01*
X166950500Y-136450096D01*
X166970185Y-136383057D01*
X166986814Y-136362420D01*
X169218713Y-134130521D01*
X169218716Y-134130520D01*
X169330520Y-134018716D01*
X169380639Y-133931904D01*
X169409577Y-133881785D01*
X169450501Y-133729057D01*
X169450501Y-133570943D01*
X169450501Y-133563348D01*
X169450500Y-133563330D01*
X169450500Y-132698751D01*
X169470185Y-132631712D01*
X169486819Y-132611070D01*
X179461071Y-122636819D01*
X179522394Y-122603334D01*
X179548752Y-122600500D01*
X185763331Y-122600500D01*
X185763347Y-122600501D01*
X185770943Y-122600501D01*
X185929054Y-122600501D01*
X185929057Y-122600501D01*
X186081785Y-122559577D01*
X186131904Y-122530639D01*
X186218716Y-122480520D01*
X186330520Y-122368716D01*
X186330520Y-122368714D01*
X186340728Y-122358507D01*
X186340729Y-122358504D01*
X187330520Y-121368716D01*
X187409577Y-121231784D01*
X187450501Y-121079057D01*
X187450501Y-120920942D01*
X187450501Y-120913347D01*
X187450500Y-120913329D01*
X187450500Y-120268713D01*
X189149500Y-120268713D01*
X189149500Y-120731286D01*
X189179981Y-120923739D01*
X189182754Y-120941243D01*
X189190384Y-120964727D01*
X189248444Y-121143414D01*
X189344951Y-121332820D01*
X189469890Y-121504786D01*
X189620213Y-121655109D01*
X189792179Y-121780048D01*
X189792181Y-121780049D01*
X189792184Y-121780051D01*
X189981588Y-121876557D01*
X190183757Y-121942246D01*
X190393713Y-121975500D01*
X190393714Y-121975500D01*
X190606286Y-121975500D01*
X190606287Y-121975500D01*
X190816243Y-121942246D01*
X191018412Y-121876557D01*
X191207816Y-121780051D01*
X191245331Y-121752795D01*
X191379786Y-121655109D01*
X191379788Y-121655106D01*
X191379792Y-121655104D01*
X191530104Y-121504792D01*
X191530106Y-121504788D01*
X191530109Y-121504786D01*
X191655048Y-121332820D01*
X191655047Y-121332820D01*
X191655051Y-121332816D01*
X191751557Y-121143412D01*
X191817246Y-120941243D01*
X191850500Y-120731287D01*
X191850500Y-120268713D01*
X191817246Y-120058757D01*
X191751557Y-119856588D01*
X191655051Y-119667184D01*
X191655049Y-119667181D01*
X191655048Y-119667179D01*
X191530109Y-119495213D01*
X191384880Y-119349984D01*
X198189500Y-119349984D01*
X198189500Y-121650015D01*
X198200000Y-121752795D01*
X198200001Y-121752796D01*
X198255186Y-121919335D01*
X198255187Y-121919337D01*
X198347286Y-122068651D01*
X198347289Y-122068655D01*
X198471344Y-122192710D01*
X198471348Y-122192713D01*
X198620662Y-122284812D01*
X198620664Y-122284813D01*
X198620666Y-122284814D01*
X198787203Y-122339999D01*
X198889992Y-122350500D01*
X198889997Y-122350500D01*
X201190003Y-122350500D01*
X201190008Y-122350500D01*
X201292797Y-122339999D01*
X201459334Y-122284814D01*
X201608655Y-122192711D01*
X201732711Y-122068655D01*
X201824814Y-121919334D01*
X201879999Y-121752797D01*
X201890500Y-121650008D01*
X201890500Y-119349992D01*
X201879999Y-119247203D01*
X201824814Y-119080666D01*
X201822668Y-119077187D01*
X201732713Y-118931348D01*
X201732710Y-118931344D01*
X201608655Y-118807289D01*
X201608651Y-118807286D01*
X201459337Y-118715187D01*
X201459335Y-118715186D01*
X201333549Y-118673505D01*
X201292797Y-118660001D01*
X201292795Y-118660000D01*
X201190015Y-118649500D01*
X201190008Y-118649500D01*
X198889992Y-118649500D01*
X198889984Y-118649500D01*
X198787204Y-118660000D01*
X198787203Y-118660001D01*
X198620664Y-118715186D01*
X198620662Y-118715187D01*
X198471348Y-118807286D01*
X198471344Y-118807289D01*
X198347289Y-118931344D01*
X198347286Y-118931348D01*
X198255187Y-119080662D01*
X198255186Y-119080664D01*
X198200001Y-119247203D01*
X198200000Y-119247204D01*
X198189500Y-119349984D01*
X191384880Y-119349984D01*
X191379786Y-119344890D01*
X191207820Y-119219951D01*
X191018414Y-119123444D01*
X191018413Y-119123443D01*
X191018412Y-119123443D01*
X190816243Y-119057754D01*
X190816241Y-119057753D01*
X190816240Y-119057753D01*
X190654957Y-119032208D01*
X190606287Y-119024500D01*
X190393713Y-119024500D01*
X190345042Y-119032208D01*
X190183760Y-119057753D01*
X189981585Y-119123444D01*
X189792179Y-119219951D01*
X189620213Y-119344890D01*
X189469890Y-119495213D01*
X189344951Y-119667179D01*
X189248444Y-119856585D01*
X189248443Y-119856587D01*
X189248443Y-119856588D01*
X189215598Y-119957672D01*
X189182753Y-120058760D01*
X189149500Y-120268713D01*
X187450500Y-120268713D01*
X187450500Y-118939060D01*
X187450501Y-118939047D01*
X187450501Y-118770944D01*
X187450501Y-118770943D01*
X187409577Y-118618216D01*
X187362762Y-118537129D01*
X187330524Y-118481290D01*
X187330518Y-118481282D01*
X177574219Y-108724983D01*
X181649500Y-108724983D01*
X181649500Y-110275001D01*
X181649501Y-110275018D01*
X181660000Y-110377796D01*
X181660001Y-110377799D01*
X181705894Y-110516294D01*
X181715186Y-110544334D01*
X181807288Y-110693656D01*
X181931344Y-110817712D01*
X182080666Y-110909814D01*
X182247203Y-110964999D01*
X182349991Y-110975500D01*
X183650008Y-110975499D01*
X183752797Y-110964999D01*
X183919334Y-110909814D01*
X184068656Y-110817712D01*
X184192712Y-110693656D01*
X184284814Y-110544334D01*
X184284814Y-110544331D01*
X184288178Y-110538879D01*
X184340126Y-110492154D01*
X184409088Y-110480931D01*
X184473170Y-110508774D01*
X184481398Y-110516294D01*
X184620213Y-110655109D01*
X184792179Y-110780048D01*
X184792181Y-110780049D01*
X184792184Y-110780051D01*
X184981588Y-110876557D01*
X185183757Y-110942246D01*
X185393713Y-110975500D01*
X185393714Y-110975500D01*
X185606286Y-110975500D01*
X185606287Y-110975500D01*
X185816243Y-110942246D01*
X186018412Y-110876557D01*
X186207816Y-110780051D01*
X186326508Y-110693817D01*
X186379786Y-110655109D01*
X186379788Y-110655106D01*
X186379792Y-110655104D01*
X186530104Y-110504792D01*
X186530106Y-110504788D01*
X186530109Y-110504786D01*
X186655048Y-110332820D01*
X186655047Y-110332820D01*
X186655051Y-110332816D01*
X186751557Y-110143412D01*
X186817246Y-109941243D01*
X186850500Y-109731287D01*
X186850500Y-109268713D01*
X189149500Y-109268713D01*
X189149500Y-109731286D01*
X189172015Y-109873444D01*
X189182754Y-109941243D01*
X189213546Y-110036012D01*
X189248444Y-110143414D01*
X189344951Y-110332820D01*
X189469890Y-110504786D01*
X189620213Y-110655109D01*
X189792179Y-110780048D01*
X189792181Y-110780049D01*
X189792184Y-110780051D01*
X189981588Y-110876557D01*
X190183757Y-110942246D01*
X190393713Y-110975500D01*
X190393714Y-110975500D01*
X190606286Y-110975500D01*
X190606287Y-110975500D01*
X190816243Y-110942246D01*
X191018412Y-110876557D01*
X191207816Y-110780051D01*
X191326508Y-110693817D01*
X191379786Y-110655109D01*
X191379788Y-110655106D01*
X191379792Y-110655104D01*
X191530104Y-110504792D01*
X191530106Y-110504788D01*
X191530109Y-110504786D01*
X191655048Y-110332820D01*
X191655047Y-110332820D01*
X191655051Y-110332816D01*
X191751557Y-110143412D01*
X191817246Y-109941243D01*
X191850500Y-109731287D01*
X191850500Y-109268713D01*
X191817246Y-109058757D01*
X191751557Y-108856588D01*
X191655051Y-108667184D01*
X191655049Y-108667181D01*
X191655048Y-108667179D01*
X191530109Y-108495213D01*
X191379786Y-108344890D01*
X191207820Y-108219951D01*
X191018414Y-108123444D01*
X191018413Y-108123443D01*
X191018412Y-108123443D01*
X190816243Y-108057754D01*
X190816241Y-108057753D01*
X190816240Y-108057753D01*
X190654957Y-108032208D01*
X190606287Y-108024500D01*
X190393713Y-108024500D01*
X190345042Y-108032208D01*
X190183760Y-108057753D01*
X189981585Y-108123444D01*
X189792179Y-108219951D01*
X189620213Y-108344890D01*
X189469890Y-108495213D01*
X189344951Y-108667179D01*
X189248444Y-108856585D01*
X189182753Y-109058760D01*
X189149500Y-109268713D01*
X186850500Y-109268713D01*
X186817246Y-109058757D01*
X186751557Y-108856588D01*
X186655051Y-108667184D01*
X186655049Y-108667181D01*
X186655048Y-108667179D01*
X186530109Y-108495213D01*
X186379786Y-108344890D01*
X186207820Y-108219951D01*
X186018414Y-108123444D01*
X186018413Y-108123443D01*
X186018412Y-108123443D01*
X185816243Y-108057754D01*
X185816241Y-108057753D01*
X185816240Y-108057753D01*
X185654957Y-108032208D01*
X185606287Y-108024500D01*
X185393713Y-108024500D01*
X185345042Y-108032208D01*
X185183760Y-108057753D01*
X184981585Y-108123444D01*
X184792179Y-108219951D01*
X184620215Y-108344889D01*
X184481398Y-108483706D01*
X184420075Y-108517190D01*
X184350383Y-108512206D01*
X184294450Y-108470334D01*
X184288178Y-108461120D01*
X184192712Y-108306344D01*
X184068657Y-108182289D01*
X184068656Y-108182288D01*
X183919334Y-108090186D01*
X183752797Y-108035001D01*
X183752795Y-108035000D01*
X183650010Y-108024500D01*
X182349998Y-108024500D01*
X182349981Y-108024501D01*
X182247203Y-108035000D01*
X182247200Y-108035001D01*
X182080668Y-108090185D01*
X182080663Y-108090187D01*
X181931342Y-108182289D01*
X181807289Y-108306342D01*
X181715187Y-108455663D01*
X181715185Y-108455668D01*
X181710325Y-108470334D01*
X181660001Y-108622203D01*
X181660001Y-108622204D01*
X181660000Y-108622204D01*
X181649500Y-108724983D01*
X177574219Y-108724983D01*
X175636819Y-106787583D01*
X175603334Y-106726260D01*
X175600500Y-106699902D01*
X175600500Y-97724983D01*
X181649500Y-97724983D01*
X181649500Y-99275001D01*
X181649501Y-99275018D01*
X181660000Y-99377796D01*
X181660001Y-99377799D01*
X181705894Y-99516294D01*
X181715186Y-99544334D01*
X181807288Y-99693656D01*
X181931344Y-99817712D01*
X182080666Y-99909814D01*
X182247203Y-99964999D01*
X182349991Y-99975500D01*
X183650008Y-99975499D01*
X183752797Y-99964999D01*
X183919334Y-99909814D01*
X184068656Y-99817712D01*
X184192712Y-99693656D01*
X184284814Y-99544334D01*
X184284814Y-99544331D01*
X184288178Y-99538879D01*
X184340126Y-99492154D01*
X184409088Y-99480931D01*
X184473170Y-99508774D01*
X184481398Y-99516294D01*
X184620213Y-99655109D01*
X184792179Y-99780048D01*
X184792181Y-99780049D01*
X184792184Y-99780051D01*
X184981588Y-99876557D01*
X185183757Y-99942246D01*
X185393713Y-99975500D01*
X185393714Y-99975500D01*
X185606286Y-99975500D01*
X185606287Y-99975500D01*
X185816243Y-99942246D01*
X186018412Y-99876557D01*
X186207816Y-99780051D01*
X186299492Y-99713445D01*
X186379786Y-99655109D01*
X186379788Y-99655106D01*
X186379792Y-99655104D01*
X186530104Y-99504792D01*
X186530106Y-99504788D01*
X186530109Y-99504786D01*
X186655048Y-99332820D01*
X186655047Y-99332820D01*
X186655051Y-99332816D01*
X186751557Y-99143412D01*
X186817246Y-98941243D01*
X186850500Y-98731287D01*
X186850500Y-98268713D01*
X189149500Y-98268713D01*
X189149500Y-98731287D01*
X189182754Y-98941243D01*
X189231134Y-99090142D01*
X189248444Y-99143414D01*
X189344951Y-99332820D01*
X189469890Y-99504786D01*
X189620213Y-99655109D01*
X189792179Y-99780048D01*
X189792181Y-99780049D01*
X189792184Y-99780051D01*
X189981588Y-99876557D01*
X190183757Y-99942246D01*
X190393713Y-99975500D01*
X190393714Y-99975500D01*
X190606286Y-99975500D01*
X190606287Y-99975500D01*
X190816243Y-99942246D01*
X191018412Y-99876557D01*
X191207816Y-99780051D01*
X191299492Y-99713445D01*
X191379786Y-99655109D01*
X191379788Y-99655106D01*
X191379792Y-99655104D01*
X191530104Y-99504792D01*
X191530106Y-99504788D01*
X191530109Y-99504786D01*
X191655048Y-99332820D01*
X191655047Y-99332820D01*
X191655051Y-99332816D01*
X191751557Y-99143412D01*
X191817246Y-98941243D01*
X191850500Y-98731287D01*
X191850500Y-98268713D01*
X191817246Y-98058757D01*
X191751557Y-97856588D01*
X191655051Y-97667184D01*
X191655049Y-97667181D01*
X191655048Y-97667179D01*
X191530109Y-97495213D01*
X191379786Y-97344890D01*
X191207820Y-97219951D01*
X191018414Y-97123444D01*
X191018413Y-97123443D01*
X191018412Y-97123443D01*
X190816243Y-97057754D01*
X190816241Y-97057753D01*
X190816240Y-97057753D01*
X190654957Y-97032208D01*
X190606287Y-97024500D01*
X190393713Y-97024500D01*
X190345042Y-97032208D01*
X190183760Y-97057753D01*
X189981585Y-97123444D01*
X189792179Y-97219951D01*
X189620213Y-97344890D01*
X189469890Y-97495213D01*
X189344951Y-97667179D01*
X189248444Y-97856585D01*
X189182753Y-98058760D01*
X189157671Y-98217122D01*
X189149500Y-98268713D01*
X186850500Y-98268713D01*
X186817246Y-98058757D01*
X186751557Y-97856588D01*
X186655051Y-97667184D01*
X186655049Y-97667181D01*
X186655048Y-97667179D01*
X186530109Y-97495213D01*
X186379786Y-97344890D01*
X186207820Y-97219951D01*
X186018414Y-97123444D01*
X186018413Y-97123443D01*
X186018412Y-97123443D01*
X185816243Y-97057754D01*
X185816241Y-97057753D01*
X185816240Y-97057753D01*
X185654957Y-97032208D01*
X185606287Y-97024500D01*
X185393713Y-97024500D01*
X185345042Y-97032208D01*
X185183760Y-97057753D01*
X184981585Y-97123444D01*
X184792179Y-97219951D01*
X184620215Y-97344889D01*
X184481398Y-97483706D01*
X184420075Y-97517190D01*
X184350383Y-97512206D01*
X184294450Y-97470334D01*
X184288178Y-97461120D01*
X184192712Y-97306344D01*
X184068657Y-97182289D01*
X184068656Y-97182288D01*
X183919334Y-97090186D01*
X183752797Y-97035001D01*
X183752795Y-97035000D01*
X183650010Y-97024500D01*
X182349998Y-97024500D01*
X182349981Y-97024501D01*
X182247203Y-97035000D01*
X182247200Y-97035001D01*
X182080668Y-97090185D01*
X182080663Y-97090187D01*
X181931342Y-97182289D01*
X181807289Y-97306342D01*
X181715187Y-97455663D01*
X181715185Y-97455668D01*
X181710325Y-97470334D01*
X181660001Y-97622203D01*
X181660001Y-97622204D01*
X181660000Y-97622204D01*
X181649500Y-97724983D01*
X175600500Y-97724983D01*
X175600500Y-86724983D01*
X181649500Y-86724983D01*
X181649500Y-88275001D01*
X181649501Y-88275018D01*
X181660000Y-88377796D01*
X181660001Y-88377799D01*
X181705894Y-88516294D01*
X181715186Y-88544334D01*
X181807288Y-88693656D01*
X181931344Y-88817712D01*
X182080666Y-88909814D01*
X182247203Y-88964999D01*
X182349991Y-88975500D01*
X183650008Y-88975499D01*
X183752797Y-88964999D01*
X183919334Y-88909814D01*
X184068656Y-88817712D01*
X184192712Y-88693656D01*
X184284814Y-88544334D01*
X184284814Y-88544331D01*
X184288178Y-88538879D01*
X184340126Y-88492154D01*
X184409088Y-88480931D01*
X184473170Y-88508774D01*
X184481398Y-88516294D01*
X184620213Y-88655109D01*
X184792179Y-88780048D01*
X184792181Y-88780049D01*
X184792184Y-88780051D01*
X184981588Y-88876557D01*
X185183757Y-88942246D01*
X185393713Y-88975500D01*
X185393714Y-88975500D01*
X185606286Y-88975500D01*
X185606287Y-88975500D01*
X185816243Y-88942246D01*
X186018412Y-88876557D01*
X186207816Y-88780051D01*
X186255803Y-88745187D01*
X186379786Y-88655109D01*
X186379788Y-88655106D01*
X186379792Y-88655104D01*
X186530104Y-88504792D01*
X186530106Y-88504788D01*
X186530109Y-88504786D01*
X186655048Y-88332820D01*
X186655047Y-88332820D01*
X186655051Y-88332816D01*
X186751557Y-88143412D01*
X186817246Y-87941243D01*
X186850500Y-87731287D01*
X186850500Y-87268713D01*
X189149500Y-87268713D01*
X189149500Y-87731286D01*
X189167990Y-87848031D01*
X189182754Y-87941243D01*
X189220407Y-88057128D01*
X189248444Y-88143414D01*
X189344951Y-88332820D01*
X189469890Y-88504786D01*
X189620213Y-88655109D01*
X189792179Y-88780048D01*
X189792181Y-88780049D01*
X189792184Y-88780051D01*
X189981588Y-88876557D01*
X190183757Y-88942246D01*
X190393713Y-88975500D01*
X190393714Y-88975500D01*
X190606286Y-88975500D01*
X190606287Y-88975500D01*
X190816243Y-88942246D01*
X191018412Y-88876557D01*
X191207816Y-88780051D01*
X191255803Y-88745187D01*
X191379786Y-88655109D01*
X191379788Y-88655106D01*
X191379792Y-88655104D01*
X191530104Y-88504792D01*
X191530106Y-88504788D01*
X191530109Y-88504786D01*
X191655048Y-88332820D01*
X191655047Y-88332820D01*
X191655051Y-88332816D01*
X191751557Y-88143412D01*
X191817246Y-87941243D01*
X191850500Y-87731287D01*
X191850500Y-87268713D01*
X191817246Y-87058757D01*
X191751557Y-86856588D01*
X191655051Y-86667184D01*
X191655049Y-86667181D01*
X191655048Y-86667179D01*
X191530109Y-86495213D01*
X191379786Y-86344890D01*
X191207820Y-86219951D01*
X191018414Y-86123444D01*
X191018413Y-86123443D01*
X191018412Y-86123443D01*
X190816243Y-86057754D01*
X190816241Y-86057753D01*
X190816240Y-86057753D01*
X190654957Y-86032208D01*
X190606287Y-86024500D01*
X190393713Y-86024500D01*
X190345042Y-86032208D01*
X190183760Y-86057753D01*
X189981585Y-86123444D01*
X189792179Y-86219951D01*
X189620213Y-86344890D01*
X189469890Y-86495213D01*
X189344951Y-86667179D01*
X189248444Y-86856585D01*
X189182753Y-87058760D01*
X189149500Y-87268713D01*
X186850500Y-87268713D01*
X186817246Y-87058757D01*
X186751557Y-86856588D01*
X186655051Y-86667184D01*
X186655049Y-86667181D01*
X186655048Y-86667179D01*
X186530109Y-86495213D01*
X186379786Y-86344890D01*
X186207820Y-86219951D01*
X186018414Y-86123444D01*
X186018413Y-86123443D01*
X186018412Y-86123443D01*
X185816243Y-86057754D01*
X185816241Y-86057753D01*
X185816240Y-86057753D01*
X185654957Y-86032208D01*
X185606287Y-86024500D01*
X185393713Y-86024500D01*
X185345042Y-86032208D01*
X185183760Y-86057753D01*
X184981585Y-86123444D01*
X184792179Y-86219951D01*
X184620215Y-86344889D01*
X184481398Y-86483706D01*
X184420075Y-86517190D01*
X184350383Y-86512206D01*
X184294450Y-86470334D01*
X184288178Y-86461120D01*
X184192712Y-86306344D01*
X184068657Y-86182289D01*
X184068656Y-86182288D01*
X183919334Y-86090186D01*
X183752797Y-86035001D01*
X183752795Y-86035000D01*
X183650010Y-86024500D01*
X182349998Y-86024500D01*
X182349981Y-86024501D01*
X182247203Y-86035000D01*
X182247200Y-86035001D01*
X182080668Y-86090185D01*
X182080663Y-86090187D01*
X181931342Y-86182289D01*
X181807289Y-86306342D01*
X181715187Y-86455663D01*
X181715185Y-86455668D01*
X181710325Y-86470334D01*
X181660001Y-86622203D01*
X181660001Y-86622204D01*
X181660000Y-86622204D01*
X181649500Y-86724983D01*
X175600500Y-86724983D01*
X175600500Y-74554807D01*
X175600500Y-74554805D01*
X175582022Y-74485844D01*
X175559577Y-74402077D01*
X175530639Y-74351957D01*
X175480520Y-74265146D01*
X175368716Y-74153342D01*
X175368715Y-74153341D01*
X175364385Y-74149011D01*
X175364374Y-74149001D01*
X172353728Y-71138355D01*
X172353726Y-71138352D01*
X172234855Y-71019481D01*
X172234847Y-71019475D01*
X172141225Y-70965423D01*
X172141223Y-70965422D01*
X172097928Y-70940425D01*
X172097927Y-70940424D01*
X172085401Y-70937067D01*
X171945195Y-70899499D01*
X171787081Y-70899499D01*
X171779485Y-70899499D01*
X171779469Y-70899500D01*
X170086670Y-70899500D01*
X170086654Y-70899499D01*
X170079058Y-70899499D01*
X169920943Y-70899499D01*
X169844579Y-70919961D01*
X169768214Y-70940423D01*
X169768209Y-70940426D01*
X169631290Y-71019475D01*
X169631282Y-71019481D01*
X169362582Y-71288181D01*
X169301259Y-71321666D01*
X169274901Y-71324500D01*
X168097129Y-71324500D01*
X168097123Y-71324501D01*
X168037516Y-71330908D01*
X167902671Y-71381202D01*
X167902664Y-71381206D01*
X167787455Y-71467452D01*
X167787452Y-71467455D01*
X167701206Y-71582664D01*
X167701202Y-71582671D01*
X167650908Y-71717517D01*
X167644896Y-71773444D01*
X167644500Y-71777127D01*
X167644500Y-72574734D01*
X167644501Y-73275500D01*
X167624816Y-73342539D01*
X167572013Y-73388294D01*
X167520501Y-73399500D01*
X166300097Y-73399500D01*
X166233058Y-73379815D01*
X166212416Y-73363181D01*
X164635641Y-71786406D01*
X164602156Y-71725083D01*
X164607140Y-71655391D01*
X164649012Y-71599458D01*
X164661306Y-71591348D01*
X164804612Y-71508611D01*
X164986661Y-71368919D01*
X164986665Y-71368914D01*
X164986670Y-71368911D01*
X165148911Y-71206670D01*
X165148914Y-71206665D01*
X165148919Y-71206661D01*
X165288611Y-71024612D01*
X165403344Y-70825888D01*
X165491158Y-70613887D01*
X165550548Y-70392238D01*
X165580500Y-70164734D01*
X165580500Y-69935266D01*
X165550548Y-69707762D01*
X165491158Y-69486113D01*
X165403344Y-69274112D01*
X165288611Y-69075388D01*
X165288608Y-69075385D01*
X165288607Y-69075382D01*
X165148918Y-68893338D01*
X165148911Y-68893330D01*
X164986670Y-68731089D01*
X164986661Y-68731081D01*
X164804617Y-68591392D01*
X164605890Y-68476657D01*
X164605876Y-68476650D01*
X164393887Y-68388842D01*
X164172238Y-68329452D01*
X164134215Y-68324446D01*
X163944741Y-68299500D01*
X163944734Y-68299500D01*
X163715266Y-68299500D01*
X163715258Y-68299500D01*
X163498715Y-68328009D01*
X163487762Y-68329452D01*
X163394076Y-68354554D01*
X163266112Y-68388842D01*
X163054123Y-68476650D01*
X163054109Y-68476657D01*
X162855382Y-68591392D01*
X162673338Y-68731081D01*
X162511081Y-68893338D01*
X162371392Y-69075382D01*
X162256657Y-69274109D01*
X162256650Y-69274123D01*
X162168842Y-69486112D01*
X162109453Y-69707759D01*
X162109451Y-69707770D01*
X162079500Y-69935258D01*
X162079500Y-70164741D01*
X162089226Y-70238611D01*
X162109452Y-70392238D01*
X162109453Y-70392240D01*
X162168842Y-70613887D01*
X162256650Y-70825876D01*
X162256656Y-70825888D01*
X162353922Y-70994359D01*
X162371392Y-71024617D01*
X162505980Y-71200013D01*
X162531175Y-71265182D01*
X162517137Y-71333627D01*
X162468323Y-71383617D01*
X162407605Y-71399500D01*
X156586669Y-71399500D01*
X156586653Y-71399499D01*
X156579057Y-71399499D01*
X156420943Y-71399499D01*
X156313587Y-71428265D01*
X156268210Y-71440424D01*
X156268209Y-71440425D01*
X156218096Y-71469359D01*
X156218095Y-71469360D01*
X156182595Y-71489856D01*
X156131285Y-71519479D01*
X156131282Y-71519481D01*
X156019478Y-71631286D01*
X154222584Y-73428181D01*
X154161261Y-73461666D01*
X154134903Y-73464500D01*
X111660761Y-73464500D01*
X111593722Y-73444815D01*
X111547967Y-73392011D01*
X111538023Y-73322853D01*
X111559186Y-73269376D01*
X111590142Y-73225167D01*
X111683723Y-73024480D01*
X111741035Y-72810591D01*
X111760334Y-72590000D01*
X111758998Y-72574734D01*
X111741035Y-72369414D01*
X111741035Y-72369409D01*
X111683723Y-72155520D01*
X111590142Y-71954833D01*
X111463132Y-71773445D01*
X111306555Y-71616868D01*
X111125167Y-71489858D01*
X111081211Y-71469361D01*
X110924486Y-71396279D01*
X110924475Y-71396275D01*
X110710592Y-71338965D01*
X110710585Y-71338964D01*
X110490002Y-71319666D01*
X110489998Y-71319666D01*
X110269414Y-71338964D01*
X110269400Y-71338967D01*
X110195643Y-71358729D01*
X110125793Y-71357065D01*
X110075870Y-71326635D01*
X109912590Y-71163355D01*
X109912588Y-71163352D01*
X109793717Y-71044481D01*
X109793716Y-71044480D01*
X109706904Y-70994360D01*
X109706904Y-70994359D01*
X109706900Y-70994358D01*
X109656785Y-70965423D01*
X109504057Y-70924499D01*
X109345943Y-70924499D01*
X109338347Y-70924499D01*
X109338331Y-70924500D01*
X106964057Y-70924500D01*
X106805943Y-70924500D01*
X106653215Y-70965423D01*
X106653214Y-70965423D01*
X106653212Y-70965424D01*
X106653209Y-70965425D01*
X106603096Y-70994359D01*
X106603095Y-70994360D01*
X106559689Y-71019420D01*
X106516285Y-71044479D01*
X106516282Y-71044481D01*
X103519481Y-74041282D01*
X103519479Y-74041285D01*
X103510205Y-74057349D01*
X103485296Y-74100493D01*
X103440423Y-74178215D01*
X103399499Y-74330943D01*
X103399499Y-74330945D01*
X103399499Y-74499046D01*
X103399500Y-74499059D01*
X103399500Y-163913330D01*
X103399499Y-163913348D01*
X103399499Y-164079054D01*
X103399498Y-164079054D01*
X99000500Y-164079054D01*
X99000500Y-68665258D01*
X113819500Y-68665258D01*
X113819500Y-68894741D01*
X113843283Y-69075382D01*
X113849452Y-69122238D01*
X113849453Y-69122240D01*
X113908842Y-69343887D01*
X113996650Y-69555876D01*
X113996656Y-69555888D01*
X114084338Y-69707759D01*
X114111392Y-69754617D01*
X114251081Y-69936661D01*
X114251089Y-69936670D01*
X114413330Y-70098911D01*
X114413338Y-70098918D01*
X114595382Y-70238607D01*
X114595385Y-70238608D01*
X114595388Y-70238611D01*
X114794112Y-70353344D01*
X114794117Y-70353346D01*
X114794123Y-70353349D01*
X114885480Y-70391190D01*
X115006113Y-70441158D01*
X115227762Y-70500548D01*
X115455266Y-70530500D01*
X115455273Y-70530500D01*
X115684727Y-70530500D01*
X115684734Y-70530500D01*
X115912238Y-70500548D01*
X116133887Y-70441158D01*
X116345888Y-70353344D01*
X116544612Y-70238611D01*
X116726661Y-70098919D01*
X116726665Y-70098914D01*
X116726670Y-70098911D01*
X116888911Y-69936670D01*
X116888914Y-69936665D01*
X116888919Y-69936661D01*
X117028611Y-69754612D01*
X117143344Y-69555888D01*
X117231158Y-69343887D01*
X117290548Y-69122238D01*
X117320500Y-68894734D01*
X117320500Y-68665266D01*
X117290548Y-68437762D01*
X117231158Y-68216113D01*
X117143344Y-68004112D01*
X117028611Y-67805388D01*
X117028608Y-67805385D01*
X117028607Y-67805382D01*
X116888918Y-67623338D01*
X116888911Y-67623330D01*
X116726670Y-67461089D01*
X116726661Y-67461081D01*
X116544617Y-67321392D01*
X116345890Y-67206657D01*
X116345876Y-67206650D01*
X116133887Y-67118842D01*
X115912238Y-67059452D01*
X115861355Y-67052753D01*
X115684741Y-67029500D01*
X115684734Y-67029500D01*
X115455266Y-67029500D01*
X115455258Y-67029500D01*
X115238715Y-67058009D01*
X115227762Y-67059452D01*
X115134076Y-67084554D01*
X115006112Y-67118842D01*
X114794123Y-67206650D01*
X114794109Y-67206657D01*
X114595382Y-67321392D01*
X114413338Y-67461081D01*
X114251081Y-67623338D01*
X114111392Y-67805382D01*
X113996657Y-68004109D01*
X113996650Y-68004123D01*
X113908842Y-68216112D01*
X113849453Y-68437759D01*
X113849451Y-68437770D01*
X113819500Y-68665258D01*
X99000500Y-68665258D01*
X99000500Y-42724983D01*
X181649500Y-42724983D01*
X181649500Y-44275001D01*
X181649501Y-44275018D01*
X181660000Y-44377796D01*
X181660001Y-44377799D01*
X181705894Y-44516294D01*
X181715186Y-44544334D01*
X181807288Y-44693656D01*
X181931344Y-44817712D01*
X182080666Y-44909814D01*
X182247203Y-44964999D01*
X182288103Y-44969177D01*
X182352793Y-44995573D01*
X182392945Y-45052753D01*
X182399500Y-45092535D01*
X182399500Y-52907465D01*
X182379815Y-52974504D01*
X182327011Y-53020259D01*
X182288102Y-53030823D01*
X182247202Y-53035001D01*
X182247200Y-53035001D01*
X182080668Y-53090185D01*
X182080663Y-53090187D01*
X181931342Y-53182289D01*
X181807289Y-53306342D01*
X181715187Y-53455663D01*
X181715185Y-53455668D01*
X181710325Y-53470334D01*
X181660001Y-53622203D01*
X181660001Y-53622204D01*
X181660000Y-53622204D01*
X181649500Y-53724983D01*
X181649500Y-55275001D01*
X181649501Y-55275018D01*
X181660000Y-55377796D01*
X181660001Y-55377799D01*
X181705894Y-55516294D01*
X181715186Y-55544334D01*
X181807288Y-55693656D01*
X181931344Y-55817712D01*
X182080666Y-55909814D01*
X182247203Y-55964999D01*
X182288103Y-55969177D01*
X182352793Y-55995573D01*
X182392945Y-56052753D01*
X182399500Y-56092535D01*
X182399500Y-63907465D01*
X182379815Y-63974504D01*
X182327011Y-64020259D01*
X182288102Y-64030823D01*
X182247202Y-64035001D01*
X182247200Y-64035001D01*
X182080668Y-64090185D01*
X182080663Y-64090187D01*
X181931342Y-64182289D01*
X181807289Y-64306342D01*
X181715187Y-64455663D01*
X181715185Y-64455668D01*
X181710325Y-64470334D01*
X181660001Y-64622203D01*
X181660001Y-64622204D01*
X181660000Y-64622204D01*
X181649500Y-64724983D01*
X181649500Y-66275001D01*
X181649501Y-66275018D01*
X181660000Y-66377796D01*
X181660001Y-66377799D01*
X181705894Y-66516294D01*
X181715186Y-66544334D01*
X181807288Y-66693656D01*
X181931344Y-66817712D01*
X182080666Y-66909814D01*
X182247203Y-66964999D01*
X182288103Y-66969177D01*
X182352793Y-66995573D01*
X182392945Y-67052753D01*
X182399500Y-67092535D01*
X182399500Y-74907465D01*
X182379815Y-74974504D01*
X182327011Y-75020259D01*
X182288102Y-75030823D01*
X182247202Y-75035001D01*
X182247200Y-75035001D01*
X182080668Y-75090185D01*
X182080663Y-75090187D01*
X181931342Y-75182289D01*
X181807289Y-75306342D01*
X181715187Y-75455663D01*
X181715185Y-75455668D01*
X181710325Y-75470334D01*
X181660001Y-75622203D01*
X181660001Y-75622204D01*
X181660000Y-75622204D01*
X181649500Y-75724983D01*
X181649500Y-77275001D01*
X181649501Y-77275018D01*
X181660000Y-77377796D01*
X181660001Y-77377799D01*
X181715185Y-77544331D01*
X181715187Y-77544336D01*
X181723158Y-77557259D01*
X181807288Y-77693656D01*
X181931344Y-77817712D01*
X182080666Y-77909814D01*
X182247203Y-77964999D01*
X182349991Y-77975500D01*
X183650008Y-77975499D01*
X183752797Y-77964999D01*
X183919334Y-77909814D01*
X184068656Y-77817712D01*
X184192712Y-77693656D01*
X184284814Y-77544334D01*
X184284814Y-77544331D01*
X184288178Y-77538879D01*
X184340126Y-77492154D01*
X184409088Y-77480931D01*
X184473170Y-77508774D01*
X184481398Y-77516294D01*
X184620213Y-77655109D01*
X184792179Y-77780048D01*
X184792181Y-77780049D01*
X184792184Y-77780051D01*
X184981588Y-77876557D01*
X185183757Y-77942246D01*
X185393713Y-77975500D01*
X185393714Y-77975500D01*
X185606286Y-77975500D01*
X185606287Y-77975500D01*
X185816243Y-77942246D01*
X186018412Y-77876557D01*
X186207816Y-77780051D01*
X186229789Y-77764086D01*
X186379786Y-77655109D01*
X186379788Y-77655106D01*
X186379792Y-77655104D01*
X186530104Y-77504792D01*
X186530106Y-77504788D01*
X186530109Y-77504786D01*
X186655048Y-77332820D01*
X186655047Y-77332820D01*
X186655051Y-77332816D01*
X186751557Y-77143412D01*
X186817246Y-76941243D01*
X186850500Y-76731287D01*
X186850500Y-76268713D01*
X189149500Y-76268713D01*
X189149500Y-76731287D01*
X189153189Y-76754577D01*
X189171151Y-76867989D01*
X189182754Y-76941243D01*
X189213164Y-77034836D01*
X189248444Y-77143414D01*
X189344951Y-77332820D01*
X189469890Y-77504786D01*
X189620213Y-77655109D01*
X189792179Y-77780048D01*
X189792181Y-77780049D01*
X189792184Y-77780051D01*
X189981588Y-77876557D01*
X190183757Y-77942246D01*
X190393713Y-77975500D01*
X190393714Y-77975500D01*
X190606286Y-77975500D01*
X190606287Y-77975500D01*
X190816243Y-77942246D01*
X191018412Y-77876557D01*
X191207816Y-77780051D01*
X191229789Y-77764086D01*
X191379786Y-77655109D01*
X191379788Y-77655106D01*
X191379792Y-77655104D01*
X191530104Y-77504792D01*
X191530106Y-77504788D01*
X191530109Y-77504786D01*
X191655048Y-77332820D01*
X191655047Y-77332820D01*
X191655051Y-77332816D01*
X191751557Y-77143412D01*
X191817246Y-76941243D01*
X191850500Y-76731287D01*
X191850500Y-76268713D01*
X191817246Y-76058757D01*
X191751557Y-75856588D01*
X191655051Y-75667184D01*
X191655049Y-75667181D01*
X191655048Y-75667179D01*
X191530109Y-75495213D01*
X191379786Y-75344890D01*
X191207820Y-75219951D01*
X191018414Y-75123444D01*
X191018413Y-75123443D01*
X191018412Y-75123443D01*
X190816243Y-75057754D01*
X190816241Y-75057753D01*
X190816240Y-75057753D01*
X190654957Y-75032208D01*
X190606287Y-75024500D01*
X190393713Y-75024500D01*
X190345042Y-75032208D01*
X190183760Y-75057753D01*
X189981585Y-75123444D01*
X189792179Y-75219951D01*
X189620213Y-75344890D01*
X189469890Y-75495213D01*
X189344951Y-75667179D01*
X189248444Y-75856585D01*
X189182753Y-76058760D01*
X189168302Y-76150000D01*
X189149500Y-76268713D01*
X186850500Y-76268713D01*
X186817246Y-76058757D01*
X186751557Y-75856588D01*
X186655051Y-75667184D01*
X186655049Y-75667181D01*
X186655048Y-75667179D01*
X186530109Y-75495213D01*
X186379786Y-75344890D01*
X186207820Y-75219951D01*
X186018414Y-75123444D01*
X186018413Y-75123443D01*
X186018412Y-75123443D01*
X185816243Y-75057754D01*
X185816241Y-75057753D01*
X185816240Y-75057753D01*
X185654957Y-75032208D01*
X185606287Y-75024500D01*
X185393713Y-75024500D01*
X185345042Y-75032208D01*
X185183760Y-75057753D01*
X184981585Y-75123444D01*
X184792179Y-75219951D01*
X184620215Y-75344889D01*
X184481398Y-75483706D01*
X184420075Y-75517190D01*
X184350383Y-75512206D01*
X184294450Y-75470334D01*
X184288178Y-75461120D01*
X184192712Y-75306344D01*
X184068657Y-75182289D01*
X184068656Y-75182288D01*
X183919334Y-75090186D01*
X183752797Y-75035001D01*
X183752795Y-75035000D01*
X183711896Y-75030822D01*
X183647205Y-75004425D01*
X183607054Y-74947244D01*
X183600500Y-74907464D01*
X183600500Y-67092534D01*
X183620185Y-67025495D01*
X183672989Y-66979740D01*
X183711897Y-66969176D01*
X183752797Y-66964999D01*
X183919334Y-66909814D01*
X184068656Y-66817712D01*
X184192712Y-66693656D01*
X184284814Y-66544334D01*
X184284814Y-66544331D01*
X184288178Y-66538879D01*
X184340126Y-66492154D01*
X184409088Y-66480931D01*
X184473170Y-66508774D01*
X184481398Y-66516294D01*
X184620213Y-66655109D01*
X184792179Y-66780048D01*
X184792181Y-66780049D01*
X184792184Y-66780051D01*
X184981588Y-66876557D01*
X185183757Y-66942246D01*
X185393713Y-66975500D01*
X185393714Y-66975500D01*
X185606286Y-66975500D01*
X185606287Y-66975500D01*
X185816243Y-66942246D01*
X186018412Y-66876557D01*
X186207816Y-66780051D01*
X186229789Y-66764086D01*
X186379786Y-66655109D01*
X186379788Y-66655106D01*
X186379792Y-66655104D01*
X186530104Y-66504792D01*
X186530106Y-66504788D01*
X186530109Y-66504786D01*
X186655048Y-66332820D01*
X186655047Y-66332820D01*
X186655051Y-66332816D01*
X186751557Y-66143412D01*
X186817246Y-65941243D01*
X186850500Y-65731287D01*
X186850500Y-65268713D01*
X189149500Y-65268713D01*
X189149500Y-65731286D01*
X189182753Y-65941239D01*
X189248444Y-66143414D01*
X189344951Y-66332820D01*
X189469890Y-66504786D01*
X189620213Y-66655109D01*
X189792179Y-66780048D01*
X189792181Y-66780049D01*
X189792184Y-66780051D01*
X189981588Y-66876557D01*
X190183757Y-66942246D01*
X190393713Y-66975500D01*
X190393714Y-66975500D01*
X190606286Y-66975500D01*
X190606287Y-66975500D01*
X190816243Y-66942246D01*
X191018412Y-66876557D01*
X191207816Y-66780051D01*
X191229789Y-66764086D01*
X191379786Y-66655109D01*
X191379788Y-66655106D01*
X191379792Y-66655104D01*
X191530104Y-66504792D01*
X191530106Y-66504788D01*
X191530109Y-66504786D01*
X191655048Y-66332820D01*
X191655047Y-66332820D01*
X191655051Y-66332816D01*
X191751557Y-66143412D01*
X191817246Y-65941243D01*
X191850500Y-65731287D01*
X191850500Y-65268713D01*
X191817246Y-65058757D01*
X191751557Y-64856588D01*
X191655051Y-64667184D01*
X191655049Y-64667181D01*
X191655048Y-64667179D01*
X191530109Y-64495213D01*
X191379786Y-64344890D01*
X191207820Y-64219951D01*
X191018414Y-64123444D01*
X191018413Y-64123443D01*
X191018412Y-64123443D01*
X190816243Y-64057754D01*
X190816241Y-64057753D01*
X190816240Y-64057753D01*
X190654957Y-64032208D01*
X190606287Y-64024500D01*
X190393713Y-64024500D01*
X190345042Y-64032208D01*
X190183760Y-64057753D01*
X189981585Y-64123444D01*
X189792179Y-64219951D01*
X189620213Y-64344890D01*
X189469890Y-64495213D01*
X189344951Y-64667179D01*
X189248444Y-64856585D01*
X189182753Y-65058760D01*
X189149500Y-65268713D01*
X186850500Y-65268713D01*
X186817246Y-65058757D01*
X186751557Y-64856588D01*
X186655051Y-64667184D01*
X186655049Y-64667181D01*
X186655048Y-64667179D01*
X186530109Y-64495213D01*
X186379786Y-64344890D01*
X186207820Y-64219951D01*
X186018414Y-64123444D01*
X186018413Y-64123443D01*
X186018412Y-64123443D01*
X185816243Y-64057754D01*
X185816241Y-64057753D01*
X185816240Y-64057753D01*
X185654957Y-64032208D01*
X185606287Y-64024500D01*
X185393713Y-64024500D01*
X185345042Y-64032208D01*
X185183760Y-64057753D01*
X184981585Y-64123444D01*
X184792179Y-64219951D01*
X184620215Y-64344889D01*
X184481398Y-64483706D01*
X184420075Y-64517190D01*
X184350383Y-64512206D01*
X184294450Y-64470334D01*
X184288178Y-64461120D01*
X184192712Y-64306344D01*
X184068657Y-64182289D01*
X184068656Y-64182288D01*
X183919334Y-64090186D01*
X183752797Y-64035001D01*
X183752795Y-64035000D01*
X183711896Y-64030822D01*
X183647205Y-64004425D01*
X183607054Y-63947244D01*
X183600500Y-63907464D01*
X183600500Y-56092534D01*
X183620185Y-56025495D01*
X183672989Y-55979740D01*
X183711897Y-55969176D01*
X183752797Y-55964999D01*
X183919334Y-55909814D01*
X184068656Y-55817712D01*
X184192712Y-55693656D01*
X184284814Y-55544334D01*
X184284814Y-55544331D01*
X184288178Y-55538879D01*
X184340126Y-55492154D01*
X184409088Y-55480931D01*
X184473170Y-55508774D01*
X184481398Y-55516294D01*
X184620213Y-55655109D01*
X184792179Y-55780048D01*
X184792181Y-55780049D01*
X184792184Y-55780051D01*
X184981588Y-55876557D01*
X185183757Y-55942246D01*
X185393713Y-55975500D01*
X185393714Y-55975500D01*
X185606286Y-55975500D01*
X185606287Y-55975500D01*
X185816243Y-55942246D01*
X186018412Y-55876557D01*
X186207816Y-55780051D01*
X186229789Y-55764086D01*
X186379786Y-55655109D01*
X186379788Y-55655106D01*
X186379792Y-55655104D01*
X186530104Y-55504792D01*
X186530106Y-55504788D01*
X186530109Y-55504786D01*
X186655048Y-55332820D01*
X186655047Y-55332820D01*
X186655051Y-55332816D01*
X186751557Y-55143412D01*
X186817246Y-54941243D01*
X186850500Y-54731287D01*
X186850500Y-54268713D01*
X189149500Y-54268713D01*
X189149500Y-54731286D01*
X189182753Y-54941239D01*
X189248444Y-55143414D01*
X189344951Y-55332820D01*
X189469890Y-55504786D01*
X189620213Y-55655109D01*
X189792179Y-55780048D01*
X189792181Y-55780049D01*
X189792184Y-55780051D01*
X189981588Y-55876557D01*
X190183757Y-55942246D01*
X190393713Y-55975500D01*
X190393714Y-55975500D01*
X190606286Y-55975500D01*
X190606287Y-55975500D01*
X190816243Y-55942246D01*
X191018412Y-55876557D01*
X191207816Y-55780051D01*
X191229789Y-55764086D01*
X191379786Y-55655109D01*
X191379788Y-55655106D01*
X191379792Y-55655104D01*
X191530104Y-55504792D01*
X191530106Y-55504788D01*
X191530109Y-55504786D01*
X191655048Y-55332820D01*
X191655047Y-55332820D01*
X191655051Y-55332816D01*
X191751557Y-55143412D01*
X191817246Y-54941243D01*
X191850500Y-54731287D01*
X191850500Y-54268713D01*
X191817246Y-54058757D01*
X191751557Y-53856588D01*
X191655051Y-53667184D01*
X191655049Y-53667181D01*
X191655048Y-53667179D01*
X191530109Y-53495213D01*
X191379786Y-53344890D01*
X191207820Y-53219951D01*
X191018414Y-53123444D01*
X191018413Y-53123443D01*
X191018412Y-53123443D01*
X190816243Y-53057754D01*
X190816241Y-53057753D01*
X190816240Y-53057753D01*
X190654957Y-53032208D01*
X190606287Y-53024500D01*
X190393713Y-53024500D01*
X190345042Y-53032208D01*
X190183760Y-53057753D01*
X189981585Y-53123444D01*
X189792179Y-53219951D01*
X189620213Y-53344890D01*
X189469890Y-53495213D01*
X189344951Y-53667179D01*
X189248444Y-53856585D01*
X189182753Y-54058760D01*
X189149500Y-54268713D01*
X186850500Y-54268713D01*
X186817246Y-54058757D01*
X186751557Y-53856588D01*
X186655051Y-53667184D01*
X186655049Y-53667181D01*
X186655048Y-53667179D01*
X186530109Y-53495213D01*
X186379786Y-53344890D01*
X186207820Y-53219951D01*
X186018414Y-53123444D01*
X186018413Y-53123443D01*
X186018412Y-53123443D01*
X185816243Y-53057754D01*
X185816241Y-53057753D01*
X185816240Y-53057753D01*
X185654957Y-53032208D01*
X185606287Y-53024500D01*
X185393713Y-53024500D01*
X185345042Y-53032208D01*
X185183760Y-53057753D01*
X184981585Y-53123444D01*
X184792179Y-53219951D01*
X184620215Y-53344889D01*
X184481398Y-53483706D01*
X184420075Y-53517190D01*
X184350383Y-53512206D01*
X184294450Y-53470334D01*
X184288178Y-53461120D01*
X184192712Y-53306344D01*
X184068657Y-53182289D01*
X184068656Y-53182288D01*
X183919334Y-53090186D01*
X183752797Y-53035001D01*
X183752795Y-53035000D01*
X183711896Y-53030822D01*
X183647205Y-53004425D01*
X183607054Y-52947244D01*
X183600500Y-52907464D01*
X183600500Y-45092534D01*
X183620185Y-45025495D01*
X183672989Y-44979740D01*
X183711897Y-44969176D01*
X183752797Y-44964999D01*
X183919334Y-44909814D01*
X184068656Y-44817712D01*
X184192712Y-44693656D01*
X184284814Y-44544334D01*
X184284814Y-44544331D01*
X184288178Y-44538879D01*
X184340126Y-44492154D01*
X184409088Y-44480931D01*
X184473170Y-44508774D01*
X184481398Y-44516294D01*
X184620213Y-44655109D01*
X184792179Y-44780048D01*
X184792181Y-44780049D01*
X184792184Y-44780051D01*
X184981588Y-44876557D01*
X185183757Y-44942246D01*
X185393713Y-44975500D01*
X185393714Y-44975500D01*
X185606286Y-44975500D01*
X185606287Y-44975500D01*
X185816243Y-44942246D01*
X186018412Y-44876557D01*
X186207816Y-44780051D01*
X186229789Y-44764086D01*
X186379786Y-44655109D01*
X186379788Y-44655106D01*
X186379792Y-44655104D01*
X186530104Y-44504792D01*
X186530106Y-44504788D01*
X186530109Y-44504786D01*
X186655048Y-44332820D01*
X186655047Y-44332820D01*
X186655051Y-44332816D01*
X186751557Y-44143412D01*
X186817246Y-43941243D01*
X186850500Y-43731287D01*
X186850500Y-43268713D01*
X189149500Y-43268713D01*
X189149500Y-43731286D01*
X189182753Y-43941239D01*
X189248444Y-44143414D01*
X189344951Y-44332820D01*
X189469890Y-44504786D01*
X189620213Y-44655109D01*
X189792179Y-44780048D01*
X189792181Y-44780049D01*
X189792184Y-44780051D01*
X189981588Y-44876557D01*
X190183757Y-44942246D01*
X190393713Y-44975500D01*
X190393714Y-44975500D01*
X190606286Y-44975500D01*
X190606287Y-44975500D01*
X190816243Y-44942246D01*
X191018412Y-44876557D01*
X191207816Y-44780051D01*
X191229789Y-44764086D01*
X191379786Y-44655109D01*
X191379788Y-44655106D01*
X191379792Y-44655104D01*
X191530104Y-44504792D01*
X191530106Y-44504788D01*
X191530109Y-44504786D01*
X191655048Y-44332820D01*
X191655047Y-44332820D01*
X191655051Y-44332816D01*
X191751557Y-44143412D01*
X191817246Y-43941243D01*
X191850500Y-43731287D01*
X191850500Y-43268713D01*
X191817246Y-43058757D01*
X191751557Y-42856588D01*
X191655051Y-42667184D01*
X191655049Y-42667181D01*
X191655048Y-42667179D01*
X191530109Y-42495213D01*
X191379786Y-42344890D01*
X191207820Y-42219951D01*
X191018414Y-42123444D01*
X191018413Y-42123443D01*
X191018412Y-42123443D01*
X190816243Y-42057754D01*
X190816241Y-42057753D01*
X190816240Y-42057753D01*
X190654957Y-42032208D01*
X190606287Y-42024500D01*
X190393713Y-42024500D01*
X190345042Y-42032208D01*
X190183760Y-42057753D01*
X189981585Y-42123444D01*
X189792179Y-42219951D01*
X189620213Y-42344890D01*
X189469890Y-42495213D01*
X189344951Y-42667179D01*
X189248444Y-42856585D01*
X189182753Y-43058760D01*
X189149500Y-43268713D01*
X186850500Y-43268713D01*
X186817246Y-43058757D01*
X186751557Y-42856588D01*
X186655051Y-42667184D01*
X186655049Y-42667181D01*
X186655048Y-42667179D01*
X186530109Y-42495213D01*
X186379786Y-42344890D01*
X186207820Y-42219951D01*
X186018414Y-42123444D01*
X186018413Y-42123443D01*
X186018412Y-42123443D01*
X185816243Y-42057754D01*
X185816241Y-42057753D01*
X185816240Y-42057753D01*
X185654957Y-42032208D01*
X185606287Y-42024500D01*
X185393713Y-42024500D01*
X185345042Y-42032208D01*
X185183760Y-42057753D01*
X184981585Y-42123444D01*
X184792179Y-42219951D01*
X184620215Y-42344889D01*
X184481398Y-42483706D01*
X184420075Y-42517190D01*
X184350383Y-42512206D01*
X184294450Y-42470334D01*
X184288178Y-42461120D01*
X184192712Y-42306344D01*
X184068657Y-42182289D01*
X184068656Y-42182288D01*
X183919334Y-42090186D01*
X183752797Y-42035001D01*
X183752795Y-42035000D01*
X183650010Y-42024500D01*
X182349998Y-42024500D01*
X182349981Y-42024501D01*
X182247203Y-42035000D01*
X182247200Y-42035001D01*
X182080668Y-42090185D01*
X182080663Y-42090187D01*
X181931342Y-42182289D01*
X181807289Y-42306342D01*
X181715187Y-42455663D01*
X181715185Y-42455668D01*
X181710325Y-42470334D01*
X181660001Y-42622203D01*
X181660001Y-42622204D01*
X181660000Y-42622204D01*
X181649500Y-42724983D01*
X99000500Y-42724983D01*
X99000500Y-34624500D01*
X99020185Y-34557461D01*
X99072989Y-34511706D01*
X99124500Y-34500500D01*
X208875500Y-34500500D01*
X208942539Y-34520185D01*
G37*
G04 #@! TD.AperFunction*
M02*
