M48
; DRILL file {KiCad 8.0.8} date 2025-02-19T12:15:51-0500
; FORMAT={-:-/ absolute / metric / decimal}
; #@! TF.CreationDate,2025-02-19T12:15:51-05:00
; #@! TF.GenerationSoftware,Kicad,Pcbnew,8.0.8
; #@! TF.FileFunction,Plated,1,2,PTH
FMAT,2
METRIC
; #@! TA.AperFunction,Plated,PTH,ComponentDrill
T1C0.950
; #@! TA.AperFunction,Plated,PTH,ComponentDrill
T2C1.020
; #@! TA.AperFunction,Plated,PTH,ComponentDrill
T3C1.070
; #@! TA.AperFunction,Plated,PTH,ComponentDrill
T4C1.700
%
G90
G05
T1
X107.5Y-133.0
X107.5Y-143.0
X107.5Y-153.0
X107.5Y-163.0
X110.0Y-133.0
X110.0Y-143.0
X110.0Y-153.0
X110.0Y-163.0
X112.5Y-133.0
X112.5Y-143.0
X112.5Y-153.0
X112.5Y-163.0
X121.5Y-133.0
X121.5Y-143.0
X121.5Y-153.0
X121.5Y-163.0
X124.0Y-133.0
X124.0Y-143.0
X124.0Y-153.0
X124.0Y-163.0
X126.5Y-133.0
X126.5Y-143.0
X126.5Y-153.0
X126.5Y-163.0
X136.0Y-133.0
X136.0Y-143.0
X136.0Y-153.0
X136.0Y-163.0
X138.5Y-133.0
X138.5Y-143.0
X138.5Y-153.0
X138.5Y-163.0
X141.0Y-133.0
X141.0Y-143.0
X141.0Y-153.0
X141.0Y-163.0
X150.5Y-133.0
X150.5Y-143.0
X150.5Y-153.0
X150.5Y-163.0
X153.0Y-133.0
X153.0Y-143.0
X153.0Y-153.0
X153.0Y-163.0
X155.5Y-133.0
X155.5Y-143.0
X155.5Y-153.0
X155.5Y-163.0
X165.0Y-133.0
X165.0Y-143.0
X167.5Y-133.0
X167.5Y-143.0
X170.0Y-133.0
X170.0Y-143.0
X172.5Y-133.0
X172.5Y-143.0
X183.0Y-43.5
X183.0Y-54.5
X183.0Y-65.5
X183.0Y-76.5
X183.0Y-87.5
X183.0Y-98.5
X183.0Y-109.5
X183.0Y-120.5
X183.0Y-133.0
X183.0Y-135.5
X183.0Y-138.0
X183.0Y-140.5
X183.0Y-143.0
X185.5Y-43.5
X185.5Y-54.5
X185.5Y-65.5
X185.5Y-76.5
X185.5Y-87.5
X185.5Y-98.5
X185.5Y-109.5
X185.5Y-120.5
X185.5Y-152.5
X188.0Y-43.5
X188.0Y-54.5
X188.0Y-65.5
X188.0Y-76.5
X188.0Y-87.5
X188.0Y-98.5
X188.0Y-109.5
X188.0Y-120.5
X188.0Y-152.5
X190.5Y-43.5
X190.5Y-54.5
X190.5Y-65.5
X190.5Y-76.5
X190.5Y-87.5
X190.5Y-98.5
X190.5Y-109.5
X190.5Y-120.5
X190.5Y-152.5
X193.0Y-152.5
X195.0Y-133.0
X195.0Y-135.5
X195.0Y-138.0
X195.0Y-140.5
X195.0Y-143.0
X195.5Y-152.5
T2
X107.95Y-72.59
X107.95Y-75.13
X107.95Y-77.67
X107.95Y-80.21
X107.95Y-82.75
X107.95Y-85.29
X107.95Y-87.83
X107.95Y-90.37
X107.95Y-92.91
X107.95Y-95.45
X107.95Y-97.99
X107.95Y-100.53
X107.95Y-103.07
X107.95Y-105.61
X107.95Y-108.15
X107.95Y-110.69
X107.95Y-113.23
X107.95Y-115.77
X107.95Y-118.31
X110.49Y-72.59
X110.49Y-75.13
X110.49Y-77.67
X110.49Y-80.21
X110.49Y-82.75
X110.49Y-85.29
X110.49Y-87.83
X110.49Y-90.37
X110.49Y-92.91
X110.49Y-95.45
X110.49Y-97.99
X110.49Y-100.53
X110.49Y-103.07
X110.49Y-105.61
X110.49Y-108.15
X110.49Y-110.69
X110.49Y-113.23
X110.49Y-115.77
X110.49Y-118.31
X168.91Y-72.59
X168.91Y-75.13
X168.91Y-77.67
X168.91Y-80.21
X168.91Y-82.75
X168.91Y-85.29
X168.91Y-87.83
X168.91Y-90.37
X168.91Y-92.91
X168.91Y-95.45
X168.91Y-97.99
X168.91Y-100.53
X168.91Y-103.07
X168.91Y-105.61
X168.91Y-108.15
X168.91Y-110.69
X168.91Y-113.23
X168.91Y-115.77
X168.91Y-118.31
X171.45Y-72.59
X171.45Y-75.13
X171.45Y-77.67
X171.45Y-80.21
X171.45Y-82.75
X171.45Y-85.29
X171.45Y-87.83
X171.45Y-90.37
X171.45Y-92.91
X171.45Y-95.45
X171.45Y-97.99
X171.45Y-100.53
X171.45Y-103.07
X171.45Y-105.61
X171.45Y-108.15
X171.45Y-110.69
X171.45Y-113.23
X171.45Y-115.77
X171.45Y-118.31
T3
X115.57Y-82.75
X115.57Y-85.29
X115.57Y-87.83
X115.57Y-90.37
X115.57Y-92.91
X115.57Y-95.45
X115.57Y-97.99
X115.57Y-100.53
X115.57Y-105.61
X115.57Y-108.15
X115.57Y-110.69
X115.57Y-113.23
X115.57Y-115.77
X115.57Y-118.31
X163.83Y-73.61
X163.83Y-76.15
X163.83Y-78.69
X163.83Y-81.23
X163.83Y-83.77
X163.83Y-86.31
X163.83Y-88.85
X163.83Y-91.39
X163.83Y-93.93
X163.83Y-96.47
X163.83Y-100.53
X163.83Y-103.07
X163.83Y-105.61
X163.83Y-108.15
X163.83Y-110.69
X163.83Y-113.23
X163.83Y-115.77
X163.83Y-118.31
T4
X200.04Y-120.5
X204.0Y-120.5
M30
