G04 #@! TF.GenerationSoftware,KiCad,Pcbnew,8.0.8*
G04 #@! TF.CreationDate,2025-02-19T12:15:39-05:00*
G04 #@! TF.ProjectId,capstone_pcb,63617073-746f-46e6-955f-7063622e6b69,rev?*
G04 #@! TF.SameCoordinates,Original*
G04 #@! TF.FileFunction,Soldermask,Bot*
G04 #@! TF.FilePolarity,Negative*
%FSLAX46Y46*%
G04 Gerber Fmt 4.6, Leading zero omitted, Abs format (unit mm)*
G04 Created by KiCad (PCBNEW 8.0.8) date 2025-02-19 12:15:39*
%MOMM*%
%LPD*%
G01*
G04 APERTURE LIST*
G04 Aperture macros list*
%AMRoundRect*
0 Rectangle with rounded corners*
0 $1 Rounding radius*
0 $2 $3 $4 $5 $6 $7 $8 $9 X,Y pos of 4 corners*
0 Add a 4 corners polygon primitive as box body*
4,1,4,$2,$3,$4,$5,$6,$7,$8,$9,$2,$3,0*
0 Add four circle primitives for the rounded corners*
1,1,$1+$1,$2,$3*
1,1,$1+$1,$4,$5*
1,1,$1+$1,$6,$7*
1,1,$1+$1,$8,$9*
0 Add four rect primitives between the rounded corners*
20,1,$1+$1,$2,$3,$4,$5,0*
20,1,$1+$1,$4,$5,$6,$7,0*
20,1,$1+$1,$6,$7,$8,$9,0*
20,1,$1+$1,$8,$9,$2,$3,0*%
G04 Aperture macros list end*
%ADD10RoundRect,0.250000X-0.600000X-0.725000X0.600000X-0.725000X0.600000X0.725000X-0.600000X0.725000X0*%
%ADD11O,1.700000X1.950000*%
%ADD12RoundRect,0.250000X0.725000X-0.600000X0.725000X0.600000X-0.725000X0.600000X-0.725000X-0.600000X0*%
%ADD13O,1.950000X1.700000*%
%ADD14C,3.000000*%
%ADD15RoundRect,0.102000X-0.802500X-0.802500X0.802500X-0.802500X0.802500X0.802500X-0.802500X0.802500X0*%
%ADD16C,1.809000*%
%ADD17RoundRect,0.102000X-0.765000X-0.765000X0.765000X-0.765000X0.765000X0.765000X-0.765000X0.765000X0*%
%ADD18C,1.734000*%
%ADD19RoundRect,0.250001X-1.099999X-1.099999X1.099999X-1.099999X1.099999X1.099999X-1.099999X1.099999X0*%
%ADD20C,2.700000*%
G04 APERTURE END LIST*
D10*
X136000000Y-163000000D03*
D11*
X138500000Y-163000000D03*
X141000000Y-163000000D03*
D10*
X136000000Y-153000000D03*
D11*
X138500000Y-153000000D03*
X141000000Y-153000000D03*
D12*
X183000000Y-143000000D03*
D13*
X183000000Y-140500000D03*
X183000000Y-138000000D03*
X183000000Y-135500000D03*
X183000000Y-133000000D03*
D10*
X107500000Y-153000000D03*
D11*
X110000000Y-153000000D03*
X112500000Y-153000000D03*
D10*
X183000000Y-54500000D03*
D11*
X185500000Y-54500000D03*
X188000000Y-54500000D03*
X190500000Y-54500000D03*
D12*
X195000000Y-143000000D03*
D13*
X195000000Y-140500000D03*
X195000000Y-138000000D03*
X195000000Y-135500000D03*
X195000000Y-133000000D03*
D10*
X183000000Y-43500000D03*
D11*
X185500000Y-43500000D03*
X188000000Y-43500000D03*
X190500000Y-43500000D03*
D10*
X121500000Y-163000000D03*
D11*
X124000000Y-163000000D03*
X126500000Y-163000000D03*
D10*
X107500000Y-133000000D03*
D11*
X110000000Y-133000000D03*
X112500000Y-133000000D03*
D10*
X183000000Y-109500000D03*
D11*
X185500000Y-109500000D03*
X188000000Y-109500000D03*
X190500000Y-109500000D03*
D10*
X150500000Y-153000000D03*
D11*
X153000000Y-153000000D03*
X155500000Y-153000000D03*
D14*
X115570000Y-68780000D03*
X148590000Y-120850000D03*
X163830000Y-70050000D03*
D15*
X163830000Y-96470000D03*
D16*
X163830000Y-93930000D03*
X163830000Y-91390000D03*
X163830000Y-88850000D03*
X163830000Y-86310000D03*
X163830000Y-83770000D03*
X163830000Y-81230000D03*
X163830000Y-78690000D03*
X163830000Y-76150000D03*
X163830000Y-73610000D03*
D15*
X115570000Y-82750000D03*
D16*
X115570000Y-85290000D03*
X115570000Y-87830000D03*
X115570000Y-90370000D03*
X115570000Y-92910000D03*
X115570000Y-95450000D03*
X115570000Y-97990000D03*
X115570000Y-100530000D03*
D17*
X107950000Y-72590000D03*
D18*
X110490000Y-72590000D03*
X107950000Y-75130000D03*
X110490000Y-75130000D03*
X107950000Y-77670000D03*
X110490000Y-77670000D03*
X107950000Y-80210000D03*
X110490000Y-80210000D03*
X107950000Y-82750000D03*
X110490000Y-82750000D03*
X107950000Y-85290000D03*
X110490000Y-85290000D03*
X107950000Y-87830000D03*
X110490000Y-87830000D03*
X107950000Y-90370000D03*
X110490000Y-90370000D03*
X107950000Y-92910000D03*
X110490000Y-92910000D03*
X107950000Y-95450000D03*
X110490000Y-95450000D03*
X107950000Y-97990000D03*
X110490000Y-97990000D03*
X107950000Y-100530000D03*
X110490000Y-100530000D03*
X107950000Y-103070000D03*
X110490000Y-103070000D03*
X107950000Y-105610000D03*
X110490000Y-105610000D03*
X107950000Y-108150000D03*
X110490000Y-108150000D03*
X107950000Y-110690000D03*
X110490000Y-110690000D03*
X107950000Y-113230000D03*
X110490000Y-113230000D03*
X107950000Y-115770000D03*
X110490000Y-115770000D03*
X107950000Y-118310000D03*
X110490000Y-118310000D03*
D15*
X115570000Y-105610000D03*
D16*
X115570000Y-108150000D03*
X115570000Y-110690000D03*
X115570000Y-113230000D03*
X115570000Y-115770000D03*
X115570000Y-118310000D03*
D15*
X163830000Y-118310000D03*
D16*
X163830000Y-115770000D03*
X163830000Y-113230000D03*
X163830000Y-110690000D03*
X163830000Y-108150000D03*
X163830000Y-105610000D03*
X163830000Y-103070000D03*
X163830000Y-100530000D03*
D17*
X168910000Y-72590000D03*
D18*
X171450000Y-72590000D03*
X168910000Y-75130000D03*
X171450000Y-75130000D03*
X168910000Y-77670000D03*
X171450000Y-77670000D03*
X168910000Y-80210000D03*
X171450000Y-80210000D03*
X168910000Y-82750000D03*
X171450000Y-82750000D03*
X168910000Y-85290000D03*
X171450000Y-85290000D03*
X168910000Y-87830000D03*
X171450000Y-87830000D03*
X168910000Y-90370000D03*
X171450000Y-90370000D03*
X168910000Y-92910000D03*
X171450000Y-92910000D03*
X168910000Y-95450000D03*
X171450000Y-95450000D03*
X168910000Y-97990000D03*
X171450000Y-97990000D03*
X168910000Y-100530000D03*
X171450000Y-100530000D03*
X168910000Y-103070000D03*
X171450000Y-103070000D03*
X168910000Y-105610000D03*
X171450000Y-105610000D03*
X168910000Y-108150000D03*
X171450000Y-108150000D03*
X168910000Y-110690000D03*
X171450000Y-110690000D03*
X168910000Y-113230000D03*
X171450000Y-113230000D03*
X168910000Y-115770000D03*
X171450000Y-115770000D03*
X168910000Y-118310000D03*
X171450000Y-118310000D03*
D19*
X200040000Y-120500000D03*
D20*
X204000000Y-120500000D03*
D10*
X150500000Y-133000000D03*
D11*
X153000000Y-133000000D03*
X155500000Y-133000000D03*
D10*
X121500000Y-153000000D03*
D11*
X124000000Y-153000000D03*
X126500000Y-153000000D03*
D10*
X183000000Y-87500000D03*
D11*
X185500000Y-87500000D03*
X188000000Y-87500000D03*
X190500000Y-87500000D03*
D10*
X150500000Y-143000000D03*
D11*
X153000000Y-143000000D03*
X155500000Y-143000000D03*
D10*
X165000000Y-133000000D03*
D11*
X167500000Y-133000000D03*
X170000000Y-133000000D03*
X172500000Y-133000000D03*
D10*
X121500000Y-143000000D03*
D11*
X124000000Y-143000000D03*
X126500000Y-143000000D03*
D10*
X183000000Y-76500000D03*
D11*
X185500000Y-76500000D03*
X188000000Y-76500000D03*
X190500000Y-76500000D03*
D10*
X150500000Y-163000000D03*
D11*
X153000000Y-163000000D03*
X155500000Y-163000000D03*
D10*
X183000000Y-65500000D03*
D11*
X185500000Y-65500000D03*
X188000000Y-65500000D03*
X190500000Y-65500000D03*
D10*
X183000000Y-120500000D03*
D11*
X185500000Y-120500000D03*
X188000000Y-120500000D03*
X190500000Y-120500000D03*
D10*
X165000000Y-143000000D03*
D11*
X167500000Y-143000000D03*
X170000000Y-143000000D03*
X172500000Y-143000000D03*
D10*
X107500000Y-143000000D03*
D11*
X110000000Y-143000000D03*
X112500000Y-143000000D03*
D10*
X185500000Y-152500000D03*
D11*
X188000000Y-152500000D03*
X190500000Y-152500000D03*
X193000000Y-152500000D03*
X195500000Y-152500000D03*
D10*
X136000000Y-133000000D03*
D11*
X138500000Y-133000000D03*
X141000000Y-133000000D03*
D10*
X136000000Y-143000000D03*
D11*
X138500000Y-143000000D03*
X141000000Y-143000000D03*
D10*
X121500000Y-133000000D03*
D11*
X124000000Y-133000000D03*
X126500000Y-133000000D03*
D10*
X107500000Y-163000000D03*
D11*
X110000000Y-163000000D03*
X112500000Y-163000000D03*
D10*
X183000000Y-98500000D03*
D11*
X185500000Y-98500000D03*
X188000000Y-98500000D03*
X190500000Y-98500000D03*
M02*
